%TF.GenerationSoftware,KiCad,Pcbnew,(5.1.9)-1*%
%TF.CreationDate,2021-09-07T18:55:49-04:00*%
%TF.ProjectId,Heater,48656174-6572-42e6-9b69-6361645f7063,rev?*%
%TF.SameCoordinates,Original*%
%TF.FileFunction,Legend,Top*%
%TF.FilePolarity,Positive*%
%FSLAX46Y46*%
G04 Gerber Fmt 4.6, Leading zero omitted, Abs format (unit mm)*
G04 Created by KiCad (PCBNEW (5.1.9)-1) date 2021-09-07 18:55:49*
%MOMM*%
%LPD*%
G01*
G04 APERTURE LIST*
%ADD10C,0.150000*%
%ADD11C,0.300000*%
%ADD12C,0.500000*%
%ADD13C,0.450000*%
G04 APERTURE END LIST*
D10*
X47355952Y-12517380D02*
X47355952Y-11517380D01*
X48260714Y-12517380D02*
X48260714Y-11517380D01*
X48260714Y-12469761D02*
X48165476Y-12517380D01*
X47975000Y-12517380D01*
X47879761Y-12469761D01*
X47832142Y-12422142D01*
X47784523Y-12326904D01*
X47784523Y-12041190D01*
X47832142Y-11945952D01*
X47879761Y-11898333D01*
X47975000Y-11850714D01*
X48165476Y-11850714D01*
X48260714Y-11898333D01*
X49117857Y-12469761D02*
X49022619Y-12517380D01*
X48832142Y-12517380D01*
X48736904Y-12469761D01*
X48689285Y-12374523D01*
X48689285Y-11993571D01*
X48736904Y-11898333D01*
X48832142Y-11850714D01*
X49022619Y-11850714D01*
X49117857Y-11898333D01*
X49165476Y-11993571D01*
X49165476Y-12088809D01*
X48689285Y-12184047D01*
X50022619Y-12517380D02*
X50022619Y-11993571D01*
X49975000Y-11898333D01*
X49879761Y-11850714D01*
X49689285Y-11850714D01*
X49594047Y-11898333D01*
X50022619Y-12469761D02*
X49927380Y-12517380D01*
X49689285Y-12517380D01*
X49594047Y-12469761D01*
X49546428Y-12374523D01*
X49546428Y-12279285D01*
X49594047Y-12184047D01*
X49689285Y-12136428D01*
X49927380Y-12136428D01*
X50022619Y-12088809D01*
X50641666Y-12517380D02*
X50546428Y-12469761D01*
X50498809Y-12374523D01*
X50498809Y-11517380D01*
X51927380Y-11945952D02*
X51832142Y-11898333D01*
X51784523Y-11850714D01*
X51736904Y-11755476D01*
X51736904Y-11707857D01*
X51784523Y-11612619D01*
X51832142Y-11565000D01*
X51927380Y-11517380D01*
X52117857Y-11517380D01*
X52213095Y-11565000D01*
X52260714Y-11612619D01*
X52308333Y-11707857D01*
X52308333Y-11755476D01*
X52260714Y-11850714D01*
X52213095Y-11898333D01*
X52117857Y-11945952D01*
X51927380Y-11945952D01*
X51832142Y-11993571D01*
X51784523Y-12041190D01*
X51736904Y-12136428D01*
X51736904Y-12326904D01*
X51784523Y-12422142D01*
X51832142Y-12469761D01*
X51927380Y-12517380D01*
X52117857Y-12517380D01*
X52213095Y-12469761D01*
X52260714Y-12422142D01*
X52308333Y-12326904D01*
X52308333Y-12136428D01*
X52260714Y-12041190D01*
X52213095Y-11993571D01*
X52117857Y-11945952D01*
X52736904Y-12422142D02*
X52784523Y-12469761D01*
X52736904Y-12517380D01*
X52689285Y-12469761D01*
X52736904Y-12422142D01*
X52736904Y-12517380D01*
X53736904Y-12517380D02*
X53165476Y-12517380D01*
X53451190Y-12517380D02*
X53451190Y-11517380D01*
X53355952Y-11660238D01*
X53260714Y-11755476D01*
X53165476Y-11803095D01*
X54736904Y-12517380D02*
X54403571Y-12041190D01*
X54165476Y-12517380D02*
X54165476Y-11517380D01*
X54546428Y-11517380D01*
X54641666Y-11565000D01*
X54689285Y-11612619D01*
X54736904Y-11707857D01*
X54736904Y-11850714D01*
X54689285Y-11945952D01*
X54641666Y-11993571D01*
X54546428Y-12041190D01*
X54165476Y-12041190D01*
X56355952Y-12517380D02*
X56355952Y-11993571D01*
X56308333Y-11898333D01*
X56213095Y-11850714D01*
X56022619Y-11850714D01*
X55927380Y-11898333D01*
X56355952Y-12469761D02*
X56260714Y-12517380D01*
X56022619Y-12517380D01*
X55927380Y-12469761D01*
X55879761Y-12374523D01*
X55879761Y-12279285D01*
X55927380Y-12184047D01*
X56022619Y-12136428D01*
X56260714Y-12136428D01*
X56355952Y-12088809D01*
X56689285Y-11850714D02*
X57070238Y-11850714D01*
X56832142Y-11517380D02*
X56832142Y-12374523D01*
X56879761Y-12469761D01*
X56975000Y-12517380D01*
X57070238Y-12517380D01*
X58117857Y-11612619D02*
X58165476Y-11565000D01*
X58260714Y-11517380D01*
X58498809Y-11517380D01*
X58594047Y-11565000D01*
X58641666Y-11612619D01*
X58689285Y-11707857D01*
X58689285Y-11803095D01*
X58641666Y-11945952D01*
X58070238Y-12517380D01*
X58689285Y-12517380D01*
X59594047Y-11517380D02*
X59117857Y-11517380D01*
X59070238Y-11993571D01*
X59117857Y-11945952D01*
X59213095Y-11898333D01*
X59451190Y-11898333D01*
X59546428Y-11945952D01*
X59594047Y-11993571D01*
X59641666Y-12088809D01*
X59641666Y-12326904D01*
X59594047Y-12422142D01*
X59546428Y-12469761D01*
X59451190Y-12517380D01*
X59213095Y-12517380D01*
X59117857Y-12469761D01*
X59070238Y-12422142D01*
X60641666Y-12422142D02*
X60594047Y-12469761D01*
X60451190Y-12517380D01*
X60355952Y-12517380D01*
X60213095Y-12469761D01*
X60117857Y-12374523D01*
X60070238Y-12279285D01*
X60022619Y-12088809D01*
X60022619Y-11945952D01*
X60070238Y-11755476D01*
X60117857Y-11660238D01*
X60213095Y-11565000D01*
X60355952Y-11517380D01*
X60451190Y-11517380D01*
X60594047Y-11565000D01*
X60641666Y-11612619D01*
X193842619Y-25852380D02*
X193842619Y-24852380D01*
X194080714Y-24852380D01*
X194223571Y-24900000D01*
X194318809Y-24995238D01*
X194366428Y-25090476D01*
X194414047Y-25280952D01*
X194414047Y-25423809D01*
X194366428Y-25614285D01*
X194318809Y-25709523D01*
X194223571Y-25804761D01*
X194080714Y-25852380D01*
X193842619Y-25852380D01*
X195223571Y-25804761D02*
X195128333Y-25852380D01*
X194937857Y-25852380D01*
X194842619Y-25804761D01*
X194795000Y-25709523D01*
X194795000Y-25328571D01*
X194842619Y-25233333D01*
X194937857Y-25185714D01*
X195128333Y-25185714D01*
X195223571Y-25233333D01*
X195271190Y-25328571D01*
X195271190Y-25423809D01*
X194795000Y-25519047D01*
X195652142Y-25804761D02*
X195747380Y-25852380D01*
X195937857Y-25852380D01*
X196033095Y-25804761D01*
X196080714Y-25709523D01*
X196080714Y-25661904D01*
X196033095Y-25566666D01*
X195937857Y-25519047D01*
X195795000Y-25519047D01*
X195699761Y-25471428D01*
X195652142Y-25376190D01*
X195652142Y-25328571D01*
X195699761Y-25233333D01*
X195795000Y-25185714D01*
X195937857Y-25185714D01*
X196033095Y-25233333D01*
X196509285Y-25852380D02*
X196509285Y-25185714D01*
X196509285Y-24852380D02*
X196461666Y-24900000D01*
X196509285Y-24947619D01*
X196556904Y-24900000D01*
X196509285Y-24852380D01*
X196509285Y-24947619D01*
X197414047Y-25185714D02*
X197414047Y-25995238D01*
X197366428Y-26090476D01*
X197318809Y-26138095D01*
X197223571Y-26185714D01*
X197080714Y-26185714D01*
X196985476Y-26138095D01*
X197414047Y-25804761D02*
X197318809Y-25852380D01*
X197128333Y-25852380D01*
X197033095Y-25804761D01*
X196985476Y-25757142D01*
X196937857Y-25661904D01*
X196937857Y-25376190D01*
X196985476Y-25280952D01*
X197033095Y-25233333D01*
X197128333Y-25185714D01*
X197318809Y-25185714D01*
X197414047Y-25233333D01*
X197890238Y-25185714D02*
X197890238Y-25852380D01*
X197890238Y-25280952D02*
X197937857Y-25233333D01*
X198033095Y-25185714D01*
X198175952Y-25185714D01*
X198271190Y-25233333D01*
X198318809Y-25328571D01*
X198318809Y-25852380D01*
X199175952Y-25804761D02*
X199080714Y-25852380D01*
X198890238Y-25852380D01*
X198795000Y-25804761D01*
X198747380Y-25709523D01*
X198747380Y-25328571D01*
X198795000Y-25233333D01*
X198890238Y-25185714D01*
X199080714Y-25185714D01*
X199175952Y-25233333D01*
X199223571Y-25328571D01*
X199223571Y-25423809D01*
X198747380Y-25519047D01*
X200080714Y-25852380D02*
X200080714Y-24852380D01*
X200080714Y-25804761D02*
X199985476Y-25852380D01*
X199795000Y-25852380D01*
X199699761Y-25804761D01*
X199652142Y-25757142D01*
X199604523Y-25661904D01*
X199604523Y-25376190D01*
X199652142Y-25280952D01*
X199699761Y-25233333D01*
X199795000Y-25185714D01*
X199985476Y-25185714D01*
X200080714Y-25233333D01*
X201318809Y-25852380D02*
X201318809Y-24852380D01*
X201318809Y-25233333D02*
X201414047Y-25185714D01*
X201604523Y-25185714D01*
X201699761Y-25233333D01*
X201747380Y-25280952D01*
X201795000Y-25376190D01*
X201795000Y-25661904D01*
X201747380Y-25757142D01*
X201699761Y-25804761D01*
X201604523Y-25852380D01*
X201414047Y-25852380D01*
X201318809Y-25804761D01*
X202128333Y-25185714D02*
X202366428Y-25852380D01*
X202604523Y-25185714D02*
X202366428Y-25852380D01*
X202271190Y-26090476D01*
X202223571Y-26138095D01*
X202128333Y-26185714D01*
X203699761Y-25566666D02*
X204175952Y-25566666D01*
X203604523Y-25852380D02*
X203937857Y-24852380D01*
X204271190Y-25852380D01*
X204747380Y-25852380D02*
X204652142Y-25804761D01*
X204604523Y-25709523D01*
X204604523Y-24852380D01*
X205556904Y-25852380D02*
X205556904Y-25328571D01*
X205509285Y-25233333D01*
X205414047Y-25185714D01*
X205223571Y-25185714D01*
X205128333Y-25233333D01*
X205556904Y-25804761D02*
X205461666Y-25852380D01*
X205223571Y-25852380D01*
X205128333Y-25804761D01*
X205080714Y-25709523D01*
X205080714Y-25614285D01*
X205128333Y-25519047D01*
X205223571Y-25471428D01*
X205461666Y-25471428D01*
X205556904Y-25423809D01*
X206033095Y-25185714D02*
X206033095Y-25852380D01*
X206033095Y-25280952D02*
X206080714Y-25233333D01*
X206175952Y-25185714D01*
X206318809Y-25185714D01*
X206414047Y-25233333D01*
X206461666Y-25328571D01*
X206461666Y-25852380D01*
X207699761Y-25852380D02*
X207699761Y-24852380D01*
X207699761Y-25328571D02*
X208271190Y-25328571D01*
X208271190Y-25852380D02*
X208271190Y-24852380D01*
X208747380Y-25757142D02*
X208795000Y-25804761D01*
X208747380Y-25852380D01*
X208699761Y-25804761D01*
X208747380Y-25757142D01*
X208747380Y-25852380D01*
D11*
X192722857Y-21796428D02*
X193199047Y-23129761D01*
X193675238Y-21796428D01*
X194818095Y-21129761D02*
X195008571Y-21129761D01*
X195199047Y-21225000D01*
X195294285Y-21320238D01*
X195389523Y-21510714D01*
X195484761Y-21891666D01*
X195484761Y-22367857D01*
X195389523Y-22748809D01*
X195294285Y-22939285D01*
X195199047Y-23034523D01*
X195008571Y-23129761D01*
X194818095Y-23129761D01*
X194627619Y-23034523D01*
X194532380Y-22939285D01*
X194437142Y-22748809D01*
X194341904Y-22367857D01*
X194341904Y-21891666D01*
X194437142Y-21510714D01*
X194532380Y-21320238D01*
X194627619Y-21225000D01*
X194818095Y-21129761D01*
X196341904Y-22939285D02*
X196437142Y-23034523D01*
X196341904Y-23129761D01*
X196246666Y-23034523D01*
X196341904Y-22939285D01*
X196341904Y-23129761D01*
X197199047Y-21320238D02*
X197294285Y-21225000D01*
X197484761Y-21129761D01*
X197960952Y-21129761D01*
X198151428Y-21225000D01*
X198246666Y-21320238D01*
X198341904Y-21510714D01*
X198341904Y-21701190D01*
X198246666Y-21986904D01*
X197103809Y-23129761D01*
X198341904Y-23129761D01*
D12*
X147676815Y-18771904D02*
X148301815Y-13771904D01*
X150206577Y-13771904D01*
X150653005Y-14010000D01*
X150861339Y-14248095D01*
X151039910Y-14724285D01*
X150950625Y-15438571D01*
X150653005Y-15914761D01*
X150385148Y-16152857D01*
X149879196Y-16390952D01*
X147974434Y-16390952D01*
X155593482Y-18295714D02*
X155325625Y-18533809D01*
X154581577Y-18771904D01*
X154105386Y-18771904D01*
X153420863Y-18533809D01*
X153004196Y-18057619D01*
X152825625Y-17581428D01*
X152706577Y-16629047D01*
X152795863Y-15914761D01*
X153153005Y-14962380D01*
X153450625Y-14486190D01*
X153986339Y-14010000D01*
X154730386Y-13771904D01*
X155206577Y-13771904D01*
X155891101Y-14010000D01*
X156099434Y-14248095D01*
X159670863Y-16152857D02*
X160355386Y-16390952D01*
X160563720Y-16629047D01*
X160742291Y-17105238D01*
X160653005Y-17819523D01*
X160355386Y-18295714D01*
X160087529Y-18533809D01*
X159581577Y-18771904D01*
X157676815Y-18771904D01*
X158301815Y-13771904D01*
X159968482Y-13771904D01*
X160414910Y-14010000D01*
X160623244Y-14248095D01*
X160801815Y-14724285D01*
X160742291Y-15200476D01*
X160444672Y-15676666D01*
X160176815Y-15914761D01*
X159670863Y-16152857D01*
X158004196Y-16152857D01*
X166486339Y-18771904D02*
X167111339Y-13771904D01*
X166813720Y-16152857D02*
X169670863Y-16152857D01*
X169343482Y-18771904D02*
X169968482Y-13771904D01*
X172438720Y-18771904D02*
X171992291Y-18533809D01*
X171783958Y-18295714D01*
X171605386Y-17819523D01*
X171783958Y-16390952D01*
X172081577Y-15914761D01*
X172349434Y-15676666D01*
X172855386Y-15438571D01*
X173569672Y-15438571D01*
X174016101Y-15676666D01*
X174224434Y-15914761D01*
X174403005Y-16390952D01*
X174224434Y-17819523D01*
X173926815Y-18295714D01*
X173658958Y-18533809D01*
X173153005Y-18771904D01*
X172438720Y-18771904D01*
X175950625Y-15438571D02*
X177855386Y-15438571D01*
X176873244Y-13771904D02*
X176337529Y-18057619D01*
X176516101Y-18533809D01*
X176962529Y-18771904D01*
X177438720Y-18771904D01*
X179522053Y-15438571D02*
X178897053Y-20438571D01*
X179492291Y-15676666D02*
X179998244Y-15438571D01*
X180950625Y-15438571D01*
X181397053Y-15676666D01*
X181605386Y-15914761D01*
X181783958Y-16390952D01*
X181605386Y-17819523D01*
X181307767Y-18295714D01*
X181039910Y-18533809D01*
X180533958Y-18771904D01*
X179581577Y-18771904D01*
X179135148Y-18533809D01*
X184343482Y-18771904D02*
X183897053Y-18533809D01*
X183718482Y-18057619D01*
X184254196Y-13771904D01*
X188391101Y-18771904D02*
X188718482Y-16152857D01*
X188539910Y-15676666D01*
X188093482Y-15438571D01*
X187141101Y-15438571D01*
X186635148Y-15676666D01*
X188420863Y-18533809D02*
X187914910Y-18771904D01*
X186724434Y-18771904D01*
X186278005Y-18533809D01*
X186099434Y-18057619D01*
X186158958Y-17581428D01*
X186456577Y-17105238D01*
X186962529Y-16867142D01*
X188153005Y-16867142D01*
X188658958Y-16629047D01*
X190474434Y-15438571D02*
X192379196Y-15438571D01*
X191397053Y-13771904D02*
X190861339Y-18057619D01*
X191039910Y-18533809D01*
X191486339Y-18771904D01*
X191962529Y-18771904D01*
X195563720Y-18533809D02*
X195057767Y-18771904D01*
X194105386Y-18771904D01*
X193658958Y-18533809D01*
X193480386Y-18057619D01*
X193718482Y-16152857D01*
X194016101Y-15676666D01*
X194522053Y-15438571D01*
X195474434Y-15438571D01*
X195920863Y-15676666D01*
X196099434Y-16152857D01*
X196039910Y-16629047D01*
X193599434Y-17105238D01*
D13*
X38460238Y-206731904D02*
X38460238Y-201731904D01*
X38460238Y-204112857D02*
X41317380Y-204112857D01*
X41317380Y-206731904D02*
X41317380Y-201731904D01*
X44650714Y-201731904D02*
X45603095Y-201731904D01*
X46079285Y-201970000D01*
X46555476Y-202446190D01*
X46793571Y-203398571D01*
X46793571Y-205065238D01*
X46555476Y-206017619D01*
X46079285Y-206493809D01*
X45603095Y-206731904D01*
X44650714Y-206731904D01*
X44174523Y-206493809D01*
X43698333Y-206017619D01*
X43460238Y-205065238D01*
X43460238Y-203398571D01*
X43698333Y-202446190D01*
X44174523Y-201970000D01*
X44650714Y-201731904D01*
X48222142Y-201731904D02*
X51079285Y-201731904D01*
X49650714Y-206731904D02*
X49650714Y-201731904D01*
X56317380Y-206493809D02*
X57031666Y-206731904D01*
X58222142Y-206731904D01*
X58698333Y-206493809D01*
X58936428Y-206255714D01*
X59174523Y-205779523D01*
X59174523Y-205303333D01*
X58936428Y-204827142D01*
X58698333Y-204589047D01*
X58222142Y-204350952D01*
X57269761Y-204112857D01*
X56793571Y-203874761D01*
X56555476Y-203636666D01*
X56317380Y-203160476D01*
X56317380Y-202684285D01*
X56555476Y-202208095D01*
X56793571Y-201970000D01*
X57269761Y-201731904D01*
X58460238Y-201731904D01*
X59174523Y-201970000D01*
X61317380Y-201731904D02*
X61317380Y-205779523D01*
X61555476Y-206255714D01*
X61793571Y-206493809D01*
X62269761Y-206731904D01*
X63222142Y-206731904D01*
X63698333Y-206493809D01*
X63936428Y-206255714D01*
X64174523Y-205779523D01*
X64174523Y-201731904D01*
X69412619Y-206731904D02*
X67745952Y-204350952D01*
X66555476Y-206731904D02*
X66555476Y-201731904D01*
X68460238Y-201731904D01*
X68936428Y-201970000D01*
X69174523Y-202208095D01*
X69412619Y-202684285D01*
X69412619Y-203398571D01*
X69174523Y-203874761D01*
X68936428Y-204112857D01*
X68460238Y-204350952D01*
X66555476Y-204350952D01*
X73222142Y-204112857D02*
X71555476Y-204112857D01*
X71555476Y-206731904D02*
X71555476Y-201731904D01*
X73936428Y-201731904D01*
X75603095Y-205303333D02*
X77984047Y-205303333D01*
X75126904Y-206731904D02*
X76793571Y-201731904D01*
X78460238Y-206731904D01*
X82984047Y-206255714D02*
X82745952Y-206493809D01*
X82031666Y-206731904D01*
X81555476Y-206731904D01*
X80841190Y-206493809D01*
X80365000Y-206017619D01*
X80126904Y-205541428D01*
X79888809Y-204589047D01*
X79888809Y-203874761D01*
X80126904Y-202922380D01*
X80365000Y-202446190D01*
X80841190Y-201970000D01*
X81555476Y-201731904D01*
X82031666Y-201731904D01*
X82745952Y-201970000D01*
X82984047Y-202208095D01*
X85126904Y-204112857D02*
X86793571Y-204112857D01*
X87507857Y-206731904D02*
X85126904Y-206731904D01*
X85126904Y-201731904D01*
X87507857Y-201731904D01*
M02*
