M48
; DRILL file {KiCad (5.1.9)-1} date 09/19/21 13:22:02
; FORMAT={-:-/ absolute / inch / decimal}
; #@! TF.CreationDate,2021-09-19T13:22:02-04:00
; #@! TF.GenerationSoftware,Kicad,Pcbnew,(5.1.9)-1
; #@! TF.FileFunction,NonPlated,1,2,NPTH
FMAT,2
INCH
T1C0.0827
T2C0.1260
%
G90
G05
T1
X0.825Y-1.475
X0.825Y-1.775
X0.825Y-2.075
X0.825Y-2.375
X0.825Y-2.675
X0.825Y-2.975
X0.825Y-3.275
X0.825Y-3.575
X0.825Y-3.875
X0.825Y-4.175
X0.825Y-4.475
X0.825Y-4.775
X0.825Y-5.075
X0.825Y-5.375
X0.825Y-5.675
X0.825Y-5.975
X0.825Y-6.275
X0.825Y-6.575
X0.825Y-6.875
X0.825Y-7.175
X0.825Y-7.475
X0.825Y-7.775
X1.125Y-1.475
X1.125Y-1.775
X1.125Y-2.075
X1.125Y-2.375
X1.125Y-2.675
X1.125Y-2.975
X1.125Y-3.275
X1.125Y-3.575
X1.125Y-3.875
X1.125Y-4.175
X1.125Y-4.475
X1.125Y-4.775
X1.125Y-5.075
X1.125Y-5.375
X1.125Y-5.675
X1.125Y-5.975
X1.125Y-6.275
X1.125Y-6.575
X1.125Y-6.875
X1.125Y-7.175
X1.125Y-7.475
X1.125Y-7.775
X1.425Y-1.475
X1.425Y-1.775
X1.425Y-2.075
X1.425Y-2.375
X1.425Y-2.675
X1.425Y-2.975
X1.425Y-3.275
X1.425Y-3.575
X1.425Y-3.875
X1.425Y-4.175
X1.425Y-4.475
X1.425Y-4.775
X1.425Y-5.075
X1.425Y-5.375
X1.425Y-5.675
X1.425Y-5.975
X1.425Y-6.275
X1.425Y-6.575
X1.425Y-6.875
X1.425Y-7.175
X1.425Y-7.475
X1.425Y-7.775
X1.725Y-1.475
X1.725Y-1.775
X1.725Y-2.075
X1.725Y-2.375
X1.725Y-2.675
X1.725Y-2.975
X1.725Y-3.275
X1.725Y-3.575
X1.725Y-3.875
X1.725Y-4.175
X1.725Y-4.475
X1.725Y-4.775
X1.725Y-5.075
X1.725Y-5.375
X1.725Y-5.675
X1.725Y-5.975
X1.725Y-6.275
X1.725Y-6.575
X1.725Y-6.875
X1.725Y-7.175
X1.725Y-7.475
X1.725Y-7.775
X2.025Y-1.475
X2.025Y-1.775
X2.025Y-2.075
X2.025Y-2.375
X2.025Y-2.675
X2.025Y-2.975
X2.025Y-3.275
X2.025Y-3.575
X2.025Y-3.875
X2.025Y-4.175
X2.025Y-4.475
X2.025Y-4.775
X2.025Y-5.075
X2.025Y-5.375
X2.025Y-5.675
X2.025Y-5.975
X2.025Y-6.275
X2.025Y-6.575
X2.025Y-6.875
X2.025Y-7.175
X2.025Y-7.475
X2.025Y-7.775
X2.325Y-1.475
X2.325Y-1.775
X2.325Y-2.075
X2.325Y-2.375
X2.325Y-2.675
X2.325Y-2.975
X2.325Y-3.275
X2.325Y-3.575
X2.325Y-3.875
X2.325Y-4.175
X2.325Y-4.475
X2.325Y-4.775
X2.325Y-5.075
X2.325Y-5.375
X2.325Y-5.675
X2.325Y-5.975
X2.325Y-6.275
X2.325Y-6.575
X2.325Y-6.875
X2.325Y-7.175
X2.325Y-7.475
X2.325Y-7.775
X2.625Y-1.475
X2.625Y-1.775
X2.625Y-2.075
X2.625Y-2.375
X2.625Y-2.675
X2.625Y-2.975
X2.625Y-3.275
X2.625Y-3.575
X2.625Y-3.875
X2.625Y-4.175
X2.625Y-4.475
X2.625Y-4.775
X2.625Y-5.075
X2.625Y-5.375
X2.625Y-5.675
X2.625Y-5.975
X2.625Y-6.275
X2.625Y-6.575
X2.625Y-6.875
X2.625Y-7.175
X2.625Y-7.475
X2.625Y-7.775
X2.925Y-1.475
X2.925Y-1.775
X2.925Y-2.075
X2.925Y-2.375
X2.925Y-2.675
X2.925Y-2.975
X2.925Y-3.275
X2.925Y-3.575
X2.925Y-3.875
X2.925Y-4.175
X2.925Y-4.475
X2.925Y-4.775
X2.925Y-5.075
X2.925Y-5.375
X2.925Y-5.675
X2.925Y-5.975
X2.925Y-6.275
X2.925Y-6.575
X2.925Y-6.875
X2.925Y-7.175
X2.925Y-7.475
X2.925Y-7.775
X3.225Y-1.475
X3.225Y-1.775
X3.225Y-2.075
X3.225Y-2.375
X3.225Y-2.675
X3.225Y-2.975
X3.225Y-3.275
X3.225Y-3.575
X3.225Y-3.875
X3.225Y-4.175
X3.225Y-4.475
X3.225Y-4.775
X3.225Y-5.075
X3.225Y-5.375
X3.225Y-5.675
X3.225Y-5.975
X3.225Y-6.275
X3.225Y-6.575
X3.225Y-6.875
X3.225Y-7.175
X3.225Y-7.475
X3.225Y-7.775
X3.525Y-1.475
X3.525Y-1.775
X3.525Y-2.075
X3.525Y-2.375
X3.525Y-2.675
X3.525Y-2.975
X3.525Y-3.275
X3.525Y-3.575
X3.525Y-3.875
X3.525Y-4.175
X3.525Y-4.475
X3.525Y-4.775
X3.525Y-5.075
X3.525Y-5.375
X3.525Y-5.675
X3.525Y-5.975
X3.525Y-6.275
X3.525Y-6.575
X3.525Y-6.875
X3.525Y-7.175
X3.525Y-7.475
X3.525Y-7.775
X3.825Y-1.475
X3.825Y-1.775
X3.825Y-2.075
X3.825Y-2.375
X3.825Y-2.675
X3.825Y-2.975
X3.825Y-3.275
X3.825Y-3.575
X3.825Y-3.875
X3.825Y-4.175
X3.825Y-4.475
X3.825Y-4.775
X3.825Y-5.075
X3.825Y-5.375
X3.825Y-5.675
X3.825Y-5.975
X3.825Y-6.275
X3.825Y-6.575
X3.825Y-6.875
X3.825Y-7.175
X3.825Y-7.475
X3.825Y-7.775
X4.15Y-1.475
X4.15Y-1.775
X4.15Y-2.075
X4.15Y-2.375
X4.15Y-2.675
X4.15Y-2.975
X4.15Y-3.275
X4.15Y-3.575
X4.15Y-3.875
X4.15Y-4.775
X4.15Y-5.075
X4.15Y-5.375
X4.15Y-5.675
X4.15Y-5.975
X4.15Y-6.275
X4.15Y-6.575
X4.15Y-6.875
X4.15Y-7.175
X4.15Y-7.475
X4.15Y-7.775
X4.55Y-1.475
X4.55Y-1.775
X4.55Y-2.075
X4.55Y-2.375
X4.55Y-2.675
X4.55Y-2.975
X4.55Y-3.275
X4.55Y-3.575
X4.55Y-3.875
X4.55Y-4.775
X4.55Y-5.075
X4.55Y-5.375
X4.55Y-5.675
X4.55Y-5.975
X4.55Y-6.275
X4.55Y-6.575
X4.55Y-6.875
X4.55Y-7.175
X4.55Y-7.475
X4.55Y-7.775
X4.875Y-1.475
X4.875Y-1.775
X4.875Y-2.075
X4.875Y-2.375
X4.875Y-2.675
X4.875Y-2.975
X4.875Y-3.275
X4.875Y-3.575
X4.875Y-3.875
X4.875Y-4.175
X4.875Y-4.475
X4.875Y-4.775
X4.875Y-5.075
X4.875Y-5.375
X4.875Y-5.675
X4.875Y-5.975
X4.875Y-6.275
X4.875Y-6.575
X4.875Y-6.875
X4.875Y-7.175
X4.875Y-7.475
X4.875Y-7.775
X5.175Y-1.475
X5.175Y-1.775
X5.175Y-2.075
X5.175Y-2.375
X5.175Y-2.675
X5.175Y-2.975
X5.175Y-3.275
X5.175Y-3.575
X5.175Y-3.875
X5.175Y-4.175
X5.175Y-4.475
X5.175Y-4.775
X5.175Y-5.075
X5.175Y-5.375
X5.175Y-5.675
X5.175Y-5.975
X5.175Y-6.275
X5.175Y-6.575
X5.175Y-6.875
X5.175Y-7.175
X5.175Y-7.475
X5.175Y-7.775
X5.475Y-1.475
X5.475Y-1.775
X5.475Y-2.075
X5.475Y-2.375
X5.475Y-2.675
X5.475Y-2.975
X5.475Y-3.275
X5.475Y-3.575
X5.475Y-3.875
X5.475Y-4.175
X5.475Y-4.475
X5.475Y-4.775
X5.475Y-5.075
X5.475Y-5.375
X5.475Y-5.675
X5.475Y-5.975
X5.475Y-6.275
X5.475Y-6.575
X5.475Y-6.875
X5.475Y-7.175
X5.475Y-7.475
X5.475Y-7.775
X5.775Y-1.475
X5.775Y-1.775
X5.775Y-2.075
X5.775Y-2.375
X5.775Y-2.675
X5.775Y-2.975
X5.775Y-3.275
X5.775Y-3.575
X5.775Y-3.875
X5.775Y-4.175
X5.775Y-4.475
X5.775Y-4.775
X5.775Y-5.075
X5.775Y-5.375
X5.775Y-5.675
X5.775Y-5.975
X5.775Y-6.275
X5.775Y-6.575
X5.775Y-6.875
X5.775Y-7.175
X5.775Y-7.475
X5.775Y-7.775
X6.075Y-1.475
X6.075Y-1.775
X6.075Y-2.075
X6.075Y-2.375
X6.075Y-2.675
X6.075Y-2.975
X6.075Y-3.275
X6.075Y-3.575
X6.075Y-3.875
X6.075Y-4.175
X6.075Y-4.475
X6.075Y-4.775
X6.075Y-5.075
X6.075Y-5.375
X6.075Y-5.675
X6.075Y-5.975
X6.075Y-6.275
X6.075Y-6.575
X6.075Y-6.875
X6.075Y-7.175
X6.075Y-7.475
X6.075Y-7.775
X6.375Y-1.475
X6.375Y-1.775
X6.375Y-2.075
X6.375Y-2.375
X6.375Y-2.675
X6.375Y-2.975
X6.375Y-3.275
X6.375Y-3.575
X6.375Y-3.875
X6.375Y-4.175
X6.375Y-4.475
X6.375Y-4.775
X6.375Y-5.075
X6.375Y-5.375
X6.375Y-5.675
X6.375Y-5.975
X6.375Y-6.275
X6.375Y-6.575
X6.375Y-6.875
X6.375Y-7.175
X6.375Y-7.475
X6.375Y-7.775
X6.675Y-1.475
X6.675Y-1.775
X6.675Y-2.075
X6.675Y-2.375
X6.675Y-2.675
X6.675Y-2.975
X6.675Y-3.275
X6.675Y-3.575
X6.675Y-3.875
X6.675Y-4.175
X6.675Y-4.475
X6.675Y-4.775
X6.675Y-5.075
X6.675Y-5.375
X6.675Y-5.675
X6.675Y-5.975
X6.675Y-6.275
X6.675Y-6.575
X6.675Y-6.875
X6.675Y-7.175
X6.675Y-7.475
X6.675Y-7.775
X6.975Y-1.475
X6.975Y-1.775
X6.975Y-2.075
X6.975Y-2.375
X6.975Y-2.675
X6.975Y-2.975
X6.975Y-3.275
X6.975Y-3.575
X6.975Y-3.875
X6.975Y-4.175
X6.975Y-4.475
X6.975Y-4.775
X6.975Y-5.075
X6.975Y-5.375
X6.975Y-5.675
X6.975Y-5.975
X6.975Y-6.275
X6.975Y-6.575
X6.975Y-6.875
X6.975Y-7.175
X6.975Y-7.475
X6.975Y-7.775
X7.275Y-1.475
X7.275Y-1.775
X7.275Y-2.075
X7.275Y-2.375
X7.275Y-2.675
X7.275Y-2.975
X7.275Y-3.275
X7.275Y-3.575
X7.275Y-3.875
X7.275Y-4.175
X7.275Y-4.475
X7.275Y-4.775
X7.275Y-5.075
X7.275Y-5.375
X7.275Y-5.675
X7.275Y-5.975
X7.275Y-6.275
X7.275Y-6.575
X7.275Y-6.875
X7.275Y-7.175
X7.275Y-7.475
X7.275Y-7.775
X7.575Y-1.475
X7.575Y-1.775
X7.575Y-2.075
X7.575Y-2.375
X7.575Y-2.675
X7.575Y-2.975
X7.575Y-3.275
X7.575Y-3.575
X7.575Y-3.875
X7.575Y-4.175
X7.575Y-4.475
X7.575Y-4.775
X7.575Y-5.075
X7.575Y-5.375
X7.575Y-5.675
X7.575Y-5.975
X7.575Y-6.275
X7.575Y-6.575
X7.575Y-6.875
X7.575Y-7.175
X7.575Y-7.475
X7.575Y-7.775
X7.875Y-1.475
X7.875Y-1.775
X7.875Y-2.075
X7.875Y-2.375
X7.875Y-2.675
X7.875Y-2.975
X7.875Y-3.275
X7.875Y-3.575
X7.875Y-3.875
X7.875Y-4.175
X7.875Y-4.475
X7.875Y-4.775
X7.875Y-5.075
X7.875Y-5.375
X7.875Y-5.675
X7.875Y-5.975
X7.875Y-6.275
X7.875Y-6.575
X7.875Y-6.875
X7.875Y-7.175
X7.875Y-7.475
X7.875Y-7.775
T2
X0.5575Y-0.5575
X0.5575Y-4.337
X0.5575Y-8.1165
X4.337Y-0.5575
X4.337Y-4.337
X4.337Y-8.1165
X8.1165Y-0.5575
X8.1165Y-4.337
X8.1165Y-8.1165
T0
M30
