%TF.GenerationSoftware,KiCad,Pcbnew,(5.1.9)-1*%
%TF.CreationDate,2021-09-06T17:10:51-04:00*%
%TF.ProjectId,Heater,48656174-6572-42e6-9b69-6361645f7063,rev?*%
%TF.SameCoordinates,Original*%
%TF.FileFunction,Copper,L1,Top*%
%TF.FilePolarity,Positive*%
%FSLAX46Y46*%
G04 Gerber Fmt 4.6, Leading zero omitted, Abs format (unit mm)*
G04 Created by KiCad (PCBNEW (5.1.9)-1) date 2021-09-06 17:10:51*
%MOMM*%
%LPD*%
G01*
G04 APERTURE LIST*
%TA.AperFunction,ComponentPad*%
%ADD10R,6.000000X6.000000*%
%TD*%
%TA.AperFunction,Conductor*%
%ADD11C,1.270000*%
%TD*%
%TA.AperFunction,Conductor*%
%ADD12C,0.508000*%
%TD*%
%TA.AperFunction,NonConductor*%
%ADD13C,0.254000*%
%TD*%
%TA.AperFunction,NonConductor*%
%ADD14C,0.100000*%
%TD*%
G04 APERTURE END LIST*
D10*
%TO.P,J2,1*%
%TO.N,/+*%
X60325000Y-16510000D03*
%TD*%
%TO.P,J1,1*%
%TO.N,/+*%
X47625000Y-16510000D03*
%TD*%
D11*
%TO.N,/+*%
X19050000Y-21590000D02*
X19050000Y-30480000D01*
X24130000Y-16510000D02*
X19050000Y-21590000D01*
X47625000Y-16510000D02*
X24130000Y-16510000D01*
X196850000Y-25400000D02*
X201930000Y-30480000D01*
X98425000Y-25400000D02*
X196850000Y-25400000D01*
X89535000Y-16510000D02*
X98425000Y-25400000D01*
X60325000Y-16510000D02*
X89535000Y-16510000D01*
D12*
X19050000Y-201930000D02*
X19050000Y-30480000D01*
X20320000Y-203200000D02*
X19050000Y-201930000D01*
X21590000Y-203200000D02*
X20320000Y-203200000D01*
X22860000Y-201930000D02*
X21590000Y-203200000D01*
X22860000Y-33020000D02*
X22860000Y-201930000D01*
X24130000Y-31750000D02*
X22860000Y-33020000D01*
X25400000Y-31750000D02*
X24130000Y-31750000D01*
X26670000Y-33020000D02*
X25400000Y-31750000D01*
X26670000Y-201930000D02*
X26670000Y-33020000D01*
X27940000Y-203200000D02*
X26670000Y-201930000D01*
X29210000Y-203200000D02*
X27940000Y-203200000D01*
X30480000Y-201930000D02*
X29210000Y-203200000D01*
X30480000Y-33020000D02*
X30480000Y-201930000D01*
X31750000Y-31750000D02*
X30480000Y-33020000D01*
X33020000Y-31750000D02*
X31750000Y-31750000D01*
X34290000Y-33020000D02*
X33020000Y-31750000D01*
X34290000Y-201930000D02*
X34290000Y-33020000D01*
X35560000Y-203200000D02*
X34290000Y-201930000D01*
X36830000Y-203200000D02*
X35560000Y-203200000D01*
X38100000Y-201930000D02*
X36830000Y-203200000D01*
X38100000Y-33020000D02*
X38100000Y-201930000D01*
X39370000Y-31750000D02*
X38100000Y-33020000D01*
X40640000Y-31750000D02*
X39370000Y-31750000D01*
X41910000Y-33020000D02*
X40640000Y-31750000D01*
X41910000Y-201930000D02*
X41910000Y-33020000D01*
X43180000Y-203200000D02*
X41910000Y-201930000D01*
X44450000Y-203200000D02*
X43180000Y-203200000D01*
X45720000Y-201930000D02*
X44450000Y-203200000D01*
X45720000Y-33020000D02*
X45720000Y-201930000D01*
X46990000Y-31750000D02*
X45720000Y-33020000D01*
X48260000Y-31750000D02*
X46990000Y-31750000D01*
X49530000Y-33020000D02*
X48260000Y-31750000D01*
X49530000Y-201930000D02*
X49530000Y-33020000D01*
X50800000Y-203200000D02*
X49530000Y-201930000D01*
X52070000Y-203200000D02*
X50800000Y-203200000D01*
X53340000Y-201930000D02*
X52070000Y-203200000D01*
X53340000Y-33020000D02*
X53340000Y-201930000D01*
X54610000Y-31750000D02*
X53340000Y-33020000D01*
X55880000Y-31750000D02*
X54610000Y-31750000D01*
X57150000Y-33020000D02*
X55880000Y-31750000D01*
X57150000Y-201930000D02*
X57150000Y-33020000D01*
X58420000Y-203200000D02*
X57150000Y-201930000D01*
X59690000Y-203200000D02*
X58420000Y-203200000D01*
X60960000Y-201930000D02*
X59690000Y-203200000D01*
X60960000Y-33020000D02*
X60960000Y-201930000D01*
X62230000Y-31750000D02*
X60960000Y-33020000D01*
X63500000Y-31750000D02*
X62230000Y-31750000D01*
X64770000Y-33020000D02*
X63500000Y-31750000D01*
X64770000Y-201930000D02*
X64770000Y-33020000D01*
X66040000Y-203200000D02*
X64770000Y-201930000D01*
X67310000Y-203200000D02*
X66040000Y-203200000D01*
X68580000Y-201930000D02*
X67310000Y-203200000D01*
X68580000Y-33020000D02*
X68580000Y-201930000D01*
X69850000Y-31750000D02*
X68580000Y-33020000D01*
X71120000Y-31750000D02*
X69850000Y-31750000D01*
X72390000Y-33020000D02*
X71120000Y-31750000D01*
X72390000Y-201930000D02*
X72390000Y-33020000D01*
X73660000Y-203200000D02*
X72390000Y-201930000D01*
X74930000Y-203200000D02*
X73660000Y-203200000D01*
X76200000Y-201930000D02*
X74930000Y-203200000D01*
X76200000Y-33020000D02*
X76200000Y-201930000D01*
X77470000Y-31750000D02*
X76200000Y-33020000D01*
X78740000Y-31750000D02*
X77470000Y-31750000D01*
X80010000Y-33020000D02*
X78740000Y-31750000D01*
X80010000Y-201930000D02*
X80010000Y-33020000D01*
X81280000Y-203200000D02*
X80010000Y-201930000D01*
X82550000Y-203200000D02*
X81280000Y-203200000D01*
X83820000Y-201930000D02*
X82550000Y-203200000D01*
X83820000Y-33020000D02*
X83820000Y-201930000D01*
X85090000Y-31750000D02*
X83820000Y-33020000D01*
X152400000Y-33020000D02*
X151130000Y-31750000D01*
X152400000Y-201930000D02*
X152400000Y-33020000D01*
X153670000Y-203200000D02*
X152400000Y-201930000D01*
X154940000Y-203200000D02*
X153670000Y-203200000D01*
X156210000Y-201930000D02*
X154940000Y-203200000D01*
X156210000Y-33020000D02*
X156210000Y-201930000D01*
X157480000Y-31750000D02*
X156210000Y-33020000D01*
X158750000Y-31750000D02*
X157480000Y-31750000D01*
X160020000Y-33020000D02*
X158750000Y-31750000D01*
X160020000Y-201930000D02*
X160020000Y-33020000D01*
X161290000Y-203200000D02*
X160020000Y-201930000D01*
X162560000Y-203200000D02*
X161290000Y-203200000D01*
X163830000Y-201930000D02*
X162560000Y-203200000D01*
X163830000Y-33020000D02*
X163830000Y-201930000D01*
X147320000Y-203200000D02*
X146050000Y-203200000D01*
X116840000Y-203200000D02*
X114300000Y-203200000D01*
X165100000Y-31750000D02*
X163830000Y-33020000D01*
X166370000Y-31750000D02*
X165100000Y-31750000D01*
X167640000Y-33020000D02*
X166370000Y-31750000D01*
X167640000Y-201930000D02*
X167640000Y-33020000D01*
X168910000Y-203200000D02*
X167640000Y-201930000D01*
X170180000Y-203200000D02*
X168910000Y-203200000D01*
X171450000Y-201930000D02*
X170180000Y-203200000D01*
X171450000Y-33020000D02*
X171450000Y-201930000D01*
X172720000Y-31750000D02*
X171450000Y-33020000D01*
X173990000Y-31750000D02*
X172720000Y-31750000D01*
X190500000Y-201930000D02*
X190500000Y-33020000D01*
X193040000Y-203200000D02*
X191770000Y-203200000D01*
X148590000Y-33020000D02*
X148590000Y-201930000D01*
X128270000Y-31750000D02*
X127000000Y-31750000D01*
X194310000Y-201930000D02*
X193040000Y-203200000D01*
X194310000Y-33020000D02*
X194310000Y-201930000D01*
X149860000Y-31750000D02*
X148590000Y-33020000D01*
X93980000Y-31750000D02*
X92710000Y-31750000D01*
X195580000Y-31750000D02*
X194310000Y-33020000D01*
X182880000Y-33020000D02*
X181610000Y-31750000D01*
X196850000Y-31750000D02*
X195580000Y-31750000D01*
X199390000Y-203200000D02*
X198120000Y-201930000D01*
X198120000Y-33020000D02*
X196850000Y-31750000D01*
X198120000Y-201930000D02*
X198120000Y-33020000D01*
X191770000Y-203200000D02*
X190500000Y-201930000D01*
X182880000Y-201930000D02*
X182880000Y-33020000D01*
X107950000Y-201930000D02*
X106680000Y-203200000D01*
X200660000Y-203200000D02*
X199390000Y-203200000D01*
X184150000Y-203200000D02*
X182880000Y-201930000D01*
X175260000Y-33020000D02*
X173990000Y-31750000D01*
X201930000Y-201930000D02*
X200660000Y-203200000D01*
X179070000Y-33020000D02*
X179070000Y-201930000D01*
X201930000Y-30480000D02*
X201930000Y-201930000D01*
X190500000Y-33020000D02*
X189230000Y-31750000D01*
X189230000Y-31750000D02*
X187960000Y-31750000D01*
X187960000Y-31750000D02*
X186690000Y-33020000D01*
X186690000Y-33020000D02*
X186690000Y-201930000D01*
X186690000Y-201930000D02*
X185420000Y-203200000D01*
X185420000Y-203200000D02*
X184150000Y-203200000D01*
X179070000Y-201930000D02*
X177800000Y-203200000D01*
X148590000Y-201930000D02*
X147320000Y-203200000D01*
X133350000Y-33020000D02*
X133350000Y-201930000D01*
X181610000Y-31750000D02*
X180340000Y-31750000D01*
X151130000Y-31750000D02*
X149860000Y-31750000D01*
X180340000Y-31750000D02*
X179070000Y-33020000D01*
X177800000Y-203200000D02*
X176530000Y-203200000D01*
X176530000Y-203200000D02*
X175260000Y-201930000D01*
X175260000Y-201930000D02*
X175260000Y-33020000D01*
X146050000Y-203200000D02*
X144780000Y-201930000D01*
X90170000Y-203200000D02*
X88900000Y-203200000D01*
X144780000Y-201930000D02*
X144780000Y-33020000D01*
X114300000Y-113030000D02*
X114300000Y-107950000D01*
X144780000Y-33020000D02*
X143510000Y-31750000D01*
X111760000Y-31750000D02*
X109220000Y-31750000D01*
X143510000Y-31750000D02*
X142240000Y-31750000D01*
X107950000Y-114300000D02*
X107950000Y-201930000D01*
X142240000Y-31750000D02*
X140970000Y-33020000D01*
X99060000Y-201930000D02*
X97790000Y-203200000D01*
X140970000Y-33020000D02*
X140970000Y-201930000D01*
X95250000Y-33020000D02*
X93980000Y-31750000D01*
X140970000Y-201930000D02*
X139700000Y-203200000D01*
X109220000Y-31750000D02*
X107950000Y-33020000D01*
X139700000Y-203200000D02*
X138430000Y-203200000D01*
X102870000Y-201930000D02*
X102870000Y-33020000D01*
X138430000Y-203200000D02*
X137160000Y-201930000D01*
X120650000Y-31750000D02*
X119380000Y-31750000D01*
X137160000Y-201930000D02*
X137160000Y-33020000D01*
X88900000Y-203200000D02*
X87630000Y-201930000D01*
X137160000Y-33020000D02*
X135890000Y-31750000D01*
X87630000Y-201930000D02*
X87630000Y-33020000D01*
X135890000Y-31750000D02*
X134620000Y-31750000D01*
X107950000Y-106680000D02*
X106680000Y-107950000D01*
X134620000Y-31750000D02*
X133350000Y-33020000D01*
X102870000Y-33020000D02*
X101600000Y-31750000D01*
X133350000Y-201930000D02*
X132080000Y-203200000D01*
X132080000Y-203200000D02*
X130810000Y-203200000D01*
X130810000Y-203200000D02*
X129540000Y-201930000D01*
X129540000Y-201930000D02*
X129540000Y-33020000D01*
X129540000Y-33020000D02*
X128270000Y-31750000D01*
X127000000Y-31750000D02*
X125730000Y-33020000D01*
X125730000Y-33020000D02*
X125730000Y-201930000D01*
X125730000Y-201930000D02*
X124460000Y-203200000D01*
X124460000Y-203200000D02*
X123190000Y-203200000D01*
X123190000Y-203200000D02*
X121920000Y-201930000D01*
X121920000Y-201930000D02*
X121920000Y-33020000D01*
X121920000Y-33020000D02*
X120650000Y-31750000D01*
X119380000Y-31750000D02*
X118110000Y-33020000D01*
X118110000Y-33020000D02*
X118110000Y-201930000D01*
X118110000Y-201930000D02*
X116840000Y-203200000D01*
X114300000Y-203200000D02*
X113030000Y-201930000D01*
X113030000Y-201930000D02*
X113030000Y-114300000D01*
X113030000Y-114300000D02*
X114300000Y-113030000D01*
X114300000Y-107950000D02*
X113030000Y-106680000D01*
X113030000Y-106680000D02*
X113030000Y-33020000D01*
X113030000Y-33020000D02*
X111760000Y-31750000D01*
X107950000Y-33020000D02*
X107950000Y-106680000D01*
X106680000Y-107950000D02*
X106680000Y-113030000D01*
X106680000Y-113030000D02*
X107950000Y-114300000D01*
X106680000Y-203200000D02*
X104140000Y-203200000D01*
X104140000Y-203200000D02*
X102870000Y-201930000D01*
X101600000Y-31750000D02*
X100330000Y-31750000D01*
X100330000Y-31750000D02*
X99060000Y-33020000D01*
X99060000Y-33020000D02*
X99060000Y-201930000D01*
X97790000Y-203200000D02*
X96520000Y-203200000D01*
X96520000Y-203200000D02*
X95250000Y-201930000D01*
X95250000Y-201930000D02*
X95250000Y-33020000D01*
X92710000Y-31750000D02*
X91440000Y-33020000D01*
X91440000Y-33020000D02*
X91440000Y-201930000D01*
X91440000Y-201930000D02*
X90170000Y-203200000D01*
X87630000Y-33020000D02*
X86360000Y-31750000D01*
X86360000Y-31750000D02*
X85090000Y-31750000D01*
%TD*%
D13*
X206758556Y-11137072D02*
X207334315Y-11310904D01*
X207865341Y-11593256D01*
X208331414Y-11973376D01*
X208714775Y-12436780D01*
X209000831Y-12965829D01*
X209178676Y-13540356D01*
X209246001Y-14180909D01*
X209246000Y-206115296D01*
X209182928Y-206758556D01*
X209009097Y-207334311D01*
X208726744Y-207865340D01*
X208346624Y-208331414D01*
X207883222Y-208714774D01*
X207354170Y-209000831D01*
X206779648Y-209178675D01*
X206139100Y-209246000D01*
X14204704Y-209246000D01*
X13561444Y-209182928D01*
X12985689Y-209009097D01*
X12454660Y-208726744D01*
X11988586Y-208346624D01*
X11605226Y-207883222D01*
X11319169Y-207354170D01*
X11141325Y-206779648D01*
X11074000Y-206139100D01*
X11074000Y-205914855D01*
X11671000Y-205914855D01*
X11671000Y-206405145D01*
X11766651Y-206886014D01*
X11954277Y-207338984D01*
X12226668Y-207746645D01*
X12573355Y-208093332D01*
X12981016Y-208365723D01*
X13433986Y-208553349D01*
X13914855Y-208649000D01*
X14405145Y-208649000D01*
X14886014Y-208553349D01*
X15338984Y-208365723D01*
X15746645Y-208093332D01*
X16093332Y-207746645D01*
X16365723Y-207338984D01*
X16553349Y-206886014D01*
X16649000Y-206405145D01*
X16649000Y-205914855D01*
X107671000Y-205914855D01*
X107671000Y-206405145D01*
X107766651Y-206886014D01*
X107954277Y-207338984D01*
X108226668Y-207746645D01*
X108573355Y-208093332D01*
X108981016Y-208365723D01*
X109433986Y-208553349D01*
X109914855Y-208649000D01*
X110405145Y-208649000D01*
X110886014Y-208553349D01*
X111338984Y-208365723D01*
X111746645Y-208093332D01*
X112093332Y-207746645D01*
X112365723Y-207338984D01*
X112553349Y-206886014D01*
X112649000Y-206405145D01*
X112649000Y-205914855D01*
X203671000Y-205914855D01*
X203671000Y-206405145D01*
X203766651Y-206886014D01*
X203954277Y-207338984D01*
X204226668Y-207746645D01*
X204573355Y-208093332D01*
X204981016Y-208365723D01*
X205433986Y-208553349D01*
X205914855Y-208649000D01*
X206405145Y-208649000D01*
X206886014Y-208553349D01*
X207338984Y-208365723D01*
X207746645Y-208093332D01*
X208093332Y-207746645D01*
X208365723Y-207338984D01*
X208553349Y-206886014D01*
X208649000Y-206405145D01*
X208649000Y-205914855D01*
X208553349Y-205433986D01*
X208365723Y-204981016D01*
X208093332Y-204573355D01*
X207746645Y-204226668D01*
X207338984Y-203954277D01*
X206886014Y-203766651D01*
X206405145Y-203671000D01*
X205914855Y-203671000D01*
X205433986Y-203766651D01*
X204981016Y-203954277D01*
X204573355Y-204226668D01*
X204226668Y-204573355D01*
X203954277Y-204981016D01*
X203766651Y-205433986D01*
X203671000Y-205914855D01*
X112649000Y-205914855D01*
X112553349Y-205433986D01*
X112365723Y-204981016D01*
X112093332Y-204573355D01*
X111746645Y-204226668D01*
X111338984Y-203954277D01*
X110886014Y-203766651D01*
X110405145Y-203671000D01*
X109914855Y-203671000D01*
X109433986Y-203766651D01*
X108981016Y-203954277D01*
X108573355Y-204226668D01*
X108226668Y-204573355D01*
X107954277Y-204981016D01*
X107766651Y-205433986D01*
X107671000Y-205914855D01*
X16649000Y-205914855D01*
X16553349Y-205433986D01*
X16365723Y-204981016D01*
X16093332Y-204573355D01*
X15746645Y-204226668D01*
X15338984Y-203954277D01*
X14886014Y-203766651D01*
X14405145Y-203671000D01*
X13914855Y-203671000D01*
X13433986Y-203766651D01*
X12981016Y-203954277D01*
X12573355Y-204226668D01*
X12226668Y-204573355D01*
X11954277Y-204981016D01*
X11766651Y-205433986D01*
X11671000Y-205914855D01*
X11074000Y-205914855D01*
X11074000Y-109914855D01*
X11671000Y-109914855D01*
X11671000Y-110405145D01*
X11766651Y-110886014D01*
X11954277Y-111338984D01*
X12226668Y-111746645D01*
X12573355Y-112093332D01*
X12981016Y-112365723D01*
X13433986Y-112553349D01*
X13914855Y-112649000D01*
X14405145Y-112649000D01*
X14886014Y-112553349D01*
X15338984Y-112365723D01*
X15746645Y-112093332D01*
X16093332Y-111746645D01*
X16365723Y-111338984D01*
X16553349Y-110886014D01*
X16649000Y-110405145D01*
X16649000Y-109914855D01*
X16553349Y-109433986D01*
X16365723Y-108981016D01*
X16093332Y-108573355D01*
X15746645Y-108226668D01*
X15338984Y-107954277D01*
X14886014Y-107766651D01*
X14405145Y-107671000D01*
X13914855Y-107671000D01*
X13433986Y-107766651D01*
X12981016Y-107954277D01*
X12573355Y-108226668D01*
X12226668Y-108573355D01*
X11954277Y-108981016D01*
X11766651Y-109433986D01*
X11671000Y-109914855D01*
X11074000Y-109914855D01*
X11074000Y-21590000D01*
X17518628Y-21590000D01*
X17526000Y-21664849D01*
X17526001Y-30554859D01*
X17548053Y-30778756D01*
X17635197Y-31066031D01*
X17776711Y-31330785D01*
X17907001Y-31489544D01*
X17907000Y-201873861D01*
X17901471Y-201930000D01*
X17907000Y-201986139D01*
X17907000Y-201986145D01*
X17913979Y-202057000D01*
X17923539Y-202154067D01*
X17943365Y-202219425D01*
X17988897Y-202369522D01*
X18095032Y-202568088D01*
X18237867Y-202742133D01*
X18281482Y-202777927D01*
X19472077Y-203968523D01*
X19507867Y-204012133D01*
X19681911Y-204154968D01*
X19880477Y-204261103D01*
X20030574Y-204306635D01*
X20095932Y-204326461D01*
X20118600Y-204328694D01*
X20263854Y-204343000D01*
X20263860Y-204343000D01*
X20319999Y-204348529D01*
X20376138Y-204343000D01*
X21533861Y-204343000D01*
X21590000Y-204348529D01*
X21646139Y-204343000D01*
X21646146Y-204343000D01*
X21814067Y-204326461D01*
X22029523Y-204261103D01*
X22228089Y-204154968D01*
X22402133Y-204012133D01*
X22437927Y-203968518D01*
X23628523Y-202777923D01*
X23672133Y-202742133D01*
X23814968Y-202568089D01*
X23921103Y-202369523D01*
X23986461Y-202154067D01*
X24003000Y-201986146D01*
X24003000Y-201986140D01*
X24008529Y-201930001D01*
X24003000Y-201873862D01*
X24003000Y-33493445D01*
X24603446Y-32893000D01*
X24926555Y-32893000D01*
X25527001Y-33493447D01*
X25527000Y-201873861D01*
X25521471Y-201930000D01*
X25527000Y-201986139D01*
X25527000Y-201986145D01*
X25533979Y-202057000D01*
X25543539Y-202154067D01*
X25563365Y-202219425D01*
X25608897Y-202369522D01*
X25715032Y-202568088D01*
X25857867Y-202742133D01*
X25901482Y-202777927D01*
X27092077Y-203968523D01*
X27127867Y-204012133D01*
X27301911Y-204154968D01*
X27500477Y-204261103D01*
X27650574Y-204306635D01*
X27715932Y-204326461D01*
X27738600Y-204328694D01*
X27883854Y-204343000D01*
X27883860Y-204343000D01*
X27939999Y-204348529D01*
X27996138Y-204343000D01*
X29153861Y-204343000D01*
X29210000Y-204348529D01*
X29266139Y-204343000D01*
X29266146Y-204343000D01*
X29434067Y-204326461D01*
X29649523Y-204261103D01*
X29848089Y-204154968D01*
X30022133Y-204012133D01*
X30057927Y-203968518D01*
X31248523Y-202777923D01*
X31292133Y-202742133D01*
X31434968Y-202568089D01*
X31541103Y-202369523D01*
X31606461Y-202154067D01*
X31623000Y-201986146D01*
X31623000Y-201986140D01*
X31628529Y-201930001D01*
X31623000Y-201873862D01*
X31623000Y-33493445D01*
X32223446Y-32893000D01*
X32546555Y-32893000D01*
X33147001Y-33493447D01*
X33147000Y-201873861D01*
X33141471Y-201930000D01*
X33147000Y-201986139D01*
X33147000Y-201986145D01*
X33153979Y-202057000D01*
X33163539Y-202154067D01*
X33183365Y-202219425D01*
X33228897Y-202369522D01*
X33335032Y-202568088D01*
X33477867Y-202742133D01*
X33521482Y-202777927D01*
X34712077Y-203968523D01*
X34747867Y-204012133D01*
X34921911Y-204154968D01*
X35120477Y-204261103D01*
X35270574Y-204306635D01*
X35335932Y-204326461D01*
X35358600Y-204328694D01*
X35503854Y-204343000D01*
X35503860Y-204343000D01*
X35559999Y-204348529D01*
X35616138Y-204343000D01*
X36773861Y-204343000D01*
X36830000Y-204348529D01*
X36886139Y-204343000D01*
X36886146Y-204343000D01*
X37054067Y-204326461D01*
X37269523Y-204261103D01*
X37468089Y-204154968D01*
X37642133Y-204012133D01*
X37677927Y-203968518D01*
X38868523Y-202777923D01*
X38912133Y-202742133D01*
X39054968Y-202568089D01*
X39161103Y-202369523D01*
X39226461Y-202154067D01*
X39243000Y-201986146D01*
X39243000Y-201986140D01*
X39248529Y-201930001D01*
X39243000Y-201873862D01*
X39243000Y-33493445D01*
X39843446Y-32893000D01*
X40166555Y-32893000D01*
X40767001Y-33493447D01*
X40767000Y-201873861D01*
X40761471Y-201930000D01*
X40767000Y-201986139D01*
X40767000Y-201986145D01*
X40773979Y-202057000D01*
X40783539Y-202154067D01*
X40803365Y-202219425D01*
X40848897Y-202369522D01*
X40955032Y-202568088D01*
X41097867Y-202742133D01*
X41141482Y-202777927D01*
X42332077Y-203968523D01*
X42367867Y-204012133D01*
X42541911Y-204154968D01*
X42740477Y-204261103D01*
X42890574Y-204306635D01*
X42955932Y-204326461D01*
X42978600Y-204328694D01*
X43123854Y-204343000D01*
X43123860Y-204343000D01*
X43179999Y-204348529D01*
X43236138Y-204343000D01*
X44393861Y-204343000D01*
X44450000Y-204348529D01*
X44506139Y-204343000D01*
X44506146Y-204343000D01*
X44674067Y-204326461D01*
X44889523Y-204261103D01*
X45088089Y-204154968D01*
X45262133Y-204012133D01*
X45297927Y-203968518D01*
X46488523Y-202777923D01*
X46532133Y-202742133D01*
X46674968Y-202568089D01*
X46781103Y-202369523D01*
X46846461Y-202154067D01*
X46863000Y-201986146D01*
X46863000Y-201986140D01*
X46868529Y-201930001D01*
X46863000Y-201873862D01*
X46863000Y-33493445D01*
X47463446Y-32893000D01*
X47786555Y-32893000D01*
X48387001Y-33493447D01*
X48387000Y-201873861D01*
X48381471Y-201930000D01*
X48387000Y-201986139D01*
X48387000Y-201986145D01*
X48393979Y-202057000D01*
X48403539Y-202154067D01*
X48423365Y-202219425D01*
X48468897Y-202369522D01*
X48575032Y-202568088D01*
X48717867Y-202742133D01*
X48761482Y-202777927D01*
X49952077Y-203968523D01*
X49987867Y-204012133D01*
X50161911Y-204154968D01*
X50360477Y-204261103D01*
X50510574Y-204306635D01*
X50575932Y-204326461D01*
X50598600Y-204328694D01*
X50743854Y-204343000D01*
X50743860Y-204343000D01*
X50799999Y-204348529D01*
X50856138Y-204343000D01*
X52013861Y-204343000D01*
X52070000Y-204348529D01*
X52126139Y-204343000D01*
X52126146Y-204343000D01*
X52294067Y-204326461D01*
X52509523Y-204261103D01*
X52708089Y-204154968D01*
X52882133Y-204012133D01*
X52917927Y-203968518D01*
X54108523Y-202777923D01*
X54152133Y-202742133D01*
X54294968Y-202568089D01*
X54401103Y-202369523D01*
X54466461Y-202154067D01*
X54483000Y-201986146D01*
X54483000Y-201986140D01*
X54488529Y-201930001D01*
X54483000Y-201873862D01*
X54483000Y-33493445D01*
X55083446Y-32893000D01*
X55406555Y-32893000D01*
X56007001Y-33493447D01*
X56007000Y-201873861D01*
X56001471Y-201930000D01*
X56007000Y-201986139D01*
X56007000Y-201986145D01*
X56013979Y-202057000D01*
X56023539Y-202154067D01*
X56043365Y-202219425D01*
X56088897Y-202369522D01*
X56195032Y-202568088D01*
X56337867Y-202742133D01*
X56381482Y-202777927D01*
X57572077Y-203968523D01*
X57607867Y-204012133D01*
X57781911Y-204154968D01*
X57980477Y-204261103D01*
X58130574Y-204306635D01*
X58195932Y-204326461D01*
X58218600Y-204328694D01*
X58363854Y-204343000D01*
X58363860Y-204343000D01*
X58419999Y-204348529D01*
X58476138Y-204343000D01*
X59633861Y-204343000D01*
X59690000Y-204348529D01*
X59746139Y-204343000D01*
X59746146Y-204343000D01*
X59914067Y-204326461D01*
X60129523Y-204261103D01*
X60328089Y-204154968D01*
X60502133Y-204012133D01*
X60537927Y-203968518D01*
X61728523Y-202777923D01*
X61772133Y-202742133D01*
X61914968Y-202568089D01*
X62021103Y-202369523D01*
X62086461Y-202154067D01*
X62103000Y-201986146D01*
X62103000Y-201986140D01*
X62108529Y-201930001D01*
X62103000Y-201873862D01*
X62103000Y-33493445D01*
X62703446Y-32893000D01*
X63026555Y-32893000D01*
X63627001Y-33493447D01*
X63627000Y-201873861D01*
X63621471Y-201930000D01*
X63627000Y-201986139D01*
X63627000Y-201986145D01*
X63633979Y-202057000D01*
X63643539Y-202154067D01*
X63663365Y-202219425D01*
X63708897Y-202369522D01*
X63815032Y-202568088D01*
X63957867Y-202742133D01*
X64001482Y-202777927D01*
X65192077Y-203968523D01*
X65227867Y-204012133D01*
X65401911Y-204154968D01*
X65600477Y-204261103D01*
X65750574Y-204306635D01*
X65815932Y-204326461D01*
X65838600Y-204328694D01*
X65983854Y-204343000D01*
X65983860Y-204343000D01*
X66039999Y-204348529D01*
X66096138Y-204343000D01*
X67253861Y-204343000D01*
X67310000Y-204348529D01*
X67366139Y-204343000D01*
X67366146Y-204343000D01*
X67534067Y-204326461D01*
X67749523Y-204261103D01*
X67948089Y-204154968D01*
X68122133Y-204012133D01*
X68157927Y-203968518D01*
X69348523Y-202777923D01*
X69392133Y-202742133D01*
X69534968Y-202568089D01*
X69641103Y-202369523D01*
X69706461Y-202154067D01*
X69723000Y-201986146D01*
X69723000Y-201986140D01*
X69728529Y-201930001D01*
X69723000Y-201873862D01*
X69723000Y-33493445D01*
X70323446Y-32893000D01*
X70646555Y-32893000D01*
X71247001Y-33493447D01*
X71247000Y-201873861D01*
X71241471Y-201930000D01*
X71247000Y-201986139D01*
X71247000Y-201986145D01*
X71253979Y-202057000D01*
X71263539Y-202154067D01*
X71283365Y-202219425D01*
X71328897Y-202369522D01*
X71435032Y-202568088D01*
X71577867Y-202742133D01*
X71621482Y-202777927D01*
X72812077Y-203968523D01*
X72847867Y-204012133D01*
X73021911Y-204154968D01*
X73220477Y-204261103D01*
X73370574Y-204306635D01*
X73435932Y-204326461D01*
X73458600Y-204328694D01*
X73603854Y-204343000D01*
X73603860Y-204343000D01*
X73659999Y-204348529D01*
X73716138Y-204343000D01*
X74873861Y-204343000D01*
X74930000Y-204348529D01*
X74986139Y-204343000D01*
X74986146Y-204343000D01*
X75154067Y-204326461D01*
X75369523Y-204261103D01*
X75568089Y-204154968D01*
X75742133Y-204012133D01*
X75777927Y-203968518D01*
X76968523Y-202777923D01*
X77012133Y-202742133D01*
X77154968Y-202568089D01*
X77261103Y-202369523D01*
X77326461Y-202154067D01*
X77343000Y-201986146D01*
X77343000Y-201986140D01*
X77348529Y-201930001D01*
X77343000Y-201873862D01*
X77343000Y-33493445D01*
X77943446Y-32893000D01*
X78266555Y-32893000D01*
X78867001Y-33493447D01*
X78867000Y-201873861D01*
X78861471Y-201930000D01*
X78867000Y-201986139D01*
X78867000Y-201986145D01*
X78873979Y-202057000D01*
X78883539Y-202154067D01*
X78903365Y-202219425D01*
X78948897Y-202369522D01*
X79055032Y-202568088D01*
X79197867Y-202742133D01*
X79241482Y-202777927D01*
X80432077Y-203968523D01*
X80467867Y-204012133D01*
X80641911Y-204154968D01*
X80840477Y-204261103D01*
X80990574Y-204306635D01*
X81055932Y-204326461D01*
X81078600Y-204328694D01*
X81223854Y-204343000D01*
X81223860Y-204343000D01*
X81279999Y-204348529D01*
X81336138Y-204343000D01*
X82493861Y-204343000D01*
X82550000Y-204348529D01*
X82606139Y-204343000D01*
X82606146Y-204343000D01*
X82774067Y-204326461D01*
X82989523Y-204261103D01*
X83188089Y-204154968D01*
X83362133Y-204012133D01*
X83397927Y-203968518D01*
X84588523Y-202777923D01*
X84632133Y-202742133D01*
X84774968Y-202568089D01*
X84881103Y-202369523D01*
X84946461Y-202154067D01*
X84963000Y-201986146D01*
X84963000Y-201986140D01*
X84968529Y-201930001D01*
X84963000Y-201873862D01*
X84963000Y-33493445D01*
X85563446Y-32893000D01*
X85886555Y-32893000D01*
X86487001Y-33493447D01*
X86487000Y-201873861D01*
X86481471Y-201930000D01*
X86487000Y-201986139D01*
X86487000Y-201986145D01*
X86493979Y-202057000D01*
X86503539Y-202154067D01*
X86523365Y-202219425D01*
X86568897Y-202369522D01*
X86675032Y-202568088D01*
X86817867Y-202742133D01*
X86861482Y-202777927D01*
X88052077Y-203968523D01*
X88087867Y-204012133D01*
X88261911Y-204154968D01*
X88460477Y-204261103D01*
X88610574Y-204306635D01*
X88675932Y-204326461D01*
X88698600Y-204328694D01*
X88843854Y-204343000D01*
X88843860Y-204343000D01*
X88899999Y-204348529D01*
X88956138Y-204343000D01*
X90113861Y-204343000D01*
X90170000Y-204348529D01*
X90226139Y-204343000D01*
X90226146Y-204343000D01*
X90394067Y-204326461D01*
X90609523Y-204261103D01*
X90808089Y-204154968D01*
X90982133Y-204012133D01*
X91017927Y-203968518D01*
X92208523Y-202777923D01*
X92252133Y-202742133D01*
X92394968Y-202568089D01*
X92501103Y-202369523D01*
X92566461Y-202154067D01*
X92583000Y-201986146D01*
X92583000Y-201986140D01*
X92588529Y-201930001D01*
X92583000Y-201873862D01*
X92583000Y-33493445D01*
X93183446Y-32893000D01*
X93506555Y-32893000D01*
X94107001Y-33493447D01*
X94107000Y-201873861D01*
X94101471Y-201930000D01*
X94107000Y-201986139D01*
X94107000Y-201986145D01*
X94113979Y-202057000D01*
X94123539Y-202154067D01*
X94143365Y-202219425D01*
X94188897Y-202369522D01*
X94295032Y-202568088D01*
X94437867Y-202742133D01*
X94481482Y-202777927D01*
X95672077Y-203968523D01*
X95707867Y-204012133D01*
X95881911Y-204154968D01*
X96080477Y-204261103D01*
X96230574Y-204306635D01*
X96295932Y-204326461D01*
X96318600Y-204328694D01*
X96463854Y-204343000D01*
X96463860Y-204343000D01*
X96519999Y-204348529D01*
X96576138Y-204343000D01*
X97733861Y-204343000D01*
X97790000Y-204348529D01*
X97846139Y-204343000D01*
X97846146Y-204343000D01*
X98014067Y-204326461D01*
X98229523Y-204261103D01*
X98428089Y-204154968D01*
X98602133Y-204012133D01*
X98637927Y-203968518D01*
X99828523Y-202777923D01*
X99872133Y-202742133D01*
X100014968Y-202568089D01*
X100121103Y-202369523D01*
X100186461Y-202154067D01*
X100203000Y-201986146D01*
X100203000Y-201986140D01*
X100208529Y-201930001D01*
X100203000Y-201873862D01*
X100203000Y-33493445D01*
X100803446Y-32893000D01*
X101126555Y-32893000D01*
X101727001Y-33493447D01*
X101727000Y-201873861D01*
X101721471Y-201930000D01*
X101727000Y-201986139D01*
X101727000Y-201986145D01*
X101733979Y-202057000D01*
X101743539Y-202154067D01*
X101763365Y-202219425D01*
X101808897Y-202369522D01*
X101915032Y-202568088D01*
X102057867Y-202742133D01*
X102101482Y-202777927D01*
X103292077Y-203968523D01*
X103327867Y-204012133D01*
X103501911Y-204154968D01*
X103700477Y-204261103D01*
X103850574Y-204306635D01*
X103915932Y-204326461D01*
X103938600Y-204328694D01*
X104083854Y-204343000D01*
X104083860Y-204343000D01*
X104139999Y-204348529D01*
X104196138Y-204343000D01*
X106623861Y-204343000D01*
X106680000Y-204348529D01*
X106736139Y-204343000D01*
X106736146Y-204343000D01*
X106904067Y-204326461D01*
X107119523Y-204261103D01*
X107318089Y-204154968D01*
X107492133Y-204012133D01*
X107527927Y-203968518D01*
X108718523Y-202777923D01*
X108762133Y-202742133D01*
X108904968Y-202568089D01*
X109011103Y-202369523D01*
X109076461Y-202154067D01*
X109093000Y-201986146D01*
X109093000Y-201986140D01*
X109098529Y-201930001D01*
X109093000Y-201873862D01*
X109093000Y-114356138D01*
X109098529Y-114299999D01*
X109093000Y-114243860D01*
X109093000Y-114243854D01*
X109076461Y-114075933D01*
X109011103Y-113860477D01*
X108904968Y-113661911D01*
X108762133Y-113487867D01*
X108718524Y-113452078D01*
X107823000Y-112556555D01*
X107823000Y-111022053D01*
X107954277Y-111338984D01*
X108226668Y-111746645D01*
X108573355Y-112093332D01*
X108981016Y-112365723D01*
X109433986Y-112553349D01*
X109914855Y-112649000D01*
X110405145Y-112649000D01*
X110886014Y-112553349D01*
X111338984Y-112365723D01*
X111746645Y-112093332D01*
X112093332Y-111746645D01*
X112365723Y-111338984D01*
X112553349Y-110886014D01*
X112649000Y-110405145D01*
X112649000Y-109914855D01*
X112553349Y-109433986D01*
X112365723Y-108981016D01*
X112093332Y-108573355D01*
X111746645Y-108226668D01*
X111338984Y-107954277D01*
X110886014Y-107766651D01*
X110405145Y-107671000D01*
X109914855Y-107671000D01*
X109433986Y-107766651D01*
X108981016Y-107954277D01*
X108573355Y-108226668D01*
X108226668Y-108573355D01*
X107954277Y-108981016D01*
X107823000Y-109297947D01*
X107823000Y-108423445D01*
X108718523Y-107527923D01*
X108762133Y-107492133D01*
X108904968Y-107318089D01*
X109011103Y-107119523D01*
X109076461Y-106904067D01*
X109093000Y-106736146D01*
X109093000Y-106736140D01*
X109098529Y-106680001D01*
X109093000Y-106623862D01*
X109093000Y-33493445D01*
X109693446Y-32893000D01*
X111286555Y-32893000D01*
X111887001Y-33493447D01*
X111887000Y-106623861D01*
X111881471Y-106680000D01*
X111887000Y-106736139D01*
X111887000Y-106736145D01*
X111893434Y-106801470D01*
X111903539Y-106904067D01*
X111923365Y-106969425D01*
X111968897Y-107119522D01*
X112075032Y-107318088D01*
X112217867Y-107492133D01*
X112261482Y-107527927D01*
X113157001Y-108423447D01*
X113157000Y-112556554D01*
X112261478Y-113452077D01*
X112217868Y-113487867D01*
X112075033Y-113661911D01*
X111978703Y-113842133D01*
X111968898Y-113860477D01*
X111903539Y-114075933D01*
X111881471Y-114300000D01*
X111887001Y-114356149D01*
X111887000Y-201873861D01*
X111881471Y-201930000D01*
X111887000Y-201986139D01*
X111887000Y-201986145D01*
X111893979Y-202057000D01*
X111903539Y-202154067D01*
X111923365Y-202219425D01*
X111968897Y-202369522D01*
X112075032Y-202568088D01*
X112217867Y-202742133D01*
X112261482Y-202777927D01*
X113452077Y-203968523D01*
X113487867Y-204012133D01*
X113661911Y-204154968D01*
X113860477Y-204261103D01*
X114010574Y-204306635D01*
X114075932Y-204326461D01*
X114098600Y-204328694D01*
X114243854Y-204343000D01*
X114243860Y-204343000D01*
X114299999Y-204348529D01*
X114356138Y-204343000D01*
X116783861Y-204343000D01*
X116840000Y-204348529D01*
X116896139Y-204343000D01*
X116896146Y-204343000D01*
X117064067Y-204326461D01*
X117279523Y-204261103D01*
X117478089Y-204154968D01*
X117652133Y-204012133D01*
X117687927Y-203968518D01*
X118878523Y-202777923D01*
X118922133Y-202742133D01*
X119064968Y-202568089D01*
X119171103Y-202369523D01*
X119236461Y-202154067D01*
X119253000Y-201986146D01*
X119253000Y-201986140D01*
X119258529Y-201930001D01*
X119253000Y-201873862D01*
X119253000Y-33493445D01*
X119853446Y-32893000D01*
X120176555Y-32893000D01*
X120777001Y-33493447D01*
X120777000Y-201873861D01*
X120771471Y-201930000D01*
X120777000Y-201986139D01*
X120777000Y-201986145D01*
X120783979Y-202057000D01*
X120793539Y-202154067D01*
X120813365Y-202219425D01*
X120858897Y-202369522D01*
X120965032Y-202568088D01*
X121107867Y-202742133D01*
X121151482Y-202777927D01*
X122342077Y-203968523D01*
X122377867Y-204012133D01*
X122551911Y-204154968D01*
X122750477Y-204261103D01*
X122900574Y-204306635D01*
X122965932Y-204326461D01*
X122988600Y-204328694D01*
X123133854Y-204343000D01*
X123133860Y-204343000D01*
X123189999Y-204348529D01*
X123246138Y-204343000D01*
X124403861Y-204343000D01*
X124460000Y-204348529D01*
X124516139Y-204343000D01*
X124516146Y-204343000D01*
X124684067Y-204326461D01*
X124899523Y-204261103D01*
X125098089Y-204154968D01*
X125272133Y-204012133D01*
X125307927Y-203968518D01*
X126498523Y-202777923D01*
X126542133Y-202742133D01*
X126684968Y-202568089D01*
X126791103Y-202369523D01*
X126856461Y-202154067D01*
X126873000Y-201986146D01*
X126873000Y-201986140D01*
X126878529Y-201930001D01*
X126873000Y-201873862D01*
X126873000Y-33493445D01*
X127473446Y-32893000D01*
X127796555Y-32893000D01*
X128397001Y-33493447D01*
X128397000Y-201873861D01*
X128391471Y-201930000D01*
X128397000Y-201986139D01*
X128397000Y-201986145D01*
X128403979Y-202057000D01*
X128413539Y-202154067D01*
X128433365Y-202219425D01*
X128478897Y-202369522D01*
X128585032Y-202568088D01*
X128727867Y-202742133D01*
X128771482Y-202777927D01*
X129962077Y-203968523D01*
X129997867Y-204012133D01*
X130171911Y-204154968D01*
X130370477Y-204261103D01*
X130520574Y-204306635D01*
X130585932Y-204326461D01*
X130608600Y-204328694D01*
X130753854Y-204343000D01*
X130753860Y-204343000D01*
X130809999Y-204348529D01*
X130866138Y-204343000D01*
X132023861Y-204343000D01*
X132080000Y-204348529D01*
X132136139Y-204343000D01*
X132136146Y-204343000D01*
X132304067Y-204326461D01*
X132519523Y-204261103D01*
X132718089Y-204154968D01*
X132892133Y-204012133D01*
X132927927Y-203968518D01*
X134118523Y-202777923D01*
X134162133Y-202742133D01*
X134304968Y-202568089D01*
X134411103Y-202369523D01*
X134476461Y-202154067D01*
X134493000Y-201986146D01*
X134493000Y-201986140D01*
X134498529Y-201930001D01*
X134493000Y-201873862D01*
X134493000Y-33493445D01*
X135093446Y-32893000D01*
X135416555Y-32893000D01*
X136017001Y-33493447D01*
X136017000Y-201873861D01*
X136011471Y-201930000D01*
X136017000Y-201986139D01*
X136017000Y-201986145D01*
X136023979Y-202057000D01*
X136033539Y-202154067D01*
X136053365Y-202219425D01*
X136098897Y-202369522D01*
X136205032Y-202568088D01*
X136347867Y-202742133D01*
X136391482Y-202777927D01*
X137582077Y-203968523D01*
X137617867Y-204012133D01*
X137791911Y-204154968D01*
X137990477Y-204261103D01*
X138140574Y-204306635D01*
X138205932Y-204326461D01*
X138228600Y-204328694D01*
X138373854Y-204343000D01*
X138373860Y-204343000D01*
X138429999Y-204348529D01*
X138486138Y-204343000D01*
X139643861Y-204343000D01*
X139700000Y-204348529D01*
X139756139Y-204343000D01*
X139756146Y-204343000D01*
X139924067Y-204326461D01*
X140139523Y-204261103D01*
X140338089Y-204154968D01*
X140512133Y-204012133D01*
X140547927Y-203968518D01*
X141738523Y-202777923D01*
X141782133Y-202742133D01*
X141924968Y-202568089D01*
X142031103Y-202369523D01*
X142096461Y-202154067D01*
X142113000Y-201986146D01*
X142113000Y-201986140D01*
X142118529Y-201930001D01*
X142113000Y-201873862D01*
X142113000Y-33493445D01*
X142713446Y-32893000D01*
X143036555Y-32893000D01*
X143637001Y-33493447D01*
X143637000Y-201873861D01*
X143631471Y-201930000D01*
X143637000Y-201986139D01*
X143637000Y-201986145D01*
X143643979Y-202057000D01*
X143653539Y-202154067D01*
X143673365Y-202219425D01*
X143718897Y-202369522D01*
X143825032Y-202568088D01*
X143967867Y-202742133D01*
X144011482Y-202777927D01*
X145202077Y-203968523D01*
X145237867Y-204012133D01*
X145411911Y-204154968D01*
X145610477Y-204261103D01*
X145760574Y-204306635D01*
X145825932Y-204326461D01*
X145848600Y-204328694D01*
X145993854Y-204343000D01*
X145993860Y-204343000D01*
X146049999Y-204348529D01*
X146106138Y-204343000D01*
X147263861Y-204343000D01*
X147320000Y-204348529D01*
X147376139Y-204343000D01*
X147376146Y-204343000D01*
X147544067Y-204326461D01*
X147759523Y-204261103D01*
X147958089Y-204154968D01*
X148132133Y-204012133D01*
X148167927Y-203968518D01*
X149358523Y-202777923D01*
X149402133Y-202742133D01*
X149544968Y-202568089D01*
X149651103Y-202369523D01*
X149716461Y-202154067D01*
X149733000Y-201986146D01*
X149733000Y-201986140D01*
X149738529Y-201930001D01*
X149733000Y-201873862D01*
X149733000Y-33493445D01*
X150333446Y-32893000D01*
X150656555Y-32893000D01*
X151257001Y-33493447D01*
X151257000Y-201873861D01*
X151251471Y-201930000D01*
X151257000Y-201986139D01*
X151257000Y-201986145D01*
X151263979Y-202057000D01*
X151273539Y-202154067D01*
X151293365Y-202219425D01*
X151338897Y-202369522D01*
X151445032Y-202568088D01*
X151587867Y-202742133D01*
X151631482Y-202777927D01*
X152822077Y-203968523D01*
X152857867Y-204012133D01*
X153031911Y-204154968D01*
X153230477Y-204261103D01*
X153380574Y-204306635D01*
X153445932Y-204326461D01*
X153468600Y-204328694D01*
X153613854Y-204343000D01*
X153613860Y-204343000D01*
X153669999Y-204348529D01*
X153726138Y-204343000D01*
X154883861Y-204343000D01*
X154940000Y-204348529D01*
X154996139Y-204343000D01*
X154996146Y-204343000D01*
X155164067Y-204326461D01*
X155379523Y-204261103D01*
X155578089Y-204154968D01*
X155752133Y-204012133D01*
X155787927Y-203968518D01*
X156978523Y-202777923D01*
X157022133Y-202742133D01*
X157164968Y-202568089D01*
X157271103Y-202369523D01*
X157336461Y-202154067D01*
X157353000Y-201986146D01*
X157353000Y-201986140D01*
X157358529Y-201930001D01*
X157353000Y-201873862D01*
X157353000Y-33493445D01*
X157953446Y-32893000D01*
X158276555Y-32893000D01*
X158877001Y-33493447D01*
X158877000Y-201873861D01*
X158871471Y-201930000D01*
X158877000Y-201986139D01*
X158877000Y-201986145D01*
X158883979Y-202057000D01*
X158893539Y-202154067D01*
X158913365Y-202219425D01*
X158958897Y-202369522D01*
X159065032Y-202568088D01*
X159207867Y-202742133D01*
X159251482Y-202777927D01*
X160442077Y-203968523D01*
X160477867Y-204012133D01*
X160651911Y-204154968D01*
X160850477Y-204261103D01*
X161000574Y-204306635D01*
X161065932Y-204326461D01*
X161088600Y-204328694D01*
X161233854Y-204343000D01*
X161233860Y-204343000D01*
X161289999Y-204348529D01*
X161346138Y-204343000D01*
X162503861Y-204343000D01*
X162560000Y-204348529D01*
X162616139Y-204343000D01*
X162616146Y-204343000D01*
X162784067Y-204326461D01*
X162999523Y-204261103D01*
X163198089Y-204154968D01*
X163372133Y-204012133D01*
X163407927Y-203968518D01*
X164598523Y-202777923D01*
X164642133Y-202742133D01*
X164784968Y-202568089D01*
X164891103Y-202369523D01*
X164956461Y-202154067D01*
X164973000Y-201986146D01*
X164973000Y-201986140D01*
X164978529Y-201930001D01*
X164973000Y-201873862D01*
X164973000Y-33493445D01*
X165573446Y-32893000D01*
X165896555Y-32893000D01*
X166497001Y-33493447D01*
X166497000Y-201873861D01*
X166491471Y-201930000D01*
X166497000Y-201986139D01*
X166497000Y-201986145D01*
X166503979Y-202057000D01*
X166513539Y-202154067D01*
X166533365Y-202219425D01*
X166578897Y-202369522D01*
X166685032Y-202568088D01*
X166827867Y-202742133D01*
X166871482Y-202777927D01*
X168062077Y-203968523D01*
X168097867Y-204012133D01*
X168271911Y-204154968D01*
X168470477Y-204261103D01*
X168620574Y-204306635D01*
X168685932Y-204326461D01*
X168708600Y-204328694D01*
X168853854Y-204343000D01*
X168853860Y-204343000D01*
X168909999Y-204348529D01*
X168966138Y-204343000D01*
X170123861Y-204343000D01*
X170180000Y-204348529D01*
X170236139Y-204343000D01*
X170236146Y-204343000D01*
X170404067Y-204326461D01*
X170619523Y-204261103D01*
X170818089Y-204154968D01*
X170992133Y-204012133D01*
X171027927Y-203968518D01*
X172218523Y-202777923D01*
X172262133Y-202742133D01*
X172404968Y-202568089D01*
X172511103Y-202369523D01*
X172576461Y-202154067D01*
X172593000Y-201986146D01*
X172593000Y-201986140D01*
X172598529Y-201930001D01*
X172593000Y-201873862D01*
X172593000Y-33493445D01*
X173193446Y-32893000D01*
X173516555Y-32893000D01*
X174117001Y-33493447D01*
X174117000Y-201873861D01*
X174111471Y-201930000D01*
X174117000Y-201986139D01*
X174117000Y-201986145D01*
X174123979Y-202057000D01*
X174133539Y-202154067D01*
X174153365Y-202219425D01*
X174198897Y-202369522D01*
X174305032Y-202568088D01*
X174447867Y-202742133D01*
X174491482Y-202777927D01*
X175682077Y-203968523D01*
X175717867Y-204012133D01*
X175891911Y-204154968D01*
X176090477Y-204261103D01*
X176240574Y-204306635D01*
X176305932Y-204326461D01*
X176328600Y-204328694D01*
X176473854Y-204343000D01*
X176473860Y-204343000D01*
X176529999Y-204348529D01*
X176586138Y-204343000D01*
X177743861Y-204343000D01*
X177800000Y-204348529D01*
X177856139Y-204343000D01*
X177856146Y-204343000D01*
X178024067Y-204326461D01*
X178239523Y-204261103D01*
X178438089Y-204154968D01*
X178612133Y-204012133D01*
X178647927Y-203968518D01*
X179838523Y-202777923D01*
X179882133Y-202742133D01*
X180024968Y-202568089D01*
X180131103Y-202369523D01*
X180196461Y-202154067D01*
X180213000Y-201986146D01*
X180213000Y-201986140D01*
X180218529Y-201930001D01*
X180213000Y-201873862D01*
X180213000Y-33493445D01*
X180813446Y-32893000D01*
X181136555Y-32893000D01*
X181737001Y-33493447D01*
X181737000Y-201873861D01*
X181731471Y-201930000D01*
X181737000Y-201986139D01*
X181737000Y-201986145D01*
X181743979Y-202057000D01*
X181753539Y-202154067D01*
X181773365Y-202219425D01*
X181818897Y-202369522D01*
X181925032Y-202568088D01*
X182067867Y-202742133D01*
X182111482Y-202777927D01*
X183302077Y-203968523D01*
X183337867Y-204012133D01*
X183511911Y-204154968D01*
X183710477Y-204261103D01*
X183860574Y-204306635D01*
X183925932Y-204326461D01*
X183948600Y-204328694D01*
X184093854Y-204343000D01*
X184093860Y-204343000D01*
X184149999Y-204348529D01*
X184206138Y-204343000D01*
X185363861Y-204343000D01*
X185420000Y-204348529D01*
X185476139Y-204343000D01*
X185476146Y-204343000D01*
X185644067Y-204326461D01*
X185859523Y-204261103D01*
X186058089Y-204154968D01*
X186232133Y-204012133D01*
X186267927Y-203968518D01*
X187458523Y-202777923D01*
X187502133Y-202742133D01*
X187644968Y-202568089D01*
X187751103Y-202369523D01*
X187816461Y-202154067D01*
X187833000Y-201986146D01*
X187833000Y-201986140D01*
X187838529Y-201930001D01*
X187833000Y-201873862D01*
X187833000Y-33493445D01*
X188433446Y-32893000D01*
X188756555Y-32893000D01*
X189357001Y-33493447D01*
X189357000Y-201873861D01*
X189351471Y-201930000D01*
X189357000Y-201986139D01*
X189357000Y-201986145D01*
X189363979Y-202057000D01*
X189373539Y-202154067D01*
X189393365Y-202219425D01*
X189438897Y-202369522D01*
X189545032Y-202568088D01*
X189687867Y-202742133D01*
X189731482Y-202777927D01*
X190922077Y-203968523D01*
X190957867Y-204012133D01*
X191131911Y-204154968D01*
X191330477Y-204261103D01*
X191480574Y-204306635D01*
X191545932Y-204326461D01*
X191568600Y-204328694D01*
X191713854Y-204343000D01*
X191713860Y-204343000D01*
X191769999Y-204348529D01*
X191826138Y-204343000D01*
X192983861Y-204343000D01*
X193040000Y-204348529D01*
X193096139Y-204343000D01*
X193096146Y-204343000D01*
X193264067Y-204326461D01*
X193479523Y-204261103D01*
X193678089Y-204154968D01*
X193852133Y-204012133D01*
X193887927Y-203968518D01*
X195078523Y-202777923D01*
X195122133Y-202742133D01*
X195264968Y-202568089D01*
X195371103Y-202369523D01*
X195436461Y-202154067D01*
X195453000Y-201986146D01*
X195453000Y-201986140D01*
X195458529Y-201930001D01*
X195453000Y-201873862D01*
X195453000Y-33493445D01*
X196053446Y-32893000D01*
X196376555Y-32893000D01*
X196977001Y-33493447D01*
X196977000Y-201873861D01*
X196971471Y-201930000D01*
X196977000Y-201986139D01*
X196977000Y-201986145D01*
X196983979Y-202057000D01*
X196993539Y-202154067D01*
X197013365Y-202219425D01*
X197058897Y-202369522D01*
X197165032Y-202568088D01*
X197307867Y-202742133D01*
X197351482Y-202777927D01*
X198542077Y-203968523D01*
X198577867Y-204012133D01*
X198751911Y-204154968D01*
X198950477Y-204261103D01*
X199100574Y-204306635D01*
X199165932Y-204326461D01*
X199188600Y-204328694D01*
X199333854Y-204343000D01*
X199333860Y-204343000D01*
X199389999Y-204348529D01*
X199446138Y-204343000D01*
X200603861Y-204343000D01*
X200660000Y-204348529D01*
X200716139Y-204343000D01*
X200716146Y-204343000D01*
X200884067Y-204326461D01*
X201099523Y-204261103D01*
X201298089Y-204154968D01*
X201472133Y-204012133D01*
X201507927Y-203968518D01*
X202698523Y-202777923D01*
X202742133Y-202742133D01*
X202884968Y-202568089D01*
X202991103Y-202369523D01*
X203056461Y-202154067D01*
X203073000Y-201986146D01*
X203073000Y-201986140D01*
X203078529Y-201930001D01*
X203073000Y-201873862D01*
X203073000Y-109914855D01*
X203671000Y-109914855D01*
X203671000Y-110405145D01*
X203766651Y-110886014D01*
X203954277Y-111338984D01*
X204226668Y-111746645D01*
X204573355Y-112093332D01*
X204981016Y-112365723D01*
X205433986Y-112553349D01*
X205914855Y-112649000D01*
X206405145Y-112649000D01*
X206886014Y-112553349D01*
X207338984Y-112365723D01*
X207746645Y-112093332D01*
X208093332Y-111746645D01*
X208365723Y-111338984D01*
X208553349Y-110886014D01*
X208649000Y-110405145D01*
X208649000Y-109914855D01*
X208553349Y-109433986D01*
X208365723Y-108981016D01*
X208093332Y-108573355D01*
X207746645Y-108226668D01*
X207338984Y-107954277D01*
X206886014Y-107766651D01*
X206405145Y-107671000D01*
X205914855Y-107671000D01*
X205433986Y-107766651D01*
X204981016Y-107954277D01*
X204573355Y-108226668D01*
X204226668Y-108573355D01*
X203954277Y-108981016D01*
X203766651Y-109433986D01*
X203671000Y-109914855D01*
X203073000Y-109914855D01*
X203073000Y-31489544D01*
X203203290Y-31330785D01*
X203344804Y-31066031D01*
X203431947Y-30778756D01*
X203461372Y-30480000D01*
X203431947Y-30181243D01*
X203344804Y-29893969D01*
X203203290Y-29629214D01*
X203060564Y-29455302D01*
X197980563Y-24375302D01*
X197932844Y-24317156D01*
X197700785Y-24126710D01*
X197436031Y-23985196D01*
X197148756Y-23898052D01*
X196924859Y-23876000D01*
X196924849Y-23876000D01*
X196850000Y-23868628D01*
X196775151Y-23876000D01*
X99056262Y-23876000D01*
X90665564Y-15485303D01*
X90617844Y-15427156D01*
X90385785Y-15236710D01*
X90121031Y-15095196D01*
X89833756Y-15008052D01*
X89609859Y-14986000D01*
X89609849Y-14986000D01*
X89535000Y-14978628D01*
X89460151Y-14986000D01*
X64218301Y-14986000D01*
X64218301Y-13914855D01*
X107671000Y-13914855D01*
X107671000Y-14405145D01*
X107766651Y-14886014D01*
X107954277Y-15338984D01*
X108226668Y-15746645D01*
X108573355Y-16093332D01*
X108981016Y-16365723D01*
X109433986Y-16553349D01*
X109914855Y-16649000D01*
X110405145Y-16649000D01*
X110886014Y-16553349D01*
X111338984Y-16365723D01*
X111746645Y-16093332D01*
X112093332Y-15746645D01*
X112365723Y-15338984D01*
X112553349Y-14886014D01*
X112649000Y-14405145D01*
X112649000Y-13914855D01*
X203671000Y-13914855D01*
X203671000Y-14405145D01*
X203766651Y-14886014D01*
X203954277Y-15338984D01*
X204226668Y-15746645D01*
X204573355Y-16093332D01*
X204981016Y-16365723D01*
X205433986Y-16553349D01*
X205914855Y-16649000D01*
X206405145Y-16649000D01*
X206886014Y-16553349D01*
X207338984Y-16365723D01*
X207746645Y-16093332D01*
X208093332Y-15746645D01*
X208365723Y-15338984D01*
X208553349Y-14886014D01*
X208649000Y-14405145D01*
X208649000Y-13914855D01*
X208553349Y-13433986D01*
X208365723Y-12981016D01*
X208093332Y-12573355D01*
X207746645Y-12226668D01*
X207338984Y-11954277D01*
X206886014Y-11766651D01*
X206405145Y-11671000D01*
X205914855Y-11671000D01*
X205433986Y-11766651D01*
X204981016Y-11954277D01*
X204573355Y-12226668D01*
X204226668Y-12573355D01*
X203954277Y-12981016D01*
X203766651Y-13433986D01*
X203671000Y-13914855D01*
X112649000Y-13914855D01*
X112553349Y-13433986D01*
X112365723Y-12981016D01*
X112093332Y-12573355D01*
X111746645Y-12226668D01*
X111338984Y-11954277D01*
X110886014Y-11766651D01*
X110405145Y-11671000D01*
X109914855Y-11671000D01*
X109433986Y-11766651D01*
X108981016Y-11954277D01*
X108573355Y-12226668D01*
X108226668Y-12573355D01*
X107954277Y-12981016D01*
X107766651Y-13433986D01*
X107671000Y-13914855D01*
X64218301Y-13914855D01*
X64218301Y-13510000D01*
X64201136Y-13335726D01*
X64150303Y-13168149D01*
X64067753Y-13013709D01*
X63956659Y-12878341D01*
X63821291Y-12767247D01*
X63666851Y-12684697D01*
X63499274Y-12633864D01*
X63325000Y-12616699D01*
X57325000Y-12616699D01*
X57150726Y-12633864D01*
X56983149Y-12684697D01*
X56828709Y-12767247D01*
X56693341Y-12878341D01*
X56582247Y-13013709D01*
X56499697Y-13168149D01*
X56448864Y-13335726D01*
X56431699Y-13510000D01*
X56431699Y-19510000D01*
X56448864Y-19684274D01*
X56499697Y-19851851D01*
X56582247Y-20006291D01*
X56693341Y-20141659D01*
X56828709Y-20252753D01*
X56983149Y-20335303D01*
X57150726Y-20386136D01*
X57325000Y-20403301D01*
X63325000Y-20403301D01*
X63499274Y-20386136D01*
X63666851Y-20335303D01*
X63821291Y-20252753D01*
X63956659Y-20141659D01*
X64067753Y-20006291D01*
X64150303Y-19851851D01*
X64201136Y-19684274D01*
X64218301Y-19510000D01*
X64218301Y-18034000D01*
X88903739Y-18034000D01*
X97294440Y-26424702D01*
X97342156Y-26482844D01*
X97400298Y-26530560D01*
X97400302Y-26530564D01*
X97508121Y-26619048D01*
X97574215Y-26673290D01*
X97838969Y-26814804D01*
X98126244Y-26901948D01*
X98350141Y-26924000D01*
X98350149Y-26924000D01*
X98425000Y-26931372D01*
X98499851Y-26924000D01*
X196218739Y-26924000D01*
X200787000Y-31492262D01*
X200787001Y-201456553D01*
X200186555Y-202057000D01*
X199863446Y-202057000D01*
X199263000Y-201456555D01*
X199263000Y-33076138D01*
X199268529Y-33019999D01*
X199263000Y-32963860D01*
X199263000Y-32963854D01*
X199246461Y-32795933D01*
X199181103Y-32580477D01*
X199074968Y-32381911D01*
X198932133Y-32207867D01*
X198888523Y-32172077D01*
X197697927Y-30981482D01*
X197662133Y-30937867D01*
X197488089Y-30795032D01*
X197289523Y-30688897D01*
X197074067Y-30623539D01*
X196906146Y-30607000D01*
X196906139Y-30607000D01*
X196850000Y-30601471D01*
X196793861Y-30607000D01*
X195636138Y-30607000D01*
X195579999Y-30601471D01*
X195523860Y-30607000D01*
X195523854Y-30607000D01*
X195378600Y-30621306D01*
X195355932Y-30623539D01*
X195296463Y-30641579D01*
X195140477Y-30688897D01*
X194941911Y-30795032D01*
X194900420Y-30829083D01*
X194864727Y-30858376D01*
X194767867Y-30937867D01*
X194732077Y-30981477D01*
X193541482Y-32172073D01*
X193497867Y-32207867D01*
X193355032Y-32381912D01*
X193248897Y-32580478D01*
X193211133Y-32704968D01*
X193183540Y-32795932D01*
X193183539Y-32795934D01*
X193167000Y-32963855D01*
X193167000Y-32963861D01*
X193161471Y-33020000D01*
X193167000Y-33076139D01*
X193167001Y-201456553D01*
X192566555Y-202057000D01*
X192243446Y-202057000D01*
X191643000Y-201456555D01*
X191643000Y-33076138D01*
X191648529Y-33019999D01*
X191643000Y-32963860D01*
X191643000Y-32963854D01*
X191626461Y-32795933D01*
X191561103Y-32580477D01*
X191454968Y-32381911D01*
X191312133Y-32207867D01*
X191268523Y-32172077D01*
X190077927Y-30981482D01*
X190042133Y-30937867D01*
X189868089Y-30795032D01*
X189669523Y-30688897D01*
X189454067Y-30623539D01*
X189286146Y-30607000D01*
X189286139Y-30607000D01*
X189230000Y-30601471D01*
X189173861Y-30607000D01*
X188016138Y-30607000D01*
X187959999Y-30601471D01*
X187903860Y-30607000D01*
X187903854Y-30607000D01*
X187758600Y-30621306D01*
X187735932Y-30623539D01*
X187676463Y-30641579D01*
X187520477Y-30688897D01*
X187321911Y-30795032D01*
X187280420Y-30829083D01*
X187244727Y-30858376D01*
X187147867Y-30937867D01*
X187112077Y-30981477D01*
X185921482Y-32172073D01*
X185877867Y-32207867D01*
X185735032Y-32381912D01*
X185628897Y-32580478D01*
X185591133Y-32704968D01*
X185563540Y-32795932D01*
X185563539Y-32795934D01*
X185547000Y-32963855D01*
X185547000Y-32963861D01*
X185541471Y-33020000D01*
X185547000Y-33076139D01*
X185547001Y-201456553D01*
X184946555Y-202057000D01*
X184623446Y-202057000D01*
X184023000Y-201456555D01*
X184023000Y-33076138D01*
X184028529Y-33019999D01*
X184023000Y-32963860D01*
X184023000Y-32963854D01*
X184006461Y-32795933D01*
X183941103Y-32580477D01*
X183834968Y-32381911D01*
X183692133Y-32207867D01*
X183648523Y-32172077D01*
X182457927Y-30981482D01*
X182422133Y-30937867D01*
X182248089Y-30795032D01*
X182049523Y-30688897D01*
X181834067Y-30623539D01*
X181666146Y-30607000D01*
X181666139Y-30607000D01*
X181610000Y-30601471D01*
X181553861Y-30607000D01*
X180396138Y-30607000D01*
X180339999Y-30601471D01*
X180283860Y-30607000D01*
X180283854Y-30607000D01*
X180138600Y-30621306D01*
X180115932Y-30623539D01*
X180056463Y-30641579D01*
X179900477Y-30688897D01*
X179701911Y-30795032D01*
X179660420Y-30829083D01*
X179624727Y-30858376D01*
X179527867Y-30937867D01*
X179492077Y-30981477D01*
X178301482Y-32172073D01*
X178257867Y-32207867D01*
X178115032Y-32381912D01*
X178008897Y-32580478D01*
X177971133Y-32704968D01*
X177943540Y-32795932D01*
X177943539Y-32795934D01*
X177927000Y-32963855D01*
X177927000Y-32963861D01*
X177921471Y-33020000D01*
X177927000Y-33076139D01*
X177927001Y-201456553D01*
X177326555Y-202057000D01*
X177003446Y-202057000D01*
X176403000Y-201456555D01*
X176403000Y-33076138D01*
X176408529Y-33019999D01*
X176403000Y-32963860D01*
X176403000Y-32963854D01*
X176386461Y-32795933D01*
X176321103Y-32580477D01*
X176214968Y-32381911D01*
X176072133Y-32207867D01*
X176028523Y-32172077D01*
X174837927Y-30981482D01*
X174802133Y-30937867D01*
X174628089Y-30795032D01*
X174429523Y-30688897D01*
X174214067Y-30623539D01*
X174046146Y-30607000D01*
X174046139Y-30607000D01*
X173990000Y-30601471D01*
X173933861Y-30607000D01*
X172776138Y-30607000D01*
X172719999Y-30601471D01*
X172663860Y-30607000D01*
X172663854Y-30607000D01*
X172518600Y-30621306D01*
X172495932Y-30623539D01*
X172436463Y-30641579D01*
X172280477Y-30688897D01*
X172081911Y-30795032D01*
X172040420Y-30829083D01*
X172004727Y-30858376D01*
X171907867Y-30937867D01*
X171872077Y-30981477D01*
X170681482Y-32172073D01*
X170637867Y-32207867D01*
X170495032Y-32381912D01*
X170388897Y-32580478D01*
X170351133Y-32704968D01*
X170323540Y-32795932D01*
X170323539Y-32795934D01*
X170307000Y-32963855D01*
X170307000Y-32963861D01*
X170301471Y-33020000D01*
X170307000Y-33076139D01*
X170307001Y-201456553D01*
X169706555Y-202057000D01*
X169383446Y-202057000D01*
X168783000Y-201456555D01*
X168783000Y-33076138D01*
X168788529Y-33019999D01*
X168783000Y-32963860D01*
X168783000Y-32963854D01*
X168766461Y-32795933D01*
X168701103Y-32580477D01*
X168594968Y-32381911D01*
X168452133Y-32207867D01*
X168408523Y-32172077D01*
X167217927Y-30981482D01*
X167182133Y-30937867D01*
X167008089Y-30795032D01*
X166809523Y-30688897D01*
X166594067Y-30623539D01*
X166426146Y-30607000D01*
X166426139Y-30607000D01*
X166370000Y-30601471D01*
X166313861Y-30607000D01*
X165156138Y-30607000D01*
X165099999Y-30601471D01*
X165043860Y-30607000D01*
X165043854Y-30607000D01*
X164898600Y-30621306D01*
X164875932Y-30623539D01*
X164816463Y-30641579D01*
X164660477Y-30688897D01*
X164461911Y-30795032D01*
X164420420Y-30829083D01*
X164384727Y-30858376D01*
X164287867Y-30937867D01*
X164252077Y-30981477D01*
X163061482Y-32172073D01*
X163017867Y-32207867D01*
X162875032Y-32381912D01*
X162768897Y-32580478D01*
X162731133Y-32704968D01*
X162703540Y-32795932D01*
X162703539Y-32795934D01*
X162687000Y-32963855D01*
X162687000Y-32963861D01*
X162681471Y-33020000D01*
X162687000Y-33076139D01*
X162687001Y-201456553D01*
X162086555Y-202057000D01*
X161763446Y-202057000D01*
X161163000Y-201456555D01*
X161163000Y-33076138D01*
X161168529Y-33019999D01*
X161163000Y-32963860D01*
X161163000Y-32963854D01*
X161146461Y-32795933D01*
X161081103Y-32580477D01*
X160974968Y-32381911D01*
X160832133Y-32207867D01*
X160788523Y-32172077D01*
X159597927Y-30981482D01*
X159562133Y-30937867D01*
X159388089Y-30795032D01*
X159189523Y-30688897D01*
X158974067Y-30623539D01*
X158806146Y-30607000D01*
X158806139Y-30607000D01*
X158750000Y-30601471D01*
X158693861Y-30607000D01*
X157536138Y-30607000D01*
X157479999Y-30601471D01*
X157423860Y-30607000D01*
X157423854Y-30607000D01*
X157278600Y-30621306D01*
X157255932Y-30623539D01*
X157196463Y-30641579D01*
X157040477Y-30688897D01*
X156841911Y-30795032D01*
X156800420Y-30829083D01*
X156764727Y-30858376D01*
X156667867Y-30937867D01*
X156632077Y-30981477D01*
X155441482Y-32172073D01*
X155397867Y-32207867D01*
X155255032Y-32381912D01*
X155148897Y-32580478D01*
X155111133Y-32704968D01*
X155083540Y-32795932D01*
X155083539Y-32795934D01*
X155067000Y-32963855D01*
X155067000Y-32963861D01*
X155061471Y-33020000D01*
X155067000Y-33076139D01*
X155067001Y-201456553D01*
X154466555Y-202057000D01*
X154143446Y-202057000D01*
X153543000Y-201456555D01*
X153543000Y-33076138D01*
X153548529Y-33019999D01*
X153543000Y-32963860D01*
X153543000Y-32963854D01*
X153526461Y-32795933D01*
X153461103Y-32580477D01*
X153354968Y-32381911D01*
X153212133Y-32207867D01*
X153168523Y-32172077D01*
X151977927Y-30981482D01*
X151942133Y-30937867D01*
X151768089Y-30795032D01*
X151569523Y-30688897D01*
X151354067Y-30623539D01*
X151186146Y-30607000D01*
X151186139Y-30607000D01*
X151130000Y-30601471D01*
X151073861Y-30607000D01*
X149916138Y-30607000D01*
X149859999Y-30601471D01*
X149803860Y-30607000D01*
X149803854Y-30607000D01*
X149658600Y-30621306D01*
X149635932Y-30623539D01*
X149576463Y-30641579D01*
X149420477Y-30688897D01*
X149221911Y-30795032D01*
X149180420Y-30829083D01*
X149144727Y-30858376D01*
X149047867Y-30937867D01*
X149012077Y-30981477D01*
X147821482Y-32172073D01*
X147777867Y-32207867D01*
X147635032Y-32381912D01*
X147528897Y-32580478D01*
X147491133Y-32704968D01*
X147463540Y-32795932D01*
X147463539Y-32795934D01*
X147447000Y-32963855D01*
X147447000Y-32963861D01*
X147441471Y-33020000D01*
X147447000Y-33076139D01*
X147447001Y-201456553D01*
X146846555Y-202057000D01*
X146523446Y-202057000D01*
X145923000Y-201456555D01*
X145923000Y-33076138D01*
X145928529Y-33019999D01*
X145923000Y-32963860D01*
X145923000Y-32963854D01*
X145906461Y-32795933D01*
X145841103Y-32580477D01*
X145734968Y-32381911D01*
X145592133Y-32207867D01*
X145548523Y-32172077D01*
X144357927Y-30981482D01*
X144322133Y-30937867D01*
X144148089Y-30795032D01*
X143949523Y-30688897D01*
X143734067Y-30623539D01*
X143566146Y-30607000D01*
X143566139Y-30607000D01*
X143510000Y-30601471D01*
X143453861Y-30607000D01*
X142296138Y-30607000D01*
X142239999Y-30601471D01*
X142183860Y-30607000D01*
X142183854Y-30607000D01*
X142038600Y-30621306D01*
X142015932Y-30623539D01*
X141956463Y-30641579D01*
X141800477Y-30688897D01*
X141601911Y-30795032D01*
X141560420Y-30829083D01*
X141524727Y-30858376D01*
X141427867Y-30937867D01*
X141392077Y-30981477D01*
X140201482Y-32172073D01*
X140157867Y-32207867D01*
X140015032Y-32381912D01*
X139908897Y-32580478D01*
X139871133Y-32704968D01*
X139843540Y-32795932D01*
X139843539Y-32795934D01*
X139827000Y-32963855D01*
X139827000Y-32963861D01*
X139821471Y-33020000D01*
X139827000Y-33076139D01*
X139827001Y-201456553D01*
X139226555Y-202057000D01*
X138903446Y-202057000D01*
X138303000Y-201456555D01*
X138303000Y-33076138D01*
X138308529Y-33019999D01*
X138303000Y-32963860D01*
X138303000Y-32963854D01*
X138286461Y-32795933D01*
X138221103Y-32580477D01*
X138114968Y-32381911D01*
X137972133Y-32207867D01*
X137928523Y-32172077D01*
X136737927Y-30981482D01*
X136702133Y-30937867D01*
X136528089Y-30795032D01*
X136329523Y-30688897D01*
X136114067Y-30623539D01*
X135946146Y-30607000D01*
X135946139Y-30607000D01*
X135890000Y-30601471D01*
X135833861Y-30607000D01*
X134676138Y-30607000D01*
X134619999Y-30601471D01*
X134563860Y-30607000D01*
X134563854Y-30607000D01*
X134418600Y-30621306D01*
X134395932Y-30623539D01*
X134336463Y-30641579D01*
X134180477Y-30688897D01*
X133981911Y-30795032D01*
X133940420Y-30829083D01*
X133904727Y-30858376D01*
X133807867Y-30937867D01*
X133772077Y-30981477D01*
X132581482Y-32172073D01*
X132537867Y-32207867D01*
X132395032Y-32381912D01*
X132288897Y-32580478D01*
X132251133Y-32704968D01*
X132223540Y-32795932D01*
X132223539Y-32795934D01*
X132207000Y-32963855D01*
X132207000Y-32963861D01*
X132201471Y-33020000D01*
X132207000Y-33076139D01*
X132207001Y-201456553D01*
X131606555Y-202057000D01*
X131283446Y-202057000D01*
X130683000Y-201456555D01*
X130683000Y-33076138D01*
X130688529Y-33019999D01*
X130683000Y-32963860D01*
X130683000Y-32963854D01*
X130666461Y-32795933D01*
X130601103Y-32580477D01*
X130494968Y-32381911D01*
X130352133Y-32207867D01*
X130308523Y-32172077D01*
X129117927Y-30981482D01*
X129082133Y-30937867D01*
X128908089Y-30795032D01*
X128709523Y-30688897D01*
X128494067Y-30623539D01*
X128326146Y-30607000D01*
X128326139Y-30607000D01*
X128270000Y-30601471D01*
X128213861Y-30607000D01*
X127056138Y-30607000D01*
X126999999Y-30601471D01*
X126943860Y-30607000D01*
X126943854Y-30607000D01*
X126798600Y-30621306D01*
X126775932Y-30623539D01*
X126716463Y-30641579D01*
X126560477Y-30688897D01*
X126361911Y-30795032D01*
X126320420Y-30829083D01*
X126284727Y-30858376D01*
X126187867Y-30937867D01*
X126152077Y-30981477D01*
X124961482Y-32172073D01*
X124917867Y-32207867D01*
X124775032Y-32381912D01*
X124668897Y-32580478D01*
X124631133Y-32704968D01*
X124603540Y-32795932D01*
X124603539Y-32795934D01*
X124587000Y-32963855D01*
X124587000Y-32963861D01*
X124581471Y-33020000D01*
X124587000Y-33076139D01*
X124587001Y-201456553D01*
X123986555Y-202057000D01*
X123663446Y-202057000D01*
X123063000Y-201456555D01*
X123063000Y-33076138D01*
X123068529Y-33019999D01*
X123063000Y-32963860D01*
X123063000Y-32963854D01*
X123046461Y-32795933D01*
X122981103Y-32580477D01*
X122874968Y-32381911D01*
X122732133Y-32207867D01*
X122688523Y-32172077D01*
X121497927Y-30981482D01*
X121462133Y-30937867D01*
X121288089Y-30795032D01*
X121089523Y-30688897D01*
X120874067Y-30623539D01*
X120706146Y-30607000D01*
X120706139Y-30607000D01*
X120650000Y-30601471D01*
X120593861Y-30607000D01*
X119436138Y-30607000D01*
X119379999Y-30601471D01*
X119323860Y-30607000D01*
X119323854Y-30607000D01*
X119178600Y-30621306D01*
X119155932Y-30623539D01*
X119096463Y-30641579D01*
X118940477Y-30688897D01*
X118741911Y-30795032D01*
X118700420Y-30829083D01*
X118664727Y-30858376D01*
X118567867Y-30937867D01*
X118532077Y-30981477D01*
X117341482Y-32172073D01*
X117297867Y-32207867D01*
X117155032Y-32381912D01*
X117048897Y-32580478D01*
X117011133Y-32704968D01*
X116983540Y-32795932D01*
X116983539Y-32795934D01*
X116967000Y-32963855D01*
X116967000Y-32963861D01*
X116961471Y-33020000D01*
X116967000Y-33076139D01*
X116967001Y-201456553D01*
X116366555Y-202057000D01*
X114773446Y-202057000D01*
X114173000Y-201456555D01*
X114173000Y-114773445D01*
X115068524Y-113877922D01*
X115112133Y-113842133D01*
X115254968Y-113668089D01*
X115361103Y-113469523D01*
X115426461Y-113254067D01*
X115443000Y-113086146D01*
X115443000Y-113086140D01*
X115448529Y-113030001D01*
X115443000Y-112973862D01*
X115443000Y-108006138D01*
X115448529Y-107949999D01*
X115443000Y-107893860D01*
X115443000Y-107893854D01*
X115426461Y-107725933D01*
X115361103Y-107510477D01*
X115254968Y-107311911D01*
X115112133Y-107137867D01*
X115068523Y-107102077D01*
X114173000Y-106206555D01*
X114173000Y-33076138D01*
X114178529Y-33019999D01*
X114173000Y-32963860D01*
X114173000Y-32963854D01*
X114156461Y-32795933D01*
X114091103Y-32580477D01*
X113984968Y-32381911D01*
X113842133Y-32207867D01*
X113798523Y-32172077D01*
X112607927Y-30981482D01*
X112572133Y-30937867D01*
X112398089Y-30795032D01*
X112199523Y-30688897D01*
X111984067Y-30623539D01*
X111816146Y-30607000D01*
X111816139Y-30607000D01*
X111760000Y-30601471D01*
X111703861Y-30607000D01*
X109276138Y-30607000D01*
X109219999Y-30601471D01*
X109163860Y-30607000D01*
X109163854Y-30607000D01*
X109018600Y-30621306D01*
X108995932Y-30623539D01*
X108936463Y-30641579D01*
X108780477Y-30688897D01*
X108581911Y-30795032D01*
X108540420Y-30829083D01*
X108504727Y-30858376D01*
X108407867Y-30937867D01*
X108372077Y-30981477D01*
X107181482Y-32172073D01*
X107137867Y-32207867D01*
X106995032Y-32381912D01*
X106888897Y-32580478D01*
X106851133Y-32704968D01*
X106823540Y-32795932D01*
X106823539Y-32795934D01*
X106807000Y-32963855D01*
X106807000Y-32963861D01*
X106801471Y-33020000D01*
X106807000Y-33076139D01*
X106807001Y-106206553D01*
X105911482Y-107102073D01*
X105867867Y-107137867D01*
X105725032Y-107311912D01*
X105618897Y-107510478D01*
X105581133Y-107634968D01*
X105553540Y-107725932D01*
X105553539Y-107725934D01*
X105537000Y-107893855D01*
X105537000Y-107893861D01*
X105531471Y-107950000D01*
X105537000Y-108006139D01*
X105537001Y-112973851D01*
X105531471Y-113030000D01*
X105553539Y-113254067D01*
X105618898Y-113469522D01*
X105618898Y-113469523D01*
X105725033Y-113668089D01*
X105867868Y-113842133D01*
X105911478Y-113877923D01*
X106807000Y-114773446D01*
X106807001Y-201456553D01*
X106206555Y-202057000D01*
X104613446Y-202057000D01*
X104013000Y-201456555D01*
X104013000Y-33076138D01*
X104018529Y-33019999D01*
X104013000Y-32963860D01*
X104013000Y-32963854D01*
X103996461Y-32795933D01*
X103931103Y-32580477D01*
X103824968Y-32381911D01*
X103682133Y-32207867D01*
X103638523Y-32172077D01*
X102447927Y-30981482D01*
X102412133Y-30937867D01*
X102238089Y-30795032D01*
X102039523Y-30688897D01*
X101824067Y-30623539D01*
X101656146Y-30607000D01*
X101656139Y-30607000D01*
X101600000Y-30601471D01*
X101543861Y-30607000D01*
X100386138Y-30607000D01*
X100329999Y-30601471D01*
X100273860Y-30607000D01*
X100273854Y-30607000D01*
X100128600Y-30621306D01*
X100105932Y-30623539D01*
X100046463Y-30641579D01*
X99890477Y-30688897D01*
X99691911Y-30795032D01*
X99650420Y-30829083D01*
X99614727Y-30858376D01*
X99517867Y-30937867D01*
X99482077Y-30981477D01*
X98291482Y-32172073D01*
X98247867Y-32207867D01*
X98105032Y-32381912D01*
X97998897Y-32580478D01*
X97961133Y-32704968D01*
X97933540Y-32795932D01*
X97933539Y-32795934D01*
X97917000Y-32963855D01*
X97917000Y-32963861D01*
X97911471Y-33020000D01*
X97917000Y-33076139D01*
X97917001Y-201456553D01*
X97316555Y-202057000D01*
X96993446Y-202057000D01*
X96393000Y-201456555D01*
X96393000Y-33076138D01*
X96398529Y-33019999D01*
X96393000Y-32963860D01*
X96393000Y-32963854D01*
X96376461Y-32795933D01*
X96311103Y-32580477D01*
X96204968Y-32381911D01*
X96062133Y-32207867D01*
X96018523Y-32172077D01*
X94827927Y-30981482D01*
X94792133Y-30937867D01*
X94618089Y-30795032D01*
X94419523Y-30688897D01*
X94204067Y-30623539D01*
X94036146Y-30607000D01*
X94036139Y-30607000D01*
X93980000Y-30601471D01*
X93923861Y-30607000D01*
X92766138Y-30607000D01*
X92709999Y-30601471D01*
X92653860Y-30607000D01*
X92653854Y-30607000D01*
X92508600Y-30621306D01*
X92485932Y-30623539D01*
X92426463Y-30641579D01*
X92270477Y-30688897D01*
X92071911Y-30795032D01*
X92030420Y-30829083D01*
X91994727Y-30858376D01*
X91897867Y-30937867D01*
X91862077Y-30981477D01*
X90671482Y-32172073D01*
X90627867Y-32207867D01*
X90485032Y-32381912D01*
X90378897Y-32580478D01*
X90341133Y-32704968D01*
X90313540Y-32795932D01*
X90313539Y-32795934D01*
X90297000Y-32963855D01*
X90297000Y-32963861D01*
X90291471Y-33020000D01*
X90297000Y-33076139D01*
X90297001Y-201456553D01*
X89696555Y-202057000D01*
X89373446Y-202057000D01*
X88773000Y-201456555D01*
X88773000Y-33076138D01*
X88778529Y-33019999D01*
X88773000Y-32963860D01*
X88773000Y-32963854D01*
X88756461Y-32795933D01*
X88691103Y-32580477D01*
X88584968Y-32381911D01*
X88442133Y-32207867D01*
X88398523Y-32172077D01*
X87359066Y-31132621D01*
X88112240Y-30829083D01*
X88149802Y-30809613D01*
X88189084Y-30793901D01*
X88266379Y-30749185D01*
X88975709Y-30291177D01*
X89008909Y-30264957D01*
X89044516Y-30242098D01*
X89111961Y-30183572D01*
X89721886Y-29599696D01*
X89749531Y-29567669D01*
X89780171Y-29538491D01*
X89835332Y-29468267D01*
X90323844Y-28779591D01*
X90344933Y-28742916D01*
X90369504Y-28708469D01*
X90410386Y-28629091D01*
X90410391Y-28629082D01*
X90410392Y-28629078D01*
X90759865Y-27860453D01*
X90773638Y-27820454D01*
X90791252Y-27781981D01*
X90816390Y-27696295D01*
X91014215Y-26875450D01*
X91020176Y-26833567D01*
X91030197Y-26792458D01*
X91038678Y-26703564D01*
X91077716Y-25860121D01*
X91075649Y-25817863D01*
X91077716Y-25775605D01*
X91069234Y-25686712D01*
X90948077Y-24851102D01*
X90938058Y-24810003D01*
X90932096Y-24768110D01*
X90906958Y-24682424D01*
X90629977Y-23884801D01*
X90612364Y-23846332D01*
X90598590Y-23806328D01*
X90557703Y-23726941D01*
X90134891Y-22996084D01*
X90110322Y-22961639D01*
X90089232Y-22924963D01*
X90034071Y-22854740D01*
X89480687Y-22217020D01*
X89450047Y-22187842D01*
X89422402Y-22155815D01*
X89354957Y-22097289D01*
X88690966Y-21575718D01*
X88655358Y-21552858D01*
X88622160Y-21526640D01*
X88544871Y-21481927D01*
X88544864Y-21481923D01*
X88544860Y-21481921D01*
X87794228Y-21095319D01*
X87754945Y-21079607D01*
X87717380Y-21060135D01*
X87633024Y-21030842D01*
X86822823Y-20793156D01*
X86781282Y-20785156D01*
X86740712Y-20773139D01*
X86652339Y-20760326D01*
X85813130Y-20680258D01*
X85769898Y-20676000D01*
X25990102Y-20676000D01*
X25967853Y-20678191D01*
X25556596Y-20698305D01*
X25535623Y-20701346D01*
X25514435Y-20701346D01*
X25426062Y-20714159D01*
X24597370Y-20875991D01*
X24556804Y-20888007D01*
X24515257Y-20896008D01*
X24430901Y-20925302D01*
X23647761Y-21240917D01*
X23610202Y-21260386D01*
X23570916Y-21276099D01*
X23493621Y-21320815D01*
X22784291Y-21778823D01*
X22751091Y-21805043D01*
X22715484Y-21827902D01*
X22648039Y-21886428D01*
X22038114Y-22470304D01*
X22010465Y-22502335D01*
X21979829Y-22531510D01*
X21924668Y-22601733D01*
X21436155Y-23290410D01*
X21415065Y-23327086D01*
X21390496Y-23361531D01*
X21349609Y-23440918D01*
X21000135Y-24209547D01*
X20986362Y-24249546D01*
X20968748Y-24288019D01*
X20943611Y-24373705D01*
X20745785Y-25194549D01*
X20739824Y-25236434D01*
X20729803Y-25277542D01*
X20721322Y-25366436D01*
X20682284Y-26209879D01*
X20684351Y-26252137D01*
X20682284Y-26294395D01*
X20690766Y-26383289D01*
X20811923Y-27218898D01*
X20821942Y-27259999D01*
X20827904Y-27301890D01*
X20853042Y-27387577D01*
X21130023Y-28185199D01*
X21147636Y-28223669D01*
X21161410Y-28263672D01*
X21202297Y-28343059D01*
X21625109Y-29073916D01*
X21649678Y-29108361D01*
X21670768Y-29145037D01*
X21725929Y-29215261D01*
X22279314Y-29852980D01*
X22309950Y-29882154D01*
X22337598Y-29914185D01*
X22405043Y-29972711D01*
X23069034Y-30494282D01*
X23104637Y-30517138D01*
X23137839Y-30543360D01*
X23215134Y-30588076D01*
X23553277Y-30762231D01*
X23491911Y-30795032D01*
X23450420Y-30829083D01*
X23414727Y-30858376D01*
X23317867Y-30937867D01*
X23282077Y-30981477D01*
X22091482Y-32172073D01*
X22047867Y-32207867D01*
X21905032Y-32381912D01*
X21798897Y-32580478D01*
X21761133Y-32704968D01*
X21733540Y-32795932D01*
X21733539Y-32795934D01*
X21717000Y-32963855D01*
X21717000Y-32963861D01*
X21711471Y-33020000D01*
X21717000Y-33076139D01*
X21717001Y-201456553D01*
X21116555Y-202057000D01*
X20793446Y-202057000D01*
X20193000Y-201456555D01*
X20193000Y-31489544D01*
X20323290Y-31330785D01*
X20464804Y-31066031D01*
X20551948Y-30778756D01*
X20574000Y-30554859D01*
X20574000Y-22221261D01*
X24761262Y-18034000D01*
X43731699Y-18034000D01*
X43731699Y-19510000D01*
X43748864Y-19684274D01*
X43799697Y-19851851D01*
X43882247Y-20006291D01*
X43993341Y-20141659D01*
X44128709Y-20252753D01*
X44283149Y-20335303D01*
X44450726Y-20386136D01*
X44625000Y-20403301D01*
X50625000Y-20403301D01*
X50799274Y-20386136D01*
X50966851Y-20335303D01*
X51121291Y-20252753D01*
X51256659Y-20141659D01*
X51367753Y-20006291D01*
X51450303Y-19851851D01*
X51501136Y-19684274D01*
X51518301Y-19510000D01*
X51518301Y-13510000D01*
X51501136Y-13335726D01*
X51450303Y-13168149D01*
X51367753Y-13013709D01*
X51256659Y-12878341D01*
X51121291Y-12767247D01*
X50966851Y-12684697D01*
X50799274Y-12633864D01*
X50625000Y-12616699D01*
X44625000Y-12616699D01*
X44450726Y-12633864D01*
X44283149Y-12684697D01*
X44128709Y-12767247D01*
X43993341Y-12878341D01*
X43882247Y-13013709D01*
X43799697Y-13168149D01*
X43748864Y-13335726D01*
X43731699Y-13510000D01*
X43731699Y-14986000D01*
X24204849Y-14986000D01*
X24130000Y-14978628D01*
X24055151Y-14986000D01*
X24055141Y-14986000D01*
X23831244Y-15008052D01*
X23613863Y-15073994D01*
X23543969Y-15095196D01*
X23279214Y-15236710D01*
X23105302Y-15379436D01*
X23105298Y-15379440D01*
X23047156Y-15427156D01*
X22999440Y-15485298D01*
X18025303Y-20459436D01*
X17967156Y-20507156D01*
X17919437Y-20565302D01*
X17919436Y-20565303D01*
X17776710Y-20739215D01*
X17719687Y-20845898D01*
X17635196Y-21003970D01*
X17548052Y-21291245D01*
X17526000Y-21515142D01*
X17526000Y-21515151D01*
X17518628Y-21590000D01*
X11074000Y-21590000D01*
X11074000Y-14204703D01*
X11102419Y-13914855D01*
X11671000Y-13914855D01*
X11671000Y-14405145D01*
X11766651Y-14886014D01*
X11954277Y-15338984D01*
X12226668Y-15746645D01*
X12573355Y-16093332D01*
X12981016Y-16365723D01*
X13433986Y-16553349D01*
X13914855Y-16649000D01*
X14405145Y-16649000D01*
X14886014Y-16553349D01*
X15338984Y-16365723D01*
X15746645Y-16093332D01*
X16093332Y-15746645D01*
X16365723Y-15338984D01*
X16553349Y-14886014D01*
X16649000Y-14405145D01*
X16649000Y-13914855D01*
X16553349Y-13433986D01*
X16365723Y-12981016D01*
X16093332Y-12573355D01*
X15746645Y-12226668D01*
X15338984Y-11954277D01*
X14886014Y-11766651D01*
X14405145Y-11671000D01*
X13914855Y-11671000D01*
X13433986Y-11766651D01*
X12981016Y-11954277D01*
X12573355Y-12226668D01*
X12226668Y-12573355D01*
X11954277Y-12981016D01*
X11766651Y-13433986D01*
X11671000Y-13914855D01*
X11102419Y-13914855D01*
X11137072Y-13561444D01*
X11310904Y-12985685D01*
X11593256Y-12454659D01*
X11973376Y-11988586D01*
X12436780Y-11605225D01*
X12965829Y-11319169D01*
X13540356Y-11141324D01*
X14180900Y-11074000D01*
X206115297Y-11074000D01*
X206758556Y-11137072D01*
%TA.AperFunction,NonConductor*%
D14*
G36*
X206758556Y-11137072D02*
G01*
X207334315Y-11310904D01*
X207865341Y-11593256D01*
X208331414Y-11973376D01*
X208714775Y-12436780D01*
X209000831Y-12965829D01*
X209178676Y-13540356D01*
X209246001Y-14180909D01*
X209246000Y-206115296D01*
X209182928Y-206758556D01*
X209009097Y-207334311D01*
X208726744Y-207865340D01*
X208346624Y-208331414D01*
X207883222Y-208714774D01*
X207354170Y-209000831D01*
X206779648Y-209178675D01*
X206139100Y-209246000D01*
X14204704Y-209246000D01*
X13561444Y-209182928D01*
X12985689Y-209009097D01*
X12454660Y-208726744D01*
X11988586Y-208346624D01*
X11605226Y-207883222D01*
X11319169Y-207354170D01*
X11141325Y-206779648D01*
X11074000Y-206139100D01*
X11074000Y-205914855D01*
X11671000Y-205914855D01*
X11671000Y-206405145D01*
X11766651Y-206886014D01*
X11954277Y-207338984D01*
X12226668Y-207746645D01*
X12573355Y-208093332D01*
X12981016Y-208365723D01*
X13433986Y-208553349D01*
X13914855Y-208649000D01*
X14405145Y-208649000D01*
X14886014Y-208553349D01*
X15338984Y-208365723D01*
X15746645Y-208093332D01*
X16093332Y-207746645D01*
X16365723Y-207338984D01*
X16553349Y-206886014D01*
X16649000Y-206405145D01*
X16649000Y-205914855D01*
X107671000Y-205914855D01*
X107671000Y-206405145D01*
X107766651Y-206886014D01*
X107954277Y-207338984D01*
X108226668Y-207746645D01*
X108573355Y-208093332D01*
X108981016Y-208365723D01*
X109433986Y-208553349D01*
X109914855Y-208649000D01*
X110405145Y-208649000D01*
X110886014Y-208553349D01*
X111338984Y-208365723D01*
X111746645Y-208093332D01*
X112093332Y-207746645D01*
X112365723Y-207338984D01*
X112553349Y-206886014D01*
X112649000Y-206405145D01*
X112649000Y-205914855D01*
X203671000Y-205914855D01*
X203671000Y-206405145D01*
X203766651Y-206886014D01*
X203954277Y-207338984D01*
X204226668Y-207746645D01*
X204573355Y-208093332D01*
X204981016Y-208365723D01*
X205433986Y-208553349D01*
X205914855Y-208649000D01*
X206405145Y-208649000D01*
X206886014Y-208553349D01*
X207338984Y-208365723D01*
X207746645Y-208093332D01*
X208093332Y-207746645D01*
X208365723Y-207338984D01*
X208553349Y-206886014D01*
X208649000Y-206405145D01*
X208649000Y-205914855D01*
X208553349Y-205433986D01*
X208365723Y-204981016D01*
X208093332Y-204573355D01*
X207746645Y-204226668D01*
X207338984Y-203954277D01*
X206886014Y-203766651D01*
X206405145Y-203671000D01*
X205914855Y-203671000D01*
X205433986Y-203766651D01*
X204981016Y-203954277D01*
X204573355Y-204226668D01*
X204226668Y-204573355D01*
X203954277Y-204981016D01*
X203766651Y-205433986D01*
X203671000Y-205914855D01*
X112649000Y-205914855D01*
X112553349Y-205433986D01*
X112365723Y-204981016D01*
X112093332Y-204573355D01*
X111746645Y-204226668D01*
X111338984Y-203954277D01*
X110886014Y-203766651D01*
X110405145Y-203671000D01*
X109914855Y-203671000D01*
X109433986Y-203766651D01*
X108981016Y-203954277D01*
X108573355Y-204226668D01*
X108226668Y-204573355D01*
X107954277Y-204981016D01*
X107766651Y-205433986D01*
X107671000Y-205914855D01*
X16649000Y-205914855D01*
X16553349Y-205433986D01*
X16365723Y-204981016D01*
X16093332Y-204573355D01*
X15746645Y-204226668D01*
X15338984Y-203954277D01*
X14886014Y-203766651D01*
X14405145Y-203671000D01*
X13914855Y-203671000D01*
X13433986Y-203766651D01*
X12981016Y-203954277D01*
X12573355Y-204226668D01*
X12226668Y-204573355D01*
X11954277Y-204981016D01*
X11766651Y-205433986D01*
X11671000Y-205914855D01*
X11074000Y-205914855D01*
X11074000Y-109914855D01*
X11671000Y-109914855D01*
X11671000Y-110405145D01*
X11766651Y-110886014D01*
X11954277Y-111338984D01*
X12226668Y-111746645D01*
X12573355Y-112093332D01*
X12981016Y-112365723D01*
X13433986Y-112553349D01*
X13914855Y-112649000D01*
X14405145Y-112649000D01*
X14886014Y-112553349D01*
X15338984Y-112365723D01*
X15746645Y-112093332D01*
X16093332Y-111746645D01*
X16365723Y-111338984D01*
X16553349Y-110886014D01*
X16649000Y-110405145D01*
X16649000Y-109914855D01*
X16553349Y-109433986D01*
X16365723Y-108981016D01*
X16093332Y-108573355D01*
X15746645Y-108226668D01*
X15338984Y-107954277D01*
X14886014Y-107766651D01*
X14405145Y-107671000D01*
X13914855Y-107671000D01*
X13433986Y-107766651D01*
X12981016Y-107954277D01*
X12573355Y-108226668D01*
X12226668Y-108573355D01*
X11954277Y-108981016D01*
X11766651Y-109433986D01*
X11671000Y-109914855D01*
X11074000Y-109914855D01*
X11074000Y-21590000D01*
X17518628Y-21590000D01*
X17526000Y-21664849D01*
X17526001Y-30554859D01*
X17548053Y-30778756D01*
X17635197Y-31066031D01*
X17776711Y-31330785D01*
X17907001Y-31489544D01*
X17907000Y-201873861D01*
X17901471Y-201930000D01*
X17907000Y-201986139D01*
X17907000Y-201986145D01*
X17913979Y-202057000D01*
X17923539Y-202154067D01*
X17943365Y-202219425D01*
X17988897Y-202369522D01*
X18095032Y-202568088D01*
X18237867Y-202742133D01*
X18281482Y-202777927D01*
X19472077Y-203968523D01*
X19507867Y-204012133D01*
X19681911Y-204154968D01*
X19880477Y-204261103D01*
X20030574Y-204306635D01*
X20095932Y-204326461D01*
X20118600Y-204328694D01*
X20263854Y-204343000D01*
X20263860Y-204343000D01*
X20319999Y-204348529D01*
X20376138Y-204343000D01*
X21533861Y-204343000D01*
X21590000Y-204348529D01*
X21646139Y-204343000D01*
X21646146Y-204343000D01*
X21814067Y-204326461D01*
X22029523Y-204261103D01*
X22228089Y-204154968D01*
X22402133Y-204012133D01*
X22437927Y-203968518D01*
X23628523Y-202777923D01*
X23672133Y-202742133D01*
X23814968Y-202568089D01*
X23921103Y-202369523D01*
X23986461Y-202154067D01*
X24003000Y-201986146D01*
X24003000Y-201986140D01*
X24008529Y-201930001D01*
X24003000Y-201873862D01*
X24003000Y-33493445D01*
X24603446Y-32893000D01*
X24926555Y-32893000D01*
X25527001Y-33493447D01*
X25527000Y-201873861D01*
X25521471Y-201930000D01*
X25527000Y-201986139D01*
X25527000Y-201986145D01*
X25533979Y-202057000D01*
X25543539Y-202154067D01*
X25563365Y-202219425D01*
X25608897Y-202369522D01*
X25715032Y-202568088D01*
X25857867Y-202742133D01*
X25901482Y-202777927D01*
X27092077Y-203968523D01*
X27127867Y-204012133D01*
X27301911Y-204154968D01*
X27500477Y-204261103D01*
X27650574Y-204306635D01*
X27715932Y-204326461D01*
X27738600Y-204328694D01*
X27883854Y-204343000D01*
X27883860Y-204343000D01*
X27939999Y-204348529D01*
X27996138Y-204343000D01*
X29153861Y-204343000D01*
X29210000Y-204348529D01*
X29266139Y-204343000D01*
X29266146Y-204343000D01*
X29434067Y-204326461D01*
X29649523Y-204261103D01*
X29848089Y-204154968D01*
X30022133Y-204012133D01*
X30057927Y-203968518D01*
X31248523Y-202777923D01*
X31292133Y-202742133D01*
X31434968Y-202568089D01*
X31541103Y-202369523D01*
X31606461Y-202154067D01*
X31623000Y-201986146D01*
X31623000Y-201986140D01*
X31628529Y-201930001D01*
X31623000Y-201873862D01*
X31623000Y-33493445D01*
X32223446Y-32893000D01*
X32546555Y-32893000D01*
X33147001Y-33493447D01*
X33147000Y-201873861D01*
X33141471Y-201930000D01*
X33147000Y-201986139D01*
X33147000Y-201986145D01*
X33153979Y-202057000D01*
X33163539Y-202154067D01*
X33183365Y-202219425D01*
X33228897Y-202369522D01*
X33335032Y-202568088D01*
X33477867Y-202742133D01*
X33521482Y-202777927D01*
X34712077Y-203968523D01*
X34747867Y-204012133D01*
X34921911Y-204154968D01*
X35120477Y-204261103D01*
X35270574Y-204306635D01*
X35335932Y-204326461D01*
X35358600Y-204328694D01*
X35503854Y-204343000D01*
X35503860Y-204343000D01*
X35559999Y-204348529D01*
X35616138Y-204343000D01*
X36773861Y-204343000D01*
X36830000Y-204348529D01*
X36886139Y-204343000D01*
X36886146Y-204343000D01*
X37054067Y-204326461D01*
X37269523Y-204261103D01*
X37468089Y-204154968D01*
X37642133Y-204012133D01*
X37677927Y-203968518D01*
X38868523Y-202777923D01*
X38912133Y-202742133D01*
X39054968Y-202568089D01*
X39161103Y-202369523D01*
X39226461Y-202154067D01*
X39243000Y-201986146D01*
X39243000Y-201986140D01*
X39248529Y-201930001D01*
X39243000Y-201873862D01*
X39243000Y-33493445D01*
X39843446Y-32893000D01*
X40166555Y-32893000D01*
X40767001Y-33493447D01*
X40767000Y-201873861D01*
X40761471Y-201930000D01*
X40767000Y-201986139D01*
X40767000Y-201986145D01*
X40773979Y-202057000D01*
X40783539Y-202154067D01*
X40803365Y-202219425D01*
X40848897Y-202369522D01*
X40955032Y-202568088D01*
X41097867Y-202742133D01*
X41141482Y-202777927D01*
X42332077Y-203968523D01*
X42367867Y-204012133D01*
X42541911Y-204154968D01*
X42740477Y-204261103D01*
X42890574Y-204306635D01*
X42955932Y-204326461D01*
X42978600Y-204328694D01*
X43123854Y-204343000D01*
X43123860Y-204343000D01*
X43179999Y-204348529D01*
X43236138Y-204343000D01*
X44393861Y-204343000D01*
X44450000Y-204348529D01*
X44506139Y-204343000D01*
X44506146Y-204343000D01*
X44674067Y-204326461D01*
X44889523Y-204261103D01*
X45088089Y-204154968D01*
X45262133Y-204012133D01*
X45297927Y-203968518D01*
X46488523Y-202777923D01*
X46532133Y-202742133D01*
X46674968Y-202568089D01*
X46781103Y-202369523D01*
X46846461Y-202154067D01*
X46863000Y-201986146D01*
X46863000Y-201986140D01*
X46868529Y-201930001D01*
X46863000Y-201873862D01*
X46863000Y-33493445D01*
X47463446Y-32893000D01*
X47786555Y-32893000D01*
X48387001Y-33493447D01*
X48387000Y-201873861D01*
X48381471Y-201930000D01*
X48387000Y-201986139D01*
X48387000Y-201986145D01*
X48393979Y-202057000D01*
X48403539Y-202154067D01*
X48423365Y-202219425D01*
X48468897Y-202369522D01*
X48575032Y-202568088D01*
X48717867Y-202742133D01*
X48761482Y-202777927D01*
X49952077Y-203968523D01*
X49987867Y-204012133D01*
X50161911Y-204154968D01*
X50360477Y-204261103D01*
X50510574Y-204306635D01*
X50575932Y-204326461D01*
X50598600Y-204328694D01*
X50743854Y-204343000D01*
X50743860Y-204343000D01*
X50799999Y-204348529D01*
X50856138Y-204343000D01*
X52013861Y-204343000D01*
X52070000Y-204348529D01*
X52126139Y-204343000D01*
X52126146Y-204343000D01*
X52294067Y-204326461D01*
X52509523Y-204261103D01*
X52708089Y-204154968D01*
X52882133Y-204012133D01*
X52917927Y-203968518D01*
X54108523Y-202777923D01*
X54152133Y-202742133D01*
X54294968Y-202568089D01*
X54401103Y-202369523D01*
X54466461Y-202154067D01*
X54483000Y-201986146D01*
X54483000Y-201986140D01*
X54488529Y-201930001D01*
X54483000Y-201873862D01*
X54483000Y-33493445D01*
X55083446Y-32893000D01*
X55406555Y-32893000D01*
X56007001Y-33493447D01*
X56007000Y-201873861D01*
X56001471Y-201930000D01*
X56007000Y-201986139D01*
X56007000Y-201986145D01*
X56013979Y-202057000D01*
X56023539Y-202154067D01*
X56043365Y-202219425D01*
X56088897Y-202369522D01*
X56195032Y-202568088D01*
X56337867Y-202742133D01*
X56381482Y-202777927D01*
X57572077Y-203968523D01*
X57607867Y-204012133D01*
X57781911Y-204154968D01*
X57980477Y-204261103D01*
X58130574Y-204306635D01*
X58195932Y-204326461D01*
X58218600Y-204328694D01*
X58363854Y-204343000D01*
X58363860Y-204343000D01*
X58419999Y-204348529D01*
X58476138Y-204343000D01*
X59633861Y-204343000D01*
X59690000Y-204348529D01*
X59746139Y-204343000D01*
X59746146Y-204343000D01*
X59914067Y-204326461D01*
X60129523Y-204261103D01*
X60328089Y-204154968D01*
X60502133Y-204012133D01*
X60537927Y-203968518D01*
X61728523Y-202777923D01*
X61772133Y-202742133D01*
X61914968Y-202568089D01*
X62021103Y-202369523D01*
X62086461Y-202154067D01*
X62103000Y-201986146D01*
X62103000Y-201986140D01*
X62108529Y-201930001D01*
X62103000Y-201873862D01*
X62103000Y-33493445D01*
X62703446Y-32893000D01*
X63026555Y-32893000D01*
X63627001Y-33493447D01*
X63627000Y-201873861D01*
X63621471Y-201930000D01*
X63627000Y-201986139D01*
X63627000Y-201986145D01*
X63633979Y-202057000D01*
X63643539Y-202154067D01*
X63663365Y-202219425D01*
X63708897Y-202369522D01*
X63815032Y-202568088D01*
X63957867Y-202742133D01*
X64001482Y-202777927D01*
X65192077Y-203968523D01*
X65227867Y-204012133D01*
X65401911Y-204154968D01*
X65600477Y-204261103D01*
X65750574Y-204306635D01*
X65815932Y-204326461D01*
X65838600Y-204328694D01*
X65983854Y-204343000D01*
X65983860Y-204343000D01*
X66039999Y-204348529D01*
X66096138Y-204343000D01*
X67253861Y-204343000D01*
X67310000Y-204348529D01*
X67366139Y-204343000D01*
X67366146Y-204343000D01*
X67534067Y-204326461D01*
X67749523Y-204261103D01*
X67948089Y-204154968D01*
X68122133Y-204012133D01*
X68157927Y-203968518D01*
X69348523Y-202777923D01*
X69392133Y-202742133D01*
X69534968Y-202568089D01*
X69641103Y-202369523D01*
X69706461Y-202154067D01*
X69723000Y-201986146D01*
X69723000Y-201986140D01*
X69728529Y-201930001D01*
X69723000Y-201873862D01*
X69723000Y-33493445D01*
X70323446Y-32893000D01*
X70646555Y-32893000D01*
X71247001Y-33493447D01*
X71247000Y-201873861D01*
X71241471Y-201930000D01*
X71247000Y-201986139D01*
X71247000Y-201986145D01*
X71253979Y-202057000D01*
X71263539Y-202154067D01*
X71283365Y-202219425D01*
X71328897Y-202369522D01*
X71435032Y-202568088D01*
X71577867Y-202742133D01*
X71621482Y-202777927D01*
X72812077Y-203968523D01*
X72847867Y-204012133D01*
X73021911Y-204154968D01*
X73220477Y-204261103D01*
X73370574Y-204306635D01*
X73435932Y-204326461D01*
X73458600Y-204328694D01*
X73603854Y-204343000D01*
X73603860Y-204343000D01*
X73659999Y-204348529D01*
X73716138Y-204343000D01*
X74873861Y-204343000D01*
X74930000Y-204348529D01*
X74986139Y-204343000D01*
X74986146Y-204343000D01*
X75154067Y-204326461D01*
X75369523Y-204261103D01*
X75568089Y-204154968D01*
X75742133Y-204012133D01*
X75777927Y-203968518D01*
X76968523Y-202777923D01*
X77012133Y-202742133D01*
X77154968Y-202568089D01*
X77261103Y-202369523D01*
X77326461Y-202154067D01*
X77343000Y-201986146D01*
X77343000Y-201986140D01*
X77348529Y-201930001D01*
X77343000Y-201873862D01*
X77343000Y-33493445D01*
X77943446Y-32893000D01*
X78266555Y-32893000D01*
X78867001Y-33493447D01*
X78867000Y-201873861D01*
X78861471Y-201930000D01*
X78867000Y-201986139D01*
X78867000Y-201986145D01*
X78873979Y-202057000D01*
X78883539Y-202154067D01*
X78903365Y-202219425D01*
X78948897Y-202369522D01*
X79055032Y-202568088D01*
X79197867Y-202742133D01*
X79241482Y-202777927D01*
X80432077Y-203968523D01*
X80467867Y-204012133D01*
X80641911Y-204154968D01*
X80840477Y-204261103D01*
X80990574Y-204306635D01*
X81055932Y-204326461D01*
X81078600Y-204328694D01*
X81223854Y-204343000D01*
X81223860Y-204343000D01*
X81279999Y-204348529D01*
X81336138Y-204343000D01*
X82493861Y-204343000D01*
X82550000Y-204348529D01*
X82606139Y-204343000D01*
X82606146Y-204343000D01*
X82774067Y-204326461D01*
X82989523Y-204261103D01*
X83188089Y-204154968D01*
X83362133Y-204012133D01*
X83397927Y-203968518D01*
X84588523Y-202777923D01*
X84632133Y-202742133D01*
X84774968Y-202568089D01*
X84881103Y-202369523D01*
X84946461Y-202154067D01*
X84963000Y-201986146D01*
X84963000Y-201986140D01*
X84968529Y-201930001D01*
X84963000Y-201873862D01*
X84963000Y-33493445D01*
X85563446Y-32893000D01*
X85886555Y-32893000D01*
X86487001Y-33493447D01*
X86487000Y-201873861D01*
X86481471Y-201930000D01*
X86487000Y-201986139D01*
X86487000Y-201986145D01*
X86493979Y-202057000D01*
X86503539Y-202154067D01*
X86523365Y-202219425D01*
X86568897Y-202369522D01*
X86675032Y-202568088D01*
X86817867Y-202742133D01*
X86861482Y-202777927D01*
X88052077Y-203968523D01*
X88087867Y-204012133D01*
X88261911Y-204154968D01*
X88460477Y-204261103D01*
X88610574Y-204306635D01*
X88675932Y-204326461D01*
X88698600Y-204328694D01*
X88843854Y-204343000D01*
X88843860Y-204343000D01*
X88899999Y-204348529D01*
X88956138Y-204343000D01*
X90113861Y-204343000D01*
X90170000Y-204348529D01*
X90226139Y-204343000D01*
X90226146Y-204343000D01*
X90394067Y-204326461D01*
X90609523Y-204261103D01*
X90808089Y-204154968D01*
X90982133Y-204012133D01*
X91017927Y-203968518D01*
X92208523Y-202777923D01*
X92252133Y-202742133D01*
X92394968Y-202568089D01*
X92501103Y-202369523D01*
X92566461Y-202154067D01*
X92583000Y-201986146D01*
X92583000Y-201986140D01*
X92588529Y-201930001D01*
X92583000Y-201873862D01*
X92583000Y-33493445D01*
X93183446Y-32893000D01*
X93506555Y-32893000D01*
X94107001Y-33493447D01*
X94107000Y-201873861D01*
X94101471Y-201930000D01*
X94107000Y-201986139D01*
X94107000Y-201986145D01*
X94113979Y-202057000D01*
X94123539Y-202154067D01*
X94143365Y-202219425D01*
X94188897Y-202369522D01*
X94295032Y-202568088D01*
X94437867Y-202742133D01*
X94481482Y-202777927D01*
X95672077Y-203968523D01*
X95707867Y-204012133D01*
X95881911Y-204154968D01*
X96080477Y-204261103D01*
X96230574Y-204306635D01*
X96295932Y-204326461D01*
X96318600Y-204328694D01*
X96463854Y-204343000D01*
X96463860Y-204343000D01*
X96519999Y-204348529D01*
X96576138Y-204343000D01*
X97733861Y-204343000D01*
X97790000Y-204348529D01*
X97846139Y-204343000D01*
X97846146Y-204343000D01*
X98014067Y-204326461D01*
X98229523Y-204261103D01*
X98428089Y-204154968D01*
X98602133Y-204012133D01*
X98637927Y-203968518D01*
X99828523Y-202777923D01*
X99872133Y-202742133D01*
X100014968Y-202568089D01*
X100121103Y-202369523D01*
X100186461Y-202154067D01*
X100203000Y-201986146D01*
X100203000Y-201986140D01*
X100208529Y-201930001D01*
X100203000Y-201873862D01*
X100203000Y-33493445D01*
X100803446Y-32893000D01*
X101126555Y-32893000D01*
X101727001Y-33493447D01*
X101727000Y-201873861D01*
X101721471Y-201930000D01*
X101727000Y-201986139D01*
X101727000Y-201986145D01*
X101733979Y-202057000D01*
X101743539Y-202154067D01*
X101763365Y-202219425D01*
X101808897Y-202369522D01*
X101915032Y-202568088D01*
X102057867Y-202742133D01*
X102101482Y-202777927D01*
X103292077Y-203968523D01*
X103327867Y-204012133D01*
X103501911Y-204154968D01*
X103700477Y-204261103D01*
X103850574Y-204306635D01*
X103915932Y-204326461D01*
X103938600Y-204328694D01*
X104083854Y-204343000D01*
X104083860Y-204343000D01*
X104139999Y-204348529D01*
X104196138Y-204343000D01*
X106623861Y-204343000D01*
X106680000Y-204348529D01*
X106736139Y-204343000D01*
X106736146Y-204343000D01*
X106904067Y-204326461D01*
X107119523Y-204261103D01*
X107318089Y-204154968D01*
X107492133Y-204012133D01*
X107527927Y-203968518D01*
X108718523Y-202777923D01*
X108762133Y-202742133D01*
X108904968Y-202568089D01*
X109011103Y-202369523D01*
X109076461Y-202154067D01*
X109093000Y-201986146D01*
X109093000Y-201986140D01*
X109098529Y-201930001D01*
X109093000Y-201873862D01*
X109093000Y-114356138D01*
X109098529Y-114299999D01*
X109093000Y-114243860D01*
X109093000Y-114243854D01*
X109076461Y-114075933D01*
X109011103Y-113860477D01*
X108904968Y-113661911D01*
X108762133Y-113487867D01*
X108718524Y-113452078D01*
X107823000Y-112556555D01*
X107823000Y-111022053D01*
X107954277Y-111338984D01*
X108226668Y-111746645D01*
X108573355Y-112093332D01*
X108981016Y-112365723D01*
X109433986Y-112553349D01*
X109914855Y-112649000D01*
X110405145Y-112649000D01*
X110886014Y-112553349D01*
X111338984Y-112365723D01*
X111746645Y-112093332D01*
X112093332Y-111746645D01*
X112365723Y-111338984D01*
X112553349Y-110886014D01*
X112649000Y-110405145D01*
X112649000Y-109914855D01*
X112553349Y-109433986D01*
X112365723Y-108981016D01*
X112093332Y-108573355D01*
X111746645Y-108226668D01*
X111338984Y-107954277D01*
X110886014Y-107766651D01*
X110405145Y-107671000D01*
X109914855Y-107671000D01*
X109433986Y-107766651D01*
X108981016Y-107954277D01*
X108573355Y-108226668D01*
X108226668Y-108573355D01*
X107954277Y-108981016D01*
X107823000Y-109297947D01*
X107823000Y-108423445D01*
X108718523Y-107527923D01*
X108762133Y-107492133D01*
X108904968Y-107318089D01*
X109011103Y-107119523D01*
X109076461Y-106904067D01*
X109093000Y-106736146D01*
X109093000Y-106736140D01*
X109098529Y-106680001D01*
X109093000Y-106623862D01*
X109093000Y-33493445D01*
X109693446Y-32893000D01*
X111286555Y-32893000D01*
X111887001Y-33493447D01*
X111887000Y-106623861D01*
X111881471Y-106680000D01*
X111887000Y-106736139D01*
X111887000Y-106736145D01*
X111893434Y-106801470D01*
X111903539Y-106904067D01*
X111923365Y-106969425D01*
X111968897Y-107119522D01*
X112075032Y-107318088D01*
X112217867Y-107492133D01*
X112261482Y-107527927D01*
X113157001Y-108423447D01*
X113157000Y-112556554D01*
X112261478Y-113452077D01*
X112217868Y-113487867D01*
X112075033Y-113661911D01*
X111978703Y-113842133D01*
X111968898Y-113860477D01*
X111903539Y-114075933D01*
X111881471Y-114300000D01*
X111887001Y-114356149D01*
X111887000Y-201873861D01*
X111881471Y-201930000D01*
X111887000Y-201986139D01*
X111887000Y-201986145D01*
X111893979Y-202057000D01*
X111903539Y-202154067D01*
X111923365Y-202219425D01*
X111968897Y-202369522D01*
X112075032Y-202568088D01*
X112217867Y-202742133D01*
X112261482Y-202777927D01*
X113452077Y-203968523D01*
X113487867Y-204012133D01*
X113661911Y-204154968D01*
X113860477Y-204261103D01*
X114010574Y-204306635D01*
X114075932Y-204326461D01*
X114098600Y-204328694D01*
X114243854Y-204343000D01*
X114243860Y-204343000D01*
X114299999Y-204348529D01*
X114356138Y-204343000D01*
X116783861Y-204343000D01*
X116840000Y-204348529D01*
X116896139Y-204343000D01*
X116896146Y-204343000D01*
X117064067Y-204326461D01*
X117279523Y-204261103D01*
X117478089Y-204154968D01*
X117652133Y-204012133D01*
X117687927Y-203968518D01*
X118878523Y-202777923D01*
X118922133Y-202742133D01*
X119064968Y-202568089D01*
X119171103Y-202369523D01*
X119236461Y-202154067D01*
X119253000Y-201986146D01*
X119253000Y-201986140D01*
X119258529Y-201930001D01*
X119253000Y-201873862D01*
X119253000Y-33493445D01*
X119853446Y-32893000D01*
X120176555Y-32893000D01*
X120777001Y-33493447D01*
X120777000Y-201873861D01*
X120771471Y-201930000D01*
X120777000Y-201986139D01*
X120777000Y-201986145D01*
X120783979Y-202057000D01*
X120793539Y-202154067D01*
X120813365Y-202219425D01*
X120858897Y-202369522D01*
X120965032Y-202568088D01*
X121107867Y-202742133D01*
X121151482Y-202777927D01*
X122342077Y-203968523D01*
X122377867Y-204012133D01*
X122551911Y-204154968D01*
X122750477Y-204261103D01*
X122900574Y-204306635D01*
X122965932Y-204326461D01*
X122988600Y-204328694D01*
X123133854Y-204343000D01*
X123133860Y-204343000D01*
X123189999Y-204348529D01*
X123246138Y-204343000D01*
X124403861Y-204343000D01*
X124460000Y-204348529D01*
X124516139Y-204343000D01*
X124516146Y-204343000D01*
X124684067Y-204326461D01*
X124899523Y-204261103D01*
X125098089Y-204154968D01*
X125272133Y-204012133D01*
X125307927Y-203968518D01*
X126498523Y-202777923D01*
X126542133Y-202742133D01*
X126684968Y-202568089D01*
X126791103Y-202369523D01*
X126856461Y-202154067D01*
X126873000Y-201986146D01*
X126873000Y-201986140D01*
X126878529Y-201930001D01*
X126873000Y-201873862D01*
X126873000Y-33493445D01*
X127473446Y-32893000D01*
X127796555Y-32893000D01*
X128397001Y-33493447D01*
X128397000Y-201873861D01*
X128391471Y-201930000D01*
X128397000Y-201986139D01*
X128397000Y-201986145D01*
X128403979Y-202057000D01*
X128413539Y-202154067D01*
X128433365Y-202219425D01*
X128478897Y-202369522D01*
X128585032Y-202568088D01*
X128727867Y-202742133D01*
X128771482Y-202777927D01*
X129962077Y-203968523D01*
X129997867Y-204012133D01*
X130171911Y-204154968D01*
X130370477Y-204261103D01*
X130520574Y-204306635D01*
X130585932Y-204326461D01*
X130608600Y-204328694D01*
X130753854Y-204343000D01*
X130753860Y-204343000D01*
X130809999Y-204348529D01*
X130866138Y-204343000D01*
X132023861Y-204343000D01*
X132080000Y-204348529D01*
X132136139Y-204343000D01*
X132136146Y-204343000D01*
X132304067Y-204326461D01*
X132519523Y-204261103D01*
X132718089Y-204154968D01*
X132892133Y-204012133D01*
X132927927Y-203968518D01*
X134118523Y-202777923D01*
X134162133Y-202742133D01*
X134304968Y-202568089D01*
X134411103Y-202369523D01*
X134476461Y-202154067D01*
X134493000Y-201986146D01*
X134493000Y-201986140D01*
X134498529Y-201930001D01*
X134493000Y-201873862D01*
X134493000Y-33493445D01*
X135093446Y-32893000D01*
X135416555Y-32893000D01*
X136017001Y-33493447D01*
X136017000Y-201873861D01*
X136011471Y-201930000D01*
X136017000Y-201986139D01*
X136017000Y-201986145D01*
X136023979Y-202057000D01*
X136033539Y-202154067D01*
X136053365Y-202219425D01*
X136098897Y-202369522D01*
X136205032Y-202568088D01*
X136347867Y-202742133D01*
X136391482Y-202777927D01*
X137582077Y-203968523D01*
X137617867Y-204012133D01*
X137791911Y-204154968D01*
X137990477Y-204261103D01*
X138140574Y-204306635D01*
X138205932Y-204326461D01*
X138228600Y-204328694D01*
X138373854Y-204343000D01*
X138373860Y-204343000D01*
X138429999Y-204348529D01*
X138486138Y-204343000D01*
X139643861Y-204343000D01*
X139700000Y-204348529D01*
X139756139Y-204343000D01*
X139756146Y-204343000D01*
X139924067Y-204326461D01*
X140139523Y-204261103D01*
X140338089Y-204154968D01*
X140512133Y-204012133D01*
X140547927Y-203968518D01*
X141738523Y-202777923D01*
X141782133Y-202742133D01*
X141924968Y-202568089D01*
X142031103Y-202369523D01*
X142096461Y-202154067D01*
X142113000Y-201986146D01*
X142113000Y-201986140D01*
X142118529Y-201930001D01*
X142113000Y-201873862D01*
X142113000Y-33493445D01*
X142713446Y-32893000D01*
X143036555Y-32893000D01*
X143637001Y-33493447D01*
X143637000Y-201873861D01*
X143631471Y-201930000D01*
X143637000Y-201986139D01*
X143637000Y-201986145D01*
X143643979Y-202057000D01*
X143653539Y-202154067D01*
X143673365Y-202219425D01*
X143718897Y-202369522D01*
X143825032Y-202568088D01*
X143967867Y-202742133D01*
X144011482Y-202777927D01*
X145202077Y-203968523D01*
X145237867Y-204012133D01*
X145411911Y-204154968D01*
X145610477Y-204261103D01*
X145760574Y-204306635D01*
X145825932Y-204326461D01*
X145848600Y-204328694D01*
X145993854Y-204343000D01*
X145993860Y-204343000D01*
X146049999Y-204348529D01*
X146106138Y-204343000D01*
X147263861Y-204343000D01*
X147320000Y-204348529D01*
X147376139Y-204343000D01*
X147376146Y-204343000D01*
X147544067Y-204326461D01*
X147759523Y-204261103D01*
X147958089Y-204154968D01*
X148132133Y-204012133D01*
X148167927Y-203968518D01*
X149358523Y-202777923D01*
X149402133Y-202742133D01*
X149544968Y-202568089D01*
X149651103Y-202369523D01*
X149716461Y-202154067D01*
X149733000Y-201986146D01*
X149733000Y-201986140D01*
X149738529Y-201930001D01*
X149733000Y-201873862D01*
X149733000Y-33493445D01*
X150333446Y-32893000D01*
X150656555Y-32893000D01*
X151257001Y-33493447D01*
X151257000Y-201873861D01*
X151251471Y-201930000D01*
X151257000Y-201986139D01*
X151257000Y-201986145D01*
X151263979Y-202057000D01*
X151273539Y-202154067D01*
X151293365Y-202219425D01*
X151338897Y-202369522D01*
X151445032Y-202568088D01*
X151587867Y-202742133D01*
X151631482Y-202777927D01*
X152822077Y-203968523D01*
X152857867Y-204012133D01*
X153031911Y-204154968D01*
X153230477Y-204261103D01*
X153380574Y-204306635D01*
X153445932Y-204326461D01*
X153468600Y-204328694D01*
X153613854Y-204343000D01*
X153613860Y-204343000D01*
X153669999Y-204348529D01*
X153726138Y-204343000D01*
X154883861Y-204343000D01*
X154940000Y-204348529D01*
X154996139Y-204343000D01*
X154996146Y-204343000D01*
X155164067Y-204326461D01*
X155379523Y-204261103D01*
X155578089Y-204154968D01*
X155752133Y-204012133D01*
X155787927Y-203968518D01*
X156978523Y-202777923D01*
X157022133Y-202742133D01*
X157164968Y-202568089D01*
X157271103Y-202369523D01*
X157336461Y-202154067D01*
X157353000Y-201986146D01*
X157353000Y-201986140D01*
X157358529Y-201930001D01*
X157353000Y-201873862D01*
X157353000Y-33493445D01*
X157953446Y-32893000D01*
X158276555Y-32893000D01*
X158877001Y-33493447D01*
X158877000Y-201873861D01*
X158871471Y-201930000D01*
X158877000Y-201986139D01*
X158877000Y-201986145D01*
X158883979Y-202057000D01*
X158893539Y-202154067D01*
X158913365Y-202219425D01*
X158958897Y-202369522D01*
X159065032Y-202568088D01*
X159207867Y-202742133D01*
X159251482Y-202777927D01*
X160442077Y-203968523D01*
X160477867Y-204012133D01*
X160651911Y-204154968D01*
X160850477Y-204261103D01*
X161000574Y-204306635D01*
X161065932Y-204326461D01*
X161088600Y-204328694D01*
X161233854Y-204343000D01*
X161233860Y-204343000D01*
X161289999Y-204348529D01*
X161346138Y-204343000D01*
X162503861Y-204343000D01*
X162560000Y-204348529D01*
X162616139Y-204343000D01*
X162616146Y-204343000D01*
X162784067Y-204326461D01*
X162999523Y-204261103D01*
X163198089Y-204154968D01*
X163372133Y-204012133D01*
X163407927Y-203968518D01*
X164598523Y-202777923D01*
X164642133Y-202742133D01*
X164784968Y-202568089D01*
X164891103Y-202369523D01*
X164956461Y-202154067D01*
X164973000Y-201986146D01*
X164973000Y-201986140D01*
X164978529Y-201930001D01*
X164973000Y-201873862D01*
X164973000Y-33493445D01*
X165573446Y-32893000D01*
X165896555Y-32893000D01*
X166497001Y-33493447D01*
X166497000Y-201873861D01*
X166491471Y-201930000D01*
X166497000Y-201986139D01*
X166497000Y-201986145D01*
X166503979Y-202057000D01*
X166513539Y-202154067D01*
X166533365Y-202219425D01*
X166578897Y-202369522D01*
X166685032Y-202568088D01*
X166827867Y-202742133D01*
X166871482Y-202777927D01*
X168062077Y-203968523D01*
X168097867Y-204012133D01*
X168271911Y-204154968D01*
X168470477Y-204261103D01*
X168620574Y-204306635D01*
X168685932Y-204326461D01*
X168708600Y-204328694D01*
X168853854Y-204343000D01*
X168853860Y-204343000D01*
X168909999Y-204348529D01*
X168966138Y-204343000D01*
X170123861Y-204343000D01*
X170180000Y-204348529D01*
X170236139Y-204343000D01*
X170236146Y-204343000D01*
X170404067Y-204326461D01*
X170619523Y-204261103D01*
X170818089Y-204154968D01*
X170992133Y-204012133D01*
X171027927Y-203968518D01*
X172218523Y-202777923D01*
X172262133Y-202742133D01*
X172404968Y-202568089D01*
X172511103Y-202369523D01*
X172576461Y-202154067D01*
X172593000Y-201986146D01*
X172593000Y-201986140D01*
X172598529Y-201930001D01*
X172593000Y-201873862D01*
X172593000Y-33493445D01*
X173193446Y-32893000D01*
X173516555Y-32893000D01*
X174117001Y-33493447D01*
X174117000Y-201873861D01*
X174111471Y-201930000D01*
X174117000Y-201986139D01*
X174117000Y-201986145D01*
X174123979Y-202057000D01*
X174133539Y-202154067D01*
X174153365Y-202219425D01*
X174198897Y-202369522D01*
X174305032Y-202568088D01*
X174447867Y-202742133D01*
X174491482Y-202777927D01*
X175682077Y-203968523D01*
X175717867Y-204012133D01*
X175891911Y-204154968D01*
X176090477Y-204261103D01*
X176240574Y-204306635D01*
X176305932Y-204326461D01*
X176328600Y-204328694D01*
X176473854Y-204343000D01*
X176473860Y-204343000D01*
X176529999Y-204348529D01*
X176586138Y-204343000D01*
X177743861Y-204343000D01*
X177800000Y-204348529D01*
X177856139Y-204343000D01*
X177856146Y-204343000D01*
X178024067Y-204326461D01*
X178239523Y-204261103D01*
X178438089Y-204154968D01*
X178612133Y-204012133D01*
X178647927Y-203968518D01*
X179838523Y-202777923D01*
X179882133Y-202742133D01*
X180024968Y-202568089D01*
X180131103Y-202369523D01*
X180196461Y-202154067D01*
X180213000Y-201986146D01*
X180213000Y-201986140D01*
X180218529Y-201930001D01*
X180213000Y-201873862D01*
X180213000Y-33493445D01*
X180813446Y-32893000D01*
X181136555Y-32893000D01*
X181737001Y-33493447D01*
X181737000Y-201873861D01*
X181731471Y-201930000D01*
X181737000Y-201986139D01*
X181737000Y-201986145D01*
X181743979Y-202057000D01*
X181753539Y-202154067D01*
X181773365Y-202219425D01*
X181818897Y-202369522D01*
X181925032Y-202568088D01*
X182067867Y-202742133D01*
X182111482Y-202777927D01*
X183302077Y-203968523D01*
X183337867Y-204012133D01*
X183511911Y-204154968D01*
X183710477Y-204261103D01*
X183860574Y-204306635D01*
X183925932Y-204326461D01*
X183948600Y-204328694D01*
X184093854Y-204343000D01*
X184093860Y-204343000D01*
X184149999Y-204348529D01*
X184206138Y-204343000D01*
X185363861Y-204343000D01*
X185420000Y-204348529D01*
X185476139Y-204343000D01*
X185476146Y-204343000D01*
X185644067Y-204326461D01*
X185859523Y-204261103D01*
X186058089Y-204154968D01*
X186232133Y-204012133D01*
X186267927Y-203968518D01*
X187458523Y-202777923D01*
X187502133Y-202742133D01*
X187644968Y-202568089D01*
X187751103Y-202369523D01*
X187816461Y-202154067D01*
X187833000Y-201986146D01*
X187833000Y-201986140D01*
X187838529Y-201930001D01*
X187833000Y-201873862D01*
X187833000Y-33493445D01*
X188433446Y-32893000D01*
X188756555Y-32893000D01*
X189357001Y-33493447D01*
X189357000Y-201873861D01*
X189351471Y-201930000D01*
X189357000Y-201986139D01*
X189357000Y-201986145D01*
X189363979Y-202057000D01*
X189373539Y-202154067D01*
X189393365Y-202219425D01*
X189438897Y-202369522D01*
X189545032Y-202568088D01*
X189687867Y-202742133D01*
X189731482Y-202777927D01*
X190922077Y-203968523D01*
X190957867Y-204012133D01*
X191131911Y-204154968D01*
X191330477Y-204261103D01*
X191480574Y-204306635D01*
X191545932Y-204326461D01*
X191568600Y-204328694D01*
X191713854Y-204343000D01*
X191713860Y-204343000D01*
X191769999Y-204348529D01*
X191826138Y-204343000D01*
X192983861Y-204343000D01*
X193040000Y-204348529D01*
X193096139Y-204343000D01*
X193096146Y-204343000D01*
X193264067Y-204326461D01*
X193479523Y-204261103D01*
X193678089Y-204154968D01*
X193852133Y-204012133D01*
X193887927Y-203968518D01*
X195078523Y-202777923D01*
X195122133Y-202742133D01*
X195264968Y-202568089D01*
X195371103Y-202369523D01*
X195436461Y-202154067D01*
X195453000Y-201986146D01*
X195453000Y-201986140D01*
X195458529Y-201930001D01*
X195453000Y-201873862D01*
X195453000Y-33493445D01*
X196053446Y-32893000D01*
X196376555Y-32893000D01*
X196977001Y-33493447D01*
X196977000Y-201873861D01*
X196971471Y-201930000D01*
X196977000Y-201986139D01*
X196977000Y-201986145D01*
X196983979Y-202057000D01*
X196993539Y-202154067D01*
X197013365Y-202219425D01*
X197058897Y-202369522D01*
X197165032Y-202568088D01*
X197307867Y-202742133D01*
X197351482Y-202777927D01*
X198542077Y-203968523D01*
X198577867Y-204012133D01*
X198751911Y-204154968D01*
X198950477Y-204261103D01*
X199100574Y-204306635D01*
X199165932Y-204326461D01*
X199188600Y-204328694D01*
X199333854Y-204343000D01*
X199333860Y-204343000D01*
X199389999Y-204348529D01*
X199446138Y-204343000D01*
X200603861Y-204343000D01*
X200660000Y-204348529D01*
X200716139Y-204343000D01*
X200716146Y-204343000D01*
X200884067Y-204326461D01*
X201099523Y-204261103D01*
X201298089Y-204154968D01*
X201472133Y-204012133D01*
X201507927Y-203968518D01*
X202698523Y-202777923D01*
X202742133Y-202742133D01*
X202884968Y-202568089D01*
X202991103Y-202369523D01*
X203056461Y-202154067D01*
X203073000Y-201986146D01*
X203073000Y-201986140D01*
X203078529Y-201930001D01*
X203073000Y-201873862D01*
X203073000Y-109914855D01*
X203671000Y-109914855D01*
X203671000Y-110405145D01*
X203766651Y-110886014D01*
X203954277Y-111338984D01*
X204226668Y-111746645D01*
X204573355Y-112093332D01*
X204981016Y-112365723D01*
X205433986Y-112553349D01*
X205914855Y-112649000D01*
X206405145Y-112649000D01*
X206886014Y-112553349D01*
X207338984Y-112365723D01*
X207746645Y-112093332D01*
X208093332Y-111746645D01*
X208365723Y-111338984D01*
X208553349Y-110886014D01*
X208649000Y-110405145D01*
X208649000Y-109914855D01*
X208553349Y-109433986D01*
X208365723Y-108981016D01*
X208093332Y-108573355D01*
X207746645Y-108226668D01*
X207338984Y-107954277D01*
X206886014Y-107766651D01*
X206405145Y-107671000D01*
X205914855Y-107671000D01*
X205433986Y-107766651D01*
X204981016Y-107954277D01*
X204573355Y-108226668D01*
X204226668Y-108573355D01*
X203954277Y-108981016D01*
X203766651Y-109433986D01*
X203671000Y-109914855D01*
X203073000Y-109914855D01*
X203073000Y-31489544D01*
X203203290Y-31330785D01*
X203344804Y-31066031D01*
X203431947Y-30778756D01*
X203461372Y-30480000D01*
X203431947Y-30181243D01*
X203344804Y-29893969D01*
X203203290Y-29629214D01*
X203060564Y-29455302D01*
X197980563Y-24375302D01*
X197932844Y-24317156D01*
X197700785Y-24126710D01*
X197436031Y-23985196D01*
X197148756Y-23898052D01*
X196924859Y-23876000D01*
X196924849Y-23876000D01*
X196850000Y-23868628D01*
X196775151Y-23876000D01*
X99056262Y-23876000D01*
X90665564Y-15485303D01*
X90617844Y-15427156D01*
X90385785Y-15236710D01*
X90121031Y-15095196D01*
X89833756Y-15008052D01*
X89609859Y-14986000D01*
X89609849Y-14986000D01*
X89535000Y-14978628D01*
X89460151Y-14986000D01*
X64218301Y-14986000D01*
X64218301Y-13914855D01*
X107671000Y-13914855D01*
X107671000Y-14405145D01*
X107766651Y-14886014D01*
X107954277Y-15338984D01*
X108226668Y-15746645D01*
X108573355Y-16093332D01*
X108981016Y-16365723D01*
X109433986Y-16553349D01*
X109914855Y-16649000D01*
X110405145Y-16649000D01*
X110886014Y-16553349D01*
X111338984Y-16365723D01*
X111746645Y-16093332D01*
X112093332Y-15746645D01*
X112365723Y-15338984D01*
X112553349Y-14886014D01*
X112649000Y-14405145D01*
X112649000Y-13914855D01*
X203671000Y-13914855D01*
X203671000Y-14405145D01*
X203766651Y-14886014D01*
X203954277Y-15338984D01*
X204226668Y-15746645D01*
X204573355Y-16093332D01*
X204981016Y-16365723D01*
X205433986Y-16553349D01*
X205914855Y-16649000D01*
X206405145Y-16649000D01*
X206886014Y-16553349D01*
X207338984Y-16365723D01*
X207746645Y-16093332D01*
X208093332Y-15746645D01*
X208365723Y-15338984D01*
X208553349Y-14886014D01*
X208649000Y-14405145D01*
X208649000Y-13914855D01*
X208553349Y-13433986D01*
X208365723Y-12981016D01*
X208093332Y-12573355D01*
X207746645Y-12226668D01*
X207338984Y-11954277D01*
X206886014Y-11766651D01*
X206405145Y-11671000D01*
X205914855Y-11671000D01*
X205433986Y-11766651D01*
X204981016Y-11954277D01*
X204573355Y-12226668D01*
X204226668Y-12573355D01*
X203954277Y-12981016D01*
X203766651Y-13433986D01*
X203671000Y-13914855D01*
X112649000Y-13914855D01*
X112553349Y-13433986D01*
X112365723Y-12981016D01*
X112093332Y-12573355D01*
X111746645Y-12226668D01*
X111338984Y-11954277D01*
X110886014Y-11766651D01*
X110405145Y-11671000D01*
X109914855Y-11671000D01*
X109433986Y-11766651D01*
X108981016Y-11954277D01*
X108573355Y-12226668D01*
X108226668Y-12573355D01*
X107954277Y-12981016D01*
X107766651Y-13433986D01*
X107671000Y-13914855D01*
X64218301Y-13914855D01*
X64218301Y-13510000D01*
X64201136Y-13335726D01*
X64150303Y-13168149D01*
X64067753Y-13013709D01*
X63956659Y-12878341D01*
X63821291Y-12767247D01*
X63666851Y-12684697D01*
X63499274Y-12633864D01*
X63325000Y-12616699D01*
X57325000Y-12616699D01*
X57150726Y-12633864D01*
X56983149Y-12684697D01*
X56828709Y-12767247D01*
X56693341Y-12878341D01*
X56582247Y-13013709D01*
X56499697Y-13168149D01*
X56448864Y-13335726D01*
X56431699Y-13510000D01*
X56431699Y-19510000D01*
X56448864Y-19684274D01*
X56499697Y-19851851D01*
X56582247Y-20006291D01*
X56693341Y-20141659D01*
X56828709Y-20252753D01*
X56983149Y-20335303D01*
X57150726Y-20386136D01*
X57325000Y-20403301D01*
X63325000Y-20403301D01*
X63499274Y-20386136D01*
X63666851Y-20335303D01*
X63821291Y-20252753D01*
X63956659Y-20141659D01*
X64067753Y-20006291D01*
X64150303Y-19851851D01*
X64201136Y-19684274D01*
X64218301Y-19510000D01*
X64218301Y-18034000D01*
X88903739Y-18034000D01*
X97294440Y-26424702D01*
X97342156Y-26482844D01*
X97400298Y-26530560D01*
X97400302Y-26530564D01*
X97508121Y-26619048D01*
X97574215Y-26673290D01*
X97838969Y-26814804D01*
X98126244Y-26901948D01*
X98350141Y-26924000D01*
X98350149Y-26924000D01*
X98425000Y-26931372D01*
X98499851Y-26924000D01*
X196218739Y-26924000D01*
X200787000Y-31492262D01*
X200787001Y-201456553D01*
X200186555Y-202057000D01*
X199863446Y-202057000D01*
X199263000Y-201456555D01*
X199263000Y-33076138D01*
X199268529Y-33019999D01*
X199263000Y-32963860D01*
X199263000Y-32963854D01*
X199246461Y-32795933D01*
X199181103Y-32580477D01*
X199074968Y-32381911D01*
X198932133Y-32207867D01*
X198888523Y-32172077D01*
X197697927Y-30981482D01*
X197662133Y-30937867D01*
X197488089Y-30795032D01*
X197289523Y-30688897D01*
X197074067Y-30623539D01*
X196906146Y-30607000D01*
X196906139Y-30607000D01*
X196850000Y-30601471D01*
X196793861Y-30607000D01*
X195636138Y-30607000D01*
X195579999Y-30601471D01*
X195523860Y-30607000D01*
X195523854Y-30607000D01*
X195378600Y-30621306D01*
X195355932Y-30623539D01*
X195296463Y-30641579D01*
X195140477Y-30688897D01*
X194941911Y-30795032D01*
X194900420Y-30829083D01*
X194864727Y-30858376D01*
X194767867Y-30937867D01*
X194732077Y-30981477D01*
X193541482Y-32172073D01*
X193497867Y-32207867D01*
X193355032Y-32381912D01*
X193248897Y-32580478D01*
X193211133Y-32704968D01*
X193183540Y-32795932D01*
X193183539Y-32795934D01*
X193167000Y-32963855D01*
X193167000Y-32963861D01*
X193161471Y-33020000D01*
X193167000Y-33076139D01*
X193167001Y-201456553D01*
X192566555Y-202057000D01*
X192243446Y-202057000D01*
X191643000Y-201456555D01*
X191643000Y-33076138D01*
X191648529Y-33019999D01*
X191643000Y-32963860D01*
X191643000Y-32963854D01*
X191626461Y-32795933D01*
X191561103Y-32580477D01*
X191454968Y-32381911D01*
X191312133Y-32207867D01*
X191268523Y-32172077D01*
X190077927Y-30981482D01*
X190042133Y-30937867D01*
X189868089Y-30795032D01*
X189669523Y-30688897D01*
X189454067Y-30623539D01*
X189286146Y-30607000D01*
X189286139Y-30607000D01*
X189230000Y-30601471D01*
X189173861Y-30607000D01*
X188016138Y-30607000D01*
X187959999Y-30601471D01*
X187903860Y-30607000D01*
X187903854Y-30607000D01*
X187758600Y-30621306D01*
X187735932Y-30623539D01*
X187676463Y-30641579D01*
X187520477Y-30688897D01*
X187321911Y-30795032D01*
X187280420Y-30829083D01*
X187244727Y-30858376D01*
X187147867Y-30937867D01*
X187112077Y-30981477D01*
X185921482Y-32172073D01*
X185877867Y-32207867D01*
X185735032Y-32381912D01*
X185628897Y-32580478D01*
X185591133Y-32704968D01*
X185563540Y-32795932D01*
X185563539Y-32795934D01*
X185547000Y-32963855D01*
X185547000Y-32963861D01*
X185541471Y-33020000D01*
X185547000Y-33076139D01*
X185547001Y-201456553D01*
X184946555Y-202057000D01*
X184623446Y-202057000D01*
X184023000Y-201456555D01*
X184023000Y-33076138D01*
X184028529Y-33019999D01*
X184023000Y-32963860D01*
X184023000Y-32963854D01*
X184006461Y-32795933D01*
X183941103Y-32580477D01*
X183834968Y-32381911D01*
X183692133Y-32207867D01*
X183648523Y-32172077D01*
X182457927Y-30981482D01*
X182422133Y-30937867D01*
X182248089Y-30795032D01*
X182049523Y-30688897D01*
X181834067Y-30623539D01*
X181666146Y-30607000D01*
X181666139Y-30607000D01*
X181610000Y-30601471D01*
X181553861Y-30607000D01*
X180396138Y-30607000D01*
X180339999Y-30601471D01*
X180283860Y-30607000D01*
X180283854Y-30607000D01*
X180138600Y-30621306D01*
X180115932Y-30623539D01*
X180056463Y-30641579D01*
X179900477Y-30688897D01*
X179701911Y-30795032D01*
X179660420Y-30829083D01*
X179624727Y-30858376D01*
X179527867Y-30937867D01*
X179492077Y-30981477D01*
X178301482Y-32172073D01*
X178257867Y-32207867D01*
X178115032Y-32381912D01*
X178008897Y-32580478D01*
X177971133Y-32704968D01*
X177943540Y-32795932D01*
X177943539Y-32795934D01*
X177927000Y-32963855D01*
X177927000Y-32963861D01*
X177921471Y-33020000D01*
X177927000Y-33076139D01*
X177927001Y-201456553D01*
X177326555Y-202057000D01*
X177003446Y-202057000D01*
X176403000Y-201456555D01*
X176403000Y-33076138D01*
X176408529Y-33019999D01*
X176403000Y-32963860D01*
X176403000Y-32963854D01*
X176386461Y-32795933D01*
X176321103Y-32580477D01*
X176214968Y-32381911D01*
X176072133Y-32207867D01*
X176028523Y-32172077D01*
X174837927Y-30981482D01*
X174802133Y-30937867D01*
X174628089Y-30795032D01*
X174429523Y-30688897D01*
X174214067Y-30623539D01*
X174046146Y-30607000D01*
X174046139Y-30607000D01*
X173990000Y-30601471D01*
X173933861Y-30607000D01*
X172776138Y-30607000D01*
X172719999Y-30601471D01*
X172663860Y-30607000D01*
X172663854Y-30607000D01*
X172518600Y-30621306D01*
X172495932Y-30623539D01*
X172436463Y-30641579D01*
X172280477Y-30688897D01*
X172081911Y-30795032D01*
X172040420Y-30829083D01*
X172004727Y-30858376D01*
X171907867Y-30937867D01*
X171872077Y-30981477D01*
X170681482Y-32172073D01*
X170637867Y-32207867D01*
X170495032Y-32381912D01*
X170388897Y-32580478D01*
X170351133Y-32704968D01*
X170323540Y-32795932D01*
X170323539Y-32795934D01*
X170307000Y-32963855D01*
X170307000Y-32963861D01*
X170301471Y-33020000D01*
X170307000Y-33076139D01*
X170307001Y-201456553D01*
X169706555Y-202057000D01*
X169383446Y-202057000D01*
X168783000Y-201456555D01*
X168783000Y-33076138D01*
X168788529Y-33019999D01*
X168783000Y-32963860D01*
X168783000Y-32963854D01*
X168766461Y-32795933D01*
X168701103Y-32580477D01*
X168594968Y-32381911D01*
X168452133Y-32207867D01*
X168408523Y-32172077D01*
X167217927Y-30981482D01*
X167182133Y-30937867D01*
X167008089Y-30795032D01*
X166809523Y-30688897D01*
X166594067Y-30623539D01*
X166426146Y-30607000D01*
X166426139Y-30607000D01*
X166370000Y-30601471D01*
X166313861Y-30607000D01*
X165156138Y-30607000D01*
X165099999Y-30601471D01*
X165043860Y-30607000D01*
X165043854Y-30607000D01*
X164898600Y-30621306D01*
X164875932Y-30623539D01*
X164816463Y-30641579D01*
X164660477Y-30688897D01*
X164461911Y-30795032D01*
X164420420Y-30829083D01*
X164384727Y-30858376D01*
X164287867Y-30937867D01*
X164252077Y-30981477D01*
X163061482Y-32172073D01*
X163017867Y-32207867D01*
X162875032Y-32381912D01*
X162768897Y-32580478D01*
X162731133Y-32704968D01*
X162703540Y-32795932D01*
X162703539Y-32795934D01*
X162687000Y-32963855D01*
X162687000Y-32963861D01*
X162681471Y-33020000D01*
X162687000Y-33076139D01*
X162687001Y-201456553D01*
X162086555Y-202057000D01*
X161763446Y-202057000D01*
X161163000Y-201456555D01*
X161163000Y-33076138D01*
X161168529Y-33019999D01*
X161163000Y-32963860D01*
X161163000Y-32963854D01*
X161146461Y-32795933D01*
X161081103Y-32580477D01*
X160974968Y-32381911D01*
X160832133Y-32207867D01*
X160788523Y-32172077D01*
X159597927Y-30981482D01*
X159562133Y-30937867D01*
X159388089Y-30795032D01*
X159189523Y-30688897D01*
X158974067Y-30623539D01*
X158806146Y-30607000D01*
X158806139Y-30607000D01*
X158750000Y-30601471D01*
X158693861Y-30607000D01*
X157536138Y-30607000D01*
X157479999Y-30601471D01*
X157423860Y-30607000D01*
X157423854Y-30607000D01*
X157278600Y-30621306D01*
X157255932Y-30623539D01*
X157196463Y-30641579D01*
X157040477Y-30688897D01*
X156841911Y-30795032D01*
X156800420Y-30829083D01*
X156764727Y-30858376D01*
X156667867Y-30937867D01*
X156632077Y-30981477D01*
X155441482Y-32172073D01*
X155397867Y-32207867D01*
X155255032Y-32381912D01*
X155148897Y-32580478D01*
X155111133Y-32704968D01*
X155083540Y-32795932D01*
X155083539Y-32795934D01*
X155067000Y-32963855D01*
X155067000Y-32963861D01*
X155061471Y-33020000D01*
X155067000Y-33076139D01*
X155067001Y-201456553D01*
X154466555Y-202057000D01*
X154143446Y-202057000D01*
X153543000Y-201456555D01*
X153543000Y-33076138D01*
X153548529Y-33019999D01*
X153543000Y-32963860D01*
X153543000Y-32963854D01*
X153526461Y-32795933D01*
X153461103Y-32580477D01*
X153354968Y-32381911D01*
X153212133Y-32207867D01*
X153168523Y-32172077D01*
X151977927Y-30981482D01*
X151942133Y-30937867D01*
X151768089Y-30795032D01*
X151569523Y-30688897D01*
X151354067Y-30623539D01*
X151186146Y-30607000D01*
X151186139Y-30607000D01*
X151130000Y-30601471D01*
X151073861Y-30607000D01*
X149916138Y-30607000D01*
X149859999Y-30601471D01*
X149803860Y-30607000D01*
X149803854Y-30607000D01*
X149658600Y-30621306D01*
X149635932Y-30623539D01*
X149576463Y-30641579D01*
X149420477Y-30688897D01*
X149221911Y-30795032D01*
X149180420Y-30829083D01*
X149144727Y-30858376D01*
X149047867Y-30937867D01*
X149012077Y-30981477D01*
X147821482Y-32172073D01*
X147777867Y-32207867D01*
X147635032Y-32381912D01*
X147528897Y-32580478D01*
X147491133Y-32704968D01*
X147463540Y-32795932D01*
X147463539Y-32795934D01*
X147447000Y-32963855D01*
X147447000Y-32963861D01*
X147441471Y-33020000D01*
X147447000Y-33076139D01*
X147447001Y-201456553D01*
X146846555Y-202057000D01*
X146523446Y-202057000D01*
X145923000Y-201456555D01*
X145923000Y-33076138D01*
X145928529Y-33019999D01*
X145923000Y-32963860D01*
X145923000Y-32963854D01*
X145906461Y-32795933D01*
X145841103Y-32580477D01*
X145734968Y-32381911D01*
X145592133Y-32207867D01*
X145548523Y-32172077D01*
X144357927Y-30981482D01*
X144322133Y-30937867D01*
X144148089Y-30795032D01*
X143949523Y-30688897D01*
X143734067Y-30623539D01*
X143566146Y-30607000D01*
X143566139Y-30607000D01*
X143510000Y-30601471D01*
X143453861Y-30607000D01*
X142296138Y-30607000D01*
X142239999Y-30601471D01*
X142183860Y-30607000D01*
X142183854Y-30607000D01*
X142038600Y-30621306D01*
X142015932Y-30623539D01*
X141956463Y-30641579D01*
X141800477Y-30688897D01*
X141601911Y-30795032D01*
X141560420Y-30829083D01*
X141524727Y-30858376D01*
X141427867Y-30937867D01*
X141392077Y-30981477D01*
X140201482Y-32172073D01*
X140157867Y-32207867D01*
X140015032Y-32381912D01*
X139908897Y-32580478D01*
X139871133Y-32704968D01*
X139843540Y-32795932D01*
X139843539Y-32795934D01*
X139827000Y-32963855D01*
X139827000Y-32963861D01*
X139821471Y-33020000D01*
X139827000Y-33076139D01*
X139827001Y-201456553D01*
X139226555Y-202057000D01*
X138903446Y-202057000D01*
X138303000Y-201456555D01*
X138303000Y-33076138D01*
X138308529Y-33019999D01*
X138303000Y-32963860D01*
X138303000Y-32963854D01*
X138286461Y-32795933D01*
X138221103Y-32580477D01*
X138114968Y-32381911D01*
X137972133Y-32207867D01*
X137928523Y-32172077D01*
X136737927Y-30981482D01*
X136702133Y-30937867D01*
X136528089Y-30795032D01*
X136329523Y-30688897D01*
X136114067Y-30623539D01*
X135946146Y-30607000D01*
X135946139Y-30607000D01*
X135890000Y-30601471D01*
X135833861Y-30607000D01*
X134676138Y-30607000D01*
X134619999Y-30601471D01*
X134563860Y-30607000D01*
X134563854Y-30607000D01*
X134418600Y-30621306D01*
X134395932Y-30623539D01*
X134336463Y-30641579D01*
X134180477Y-30688897D01*
X133981911Y-30795032D01*
X133940420Y-30829083D01*
X133904727Y-30858376D01*
X133807867Y-30937867D01*
X133772077Y-30981477D01*
X132581482Y-32172073D01*
X132537867Y-32207867D01*
X132395032Y-32381912D01*
X132288897Y-32580478D01*
X132251133Y-32704968D01*
X132223540Y-32795932D01*
X132223539Y-32795934D01*
X132207000Y-32963855D01*
X132207000Y-32963861D01*
X132201471Y-33020000D01*
X132207000Y-33076139D01*
X132207001Y-201456553D01*
X131606555Y-202057000D01*
X131283446Y-202057000D01*
X130683000Y-201456555D01*
X130683000Y-33076138D01*
X130688529Y-33019999D01*
X130683000Y-32963860D01*
X130683000Y-32963854D01*
X130666461Y-32795933D01*
X130601103Y-32580477D01*
X130494968Y-32381911D01*
X130352133Y-32207867D01*
X130308523Y-32172077D01*
X129117927Y-30981482D01*
X129082133Y-30937867D01*
X128908089Y-30795032D01*
X128709523Y-30688897D01*
X128494067Y-30623539D01*
X128326146Y-30607000D01*
X128326139Y-30607000D01*
X128270000Y-30601471D01*
X128213861Y-30607000D01*
X127056138Y-30607000D01*
X126999999Y-30601471D01*
X126943860Y-30607000D01*
X126943854Y-30607000D01*
X126798600Y-30621306D01*
X126775932Y-30623539D01*
X126716463Y-30641579D01*
X126560477Y-30688897D01*
X126361911Y-30795032D01*
X126320420Y-30829083D01*
X126284727Y-30858376D01*
X126187867Y-30937867D01*
X126152077Y-30981477D01*
X124961482Y-32172073D01*
X124917867Y-32207867D01*
X124775032Y-32381912D01*
X124668897Y-32580478D01*
X124631133Y-32704968D01*
X124603540Y-32795932D01*
X124603539Y-32795934D01*
X124587000Y-32963855D01*
X124587000Y-32963861D01*
X124581471Y-33020000D01*
X124587000Y-33076139D01*
X124587001Y-201456553D01*
X123986555Y-202057000D01*
X123663446Y-202057000D01*
X123063000Y-201456555D01*
X123063000Y-33076138D01*
X123068529Y-33019999D01*
X123063000Y-32963860D01*
X123063000Y-32963854D01*
X123046461Y-32795933D01*
X122981103Y-32580477D01*
X122874968Y-32381911D01*
X122732133Y-32207867D01*
X122688523Y-32172077D01*
X121497927Y-30981482D01*
X121462133Y-30937867D01*
X121288089Y-30795032D01*
X121089523Y-30688897D01*
X120874067Y-30623539D01*
X120706146Y-30607000D01*
X120706139Y-30607000D01*
X120650000Y-30601471D01*
X120593861Y-30607000D01*
X119436138Y-30607000D01*
X119379999Y-30601471D01*
X119323860Y-30607000D01*
X119323854Y-30607000D01*
X119178600Y-30621306D01*
X119155932Y-30623539D01*
X119096463Y-30641579D01*
X118940477Y-30688897D01*
X118741911Y-30795032D01*
X118700420Y-30829083D01*
X118664727Y-30858376D01*
X118567867Y-30937867D01*
X118532077Y-30981477D01*
X117341482Y-32172073D01*
X117297867Y-32207867D01*
X117155032Y-32381912D01*
X117048897Y-32580478D01*
X117011133Y-32704968D01*
X116983540Y-32795932D01*
X116983539Y-32795934D01*
X116967000Y-32963855D01*
X116967000Y-32963861D01*
X116961471Y-33020000D01*
X116967000Y-33076139D01*
X116967001Y-201456553D01*
X116366555Y-202057000D01*
X114773446Y-202057000D01*
X114173000Y-201456555D01*
X114173000Y-114773445D01*
X115068524Y-113877922D01*
X115112133Y-113842133D01*
X115254968Y-113668089D01*
X115361103Y-113469523D01*
X115426461Y-113254067D01*
X115443000Y-113086146D01*
X115443000Y-113086140D01*
X115448529Y-113030001D01*
X115443000Y-112973862D01*
X115443000Y-108006138D01*
X115448529Y-107949999D01*
X115443000Y-107893860D01*
X115443000Y-107893854D01*
X115426461Y-107725933D01*
X115361103Y-107510477D01*
X115254968Y-107311911D01*
X115112133Y-107137867D01*
X115068523Y-107102077D01*
X114173000Y-106206555D01*
X114173000Y-33076138D01*
X114178529Y-33019999D01*
X114173000Y-32963860D01*
X114173000Y-32963854D01*
X114156461Y-32795933D01*
X114091103Y-32580477D01*
X113984968Y-32381911D01*
X113842133Y-32207867D01*
X113798523Y-32172077D01*
X112607927Y-30981482D01*
X112572133Y-30937867D01*
X112398089Y-30795032D01*
X112199523Y-30688897D01*
X111984067Y-30623539D01*
X111816146Y-30607000D01*
X111816139Y-30607000D01*
X111760000Y-30601471D01*
X111703861Y-30607000D01*
X109276138Y-30607000D01*
X109219999Y-30601471D01*
X109163860Y-30607000D01*
X109163854Y-30607000D01*
X109018600Y-30621306D01*
X108995932Y-30623539D01*
X108936463Y-30641579D01*
X108780477Y-30688897D01*
X108581911Y-30795032D01*
X108540420Y-30829083D01*
X108504727Y-30858376D01*
X108407867Y-30937867D01*
X108372077Y-30981477D01*
X107181482Y-32172073D01*
X107137867Y-32207867D01*
X106995032Y-32381912D01*
X106888897Y-32580478D01*
X106851133Y-32704968D01*
X106823540Y-32795932D01*
X106823539Y-32795934D01*
X106807000Y-32963855D01*
X106807000Y-32963861D01*
X106801471Y-33020000D01*
X106807000Y-33076139D01*
X106807001Y-106206553D01*
X105911482Y-107102073D01*
X105867867Y-107137867D01*
X105725032Y-107311912D01*
X105618897Y-107510478D01*
X105581133Y-107634968D01*
X105553540Y-107725932D01*
X105553539Y-107725934D01*
X105537000Y-107893855D01*
X105537000Y-107893861D01*
X105531471Y-107950000D01*
X105537000Y-108006139D01*
X105537001Y-112973851D01*
X105531471Y-113030000D01*
X105553539Y-113254067D01*
X105618898Y-113469522D01*
X105618898Y-113469523D01*
X105725033Y-113668089D01*
X105867868Y-113842133D01*
X105911478Y-113877923D01*
X106807000Y-114773446D01*
X106807001Y-201456553D01*
X106206555Y-202057000D01*
X104613446Y-202057000D01*
X104013000Y-201456555D01*
X104013000Y-33076138D01*
X104018529Y-33019999D01*
X104013000Y-32963860D01*
X104013000Y-32963854D01*
X103996461Y-32795933D01*
X103931103Y-32580477D01*
X103824968Y-32381911D01*
X103682133Y-32207867D01*
X103638523Y-32172077D01*
X102447927Y-30981482D01*
X102412133Y-30937867D01*
X102238089Y-30795032D01*
X102039523Y-30688897D01*
X101824067Y-30623539D01*
X101656146Y-30607000D01*
X101656139Y-30607000D01*
X101600000Y-30601471D01*
X101543861Y-30607000D01*
X100386138Y-30607000D01*
X100329999Y-30601471D01*
X100273860Y-30607000D01*
X100273854Y-30607000D01*
X100128600Y-30621306D01*
X100105932Y-30623539D01*
X100046463Y-30641579D01*
X99890477Y-30688897D01*
X99691911Y-30795032D01*
X99650420Y-30829083D01*
X99614727Y-30858376D01*
X99517867Y-30937867D01*
X99482077Y-30981477D01*
X98291482Y-32172073D01*
X98247867Y-32207867D01*
X98105032Y-32381912D01*
X97998897Y-32580478D01*
X97961133Y-32704968D01*
X97933540Y-32795932D01*
X97933539Y-32795934D01*
X97917000Y-32963855D01*
X97917000Y-32963861D01*
X97911471Y-33020000D01*
X97917000Y-33076139D01*
X97917001Y-201456553D01*
X97316555Y-202057000D01*
X96993446Y-202057000D01*
X96393000Y-201456555D01*
X96393000Y-33076138D01*
X96398529Y-33019999D01*
X96393000Y-32963860D01*
X96393000Y-32963854D01*
X96376461Y-32795933D01*
X96311103Y-32580477D01*
X96204968Y-32381911D01*
X96062133Y-32207867D01*
X96018523Y-32172077D01*
X94827927Y-30981482D01*
X94792133Y-30937867D01*
X94618089Y-30795032D01*
X94419523Y-30688897D01*
X94204067Y-30623539D01*
X94036146Y-30607000D01*
X94036139Y-30607000D01*
X93980000Y-30601471D01*
X93923861Y-30607000D01*
X92766138Y-30607000D01*
X92709999Y-30601471D01*
X92653860Y-30607000D01*
X92653854Y-30607000D01*
X92508600Y-30621306D01*
X92485932Y-30623539D01*
X92426463Y-30641579D01*
X92270477Y-30688897D01*
X92071911Y-30795032D01*
X92030420Y-30829083D01*
X91994727Y-30858376D01*
X91897867Y-30937867D01*
X91862077Y-30981477D01*
X90671482Y-32172073D01*
X90627867Y-32207867D01*
X90485032Y-32381912D01*
X90378897Y-32580478D01*
X90341133Y-32704968D01*
X90313540Y-32795932D01*
X90313539Y-32795934D01*
X90297000Y-32963855D01*
X90297000Y-32963861D01*
X90291471Y-33020000D01*
X90297000Y-33076139D01*
X90297001Y-201456553D01*
X89696555Y-202057000D01*
X89373446Y-202057000D01*
X88773000Y-201456555D01*
X88773000Y-33076138D01*
X88778529Y-33019999D01*
X88773000Y-32963860D01*
X88773000Y-32963854D01*
X88756461Y-32795933D01*
X88691103Y-32580477D01*
X88584968Y-32381911D01*
X88442133Y-32207867D01*
X88398523Y-32172077D01*
X87359066Y-31132621D01*
X88112240Y-30829083D01*
X88149802Y-30809613D01*
X88189084Y-30793901D01*
X88266379Y-30749185D01*
X88975709Y-30291177D01*
X89008909Y-30264957D01*
X89044516Y-30242098D01*
X89111961Y-30183572D01*
X89721886Y-29599696D01*
X89749531Y-29567669D01*
X89780171Y-29538491D01*
X89835332Y-29468267D01*
X90323844Y-28779591D01*
X90344933Y-28742916D01*
X90369504Y-28708469D01*
X90410386Y-28629091D01*
X90410391Y-28629082D01*
X90410392Y-28629078D01*
X90759865Y-27860453D01*
X90773638Y-27820454D01*
X90791252Y-27781981D01*
X90816390Y-27696295D01*
X91014215Y-26875450D01*
X91020176Y-26833567D01*
X91030197Y-26792458D01*
X91038678Y-26703564D01*
X91077716Y-25860121D01*
X91075649Y-25817863D01*
X91077716Y-25775605D01*
X91069234Y-25686712D01*
X90948077Y-24851102D01*
X90938058Y-24810003D01*
X90932096Y-24768110D01*
X90906958Y-24682424D01*
X90629977Y-23884801D01*
X90612364Y-23846332D01*
X90598590Y-23806328D01*
X90557703Y-23726941D01*
X90134891Y-22996084D01*
X90110322Y-22961639D01*
X90089232Y-22924963D01*
X90034071Y-22854740D01*
X89480687Y-22217020D01*
X89450047Y-22187842D01*
X89422402Y-22155815D01*
X89354957Y-22097289D01*
X88690966Y-21575718D01*
X88655358Y-21552858D01*
X88622160Y-21526640D01*
X88544871Y-21481927D01*
X88544864Y-21481923D01*
X88544860Y-21481921D01*
X87794228Y-21095319D01*
X87754945Y-21079607D01*
X87717380Y-21060135D01*
X87633024Y-21030842D01*
X86822823Y-20793156D01*
X86781282Y-20785156D01*
X86740712Y-20773139D01*
X86652339Y-20760326D01*
X85813130Y-20680258D01*
X85769898Y-20676000D01*
X25990102Y-20676000D01*
X25967853Y-20678191D01*
X25556596Y-20698305D01*
X25535623Y-20701346D01*
X25514435Y-20701346D01*
X25426062Y-20714159D01*
X24597370Y-20875991D01*
X24556804Y-20888007D01*
X24515257Y-20896008D01*
X24430901Y-20925302D01*
X23647761Y-21240917D01*
X23610202Y-21260386D01*
X23570916Y-21276099D01*
X23493621Y-21320815D01*
X22784291Y-21778823D01*
X22751091Y-21805043D01*
X22715484Y-21827902D01*
X22648039Y-21886428D01*
X22038114Y-22470304D01*
X22010465Y-22502335D01*
X21979829Y-22531510D01*
X21924668Y-22601733D01*
X21436155Y-23290410D01*
X21415065Y-23327086D01*
X21390496Y-23361531D01*
X21349609Y-23440918D01*
X21000135Y-24209547D01*
X20986362Y-24249546D01*
X20968748Y-24288019D01*
X20943611Y-24373705D01*
X20745785Y-25194549D01*
X20739824Y-25236434D01*
X20729803Y-25277542D01*
X20721322Y-25366436D01*
X20682284Y-26209879D01*
X20684351Y-26252137D01*
X20682284Y-26294395D01*
X20690766Y-26383289D01*
X20811923Y-27218898D01*
X20821942Y-27259999D01*
X20827904Y-27301890D01*
X20853042Y-27387577D01*
X21130023Y-28185199D01*
X21147636Y-28223669D01*
X21161410Y-28263672D01*
X21202297Y-28343059D01*
X21625109Y-29073916D01*
X21649678Y-29108361D01*
X21670768Y-29145037D01*
X21725929Y-29215261D01*
X22279314Y-29852980D01*
X22309950Y-29882154D01*
X22337598Y-29914185D01*
X22405043Y-29972711D01*
X23069034Y-30494282D01*
X23104637Y-30517138D01*
X23137839Y-30543360D01*
X23215134Y-30588076D01*
X23553277Y-30762231D01*
X23491911Y-30795032D01*
X23450420Y-30829083D01*
X23414727Y-30858376D01*
X23317867Y-30937867D01*
X23282077Y-30981477D01*
X22091482Y-32172073D01*
X22047867Y-32207867D01*
X21905032Y-32381912D01*
X21798897Y-32580478D01*
X21761133Y-32704968D01*
X21733540Y-32795932D01*
X21733539Y-32795934D01*
X21717000Y-32963855D01*
X21717000Y-32963861D01*
X21711471Y-33020000D01*
X21717000Y-33076139D01*
X21717001Y-201456553D01*
X21116555Y-202057000D01*
X20793446Y-202057000D01*
X20193000Y-201456555D01*
X20193000Y-31489544D01*
X20323290Y-31330785D01*
X20464804Y-31066031D01*
X20551948Y-30778756D01*
X20574000Y-30554859D01*
X20574000Y-22221261D01*
X24761262Y-18034000D01*
X43731699Y-18034000D01*
X43731699Y-19510000D01*
X43748864Y-19684274D01*
X43799697Y-19851851D01*
X43882247Y-20006291D01*
X43993341Y-20141659D01*
X44128709Y-20252753D01*
X44283149Y-20335303D01*
X44450726Y-20386136D01*
X44625000Y-20403301D01*
X50625000Y-20403301D01*
X50799274Y-20386136D01*
X50966851Y-20335303D01*
X51121291Y-20252753D01*
X51256659Y-20141659D01*
X51367753Y-20006291D01*
X51450303Y-19851851D01*
X51501136Y-19684274D01*
X51518301Y-19510000D01*
X51518301Y-13510000D01*
X51501136Y-13335726D01*
X51450303Y-13168149D01*
X51367753Y-13013709D01*
X51256659Y-12878341D01*
X51121291Y-12767247D01*
X50966851Y-12684697D01*
X50799274Y-12633864D01*
X50625000Y-12616699D01*
X44625000Y-12616699D01*
X44450726Y-12633864D01*
X44283149Y-12684697D01*
X44128709Y-12767247D01*
X43993341Y-12878341D01*
X43882247Y-13013709D01*
X43799697Y-13168149D01*
X43748864Y-13335726D01*
X43731699Y-13510000D01*
X43731699Y-14986000D01*
X24204849Y-14986000D01*
X24130000Y-14978628D01*
X24055151Y-14986000D01*
X24055141Y-14986000D01*
X23831244Y-15008052D01*
X23613863Y-15073994D01*
X23543969Y-15095196D01*
X23279214Y-15236710D01*
X23105302Y-15379436D01*
X23105298Y-15379440D01*
X23047156Y-15427156D01*
X22999440Y-15485298D01*
X18025303Y-20459436D01*
X17967156Y-20507156D01*
X17919437Y-20565302D01*
X17919436Y-20565303D01*
X17776710Y-20739215D01*
X17719687Y-20845898D01*
X17635196Y-21003970D01*
X17548052Y-21291245D01*
X17526000Y-21515142D01*
X17526000Y-21515151D01*
X17518628Y-21590000D01*
X11074000Y-21590000D01*
X11074000Y-14204703D01*
X11102419Y-13914855D01*
X11671000Y-13914855D01*
X11671000Y-14405145D01*
X11766651Y-14886014D01*
X11954277Y-15338984D01*
X12226668Y-15746645D01*
X12573355Y-16093332D01*
X12981016Y-16365723D01*
X13433986Y-16553349D01*
X13914855Y-16649000D01*
X14405145Y-16649000D01*
X14886014Y-16553349D01*
X15338984Y-16365723D01*
X15746645Y-16093332D01*
X16093332Y-15746645D01*
X16365723Y-15338984D01*
X16553349Y-14886014D01*
X16649000Y-14405145D01*
X16649000Y-13914855D01*
X16553349Y-13433986D01*
X16365723Y-12981016D01*
X16093332Y-12573355D01*
X15746645Y-12226668D01*
X15338984Y-11954277D01*
X14886014Y-11766651D01*
X14405145Y-11671000D01*
X13914855Y-11671000D01*
X13433986Y-11766651D01*
X12981016Y-11954277D01*
X12573355Y-12226668D01*
X12226668Y-12573355D01*
X11954277Y-12981016D01*
X11766651Y-13433986D01*
X11671000Y-13914855D01*
X11102419Y-13914855D01*
X11137072Y-13561444D01*
X11310904Y-12985685D01*
X11593256Y-12454659D01*
X11973376Y-11988586D01*
X12436780Y-11605225D01*
X12965829Y-11319169D01*
X13540356Y-11141324D01*
X14180900Y-11074000D01*
X206115297Y-11074000D01*
X206758556Y-11137072D01*
G37*
%TD.AperFunction*%
D13*
X37331482Y-32172073D02*
X37287867Y-32207867D01*
X37145032Y-32381912D01*
X37038897Y-32580478D01*
X37001133Y-32704968D01*
X36973540Y-32795932D01*
X36973539Y-32795934D01*
X36957000Y-32963855D01*
X36957000Y-32963861D01*
X36951471Y-33020000D01*
X36957000Y-33076139D01*
X36957001Y-201456553D01*
X36356555Y-202057000D01*
X36033446Y-202057000D01*
X35433000Y-201456555D01*
X35433000Y-33076138D01*
X35438529Y-33019999D01*
X35433000Y-32963860D01*
X35433000Y-32963854D01*
X35416461Y-32795933D01*
X35351103Y-32580477D01*
X35244968Y-32381911D01*
X35102133Y-32207867D01*
X35058523Y-32172077D01*
X34280445Y-31394000D01*
X38109554Y-31394000D01*
X37331482Y-32172073D01*
%TA.AperFunction,NonConductor*%
D14*
G36*
X37331482Y-32172073D02*
G01*
X37287867Y-32207867D01*
X37145032Y-32381912D01*
X37038897Y-32580478D01*
X37001133Y-32704968D01*
X36973540Y-32795932D01*
X36973539Y-32795934D01*
X36957000Y-32963855D01*
X36957000Y-32963861D01*
X36951471Y-33020000D01*
X36957000Y-33076139D01*
X36957001Y-201456553D01*
X36356555Y-202057000D01*
X36033446Y-202057000D01*
X35433000Y-201456555D01*
X35433000Y-33076138D01*
X35438529Y-33019999D01*
X35433000Y-32963860D01*
X35433000Y-32963854D01*
X35416461Y-32795933D01*
X35351103Y-32580477D01*
X35244968Y-32381911D01*
X35102133Y-32207867D01*
X35058523Y-32172077D01*
X34280445Y-31394000D01*
X38109554Y-31394000D01*
X37331482Y-32172073D01*
G37*
%TD.AperFunction*%
D13*
X83051482Y-32172073D02*
X83007867Y-32207867D01*
X82865032Y-32381912D01*
X82758897Y-32580478D01*
X82721133Y-32704968D01*
X82693540Y-32795932D01*
X82693539Y-32795934D01*
X82677000Y-32963855D01*
X82677000Y-32963861D01*
X82671471Y-33020000D01*
X82677000Y-33076139D01*
X82677001Y-201456553D01*
X82076555Y-202057000D01*
X81753446Y-202057000D01*
X81153000Y-201456555D01*
X81153000Y-33076138D01*
X81158529Y-33019999D01*
X81153000Y-32963860D01*
X81153000Y-32963854D01*
X81136461Y-32795933D01*
X81071103Y-32580477D01*
X80964968Y-32381911D01*
X80822133Y-32207867D01*
X80778523Y-32172077D01*
X80000445Y-31394000D01*
X83829554Y-31394000D01*
X83051482Y-32172073D01*
%TA.AperFunction,NonConductor*%
D14*
G36*
X83051482Y-32172073D02*
G01*
X83007867Y-32207867D01*
X82865032Y-32381912D01*
X82758897Y-32580478D01*
X82721133Y-32704968D01*
X82693540Y-32795932D01*
X82693539Y-32795934D01*
X82677000Y-32963855D01*
X82677000Y-32963861D01*
X82671471Y-33020000D01*
X82677000Y-33076139D01*
X82677001Y-201456553D01*
X82076555Y-202057000D01*
X81753446Y-202057000D01*
X81153000Y-201456555D01*
X81153000Y-33076138D01*
X81158529Y-33019999D01*
X81153000Y-32963860D01*
X81153000Y-32963854D01*
X81136461Y-32795933D01*
X81071103Y-32580477D01*
X80964968Y-32381911D01*
X80822133Y-32207867D01*
X80778523Y-32172077D01*
X80000445Y-31394000D01*
X83829554Y-31394000D01*
X83051482Y-32172073D01*
G37*
%TD.AperFunction*%
D13*
X29711482Y-32172073D02*
X29667867Y-32207867D01*
X29525032Y-32381912D01*
X29418897Y-32580478D01*
X29381133Y-32704968D01*
X29353540Y-32795932D01*
X29353539Y-32795934D01*
X29337000Y-32963855D01*
X29337000Y-32963861D01*
X29331471Y-33020000D01*
X29337000Y-33076139D01*
X29337001Y-201456553D01*
X28736555Y-202057000D01*
X28413446Y-202057000D01*
X27813000Y-201456555D01*
X27813000Y-33076138D01*
X27818529Y-33019999D01*
X27813000Y-32963860D01*
X27813000Y-32963854D01*
X27796461Y-32795933D01*
X27731103Y-32580477D01*
X27624968Y-32381911D01*
X27482133Y-32207867D01*
X27438523Y-32172077D01*
X26660445Y-31394000D01*
X30489554Y-31394000D01*
X29711482Y-32172073D01*
%TA.AperFunction,NonConductor*%
D14*
G36*
X29711482Y-32172073D02*
G01*
X29667867Y-32207867D01*
X29525032Y-32381912D01*
X29418897Y-32580478D01*
X29381133Y-32704968D01*
X29353540Y-32795932D01*
X29353539Y-32795934D01*
X29337000Y-32963855D01*
X29337000Y-32963861D01*
X29331471Y-33020000D01*
X29337000Y-33076139D01*
X29337001Y-201456553D01*
X28736555Y-202057000D01*
X28413446Y-202057000D01*
X27813000Y-201456555D01*
X27813000Y-33076138D01*
X27818529Y-33019999D01*
X27813000Y-32963860D01*
X27813000Y-32963854D01*
X27796461Y-32795933D01*
X27731103Y-32580477D01*
X27624968Y-32381911D01*
X27482133Y-32207867D01*
X27438523Y-32172077D01*
X26660445Y-31394000D01*
X30489554Y-31394000D01*
X29711482Y-32172073D01*
G37*
%TD.AperFunction*%
D13*
X44951482Y-32172073D02*
X44907867Y-32207867D01*
X44765032Y-32381912D01*
X44658897Y-32580478D01*
X44621133Y-32704968D01*
X44593540Y-32795932D01*
X44593539Y-32795934D01*
X44577000Y-32963855D01*
X44577000Y-32963861D01*
X44571471Y-33020000D01*
X44577000Y-33076139D01*
X44577001Y-201456553D01*
X43976555Y-202057000D01*
X43653446Y-202057000D01*
X43053000Y-201456555D01*
X43053000Y-33076138D01*
X43058529Y-33019999D01*
X43053000Y-32963860D01*
X43053000Y-32963854D01*
X43036461Y-32795933D01*
X42971103Y-32580477D01*
X42864968Y-32381911D01*
X42722133Y-32207867D01*
X42678523Y-32172077D01*
X41900445Y-31394000D01*
X45729554Y-31394000D01*
X44951482Y-32172073D01*
%TA.AperFunction,NonConductor*%
D14*
G36*
X44951482Y-32172073D02*
G01*
X44907867Y-32207867D01*
X44765032Y-32381912D01*
X44658897Y-32580478D01*
X44621133Y-32704968D01*
X44593540Y-32795932D01*
X44593539Y-32795934D01*
X44577000Y-32963855D01*
X44577000Y-32963861D01*
X44571471Y-33020000D01*
X44577000Y-33076139D01*
X44577001Y-201456553D01*
X43976555Y-202057000D01*
X43653446Y-202057000D01*
X43053000Y-201456555D01*
X43053000Y-33076138D01*
X43058529Y-33019999D01*
X43053000Y-32963860D01*
X43053000Y-32963854D01*
X43036461Y-32795933D01*
X42971103Y-32580477D01*
X42864968Y-32381911D01*
X42722133Y-32207867D01*
X42678523Y-32172077D01*
X41900445Y-31394000D01*
X45729554Y-31394000D01*
X44951482Y-32172073D01*
G37*
%TD.AperFunction*%
D13*
X52571482Y-32172073D02*
X52527867Y-32207867D01*
X52385032Y-32381912D01*
X52278897Y-32580478D01*
X52241133Y-32704968D01*
X52213540Y-32795932D01*
X52213539Y-32795934D01*
X52197000Y-32963855D01*
X52197000Y-32963861D01*
X52191471Y-33020000D01*
X52197000Y-33076139D01*
X52197001Y-201456553D01*
X51596555Y-202057000D01*
X51273446Y-202057000D01*
X50673000Y-201456555D01*
X50673000Y-33076138D01*
X50678529Y-33019999D01*
X50673000Y-32963860D01*
X50673000Y-32963854D01*
X50656461Y-32795933D01*
X50591103Y-32580477D01*
X50484968Y-32381911D01*
X50342133Y-32207867D01*
X50298523Y-32172077D01*
X49520445Y-31394000D01*
X53349554Y-31394000D01*
X52571482Y-32172073D01*
%TA.AperFunction,NonConductor*%
D14*
G36*
X52571482Y-32172073D02*
G01*
X52527867Y-32207867D01*
X52385032Y-32381912D01*
X52278897Y-32580478D01*
X52241133Y-32704968D01*
X52213540Y-32795932D01*
X52213539Y-32795934D01*
X52197000Y-32963855D01*
X52197000Y-32963861D01*
X52191471Y-33020000D01*
X52197000Y-33076139D01*
X52197001Y-201456553D01*
X51596555Y-202057000D01*
X51273446Y-202057000D01*
X50673000Y-201456555D01*
X50673000Y-33076138D01*
X50678529Y-33019999D01*
X50673000Y-32963860D01*
X50673000Y-32963854D01*
X50656461Y-32795933D01*
X50591103Y-32580477D01*
X50484968Y-32381911D01*
X50342133Y-32207867D01*
X50298523Y-32172077D01*
X49520445Y-31394000D01*
X53349554Y-31394000D01*
X52571482Y-32172073D01*
G37*
%TD.AperFunction*%
D13*
X60191482Y-32172073D02*
X60147867Y-32207867D01*
X60005032Y-32381912D01*
X59898897Y-32580478D01*
X59861133Y-32704968D01*
X59833540Y-32795932D01*
X59833539Y-32795934D01*
X59817000Y-32963855D01*
X59817000Y-32963861D01*
X59811471Y-33020000D01*
X59817000Y-33076139D01*
X59817001Y-201456553D01*
X59216555Y-202057000D01*
X58893446Y-202057000D01*
X58293000Y-201456555D01*
X58293000Y-33076138D01*
X58298529Y-33019999D01*
X58293000Y-32963860D01*
X58293000Y-32963854D01*
X58276461Y-32795933D01*
X58211103Y-32580477D01*
X58104968Y-32381911D01*
X57962133Y-32207867D01*
X57918523Y-32172077D01*
X57140445Y-31394000D01*
X60969554Y-31394000D01*
X60191482Y-32172073D01*
%TA.AperFunction,NonConductor*%
D14*
G36*
X60191482Y-32172073D02*
G01*
X60147867Y-32207867D01*
X60005032Y-32381912D01*
X59898897Y-32580478D01*
X59861133Y-32704968D01*
X59833540Y-32795932D01*
X59833539Y-32795934D01*
X59817000Y-32963855D01*
X59817000Y-32963861D01*
X59811471Y-33020000D01*
X59817000Y-33076139D01*
X59817001Y-201456553D01*
X59216555Y-202057000D01*
X58893446Y-202057000D01*
X58293000Y-201456555D01*
X58293000Y-33076138D01*
X58298529Y-33019999D01*
X58293000Y-32963860D01*
X58293000Y-32963854D01*
X58276461Y-32795933D01*
X58211103Y-32580477D01*
X58104968Y-32381911D01*
X57962133Y-32207867D01*
X57918523Y-32172077D01*
X57140445Y-31394000D01*
X60969554Y-31394000D01*
X60191482Y-32172073D01*
G37*
%TD.AperFunction*%
D13*
X75431482Y-32172073D02*
X75387867Y-32207867D01*
X75245032Y-32381912D01*
X75138897Y-32580478D01*
X75101133Y-32704968D01*
X75073540Y-32795932D01*
X75073539Y-32795934D01*
X75057000Y-32963855D01*
X75057000Y-32963861D01*
X75051471Y-33020000D01*
X75057000Y-33076139D01*
X75057001Y-201456553D01*
X74456555Y-202057000D01*
X74133446Y-202057000D01*
X73533000Y-201456555D01*
X73533000Y-33076138D01*
X73538529Y-33019999D01*
X73533000Y-32963860D01*
X73533000Y-32963854D01*
X73516461Y-32795933D01*
X73451103Y-32580477D01*
X73344968Y-32381911D01*
X73202133Y-32207867D01*
X73158523Y-32172077D01*
X72380445Y-31394000D01*
X76209554Y-31394000D01*
X75431482Y-32172073D01*
%TA.AperFunction,NonConductor*%
D14*
G36*
X75431482Y-32172073D02*
G01*
X75387867Y-32207867D01*
X75245032Y-32381912D01*
X75138897Y-32580478D01*
X75101133Y-32704968D01*
X75073540Y-32795932D01*
X75073539Y-32795934D01*
X75057000Y-32963855D01*
X75057000Y-32963861D01*
X75051471Y-33020000D01*
X75057000Y-33076139D01*
X75057001Y-201456553D01*
X74456555Y-202057000D01*
X74133446Y-202057000D01*
X73533000Y-201456555D01*
X73533000Y-33076138D01*
X73538529Y-33019999D01*
X73533000Y-32963860D01*
X73533000Y-32963854D01*
X73516461Y-32795933D01*
X73451103Y-32580477D01*
X73344968Y-32381911D01*
X73202133Y-32207867D01*
X73158523Y-32172077D01*
X72380445Y-31394000D01*
X76209554Y-31394000D01*
X75431482Y-32172073D01*
G37*
%TD.AperFunction*%
D13*
X67811482Y-32172073D02*
X67767867Y-32207867D01*
X67625032Y-32381912D01*
X67518897Y-32580478D01*
X67481133Y-32704968D01*
X67453540Y-32795932D01*
X67453539Y-32795934D01*
X67437000Y-32963855D01*
X67437000Y-32963861D01*
X67431471Y-33020000D01*
X67437000Y-33076139D01*
X67437001Y-201456553D01*
X66836555Y-202057000D01*
X66513446Y-202057000D01*
X65913000Y-201456555D01*
X65913000Y-33076138D01*
X65918529Y-33019999D01*
X65913000Y-32963860D01*
X65913000Y-32963854D01*
X65896461Y-32795933D01*
X65831103Y-32580477D01*
X65724968Y-32381911D01*
X65582133Y-32207867D01*
X65538523Y-32172077D01*
X64760445Y-31394000D01*
X68589554Y-31394000D01*
X67811482Y-32172073D01*
%TA.AperFunction,NonConductor*%
D14*
G36*
X67811482Y-32172073D02*
G01*
X67767867Y-32207867D01*
X67625032Y-32381912D01*
X67518897Y-32580478D01*
X67481133Y-32704968D01*
X67453540Y-32795932D01*
X67453539Y-32795934D01*
X67437000Y-32963855D01*
X67437000Y-32963861D01*
X67431471Y-33020000D01*
X67437000Y-33076139D01*
X67437001Y-201456553D01*
X66836555Y-202057000D01*
X66513446Y-202057000D01*
X65913000Y-201456555D01*
X65913000Y-33076138D01*
X65918529Y-33019999D01*
X65913000Y-32963860D01*
X65913000Y-32963854D01*
X65896461Y-32795933D01*
X65831103Y-32580477D01*
X65724968Y-32381911D01*
X65582133Y-32207867D01*
X65538523Y-32172077D01*
X64760445Y-31394000D01*
X68589554Y-31394000D01*
X67811482Y-32172073D01*
G37*
%TD.AperFunction*%
M02*
