%TF.GenerationSoftware,KiCad,Pcbnew,(5.1.9)-1*%
%TF.CreationDate,2021-10-09T23:30:21-04:00*%
%TF.ProjectId,Control Board,436f6e74-726f-46c2-9042-6f6172642e6b,rev?*%
%TF.SameCoordinates,Original*%
%TF.FileFunction,Legend,Bot*%
%TF.FilePolarity,Positive*%
%FSLAX46Y46*%
G04 Gerber Fmt 4.6, Leading zero omitted, Abs format (unit mm)*
G04 Created by KiCad (PCBNEW (5.1.9)-1) date 2021-10-09 23:30:21*
%MOMM*%
%LPD*%
G01*
G04 APERTURE LIST*
%ADD10C,0.150000*%
%ADD11C,0.120000*%
G04 APERTURE END LIST*
D10*
X81382428Y-80478380D02*
X80811000Y-80478380D01*
X81096714Y-81478380D02*
X81096714Y-80478380D01*
X80096714Y-81430761D02*
X80191952Y-81478380D01*
X80382428Y-81478380D01*
X80477666Y-81430761D01*
X80525285Y-81335523D01*
X80525285Y-80954571D01*
X80477666Y-80859333D01*
X80382428Y-80811714D01*
X80191952Y-80811714D01*
X80096714Y-80859333D01*
X80049095Y-80954571D01*
X80049095Y-81049809D01*
X80525285Y-81145047D01*
X79620523Y-81478380D02*
X79620523Y-80811714D01*
X79620523Y-80906952D02*
X79572904Y-80859333D01*
X79477666Y-80811714D01*
X79334809Y-80811714D01*
X79239571Y-80859333D01*
X79191952Y-80954571D01*
X79191952Y-81478380D01*
X79191952Y-80954571D02*
X79144333Y-80859333D01*
X79049095Y-80811714D01*
X78906238Y-80811714D01*
X78811000Y-80859333D01*
X78763380Y-80954571D01*
X78763380Y-81478380D01*
X78287190Y-80811714D02*
X78287190Y-81811714D01*
X78287190Y-80859333D02*
X78191952Y-80811714D01*
X78001476Y-80811714D01*
X77906238Y-80859333D01*
X77858619Y-80906952D01*
X77811000Y-81002190D01*
X77811000Y-81287904D01*
X77858619Y-81383142D01*
X77906238Y-81430761D01*
X78001476Y-81478380D01*
X78191952Y-81478380D01*
X78287190Y-81430761D01*
X77001476Y-81430761D02*
X77096714Y-81478380D01*
X77287190Y-81478380D01*
X77382428Y-81430761D01*
X77430047Y-81335523D01*
X77430047Y-80954571D01*
X77382428Y-80859333D01*
X77287190Y-80811714D01*
X77096714Y-80811714D01*
X77001476Y-80859333D01*
X76953857Y-80954571D01*
X76953857Y-81049809D01*
X77430047Y-81145047D01*
X76525285Y-81478380D02*
X76525285Y-80811714D01*
X76525285Y-81002190D02*
X76477666Y-80906952D01*
X76430047Y-80859333D01*
X76334809Y-80811714D01*
X76239571Y-80811714D01*
X75477666Y-81478380D02*
X75477666Y-80954571D01*
X75525285Y-80859333D01*
X75620523Y-80811714D01*
X75811000Y-80811714D01*
X75906238Y-80859333D01*
X75477666Y-81430761D02*
X75572904Y-81478380D01*
X75811000Y-81478380D01*
X75906238Y-81430761D01*
X75953857Y-81335523D01*
X75953857Y-81240285D01*
X75906238Y-81145047D01*
X75811000Y-81097428D01*
X75572904Y-81097428D01*
X75477666Y-81049809D01*
X75144333Y-80811714D02*
X74763380Y-80811714D01*
X75001476Y-80478380D02*
X75001476Y-81335523D01*
X74953857Y-81430761D01*
X74858619Y-81478380D01*
X74763380Y-81478380D01*
X74001476Y-80811714D02*
X74001476Y-81478380D01*
X74430047Y-80811714D02*
X74430047Y-81335523D01*
X74382428Y-81430761D01*
X74287190Y-81478380D01*
X74144333Y-81478380D01*
X74049095Y-81430761D01*
X74001476Y-81383142D01*
X73525285Y-81478380D02*
X73525285Y-80811714D01*
X73525285Y-81002190D02*
X73477666Y-80906952D01*
X73430047Y-80859333D01*
X73334809Y-80811714D01*
X73239571Y-80811714D01*
X72525285Y-81430761D02*
X72620523Y-81478380D01*
X72811000Y-81478380D01*
X72906238Y-81430761D01*
X72953857Y-81335523D01*
X72953857Y-80954571D01*
X72906238Y-80859333D01*
X72811000Y-80811714D01*
X72620523Y-80811714D01*
X72525285Y-80859333D01*
X72477666Y-80954571D01*
X72477666Y-81049809D01*
X72953857Y-81145047D01*
X71334809Y-81430761D02*
X71191952Y-81478380D01*
X70953857Y-81478380D01*
X70858619Y-81430761D01*
X70811000Y-81383142D01*
X70763380Y-81287904D01*
X70763380Y-81192666D01*
X70811000Y-81097428D01*
X70858619Y-81049809D01*
X70953857Y-81002190D01*
X71144333Y-80954571D01*
X71239571Y-80906952D01*
X71287190Y-80859333D01*
X71334809Y-80764095D01*
X71334809Y-80668857D01*
X71287190Y-80573619D01*
X71239571Y-80526000D01*
X71144333Y-80478380D01*
X70906238Y-80478380D01*
X70763380Y-80526000D01*
X69953857Y-81430761D02*
X70049095Y-81478380D01*
X70239571Y-81478380D01*
X70334809Y-81430761D01*
X70382428Y-81335523D01*
X70382428Y-80954571D01*
X70334809Y-80859333D01*
X70239571Y-80811714D01*
X70049095Y-80811714D01*
X69953857Y-80859333D01*
X69906238Y-80954571D01*
X69906238Y-81049809D01*
X70382428Y-81145047D01*
X69620523Y-80811714D02*
X69239571Y-80811714D01*
X69477666Y-80478380D02*
X69477666Y-81335523D01*
X69430047Y-81430761D01*
X69334809Y-81478380D01*
X69239571Y-81478380D01*
X76660190Y-67460761D02*
X76517333Y-67508380D01*
X76279238Y-67508380D01*
X76184000Y-67460761D01*
X76136380Y-67413142D01*
X76088761Y-67317904D01*
X76088761Y-67222666D01*
X76136380Y-67127428D01*
X76184000Y-67079809D01*
X76279238Y-67032190D01*
X76469714Y-66984571D01*
X76564952Y-66936952D01*
X76612571Y-66889333D01*
X76660190Y-66794095D01*
X76660190Y-66698857D01*
X76612571Y-66603619D01*
X76564952Y-66556000D01*
X76469714Y-66508380D01*
X76231619Y-66508380D01*
X76088761Y-66556000D01*
X75803047Y-66841714D02*
X75422095Y-66841714D01*
X75660190Y-66508380D02*
X75660190Y-67365523D01*
X75612571Y-67460761D01*
X75517333Y-67508380D01*
X75422095Y-67508380D01*
X74945904Y-67508380D02*
X75041142Y-67460761D01*
X75088761Y-67413142D01*
X75136380Y-67317904D01*
X75136380Y-67032190D01*
X75088761Y-66936952D01*
X75041142Y-66889333D01*
X74945904Y-66841714D01*
X74803047Y-66841714D01*
X74707809Y-66889333D01*
X74660190Y-66936952D01*
X74612571Y-67032190D01*
X74612571Y-67317904D01*
X74660190Y-67413142D01*
X74707809Y-67460761D01*
X74803047Y-67508380D01*
X74945904Y-67508380D01*
X74184000Y-66841714D02*
X74184000Y-67841714D01*
X74184000Y-66889333D02*
X74088761Y-66841714D01*
X73898285Y-66841714D01*
X73803047Y-66889333D01*
X73755428Y-66936952D01*
X73707809Y-67032190D01*
X73707809Y-67317904D01*
X73755428Y-67413142D01*
X73803047Y-67460761D01*
X73898285Y-67508380D01*
X74088761Y-67508380D01*
X74184000Y-67460761D01*
X76826857Y-53157380D02*
X77160190Y-52681190D01*
X77398285Y-53157380D02*
X77398285Y-52157380D01*
X77017333Y-52157380D01*
X76922095Y-52205000D01*
X76874476Y-52252619D01*
X76826857Y-52347857D01*
X76826857Y-52490714D01*
X76874476Y-52585952D01*
X76922095Y-52633571D01*
X77017333Y-52681190D01*
X77398285Y-52681190D01*
X76017333Y-53109761D02*
X76112571Y-53157380D01*
X76303047Y-53157380D01*
X76398285Y-53109761D01*
X76445904Y-53014523D01*
X76445904Y-52633571D01*
X76398285Y-52538333D01*
X76303047Y-52490714D01*
X76112571Y-52490714D01*
X76017333Y-52538333D01*
X75969714Y-52633571D01*
X75969714Y-52728809D01*
X76445904Y-52824047D01*
X75684000Y-52490714D02*
X75303047Y-52490714D01*
X75541142Y-53157380D02*
X75541142Y-52300238D01*
X75493523Y-52205000D01*
X75398285Y-52157380D01*
X75303047Y-52157380D01*
X74826857Y-53157380D02*
X74922095Y-53109761D01*
X74969714Y-53014523D01*
X74969714Y-52157380D01*
X74303047Y-53157380D02*
X74398285Y-53109761D01*
X74445904Y-53062142D01*
X74493523Y-52966904D01*
X74493523Y-52681190D01*
X74445904Y-52585952D01*
X74398285Y-52538333D01*
X74303047Y-52490714D01*
X74160190Y-52490714D01*
X74064952Y-52538333D01*
X74017333Y-52585952D01*
X73969714Y-52681190D01*
X73969714Y-52966904D01*
X74017333Y-53062142D01*
X74064952Y-53109761D01*
X74160190Y-53157380D01*
X74303047Y-53157380D01*
X73636380Y-52490714D02*
X73445904Y-53157380D01*
X73255428Y-52681190D01*
X73064952Y-53157380D01*
X72874476Y-52490714D01*
X138491904Y-47712380D02*
X137920476Y-47712380D01*
X138206190Y-48712380D02*
X138206190Y-47712380D01*
X137587142Y-48712380D02*
X137587142Y-47712380D01*
X137587142Y-48188571D02*
X137015714Y-48188571D01*
X137015714Y-48712380D02*
X137015714Y-47712380D01*
X136539523Y-48712380D02*
X136539523Y-47712380D01*
X136110952Y-48664761D02*
X135968095Y-48712380D01*
X135730000Y-48712380D01*
X135634761Y-48664761D01*
X135587142Y-48617142D01*
X135539523Y-48521904D01*
X135539523Y-48426666D01*
X135587142Y-48331428D01*
X135634761Y-48283809D01*
X135730000Y-48236190D01*
X135920476Y-48188571D01*
X136015714Y-48140952D01*
X136063333Y-48093333D01*
X136110952Y-47998095D01*
X136110952Y-47902857D01*
X136063333Y-47807619D01*
X136015714Y-47760000D01*
X135920476Y-47712380D01*
X135682380Y-47712380D01*
X135539523Y-47760000D01*
X134396666Y-48664761D02*
X134253809Y-48712380D01*
X134015714Y-48712380D01*
X133920476Y-48664761D01*
X133872857Y-48617142D01*
X133825238Y-48521904D01*
X133825238Y-48426666D01*
X133872857Y-48331428D01*
X133920476Y-48283809D01*
X134015714Y-48236190D01*
X134206190Y-48188571D01*
X134301428Y-48140952D01*
X134349047Y-48093333D01*
X134396666Y-47998095D01*
X134396666Y-47902857D01*
X134349047Y-47807619D01*
X134301428Y-47760000D01*
X134206190Y-47712380D01*
X133968095Y-47712380D01*
X133825238Y-47760000D01*
X133396666Y-48712380D02*
X133396666Y-47712380D01*
X132920476Y-48712380D02*
X132920476Y-47712380D01*
X132682380Y-47712380D01*
X132539523Y-47760000D01*
X132444285Y-47855238D01*
X132396666Y-47950476D01*
X132349047Y-48140952D01*
X132349047Y-48283809D01*
X132396666Y-48474285D01*
X132444285Y-48569523D01*
X132539523Y-48664761D01*
X132682380Y-48712380D01*
X132920476Y-48712380D01*
X131920476Y-48188571D02*
X131587142Y-48188571D01*
X131444285Y-48712380D02*
X131920476Y-48712380D01*
X131920476Y-47712380D01*
X131444285Y-47712380D01*
X130396666Y-47712380D02*
X129825238Y-47712380D01*
X130110952Y-48712380D02*
X130110952Y-47712380D01*
X129301428Y-47712380D02*
X129110952Y-47712380D01*
X129015714Y-47760000D01*
X128920476Y-47855238D01*
X128872857Y-48045714D01*
X128872857Y-48379047D01*
X128920476Y-48569523D01*
X129015714Y-48664761D01*
X129110952Y-48712380D01*
X129301428Y-48712380D01*
X129396666Y-48664761D01*
X129491904Y-48569523D01*
X129539523Y-48379047D01*
X129539523Y-48045714D01*
X129491904Y-47855238D01*
X129396666Y-47760000D01*
X129301428Y-47712380D01*
X128539523Y-47712380D02*
X128301428Y-48712380D01*
X128110952Y-47998095D01*
X127920476Y-48712380D01*
X127682380Y-47712380D01*
X127349047Y-48426666D02*
X126872857Y-48426666D01*
X127444285Y-48712380D02*
X127110952Y-47712380D01*
X126777619Y-48712380D01*
X125872857Y-48712380D02*
X126206190Y-48236190D01*
X126444285Y-48712380D02*
X126444285Y-47712380D01*
X126063333Y-47712380D01*
X125968095Y-47760000D01*
X125920476Y-47807619D01*
X125872857Y-47902857D01*
X125872857Y-48045714D01*
X125920476Y-48140952D01*
X125968095Y-48188571D01*
X126063333Y-48236190D01*
X126444285Y-48236190D01*
X125444285Y-48712380D02*
X125444285Y-47712380D01*
X125206190Y-47712380D01*
X125063333Y-47760000D01*
X124968095Y-47855238D01*
X124920476Y-47950476D01*
X124872857Y-48140952D01*
X124872857Y-48283809D01*
X124920476Y-48474285D01*
X124968095Y-48569523D01*
X125063333Y-48664761D01*
X125206190Y-48712380D01*
X125444285Y-48712380D01*
X124491904Y-48664761D02*
X124349047Y-48712380D01*
X124110952Y-48712380D01*
X124015714Y-48664761D01*
X123968095Y-48617142D01*
X123920476Y-48521904D01*
X123920476Y-48426666D01*
X123968095Y-48331428D01*
X124015714Y-48283809D01*
X124110952Y-48236190D01*
X124301428Y-48188571D01*
X124396666Y-48140952D01*
X124444285Y-48093333D01*
X124491904Y-47998095D01*
X124491904Y-47902857D01*
X124444285Y-47807619D01*
X124396666Y-47760000D01*
X124301428Y-47712380D01*
X124063333Y-47712380D01*
X123920476Y-47760000D01*
X122396666Y-48188571D02*
X122730000Y-48188571D01*
X122730000Y-48712380D02*
X122730000Y-47712380D01*
X122253809Y-47712380D01*
X121301428Y-48712380D02*
X121634761Y-48236190D01*
X121872857Y-48712380D02*
X121872857Y-47712380D01*
X121491904Y-47712380D01*
X121396666Y-47760000D01*
X121349047Y-47807619D01*
X121301428Y-47902857D01*
X121301428Y-48045714D01*
X121349047Y-48140952D01*
X121396666Y-48188571D01*
X121491904Y-48236190D01*
X121872857Y-48236190D01*
X120682380Y-47712380D02*
X120491904Y-47712380D01*
X120396666Y-47760000D01*
X120301428Y-47855238D01*
X120253809Y-48045714D01*
X120253809Y-48379047D01*
X120301428Y-48569523D01*
X120396666Y-48664761D01*
X120491904Y-48712380D01*
X120682380Y-48712380D01*
X120777619Y-48664761D01*
X120872857Y-48569523D01*
X120920476Y-48379047D01*
X120920476Y-48045714D01*
X120872857Y-47855238D01*
X120777619Y-47760000D01*
X120682380Y-47712380D01*
X119825238Y-48712380D02*
X119825238Y-47712380D01*
X119253809Y-48712380D01*
X119253809Y-47712380D01*
X118920476Y-47712380D02*
X118349047Y-47712380D01*
X118634761Y-48712380D02*
X118634761Y-47712380D01*
X117253809Y-48712380D02*
X117253809Y-47712380D01*
X116872857Y-47712380D01*
X116777619Y-47760000D01*
X116730000Y-47807619D01*
X116682380Y-47902857D01*
X116682380Y-48045714D01*
X116730000Y-48140952D01*
X116777619Y-48188571D01*
X116872857Y-48236190D01*
X117253809Y-48236190D01*
X116301428Y-48426666D02*
X115825238Y-48426666D01*
X116396666Y-48712380D02*
X116063333Y-47712380D01*
X115730000Y-48712380D01*
X115396666Y-48712380D02*
X115396666Y-47712380D01*
X114825238Y-48712380D01*
X114825238Y-47712380D01*
X114349047Y-48188571D02*
X114015714Y-48188571D01*
X113872857Y-48712380D02*
X114349047Y-48712380D01*
X114349047Y-47712380D01*
X113872857Y-47712380D01*
X112968095Y-48712380D02*
X113444285Y-48712380D01*
X113444285Y-47712380D01*
X191682619Y-112998095D02*
X191682619Y-112379047D01*
X191301666Y-112712380D01*
X191301666Y-112569523D01*
X191254047Y-112474285D01*
X191206428Y-112426666D01*
X191111190Y-112379047D01*
X190873095Y-112379047D01*
X190777857Y-112426666D01*
X190730238Y-112474285D01*
X190682619Y-112569523D01*
X190682619Y-112855238D01*
X190730238Y-112950476D01*
X190777857Y-112998095D01*
X191682619Y-112093333D02*
X190682619Y-111760000D01*
X191682619Y-111426666D01*
X191682619Y-111188571D02*
X191682619Y-110569523D01*
X191301666Y-110902857D01*
X191301666Y-110760000D01*
X191254047Y-110664761D01*
X191206428Y-110617142D01*
X191111190Y-110569523D01*
X190873095Y-110569523D01*
X190777857Y-110617142D01*
X190730238Y-110664761D01*
X190682619Y-110760000D01*
X190682619Y-111045714D01*
X190730238Y-111140952D01*
X190777857Y-111188571D01*
X188142619Y-112307619D02*
X188618809Y-112640952D01*
X188142619Y-112879047D02*
X189142619Y-112879047D01*
X189142619Y-112498095D01*
X189095000Y-112402857D01*
X189047380Y-112355238D01*
X188952142Y-112307619D01*
X188809285Y-112307619D01*
X188714047Y-112355238D01*
X188666428Y-112402857D01*
X188618809Y-112498095D01*
X188618809Y-112879047D01*
X188190238Y-111926666D02*
X188142619Y-111783809D01*
X188142619Y-111545714D01*
X188190238Y-111450476D01*
X188237857Y-111402857D01*
X188333095Y-111355238D01*
X188428333Y-111355238D01*
X188523571Y-111402857D01*
X188571190Y-111450476D01*
X188618809Y-111545714D01*
X188666428Y-111736190D01*
X188714047Y-111831428D01*
X188761666Y-111879047D01*
X188856904Y-111926666D01*
X188952142Y-111926666D01*
X189047380Y-111879047D01*
X189095000Y-111831428D01*
X189142619Y-111736190D01*
X189142619Y-111498095D01*
X189095000Y-111355238D01*
X189142619Y-111069523D02*
X189142619Y-110498095D01*
X188142619Y-110783809D02*
X189142619Y-110783809D01*
X186555000Y-112521904D02*
X186602619Y-112617142D01*
X186602619Y-112760000D01*
X186555000Y-112902857D01*
X186459761Y-112998095D01*
X186364523Y-113045714D01*
X186174047Y-113093333D01*
X186031190Y-113093333D01*
X185840714Y-113045714D01*
X185745476Y-112998095D01*
X185650238Y-112902857D01*
X185602619Y-112760000D01*
X185602619Y-112664761D01*
X185650238Y-112521904D01*
X185697857Y-112474285D01*
X186031190Y-112474285D01*
X186031190Y-112664761D01*
X185602619Y-112045714D02*
X186602619Y-112045714D01*
X185602619Y-111474285D01*
X186602619Y-111474285D01*
X185602619Y-110998095D02*
X186602619Y-110998095D01*
X186602619Y-110760000D01*
X186555000Y-110617142D01*
X186459761Y-110521904D01*
X186364523Y-110474285D01*
X186174047Y-110426666D01*
X186031190Y-110426666D01*
X185840714Y-110474285D01*
X185745476Y-110521904D01*
X185650238Y-110617142D01*
X185602619Y-110760000D01*
X185602619Y-110998095D01*
X184062619Y-110108809D02*
X183253095Y-110108809D01*
X183157857Y-110061190D01*
X183110238Y-110013571D01*
X183062619Y-109918333D01*
X183062619Y-109727857D01*
X183110238Y-109632619D01*
X183157857Y-109585000D01*
X183253095Y-109537380D01*
X184062619Y-109537380D01*
X183062619Y-109061190D02*
X184062619Y-109061190D01*
X184062619Y-108680238D01*
X184015000Y-108585000D01*
X183967380Y-108537380D01*
X183872142Y-108489761D01*
X183729285Y-108489761D01*
X183634047Y-108537380D01*
X183586428Y-108585000D01*
X183538809Y-108680238D01*
X183538809Y-109061190D01*
X183062619Y-108061190D02*
X184062619Y-108061190D01*
X184062619Y-107823095D01*
X184015000Y-107680238D01*
X183919761Y-107585000D01*
X183824523Y-107537380D01*
X183634047Y-107489761D01*
X183491190Y-107489761D01*
X183300714Y-107537380D01*
X183205476Y-107585000D01*
X183110238Y-107680238D01*
X183062619Y-107823095D01*
X183062619Y-108061190D01*
X183062619Y-107061190D02*
X184062619Y-107061190D01*
X189785238Y-56284761D02*
X189642380Y-56332380D01*
X189404285Y-56332380D01*
X189309047Y-56284761D01*
X189261428Y-56237142D01*
X189213809Y-56141904D01*
X189213809Y-56046666D01*
X189261428Y-55951428D01*
X189309047Y-55903809D01*
X189404285Y-55856190D01*
X189594761Y-55808571D01*
X189690000Y-55760952D01*
X189737619Y-55713333D01*
X189785238Y-55618095D01*
X189785238Y-55522857D01*
X189737619Y-55427619D01*
X189690000Y-55380000D01*
X189594761Y-55332380D01*
X189356666Y-55332380D01*
X189213809Y-55380000D01*
X188785238Y-56332380D02*
X188785238Y-55332380D01*
X188547142Y-55332380D01*
X188404285Y-55380000D01*
X188309047Y-55475238D01*
X188261428Y-55570476D01*
X188213809Y-55760952D01*
X188213809Y-55903809D01*
X188261428Y-56094285D01*
X188309047Y-56189523D01*
X188404285Y-56284761D01*
X188547142Y-56332380D01*
X188785238Y-56332380D01*
X186451904Y-56237142D02*
X186499523Y-56284761D01*
X186642380Y-56332380D01*
X186737619Y-56332380D01*
X186880476Y-56284761D01*
X186975714Y-56189523D01*
X187023333Y-56094285D01*
X187070952Y-55903809D01*
X187070952Y-55760952D01*
X187023333Y-55570476D01*
X186975714Y-55475238D01*
X186880476Y-55380000D01*
X186737619Y-55332380D01*
X186642380Y-55332380D01*
X186499523Y-55380000D01*
X186451904Y-55427619D01*
X186070952Y-56046666D02*
X185594761Y-56046666D01*
X186166190Y-56332380D02*
X185832857Y-55332380D01*
X185499523Y-56332380D01*
X184594761Y-56332380D02*
X184928095Y-55856190D01*
X185166190Y-56332380D02*
X185166190Y-55332380D01*
X184785238Y-55332380D01*
X184690000Y-55380000D01*
X184642380Y-55427619D01*
X184594761Y-55522857D01*
X184594761Y-55665714D01*
X184642380Y-55760952D01*
X184690000Y-55808571D01*
X184785238Y-55856190D01*
X185166190Y-55856190D01*
X184166190Y-56332380D02*
X184166190Y-55332380D01*
X183928095Y-55332380D01*
X183785238Y-55380000D01*
X183690000Y-55475238D01*
X183642380Y-55570476D01*
X183594761Y-55760952D01*
X183594761Y-55903809D01*
X183642380Y-56094285D01*
X183690000Y-56189523D01*
X183785238Y-56284761D01*
X183928095Y-56332380D01*
X184166190Y-56332380D01*
D11*
%TO.C,SW2*%
X71970000Y-75200000D02*
X71970000Y-70700000D01*
X75970000Y-76450000D02*
X74470000Y-76450000D01*
X78470000Y-70700000D02*
X78470000Y-75200000D01*
X74470000Y-69450000D02*
X75970000Y-69450000D01*
%TO.C,DS3*%
X85340000Y-70460000D02*
X122940000Y-70460000D01*
X122940000Y-70460000D02*
X122940000Y-51460000D01*
X122940000Y-51460000D02*
X85340000Y-51460000D01*
X85340000Y-51460000D02*
X85340000Y-70460000D01*
%TO.C,SW3*%
X71970000Y-89170000D02*
X71970000Y-84670000D01*
X75970000Y-90420000D02*
X74470000Y-90420000D01*
X78470000Y-84670000D02*
X78470000Y-89170000D01*
X74470000Y-83420000D02*
X75970000Y-83420000D01*
%TO.C,SW1*%
X71970000Y-61230000D02*
X71970000Y-56730000D01*
X75970000Y-62480000D02*
X74470000Y-62480000D01*
X78470000Y-56730000D02*
X78470000Y-61230000D01*
X74470000Y-55480000D02*
X75970000Y-55480000D01*
%TO.C,RV1*%
X179257000Y-107001000D02*
X179257000Y-109661000D01*
X174117000Y-107001000D02*
X179257000Y-107001000D01*
X174117000Y-109661000D02*
X179257000Y-109661000D01*
X174117000Y-107001000D02*
X174117000Y-109661000D01*
X172847000Y-107001000D02*
X171517000Y-107001000D01*
X171517000Y-107001000D02*
X171517000Y-108331000D01*
%TO.C,J7*%
X184598000Y-109915000D02*
X184598000Y-107255000D01*
X189738000Y-109915000D02*
X184598000Y-109915000D01*
X189738000Y-107255000D02*
X184598000Y-107255000D01*
X189738000Y-109915000D02*
X189738000Y-107255000D01*
X191008000Y-109915000D02*
X192338000Y-109915000D01*
X192338000Y-109915000D02*
X192338000Y-108585000D01*
%TO.C,J4*%
X200160000Y-46145000D02*
X200160000Y-46565000D01*
X173320000Y-46145000D02*
X200160000Y-46145000D01*
X173320000Y-46565000D02*
X173320000Y-46145000D01*
X173320000Y-68065000D02*
X173320000Y-50165000D01*
X200160000Y-63465000D02*
X200160000Y-50165000D01*
X197860000Y-65765000D02*
X200160000Y-63465000D01*
X197860000Y-68065000D02*
X197860000Y-65765000D01*
X179490000Y-71385000D02*
X180190000Y-71385000D01*
X181890000Y-71385000D02*
X182690000Y-71385000D01*
X184390000Y-71385000D02*
X185190000Y-71385000D01*
X196890000Y-71385000D02*
X197090000Y-71385000D01*
X186890000Y-71385000D02*
X187690000Y-71385000D01*
X189490000Y-71385000D02*
X190190000Y-71385000D01*
X191890000Y-71385000D02*
X192690000Y-71385000D01*
X194390000Y-71385000D02*
X195190000Y-71385000D01*
%TO.C,DS2*%
X128520000Y-93320000D02*
X166120000Y-93320000D01*
X166120000Y-93320000D02*
X166120000Y-74320000D01*
X166120000Y-74320000D02*
X128520000Y-74320000D01*
X128520000Y-74320000D02*
X128520000Y-93320000D01*
%TO.C,DS1*%
X128520000Y-70460000D02*
X166120000Y-70460000D01*
X166120000Y-70460000D02*
X166120000Y-51460000D01*
X166120000Y-51460000D02*
X128520000Y-51460000D01*
X128520000Y-51460000D02*
X128520000Y-70460000D01*
%TO.C,SW2*%
D10*
X79874761Y-71616666D02*
X79922380Y-71759523D01*
X79922380Y-71997619D01*
X79874761Y-72092857D01*
X79827142Y-72140476D01*
X79731904Y-72188095D01*
X79636666Y-72188095D01*
X79541428Y-72140476D01*
X79493809Y-72092857D01*
X79446190Y-71997619D01*
X79398571Y-71807142D01*
X79350952Y-71711904D01*
X79303333Y-71664285D01*
X79208095Y-71616666D01*
X79112857Y-71616666D01*
X79017619Y-71664285D01*
X78970000Y-71711904D01*
X78922380Y-71807142D01*
X78922380Y-72045238D01*
X78970000Y-72188095D01*
X78922380Y-72521428D02*
X79922380Y-72759523D01*
X79208095Y-72950000D01*
X79922380Y-73140476D01*
X78922380Y-73378571D01*
X79017619Y-73711904D02*
X78970000Y-73759523D01*
X78922380Y-73854761D01*
X78922380Y-74092857D01*
X78970000Y-74188095D01*
X79017619Y-74235714D01*
X79112857Y-74283333D01*
X79208095Y-74283333D01*
X79350952Y-74235714D01*
X79922380Y-73664285D01*
X79922380Y-74283333D01*
%TO.C,DS3*%
X105354285Y-50617380D02*
X105354285Y-49617380D01*
X105116190Y-49617380D01*
X104973333Y-49665000D01*
X104878095Y-49760238D01*
X104830476Y-49855476D01*
X104782857Y-50045952D01*
X104782857Y-50188809D01*
X104830476Y-50379285D01*
X104878095Y-50474523D01*
X104973333Y-50569761D01*
X105116190Y-50617380D01*
X105354285Y-50617380D01*
X104401904Y-50569761D02*
X104259047Y-50617380D01*
X104020952Y-50617380D01*
X103925714Y-50569761D01*
X103878095Y-50522142D01*
X103830476Y-50426904D01*
X103830476Y-50331666D01*
X103878095Y-50236428D01*
X103925714Y-50188809D01*
X104020952Y-50141190D01*
X104211428Y-50093571D01*
X104306666Y-50045952D01*
X104354285Y-49998333D01*
X104401904Y-49903095D01*
X104401904Y-49807857D01*
X104354285Y-49712619D01*
X104306666Y-49665000D01*
X104211428Y-49617380D01*
X103973333Y-49617380D01*
X103830476Y-49665000D01*
X103497142Y-49617380D02*
X102878095Y-49617380D01*
X103211428Y-49998333D01*
X103068571Y-49998333D01*
X102973333Y-50045952D01*
X102925714Y-50093571D01*
X102878095Y-50188809D01*
X102878095Y-50426904D01*
X102925714Y-50522142D01*
X102973333Y-50569761D01*
X103068571Y-50617380D01*
X103354285Y-50617380D01*
X103449523Y-50569761D01*
X103497142Y-50522142D01*
%TO.C,SW3*%
X79874761Y-85586666D02*
X79922380Y-85729523D01*
X79922380Y-85967619D01*
X79874761Y-86062857D01*
X79827142Y-86110476D01*
X79731904Y-86158095D01*
X79636666Y-86158095D01*
X79541428Y-86110476D01*
X79493809Y-86062857D01*
X79446190Y-85967619D01*
X79398571Y-85777142D01*
X79350952Y-85681904D01*
X79303333Y-85634285D01*
X79208095Y-85586666D01*
X79112857Y-85586666D01*
X79017619Y-85634285D01*
X78970000Y-85681904D01*
X78922380Y-85777142D01*
X78922380Y-86015238D01*
X78970000Y-86158095D01*
X78922380Y-86491428D02*
X79922380Y-86729523D01*
X79208095Y-86920000D01*
X79922380Y-87110476D01*
X78922380Y-87348571D01*
X78922380Y-87634285D02*
X78922380Y-88253333D01*
X79303333Y-87920000D01*
X79303333Y-88062857D01*
X79350952Y-88158095D01*
X79398571Y-88205714D01*
X79493809Y-88253333D01*
X79731904Y-88253333D01*
X79827142Y-88205714D01*
X79874761Y-88158095D01*
X79922380Y-88062857D01*
X79922380Y-87777142D01*
X79874761Y-87681904D01*
X79827142Y-87634285D01*
%TO.C,SW1*%
X79874761Y-57646666D02*
X79922380Y-57789523D01*
X79922380Y-58027619D01*
X79874761Y-58122857D01*
X79827142Y-58170476D01*
X79731904Y-58218095D01*
X79636666Y-58218095D01*
X79541428Y-58170476D01*
X79493809Y-58122857D01*
X79446190Y-58027619D01*
X79398571Y-57837142D01*
X79350952Y-57741904D01*
X79303333Y-57694285D01*
X79208095Y-57646666D01*
X79112857Y-57646666D01*
X79017619Y-57694285D01*
X78970000Y-57741904D01*
X78922380Y-57837142D01*
X78922380Y-58075238D01*
X78970000Y-58218095D01*
X78922380Y-58551428D02*
X79922380Y-58789523D01*
X79208095Y-58980000D01*
X79922380Y-59170476D01*
X78922380Y-59408571D01*
X79922380Y-60313333D02*
X79922380Y-59741904D01*
X79922380Y-60027619D02*
X78922380Y-60027619D01*
X79065238Y-59932380D01*
X79160476Y-59837142D01*
X79208095Y-59741904D01*
%TO.C,RV1*%
X170969380Y-107735761D02*
X170493190Y-107402428D01*
X170969380Y-107164333D02*
X169969380Y-107164333D01*
X169969380Y-107545285D01*
X170017000Y-107640523D01*
X170064619Y-107688142D01*
X170159857Y-107735761D01*
X170302714Y-107735761D01*
X170397952Y-107688142D01*
X170445571Y-107640523D01*
X170493190Y-107545285D01*
X170493190Y-107164333D01*
X169969380Y-108021476D02*
X170969380Y-108354809D01*
X169969380Y-108688142D01*
X170969380Y-109545285D02*
X170969380Y-108973857D01*
X170969380Y-109259571D02*
X169969380Y-109259571D01*
X170112238Y-109164333D01*
X170207476Y-109069095D01*
X170255095Y-108973857D01*
%TO.C,J7*%
X192790380Y-108251666D02*
X193504666Y-108251666D01*
X193647523Y-108204047D01*
X193742761Y-108108809D01*
X193790380Y-107965952D01*
X193790380Y-107870714D01*
X192790380Y-108632619D02*
X192790380Y-109299285D01*
X193790380Y-108870714D01*
%TO.C,J4*%
X171537380Y-59356666D02*
X172251666Y-59356666D01*
X172394523Y-59309047D01*
X172489761Y-59213809D01*
X172537380Y-59070952D01*
X172537380Y-58975714D01*
X171870714Y-60261428D02*
X172537380Y-60261428D01*
X171489761Y-60023333D02*
X172204047Y-59785238D01*
X172204047Y-60404285D01*
%TO.C,DS2*%
X148534285Y-95067380D02*
X148534285Y-94067380D01*
X148296190Y-94067380D01*
X148153333Y-94115000D01*
X148058095Y-94210238D01*
X148010476Y-94305476D01*
X147962857Y-94495952D01*
X147962857Y-94638809D01*
X148010476Y-94829285D01*
X148058095Y-94924523D01*
X148153333Y-95019761D01*
X148296190Y-95067380D01*
X148534285Y-95067380D01*
X147581904Y-95019761D02*
X147439047Y-95067380D01*
X147200952Y-95067380D01*
X147105714Y-95019761D01*
X147058095Y-94972142D01*
X147010476Y-94876904D01*
X147010476Y-94781666D01*
X147058095Y-94686428D01*
X147105714Y-94638809D01*
X147200952Y-94591190D01*
X147391428Y-94543571D01*
X147486666Y-94495952D01*
X147534285Y-94448333D01*
X147581904Y-94353095D01*
X147581904Y-94257857D01*
X147534285Y-94162619D01*
X147486666Y-94115000D01*
X147391428Y-94067380D01*
X147153333Y-94067380D01*
X147010476Y-94115000D01*
X146629523Y-94162619D02*
X146581904Y-94115000D01*
X146486666Y-94067380D01*
X146248571Y-94067380D01*
X146153333Y-94115000D01*
X146105714Y-94162619D01*
X146058095Y-94257857D01*
X146058095Y-94353095D01*
X146105714Y-94495952D01*
X146677142Y-95067380D01*
X146058095Y-95067380D01*
%TO.C,DS1*%
X148534285Y-50617380D02*
X148534285Y-49617380D01*
X148296190Y-49617380D01*
X148153333Y-49665000D01*
X148058095Y-49760238D01*
X148010476Y-49855476D01*
X147962857Y-50045952D01*
X147962857Y-50188809D01*
X148010476Y-50379285D01*
X148058095Y-50474523D01*
X148153333Y-50569761D01*
X148296190Y-50617380D01*
X148534285Y-50617380D01*
X147581904Y-50569761D02*
X147439047Y-50617380D01*
X147200952Y-50617380D01*
X147105714Y-50569761D01*
X147058095Y-50522142D01*
X147010476Y-50426904D01*
X147010476Y-50331666D01*
X147058095Y-50236428D01*
X147105714Y-50188809D01*
X147200952Y-50141190D01*
X147391428Y-50093571D01*
X147486666Y-50045952D01*
X147534285Y-49998333D01*
X147581904Y-49903095D01*
X147581904Y-49807857D01*
X147534285Y-49712619D01*
X147486666Y-49665000D01*
X147391428Y-49617380D01*
X147153333Y-49617380D01*
X147010476Y-49665000D01*
X146058095Y-50617380D02*
X146629523Y-50617380D01*
X146343809Y-50617380D02*
X146343809Y-49617380D01*
X146439047Y-49760238D01*
X146534285Y-49855476D01*
X146629523Y-49903095D01*
%TD*%
M02*
