M48
; DRILL file {KiCad (5.1.9)-1} date 09/19/21 17:32:17
; FORMAT={-:-/ absolute / inch / decimal}
; #@! TF.CreationDate,2021-09-19T17:32:17-04:00
; #@! TF.GenerationSoftware,Kicad,Pcbnew,(5.1.9)-1
; #@! TF.FileFunction,Plated,1,2,PTH
FMAT,2
INCH
T1C0.0157
T2C0.0197
T3C0.0394
T4C0.0433
T5C0.0512
T6C0.0709
%
G90
G05
T1
X3.425Y-3.2
X3.425Y-3.275
X3.45Y-3.15
X3.45Y-3.625
X3.55Y-2.7
X3.575Y-2.5
X3.6Y-3.475
X3.675Y-3.325
X3.675Y-3.425
X3.675Y-3.375
X3.83Y-3.945
X3.85Y-3.9
X3.95Y-2.875
X3.995Y-3.935
X4.0Y-3.6
X4.075Y-3.625
X4.1Y-3.05
X4.1Y-3.225
X4.15Y-3.075
X4.15Y-3.65
X4.175Y-3.9
X4.25Y-3.9
X4.475Y-2.975
X4.475Y-3.125
X4.6Y-3.025
X4.9Y-3.725
X5.0Y-2.55
X5.2Y-3.88
X5.25Y-2.5
X5.3Y-2.55
X5.3513Y-3.9237
X5.475Y-3.875
X6.05Y-3.925
X6.3Y-3.425
X6.625Y-3.025
X6.675Y-2.875
X6.675Y-3.35
X6.825Y-3.425
X6.9Y-3.875
X7.025Y-3.0
X7.05Y-3.575
X7.125Y-3.1
X7.2492Y-3.0257
X7.325Y-2.95
X7.3595Y-3.0689
X7.475Y-3.0
T2
X3.775Y-2.4
X3.875Y-2.975
X4.075Y-2.825
X4.175Y-2.3
X4.2Y-2.925
X4.2Y-3.35
X4.7Y-3.225
X4.75Y-3.65
X5.225Y-2.975
X5.35Y-3.7
X5.75Y-2.325
X5.775Y-4.0
X6.15Y-3.975
X6.225Y-3.725
X6.465Y-4.05
X6.525Y-3.075
X6.55Y-2.625
X6.7Y-1.9
X6.775Y-3.625
X6.825Y-2.625
X7.005Y-4.04
X7.275Y-2.725
X7.325Y-4.025
X7.35Y-3.25
X7.575Y-3.1
X7.6Y-3.175
X7.7Y-4.025
X7.8Y-2.0
X7.825Y-2.85
X7.825Y-3.05
X7.825Y-3.6
X7.825Y-3.8
X7.9Y-2.625
X7.925Y-3.5
X8.025Y-2.625
X8.025Y-3.375
X8.075Y-2.125
X8.075Y-2.85
X8.075Y-3.2
X8.1Y-2.425
X8.375Y-3.775
X8.375Y-3.975
X8.425Y-2.25
X8.425Y-2.6
T3
X3.85Y-2.1
X3.85Y-2.7
X3.95Y-2.1
X3.95Y-2.7
X4.05Y-2.1
X4.05Y-2.7
X4.15Y-2.1
X4.15Y-2.7
X4.25Y-2.1
X4.25Y-2.7
X4.35Y-2.1
X4.35Y-2.7
X5.075Y-4.175
X5.075Y-4.275
X5.275Y-4.175
X5.275Y-4.375
X5.55Y-2.1
X5.55Y-2.7
X5.55Y-3.0
X5.55Y-3.6
X5.65Y-2.1
X5.65Y-2.7
X5.65Y-3.0
X5.65Y-3.6
X5.75Y-2.1
X5.75Y-2.7
X5.75Y-3.0
X5.75Y-3.6
X5.85Y-2.1
X5.85Y-2.7
X5.85Y-3.0
X5.85Y-3.6
X5.95Y-2.1
X5.95Y-2.7
X5.95Y-3.0
X5.95Y-3.6
X6.05Y-2.1
X6.05Y-2.7
X6.05Y-3.0
X6.05Y-3.6
X6.805Y-4.265
X6.905Y-4.265
X7.005Y-4.265
X7.32Y-4.275
X7.42Y-4.275
X7.52Y-4.275
X7.95Y-2.325
X7.95Y-2.525
X8.05Y-3.65
X8.25Y-3.65
T4
X2.8728Y-2.1941
X2.8728Y-2.45
X2.8728Y-2.7441
X2.8728Y-3.0
X2.8728Y-3.2941
X2.8728Y-3.55
X3.05Y-2.1941
X3.05Y-2.45
X3.05Y-2.7441
X3.05Y-3.0
X3.05Y-3.2941
X3.05Y-3.55
T5
X6.35Y-4.3
X6.55Y-4.3
T6
X9.15Y-2.4372
X9.15Y-2.8124
X9.15Y-3.1876
X9.15Y-3.5628
T0
M30
