%TF.GenerationSoftware,KiCad,Pcbnew,(5.1.9)-1*%
%TF.CreationDate,2021-10-11T18:08:53-04:00*%
%TF.ProjectId,Control Board,436f6e74-726f-46c2-9042-6f6172642e6b,rev?*%
%TF.SameCoordinates,Original*%
%TF.FileFunction,Legend,Top*%
%TF.FilePolarity,Positive*%
%FSLAX46Y46*%
G04 Gerber Fmt 4.6, Leading zero omitted, Abs format (unit mm)*
G04 Created by KiCad (PCBNEW (5.1.9)-1) date 2021-10-11 18:08:53*
%MOMM*%
%LPD*%
G01*
G04 APERTURE LIST*
%ADD10C,0.150000*%
%ADD11C,0.250000*%
%ADD12C,0.120000*%
%ADD13C,0.500000*%
G04 APERTURE END LIST*
D10*
X126912619Y-105362619D02*
X126912619Y-104886428D01*
X126436428Y-104838809D01*
X126484047Y-104886428D01*
X126531666Y-104981666D01*
X126531666Y-105219761D01*
X126484047Y-105315000D01*
X126436428Y-105362619D01*
X126341190Y-105410238D01*
X126103095Y-105410238D01*
X126007857Y-105362619D01*
X125960238Y-105315000D01*
X125912619Y-105219761D01*
X125912619Y-104981666D01*
X125960238Y-104886428D01*
X126007857Y-104838809D01*
X126912619Y-105695952D02*
X125912619Y-106029285D01*
X126912619Y-106362619D01*
X126436428Y-107791190D02*
X126436428Y-107457857D01*
X125912619Y-107457857D02*
X126912619Y-107457857D01*
X126912619Y-107934047D01*
X126198333Y-108267380D02*
X126198333Y-108743571D01*
X125912619Y-108172142D02*
X126912619Y-108505476D01*
X125912619Y-108838809D01*
X125912619Y-109172142D02*
X126912619Y-109172142D01*
X125912619Y-109743571D01*
X126912619Y-109743571D01*
X111633095Y-88447619D02*
X111680714Y-88400000D01*
X111775952Y-88352380D01*
X112014047Y-88352380D01*
X112109285Y-88400000D01*
X112156904Y-88447619D01*
X112204523Y-88542857D01*
X112204523Y-88638095D01*
X112156904Y-88780952D01*
X111585476Y-89352380D01*
X112204523Y-89352380D01*
X112775952Y-88780952D02*
X112680714Y-88733333D01*
X112633095Y-88685714D01*
X112585476Y-88590476D01*
X112585476Y-88542857D01*
X112633095Y-88447619D01*
X112680714Y-88400000D01*
X112775952Y-88352380D01*
X112966428Y-88352380D01*
X113061666Y-88400000D01*
X113109285Y-88447619D01*
X113156904Y-88542857D01*
X113156904Y-88590476D01*
X113109285Y-88685714D01*
X113061666Y-88733333D01*
X112966428Y-88780952D01*
X112775952Y-88780952D01*
X112680714Y-88828571D01*
X112633095Y-88876190D01*
X112585476Y-88971428D01*
X112585476Y-89161904D01*
X112633095Y-89257142D01*
X112680714Y-89304761D01*
X112775952Y-89352380D01*
X112966428Y-89352380D01*
X113061666Y-89304761D01*
X113109285Y-89257142D01*
X113156904Y-89161904D01*
X113156904Y-88971428D01*
X113109285Y-88876190D01*
X113061666Y-88828571D01*
X112966428Y-88780952D01*
X112045714Y-80462380D02*
X111474285Y-80462380D01*
X111760000Y-80462380D02*
X111760000Y-79462380D01*
X111664761Y-79605238D01*
X111569523Y-79700476D01*
X111474285Y-79748095D01*
X161829761Y-90050952D02*
X161734523Y-90003333D01*
X161686904Y-89955714D01*
X161639285Y-89860476D01*
X161639285Y-89812857D01*
X161686904Y-89717619D01*
X161734523Y-89670000D01*
X161829761Y-89622380D01*
X162020238Y-89622380D01*
X162115476Y-89670000D01*
X162163095Y-89717619D01*
X162210714Y-89812857D01*
X162210714Y-89860476D01*
X162163095Y-89955714D01*
X162115476Y-90003333D01*
X162020238Y-90050952D01*
X161829761Y-90050952D01*
X161734523Y-90098571D01*
X161686904Y-90146190D01*
X161639285Y-90241428D01*
X161639285Y-90431904D01*
X161686904Y-90527142D01*
X161734523Y-90574761D01*
X161829761Y-90622380D01*
X162020238Y-90622380D01*
X162115476Y-90574761D01*
X162163095Y-90527142D01*
X162210714Y-90431904D01*
X162210714Y-90241428D01*
X162163095Y-90146190D01*
X162115476Y-90098571D01*
X162020238Y-90050952D01*
X166655714Y-90622380D02*
X166084285Y-90622380D01*
X166370000Y-90622380D02*
X166370000Y-89622380D01*
X166274761Y-89765238D01*
X166179523Y-89860476D01*
X166084285Y-89908095D01*
X187142380Y-85280476D02*
X187142380Y-85851904D01*
X187142380Y-85566190D02*
X186142380Y-85566190D01*
X186285238Y-85661428D01*
X186380476Y-85756666D01*
X186428095Y-85851904D01*
X186475714Y-84423333D02*
X187142380Y-84423333D01*
X186094761Y-84661428D02*
X186809047Y-84899523D01*
X186809047Y-84280476D01*
X181427380Y-84804285D02*
X181427380Y-85375714D01*
X181427380Y-85090000D02*
X180427380Y-85090000D01*
X180570238Y-85185238D01*
X180665476Y-85280476D01*
X180713095Y-85375714D01*
X110182142Y-55967380D02*
X110753571Y-55967380D01*
X110467857Y-56967380D02*
X110467857Y-55967380D01*
X111086904Y-56967380D02*
X111086904Y-55967380D01*
X111086904Y-56443571D02*
X111658333Y-56443571D01*
X111658333Y-56967380D02*
X111658333Y-55967380D01*
X112134523Y-56967380D02*
X112134523Y-55967380D01*
X112563095Y-56919761D02*
X112705952Y-56967380D01*
X112944047Y-56967380D01*
X113039285Y-56919761D01*
X113086904Y-56872142D01*
X113134523Y-56776904D01*
X113134523Y-56681666D01*
X113086904Y-56586428D01*
X113039285Y-56538809D01*
X112944047Y-56491190D01*
X112753571Y-56443571D01*
X112658333Y-56395952D01*
X112610714Y-56348333D01*
X112563095Y-56253095D01*
X112563095Y-56157857D01*
X112610714Y-56062619D01*
X112658333Y-56015000D01*
X112753571Y-55967380D01*
X112991666Y-55967380D01*
X113134523Y-56015000D01*
X114277380Y-56919761D02*
X114420238Y-56967380D01*
X114658333Y-56967380D01*
X114753571Y-56919761D01*
X114801190Y-56872142D01*
X114848809Y-56776904D01*
X114848809Y-56681666D01*
X114801190Y-56586428D01*
X114753571Y-56538809D01*
X114658333Y-56491190D01*
X114467857Y-56443571D01*
X114372619Y-56395952D01*
X114325000Y-56348333D01*
X114277380Y-56253095D01*
X114277380Y-56157857D01*
X114325000Y-56062619D01*
X114372619Y-56015000D01*
X114467857Y-55967380D01*
X114705952Y-55967380D01*
X114848809Y-56015000D01*
X115277380Y-56967380D02*
X115277380Y-55967380D01*
X115753571Y-56967380D02*
X115753571Y-55967380D01*
X115991666Y-55967380D01*
X116134523Y-56015000D01*
X116229761Y-56110238D01*
X116277380Y-56205476D01*
X116325000Y-56395952D01*
X116325000Y-56538809D01*
X116277380Y-56729285D01*
X116229761Y-56824523D01*
X116134523Y-56919761D01*
X115991666Y-56967380D01*
X115753571Y-56967380D01*
X116753571Y-56443571D02*
X117086904Y-56443571D01*
X117229761Y-56967380D02*
X116753571Y-56967380D01*
X116753571Y-55967380D01*
X117229761Y-55967380D01*
X118372619Y-56681666D02*
X118848809Y-56681666D01*
X118277380Y-56967380D02*
X118610714Y-55967380D01*
X118944047Y-56967380D01*
X119182142Y-55967380D02*
X119420238Y-56967380D01*
X119610714Y-56253095D01*
X119801190Y-56967380D01*
X120039285Y-55967380D01*
X120372619Y-56681666D02*
X120848809Y-56681666D01*
X120277380Y-56967380D02*
X120610714Y-55967380D01*
X120944047Y-56967380D01*
X121467857Y-56491190D02*
X121467857Y-56967380D01*
X121134523Y-55967380D02*
X121467857Y-56491190D01*
X121801190Y-55967380D01*
X123229761Y-56443571D02*
X122896428Y-56443571D01*
X122896428Y-56967380D02*
X122896428Y-55967380D01*
X123372619Y-55967380D01*
X124325000Y-56967380D02*
X123991666Y-56491190D01*
X123753571Y-56967380D02*
X123753571Y-55967380D01*
X124134523Y-55967380D01*
X124229761Y-56015000D01*
X124277380Y-56062619D01*
X124325000Y-56157857D01*
X124325000Y-56300714D01*
X124277380Y-56395952D01*
X124229761Y-56443571D01*
X124134523Y-56491190D01*
X123753571Y-56491190D01*
X124944047Y-55967380D02*
X125134523Y-55967380D01*
X125229761Y-56015000D01*
X125325000Y-56110238D01*
X125372619Y-56300714D01*
X125372619Y-56634047D01*
X125325000Y-56824523D01*
X125229761Y-56919761D01*
X125134523Y-56967380D01*
X124944047Y-56967380D01*
X124848809Y-56919761D01*
X124753571Y-56824523D01*
X124705952Y-56634047D01*
X124705952Y-56300714D01*
X124753571Y-56110238D01*
X124848809Y-56015000D01*
X124944047Y-55967380D01*
X125801190Y-56967380D02*
X125801190Y-55967380D01*
X126134523Y-56681666D01*
X126467857Y-55967380D01*
X126467857Y-56967380D01*
X128039285Y-56443571D02*
X127705952Y-56443571D01*
X127705952Y-56967380D02*
X127705952Y-55967380D01*
X128182142Y-55967380D01*
X129134523Y-56967380D02*
X128801190Y-56491190D01*
X128563095Y-56967380D02*
X128563095Y-55967380D01*
X128944047Y-55967380D01*
X129039285Y-56015000D01*
X129086904Y-56062619D01*
X129134523Y-56157857D01*
X129134523Y-56300714D01*
X129086904Y-56395952D01*
X129039285Y-56443571D01*
X128944047Y-56491190D01*
X128563095Y-56491190D01*
X129753571Y-55967380D02*
X129944047Y-55967380D01*
X130039285Y-56015000D01*
X130134523Y-56110238D01*
X130182142Y-56300714D01*
X130182142Y-56634047D01*
X130134523Y-56824523D01*
X130039285Y-56919761D01*
X129944047Y-56967380D01*
X129753571Y-56967380D01*
X129658333Y-56919761D01*
X129563095Y-56824523D01*
X129515476Y-56634047D01*
X129515476Y-56300714D01*
X129563095Y-56110238D01*
X129658333Y-56015000D01*
X129753571Y-55967380D01*
X130610714Y-56967380D02*
X130610714Y-55967380D01*
X131182142Y-56967380D01*
X131182142Y-55967380D01*
X131515476Y-55967380D02*
X132086904Y-55967380D01*
X131801190Y-56967380D02*
X131801190Y-55967380D01*
X133182142Y-56967380D02*
X133182142Y-55967380D01*
X133563095Y-55967380D01*
X133658333Y-56015000D01*
X133705952Y-56062619D01*
X133753571Y-56157857D01*
X133753571Y-56300714D01*
X133705952Y-56395952D01*
X133658333Y-56443571D01*
X133563095Y-56491190D01*
X133182142Y-56491190D01*
X134134523Y-56681666D02*
X134610714Y-56681666D01*
X134039285Y-56967380D02*
X134372619Y-55967380D01*
X134705952Y-56967380D01*
X135039285Y-56967380D02*
X135039285Y-55967380D01*
X135610714Y-56967380D01*
X135610714Y-55967380D01*
X136086904Y-56443571D02*
X136420238Y-56443571D01*
X136563095Y-56967380D02*
X136086904Y-56967380D01*
X136086904Y-55967380D01*
X136563095Y-55967380D01*
X137467857Y-56967380D02*
X136991666Y-56967380D01*
X136991666Y-55967380D01*
X116372619Y-51887380D02*
X116372619Y-50887380D01*
X116610714Y-50887380D01*
X116753571Y-50935000D01*
X116848809Y-51030238D01*
X116896428Y-51125476D01*
X116944047Y-51315952D01*
X116944047Y-51458809D01*
X116896428Y-51649285D01*
X116848809Y-51744523D01*
X116753571Y-51839761D01*
X116610714Y-51887380D01*
X116372619Y-51887380D01*
X117753571Y-51839761D02*
X117658333Y-51887380D01*
X117467857Y-51887380D01*
X117372619Y-51839761D01*
X117325000Y-51744523D01*
X117325000Y-51363571D01*
X117372619Y-51268333D01*
X117467857Y-51220714D01*
X117658333Y-51220714D01*
X117753571Y-51268333D01*
X117801190Y-51363571D01*
X117801190Y-51458809D01*
X117325000Y-51554047D01*
X118182142Y-51839761D02*
X118277380Y-51887380D01*
X118467857Y-51887380D01*
X118563095Y-51839761D01*
X118610714Y-51744523D01*
X118610714Y-51696904D01*
X118563095Y-51601666D01*
X118467857Y-51554047D01*
X118325000Y-51554047D01*
X118229761Y-51506428D01*
X118182142Y-51411190D01*
X118182142Y-51363571D01*
X118229761Y-51268333D01*
X118325000Y-51220714D01*
X118467857Y-51220714D01*
X118563095Y-51268333D01*
X119039285Y-51887380D02*
X119039285Y-51220714D01*
X119039285Y-50887380D02*
X118991666Y-50935000D01*
X119039285Y-50982619D01*
X119086904Y-50935000D01*
X119039285Y-50887380D01*
X119039285Y-50982619D01*
X119944047Y-51220714D02*
X119944047Y-52030238D01*
X119896428Y-52125476D01*
X119848809Y-52173095D01*
X119753571Y-52220714D01*
X119610714Y-52220714D01*
X119515476Y-52173095D01*
X119944047Y-51839761D02*
X119848809Y-51887380D01*
X119658333Y-51887380D01*
X119563095Y-51839761D01*
X119515476Y-51792142D01*
X119467857Y-51696904D01*
X119467857Y-51411190D01*
X119515476Y-51315952D01*
X119563095Y-51268333D01*
X119658333Y-51220714D01*
X119848809Y-51220714D01*
X119944047Y-51268333D01*
X120420238Y-51220714D02*
X120420238Y-51887380D01*
X120420238Y-51315952D02*
X120467857Y-51268333D01*
X120563095Y-51220714D01*
X120705952Y-51220714D01*
X120801190Y-51268333D01*
X120848809Y-51363571D01*
X120848809Y-51887380D01*
X121705952Y-51839761D02*
X121610714Y-51887380D01*
X121420238Y-51887380D01*
X121325000Y-51839761D01*
X121277380Y-51744523D01*
X121277380Y-51363571D01*
X121325000Y-51268333D01*
X121420238Y-51220714D01*
X121610714Y-51220714D01*
X121705952Y-51268333D01*
X121753571Y-51363571D01*
X121753571Y-51458809D01*
X121277380Y-51554047D01*
X122610714Y-51887380D02*
X122610714Y-50887380D01*
X122610714Y-51839761D02*
X122515476Y-51887380D01*
X122325000Y-51887380D01*
X122229761Y-51839761D01*
X122182142Y-51792142D01*
X122134523Y-51696904D01*
X122134523Y-51411190D01*
X122182142Y-51315952D01*
X122229761Y-51268333D01*
X122325000Y-51220714D01*
X122515476Y-51220714D01*
X122610714Y-51268333D01*
X123848809Y-51887380D02*
X123848809Y-50887380D01*
X123848809Y-51268333D02*
X123944047Y-51220714D01*
X124134523Y-51220714D01*
X124229761Y-51268333D01*
X124277380Y-51315952D01*
X124325000Y-51411190D01*
X124325000Y-51696904D01*
X124277380Y-51792142D01*
X124229761Y-51839761D01*
X124134523Y-51887380D01*
X123944047Y-51887380D01*
X123848809Y-51839761D01*
X124658333Y-51220714D02*
X124896428Y-51887380D01*
X125134523Y-51220714D02*
X124896428Y-51887380D01*
X124801190Y-52125476D01*
X124753571Y-52173095D01*
X124658333Y-52220714D01*
X126229761Y-51601666D02*
X126705952Y-51601666D01*
X126134523Y-51887380D02*
X126467857Y-50887380D01*
X126801190Y-51887380D01*
X127277380Y-51887380D02*
X127182142Y-51839761D01*
X127134523Y-51744523D01*
X127134523Y-50887380D01*
X128086904Y-51887380D02*
X128086904Y-51363571D01*
X128039285Y-51268333D01*
X127944047Y-51220714D01*
X127753571Y-51220714D01*
X127658333Y-51268333D01*
X128086904Y-51839761D02*
X127991666Y-51887380D01*
X127753571Y-51887380D01*
X127658333Y-51839761D01*
X127610714Y-51744523D01*
X127610714Y-51649285D01*
X127658333Y-51554047D01*
X127753571Y-51506428D01*
X127991666Y-51506428D01*
X128086904Y-51458809D01*
X128563095Y-51220714D02*
X128563095Y-51887380D01*
X128563095Y-51315952D02*
X128610714Y-51268333D01*
X128705952Y-51220714D01*
X128848809Y-51220714D01*
X128944047Y-51268333D01*
X128991666Y-51363571D01*
X128991666Y-51887380D01*
X130229761Y-51887380D02*
X130229761Y-50887380D01*
X130229761Y-51363571D02*
X130801190Y-51363571D01*
X130801190Y-51887380D02*
X130801190Y-50887380D01*
X131277380Y-51792142D02*
X131325000Y-51839761D01*
X131277380Y-51887380D01*
X131229761Y-51839761D01*
X131277380Y-51792142D01*
X131277380Y-51887380D01*
X114110714Y-48522380D02*
X114110714Y-47522380D01*
X114491666Y-47522380D01*
X114586904Y-47570000D01*
X114634523Y-47617619D01*
X114682142Y-47712857D01*
X114682142Y-47855714D01*
X114634523Y-47950952D01*
X114586904Y-47998571D01*
X114491666Y-48046190D01*
X114110714Y-48046190D01*
X115682142Y-48427142D02*
X115634523Y-48474761D01*
X115491666Y-48522380D01*
X115396428Y-48522380D01*
X115253571Y-48474761D01*
X115158333Y-48379523D01*
X115110714Y-48284285D01*
X115063095Y-48093809D01*
X115063095Y-47950952D01*
X115110714Y-47760476D01*
X115158333Y-47665238D01*
X115253571Y-47570000D01*
X115396428Y-47522380D01*
X115491666Y-47522380D01*
X115634523Y-47570000D01*
X115682142Y-47617619D01*
X116444047Y-47998571D02*
X116586904Y-48046190D01*
X116634523Y-48093809D01*
X116682142Y-48189047D01*
X116682142Y-48331904D01*
X116634523Y-48427142D01*
X116586904Y-48474761D01*
X116491666Y-48522380D01*
X116110714Y-48522380D01*
X116110714Y-47522380D01*
X116444047Y-47522380D01*
X116539285Y-47570000D01*
X116586904Y-47617619D01*
X116634523Y-47712857D01*
X116634523Y-47808095D01*
X116586904Y-47903333D01*
X116539285Y-47950952D01*
X116444047Y-47998571D01*
X116110714Y-47998571D01*
X117872619Y-48522380D02*
X117872619Y-47522380D01*
X117872619Y-47998571D02*
X118444047Y-47998571D01*
X118444047Y-48522380D02*
X118444047Y-47522380D01*
X119301190Y-48474761D02*
X119205952Y-48522380D01*
X119015476Y-48522380D01*
X118920238Y-48474761D01*
X118872619Y-48379523D01*
X118872619Y-47998571D01*
X118920238Y-47903333D01*
X119015476Y-47855714D01*
X119205952Y-47855714D01*
X119301190Y-47903333D01*
X119348809Y-47998571D01*
X119348809Y-48093809D01*
X118872619Y-48189047D01*
X120205952Y-48522380D02*
X120205952Y-47998571D01*
X120158333Y-47903333D01*
X120063095Y-47855714D01*
X119872619Y-47855714D01*
X119777380Y-47903333D01*
X120205952Y-48474761D02*
X120110714Y-48522380D01*
X119872619Y-48522380D01*
X119777380Y-48474761D01*
X119729761Y-48379523D01*
X119729761Y-48284285D01*
X119777380Y-48189047D01*
X119872619Y-48141428D01*
X120110714Y-48141428D01*
X120205952Y-48093809D01*
X120539285Y-47855714D02*
X120920238Y-47855714D01*
X120682142Y-47522380D02*
X120682142Y-48379523D01*
X120729761Y-48474761D01*
X120825000Y-48522380D01*
X120920238Y-48522380D01*
X121634523Y-48474761D02*
X121539285Y-48522380D01*
X121348809Y-48522380D01*
X121253571Y-48474761D01*
X121205952Y-48379523D01*
X121205952Y-47998571D01*
X121253571Y-47903333D01*
X121348809Y-47855714D01*
X121539285Y-47855714D01*
X121634523Y-47903333D01*
X121682142Y-47998571D01*
X121682142Y-48093809D01*
X121205952Y-48189047D01*
X122110714Y-48522380D02*
X122110714Y-47855714D01*
X122110714Y-48046190D02*
X122158333Y-47950952D01*
X122205952Y-47903333D01*
X122301190Y-47855714D01*
X122396428Y-47855714D01*
X124063095Y-48427142D02*
X124015476Y-48474761D01*
X123872619Y-48522380D01*
X123777380Y-48522380D01*
X123634523Y-48474761D01*
X123539285Y-48379523D01*
X123491666Y-48284285D01*
X123444047Y-48093809D01*
X123444047Y-47950952D01*
X123491666Y-47760476D01*
X123539285Y-47665238D01*
X123634523Y-47570000D01*
X123777380Y-47522380D01*
X123872619Y-47522380D01*
X124015476Y-47570000D01*
X124063095Y-47617619D01*
X124634523Y-48522380D02*
X124539285Y-48474761D01*
X124491666Y-48427142D01*
X124444047Y-48331904D01*
X124444047Y-48046190D01*
X124491666Y-47950952D01*
X124539285Y-47903333D01*
X124634523Y-47855714D01*
X124777380Y-47855714D01*
X124872619Y-47903333D01*
X124920238Y-47950952D01*
X124967857Y-48046190D01*
X124967857Y-48331904D01*
X124920238Y-48427142D01*
X124872619Y-48474761D01*
X124777380Y-48522380D01*
X124634523Y-48522380D01*
X125396428Y-47855714D02*
X125396428Y-48522380D01*
X125396428Y-47950952D02*
X125444047Y-47903333D01*
X125539285Y-47855714D01*
X125682142Y-47855714D01*
X125777380Y-47903333D01*
X125825000Y-47998571D01*
X125825000Y-48522380D01*
X126158333Y-47855714D02*
X126539285Y-47855714D01*
X126301190Y-47522380D02*
X126301190Y-48379523D01*
X126348809Y-48474761D01*
X126444047Y-48522380D01*
X126539285Y-48522380D01*
X126872619Y-48522380D02*
X126872619Y-47855714D01*
X126872619Y-48046190D02*
X126920238Y-47950952D01*
X126967857Y-47903333D01*
X127063095Y-47855714D01*
X127158333Y-47855714D01*
X127634523Y-48522380D02*
X127539285Y-48474761D01*
X127491666Y-48427142D01*
X127444047Y-48331904D01*
X127444047Y-48046190D01*
X127491666Y-47950952D01*
X127539285Y-47903333D01*
X127634523Y-47855714D01*
X127777380Y-47855714D01*
X127872619Y-47903333D01*
X127920238Y-47950952D01*
X127967857Y-48046190D01*
X127967857Y-48331904D01*
X127920238Y-48427142D01*
X127872619Y-48474761D01*
X127777380Y-48522380D01*
X127634523Y-48522380D01*
X128539285Y-48522380D02*
X128444047Y-48474761D01*
X128396428Y-48379523D01*
X128396428Y-47522380D01*
X130015476Y-47998571D02*
X130158333Y-48046190D01*
X130205952Y-48093809D01*
X130253571Y-48189047D01*
X130253571Y-48331904D01*
X130205952Y-48427142D01*
X130158333Y-48474761D01*
X130063095Y-48522380D01*
X129682142Y-48522380D01*
X129682142Y-47522380D01*
X130015476Y-47522380D01*
X130110714Y-47570000D01*
X130158333Y-47617619D01*
X130205952Y-47712857D01*
X130205952Y-47808095D01*
X130158333Y-47903333D01*
X130110714Y-47950952D01*
X130015476Y-47998571D01*
X129682142Y-47998571D01*
X130825000Y-48522380D02*
X130729761Y-48474761D01*
X130682142Y-48427142D01*
X130634523Y-48331904D01*
X130634523Y-48046190D01*
X130682142Y-47950952D01*
X130729761Y-47903333D01*
X130825000Y-47855714D01*
X130967857Y-47855714D01*
X131063095Y-47903333D01*
X131110714Y-47950952D01*
X131158333Y-48046190D01*
X131158333Y-48331904D01*
X131110714Y-48427142D01*
X131063095Y-48474761D01*
X130967857Y-48522380D01*
X130825000Y-48522380D01*
X132015476Y-48522380D02*
X132015476Y-47998571D01*
X131967857Y-47903333D01*
X131872619Y-47855714D01*
X131682142Y-47855714D01*
X131586904Y-47903333D01*
X132015476Y-48474761D02*
X131920238Y-48522380D01*
X131682142Y-48522380D01*
X131586904Y-48474761D01*
X131539285Y-48379523D01*
X131539285Y-48284285D01*
X131586904Y-48189047D01*
X131682142Y-48141428D01*
X131920238Y-48141428D01*
X132015476Y-48093809D01*
X132491666Y-48522380D02*
X132491666Y-47855714D01*
X132491666Y-48046190D02*
X132539285Y-47950952D01*
X132586904Y-47903333D01*
X132682142Y-47855714D01*
X132777380Y-47855714D01*
X133539285Y-48522380D02*
X133539285Y-47522380D01*
X133539285Y-48474761D02*
X133444047Y-48522380D01*
X133253571Y-48522380D01*
X133158333Y-48474761D01*
X133110714Y-48427142D01*
X133063095Y-48331904D01*
X133063095Y-48046190D01*
X133110714Y-47950952D01*
X133158333Y-47903333D01*
X133253571Y-47855714D01*
X133444047Y-47855714D01*
X133539285Y-47903333D01*
X121753571Y-50172380D02*
X121420238Y-49696190D01*
X121182142Y-50172380D02*
X121182142Y-49172380D01*
X121563095Y-49172380D01*
X121658333Y-49220000D01*
X121705952Y-49267619D01*
X121753571Y-49362857D01*
X121753571Y-49505714D01*
X121705952Y-49600952D01*
X121658333Y-49648571D01*
X121563095Y-49696190D01*
X121182142Y-49696190D01*
X122563095Y-50124761D02*
X122467857Y-50172380D01*
X122277380Y-50172380D01*
X122182142Y-50124761D01*
X122134523Y-50029523D01*
X122134523Y-49648571D01*
X122182142Y-49553333D01*
X122277380Y-49505714D01*
X122467857Y-49505714D01*
X122563095Y-49553333D01*
X122610714Y-49648571D01*
X122610714Y-49743809D01*
X122134523Y-49839047D01*
X122944047Y-49505714D02*
X123182142Y-50172380D01*
X123420238Y-49505714D01*
X124753571Y-49172380D02*
X124848809Y-49172380D01*
X124944047Y-49220000D01*
X124991666Y-49267619D01*
X125039285Y-49362857D01*
X125086904Y-49553333D01*
X125086904Y-49791428D01*
X125039285Y-49981904D01*
X124991666Y-50077142D01*
X124944047Y-50124761D01*
X124848809Y-50172380D01*
X124753571Y-50172380D01*
X124658333Y-50124761D01*
X124610714Y-50077142D01*
X124563095Y-49981904D01*
X124515476Y-49791428D01*
X124515476Y-49553333D01*
X124563095Y-49362857D01*
X124610714Y-49267619D01*
X124658333Y-49220000D01*
X124753571Y-49172380D01*
X125515476Y-50077142D02*
X125563095Y-50124761D01*
X125515476Y-50172380D01*
X125467857Y-50124761D01*
X125515476Y-50077142D01*
X125515476Y-50172380D01*
X126467857Y-49172380D02*
X125991666Y-49172380D01*
X125944047Y-49648571D01*
X125991666Y-49600952D01*
X126086904Y-49553333D01*
X126325000Y-49553333D01*
X126420238Y-49600952D01*
X126467857Y-49648571D01*
X126515476Y-49743809D01*
X126515476Y-49981904D01*
X126467857Y-50077142D01*
X126420238Y-50124761D01*
X126325000Y-50172380D01*
X126086904Y-50172380D01*
X125991666Y-50124761D01*
X125944047Y-50077142D01*
X157615714Y-103592380D02*
X158187142Y-103592380D01*
X157901428Y-104592380D02*
X157901428Y-103592380D01*
X158520476Y-104592380D02*
X158520476Y-103592380D01*
X158949047Y-104592380D02*
X158949047Y-104068571D01*
X158901428Y-103973333D01*
X158806190Y-103925714D01*
X158663333Y-103925714D01*
X158568095Y-103973333D01*
X158520476Y-104020952D01*
X159806190Y-104544761D02*
X159710952Y-104592380D01*
X159520476Y-104592380D01*
X159425238Y-104544761D01*
X159377619Y-104449523D01*
X159377619Y-104068571D01*
X159425238Y-103973333D01*
X159520476Y-103925714D01*
X159710952Y-103925714D01*
X159806190Y-103973333D01*
X159853809Y-104068571D01*
X159853809Y-104163809D01*
X159377619Y-104259047D01*
X160282380Y-104592380D02*
X160282380Y-103925714D01*
X160282380Y-104116190D02*
X160330000Y-104020952D01*
X160377619Y-103973333D01*
X160472857Y-103925714D01*
X160568095Y-103925714D01*
X160901428Y-104592380D02*
X160901428Y-103925714D01*
X160901428Y-104020952D02*
X160949047Y-103973333D01*
X161044285Y-103925714D01*
X161187142Y-103925714D01*
X161282380Y-103973333D01*
X161330000Y-104068571D01*
X161330000Y-104592380D01*
X161330000Y-104068571D02*
X161377619Y-103973333D01*
X161472857Y-103925714D01*
X161615714Y-103925714D01*
X161710952Y-103973333D01*
X161758571Y-104068571D01*
X161758571Y-104592380D01*
X162377619Y-104592380D02*
X162282380Y-104544761D01*
X162234761Y-104497142D01*
X162187142Y-104401904D01*
X162187142Y-104116190D01*
X162234761Y-104020952D01*
X162282380Y-103973333D01*
X162377619Y-103925714D01*
X162520476Y-103925714D01*
X162615714Y-103973333D01*
X162663333Y-104020952D01*
X162710952Y-104116190D01*
X162710952Y-104401904D01*
X162663333Y-104497142D01*
X162615714Y-104544761D01*
X162520476Y-104592380D01*
X162377619Y-104592380D01*
X163568095Y-104544761D02*
X163472857Y-104592380D01*
X163282380Y-104592380D01*
X163187142Y-104544761D01*
X163139523Y-104497142D01*
X163091904Y-104401904D01*
X163091904Y-104116190D01*
X163139523Y-104020952D01*
X163187142Y-103973333D01*
X163282380Y-103925714D01*
X163472857Y-103925714D01*
X163568095Y-103973333D01*
X164139523Y-104592380D02*
X164044285Y-104544761D01*
X163996666Y-104497142D01*
X163949047Y-104401904D01*
X163949047Y-104116190D01*
X163996666Y-104020952D01*
X164044285Y-103973333D01*
X164139523Y-103925714D01*
X164282380Y-103925714D01*
X164377619Y-103973333D01*
X164425238Y-104020952D01*
X164472857Y-104116190D01*
X164472857Y-104401904D01*
X164425238Y-104497142D01*
X164377619Y-104544761D01*
X164282380Y-104592380D01*
X164139523Y-104592380D01*
X165330000Y-103925714D02*
X165330000Y-104592380D01*
X164901428Y-103925714D02*
X164901428Y-104449523D01*
X164949047Y-104544761D01*
X165044285Y-104592380D01*
X165187142Y-104592380D01*
X165282380Y-104544761D01*
X165330000Y-104497142D01*
X165806190Y-103925714D02*
X165806190Y-104925714D01*
X165806190Y-103973333D02*
X165901428Y-103925714D01*
X166091904Y-103925714D01*
X166187142Y-103973333D01*
X166234761Y-104020952D01*
X166282380Y-104116190D01*
X166282380Y-104401904D01*
X166234761Y-104497142D01*
X166187142Y-104544761D01*
X166091904Y-104592380D01*
X165901428Y-104592380D01*
X165806190Y-104544761D01*
X166853809Y-104592380D02*
X166758571Y-104544761D01*
X166710952Y-104449523D01*
X166710952Y-103592380D01*
X167615714Y-104544761D02*
X167520476Y-104592380D01*
X167330000Y-104592380D01*
X167234761Y-104544761D01*
X167187142Y-104449523D01*
X167187142Y-104068571D01*
X167234761Y-103973333D01*
X167330000Y-103925714D01*
X167520476Y-103925714D01*
X167615714Y-103973333D01*
X167663333Y-104068571D01*
X167663333Y-104163809D01*
X167187142Y-104259047D01*
X168853809Y-104592380D02*
X168853809Y-103592380D01*
X169330000Y-104592380D02*
X169330000Y-103592380D01*
X169901428Y-104592380D01*
X169901428Y-103592380D01*
D11*
X240355714Y-61408571D02*
X240855714Y-62908571D01*
X241355714Y-61408571D01*
X242141428Y-61408571D02*
X242427142Y-61408571D01*
X242570000Y-61480000D01*
X242712857Y-61622857D01*
X242784285Y-61908571D01*
X242784285Y-62408571D01*
X242712857Y-62694285D01*
X242570000Y-62837142D01*
X242427142Y-62908571D01*
X242141428Y-62908571D01*
X241998571Y-62837142D01*
X241855714Y-62694285D01*
X241784285Y-62408571D01*
X241784285Y-61908571D01*
X241855714Y-61622857D01*
X241998571Y-61480000D01*
X242141428Y-61408571D01*
X243427142Y-62337142D02*
X244570000Y-62337142D01*
X240355714Y-80458571D02*
X240855714Y-81958571D01*
X241355714Y-80458571D01*
X242141428Y-80458571D02*
X242427142Y-80458571D01*
X242570000Y-80530000D01*
X242712857Y-80672857D01*
X242784285Y-80958571D01*
X242784285Y-81458571D01*
X242712857Y-81744285D01*
X242570000Y-81887142D01*
X242427142Y-81958571D01*
X242141428Y-81958571D01*
X241998571Y-81887142D01*
X241855714Y-81744285D01*
X241784285Y-81458571D01*
X241784285Y-80958571D01*
X241855714Y-80672857D01*
X241998571Y-80530000D01*
X242141428Y-80458571D01*
X243427142Y-81387142D02*
X244570000Y-81387142D01*
X243998571Y-81958571D02*
X243998571Y-80815714D01*
X241427142Y-71005000D02*
X241284285Y-70933571D01*
X241070000Y-70933571D01*
X240855714Y-71005000D01*
X240712857Y-71147857D01*
X240641428Y-71290714D01*
X240570000Y-71576428D01*
X240570000Y-71790714D01*
X240641428Y-72076428D01*
X240712857Y-72219285D01*
X240855714Y-72362142D01*
X241070000Y-72433571D01*
X241212857Y-72433571D01*
X241427142Y-72362142D01*
X241498571Y-72290714D01*
X241498571Y-71790714D01*
X241212857Y-71790714D01*
X242141428Y-72433571D02*
X242141428Y-70933571D01*
X242998571Y-72433571D01*
X242998571Y-70933571D01*
X243712857Y-72433571D02*
X243712857Y-70933571D01*
X244070000Y-70933571D01*
X244284285Y-71005000D01*
X244427142Y-71147857D01*
X244498571Y-71290714D01*
X244570000Y-71576428D01*
X244570000Y-71790714D01*
X244498571Y-72076428D01*
X244427142Y-72219285D01*
X244284285Y-72362142D01*
X244070000Y-72433571D01*
X243712857Y-72433571D01*
X240784285Y-89983571D02*
X241284285Y-91483571D01*
X241784285Y-89983571D01*
X242284285Y-91483571D02*
X242284285Y-89983571D01*
X242998571Y-90912142D02*
X244141428Y-90912142D01*
X243570000Y-91483571D02*
X243570000Y-90340714D01*
D12*
%TO.C,U2*%
X214560000Y-58415000D02*
X215660000Y-58415000D01*
X214560000Y-58145000D02*
X214560000Y-58415000D01*
X213060000Y-58145000D02*
X214560000Y-58145000D01*
X214560000Y-64775000D02*
X217390000Y-64775000D01*
X214560000Y-65045000D02*
X214560000Y-64775000D01*
X213060000Y-65045000D02*
X214560000Y-65045000D01*
%TO.C,U5*%
X200220000Y-101190000D02*
X200220000Y-100090000D01*
X199270000Y-101190000D02*
X200220000Y-101190000D01*
X199270000Y-102690000D02*
X199270000Y-101190000D01*
X208720000Y-101190000D02*
X208720000Y-96065000D01*
X209670000Y-101190000D02*
X208720000Y-101190000D01*
X209670000Y-102690000D02*
X209670000Y-101190000D01*
%TO.C,R32*%
X195480000Y-88672936D02*
X195480000Y-89127064D01*
X196950000Y-88672936D02*
X196950000Y-89127064D01*
%TO.C,R31*%
X195480000Y-94657936D02*
X195480000Y-95112064D01*
X196950000Y-94657936D02*
X196950000Y-95112064D01*
%TO.C,L1*%
X206425000Y-76250000D02*
X209425000Y-76250000D01*
X206425000Y-88850000D02*
X206425000Y-76250000D01*
X209425000Y-88850000D02*
X206425000Y-88850000D01*
X219025000Y-88850000D02*
X216025000Y-88850000D01*
X219025000Y-76250000D02*
X219025000Y-88850000D01*
X216025000Y-76250000D02*
X219025000Y-76250000D01*
%TO.C,D6*%
X208250000Y-94130000D02*
X208250000Y-91290000D01*
X208010000Y-94130000D02*
X208010000Y-91290000D01*
X208130000Y-94130000D02*
X208130000Y-91290000D01*
X205290000Y-91290000D02*
X205290000Y-91470000D01*
X208730000Y-91290000D02*
X205290000Y-91290000D01*
X208730000Y-91470000D02*
X208730000Y-91290000D01*
X205290000Y-94130000D02*
X205290000Y-93950000D01*
X208730000Y-94130000D02*
X205290000Y-94130000D01*
X208730000Y-93950000D02*
X208730000Y-94130000D01*
%TO.C,C15*%
X201668748Y-73125000D02*
X202191252Y-73125000D01*
X201668748Y-71655000D02*
X202191252Y-71655000D01*
%TO.C,C14*%
X204305000Y-76815000D02*
X203305000Y-76815000D01*
X203805000Y-76315000D02*
X203805000Y-77315000D01*
X197999437Y-77555000D02*
X196935000Y-78619437D01*
X204590563Y-77555000D02*
X205655000Y-78619437D01*
X204590563Y-77555000D02*
X202805000Y-77555000D01*
X197999437Y-77555000D02*
X199785000Y-77555000D01*
X196935000Y-78619437D02*
X196935000Y-86275000D01*
X205655000Y-78619437D02*
X205655000Y-86275000D01*
X205655000Y-86275000D02*
X202805000Y-86275000D01*
X196935000Y-86275000D02*
X199785000Y-86275000D01*
%TO.C,C13*%
X221190000Y-96645000D02*
X219940000Y-96645000D01*
X220565000Y-96020000D02*
X220565000Y-97270000D01*
X213509437Y-97510000D02*
X212445000Y-98574437D01*
X222100563Y-97510000D02*
X223165000Y-98574437D01*
X222100563Y-97510000D02*
X219315000Y-97510000D01*
X213509437Y-97510000D02*
X216295000Y-97510000D01*
X212445000Y-98574437D02*
X212445000Y-108230000D01*
X223165000Y-98574437D02*
X223165000Y-108230000D01*
X223165000Y-108230000D02*
X219315000Y-108230000D01*
X212445000Y-108230000D02*
X216295000Y-108230000D01*
%TO.C,D5*%
X132565000Y-109825000D02*
X135405000Y-109825000D01*
X132565000Y-109585000D02*
X135405000Y-109585000D01*
X132565000Y-109705000D02*
X135405000Y-109705000D01*
X135405000Y-106865000D02*
X135225000Y-106865000D01*
X135405000Y-110305000D02*
X135405000Y-106865000D01*
X135225000Y-110305000D02*
X135405000Y-110305000D01*
X132565000Y-106865000D02*
X132745000Y-106865000D01*
X132565000Y-110305000D02*
X132565000Y-106865000D01*
X132745000Y-110305000D02*
X132565000Y-110305000D01*
%TO.C,R34*%
X203475000Y-51977936D02*
X203475000Y-53432064D01*
X201655000Y-51977936D02*
X201655000Y-53432064D01*
%TO.C,TP4*%
X226765000Y-106115000D02*
X229165000Y-106115000D01*
X226765000Y-108515000D02*
X226765000Y-106115000D01*
X229165000Y-108515000D02*
X226765000Y-108515000D01*
X229165000Y-106115000D02*
X229165000Y-108515000D01*
%TO.C,TP3*%
X191840000Y-67380000D02*
X194240000Y-67380000D01*
X191840000Y-69780000D02*
X191840000Y-67380000D01*
X194240000Y-69780000D02*
X191840000Y-69780000D01*
X194240000Y-67380000D02*
X194240000Y-69780000D01*
%TO.C,TP2*%
X191840000Y-54045000D02*
X194240000Y-54045000D01*
X191840000Y-56445000D02*
X191840000Y-54045000D01*
X194240000Y-56445000D02*
X191840000Y-56445000D01*
X194240000Y-54045000D02*
X194240000Y-56445000D01*
%TO.C,TP1*%
X216605000Y-92145000D02*
X219005000Y-92145000D01*
X216605000Y-94545000D02*
X216605000Y-92145000D01*
X219005000Y-94545000D02*
X216605000Y-94545000D01*
X219005000Y-92145000D02*
X219005000Y-94545000D01*
%TO.C,R33*%
X151037936Y-107040000D02*
X152492064Y-107040000D01*
X151037936Y-108860000D02*
X152492064Y-108860000D01*
%TO.C,Q2*%
X143210000Y-109495000D02*
X144710000Y-109495000D01*
X144710000Y-109495000D02*
X144710000Y-109225000D01*
X144710000Y-109225000D02*
X147540000Y-109225000D01*
X143210000Y-102595000D02*
X144710000Y-102595000D01*
X144710000Y-102595000D02*
X144710000Y-102865000D01*
X144710000Y-102865000D02*
X145810000Y-102865000D01*
%TO.C,J6*%
X127575000Y-109915000D02*
X130235000Y-109915000D01*
X127575000Y-107315000D02*
X127575000Y-109915000D01*
X130235000Y-107315000D02*
X130235000Y-109915000D01*
X127575000Y-107315000D02*
X130235000Y-107315000D01*
X127575000Y-106045000D02*
X127575000Y-104715000D01*
X127575000Y-104715000D02*
X128905000Y-104715000D01*
%TO.C,U1*%
X183515000Y-86370000D02*
X180065000Y-86370000D01*
X183515000Y-86370000D02*
X185465000Y-86370000D01*
X183515000Y-95240000D02*
X181565000Y-95240000D01*
X183515000Y-95240000D02*
X185465000Y-95240000D01*
%TO.C,Q1*%
X209620000Y-53345000D02*
X208520000Y-53345000D01*
X209620000Y-53615000D02*
X209620000Y-53345000D01*
X211120000Y-53615000D02*
X209620000Y-53615000D01*
X209620000Y-46985000D02*
X206790000Y-46985000D01*
X209620000Y-46715000D02*
X209620000Y-46985000D01*
X211120000Y-46715000D02*
X209620000Y-46715000D01*
%TO.C,D3*%
X72435000Y-94940000D02*
X75295000Y-94940000D01*
X72435000Y-93020000D02*
X72435000Y-94940000D01*
X75295000Y-93020000D02*
X72435000Y-93020000D01*
%TO.C,R22*%
X95150000Y-74702936D02*
X95150000Y-75157064D01*
X96620000Y-74702936D02*
X96620000Y-75157064D01*
%TO.C,R21*%
X93245000Y-74702936D02*
X93245000Y-75157064D01*
X94715000Y-74702936D02*
X94715000Y-75157064D01*
%TO.C,R20*%
X91340000Y-74702936D02*
X91340000Y-75157064D01*
X92810000Y-74702936D02*
X92810000Y-75157064D01*
%TO.C,R19*%
X92810000Y-96747064D02*
X92810000Y-96292936D01*
X91340000Y-96747064D02*
X91340000Y-96292936D01*
%TO.C,R18*%
X94715000Y-96747064D02*
X94715000Y-96292936D01*
X93245000Y-96747064D02*
X93245000Y-96292936D01*
%TO.C,R17*%
X96620000Y-96747064D02*
X96620000Y-96292936D01*
X95150000Y-96747064D02*
X95150000Y-96292936D01*
%TO.C,R16*%
X98525000Y-96747064D02*
X98525000Y-96292936D01*
X97055000Y-96747064D02*
X97055000Y-96292936D01*
%TO.C,R15*%
X100430000Y-96747064D02*
X100430000Y-96292936D01*
X98960000Y-96747064D02*
X98960000Y-96292936D01*
%TO.C,R14*%
X102335000Y-96747064D02*
X102335000Y-96292936D01*
X100865000Y-96747064D02*
X100865000Y-96292936D01*
%TO.C,R13*%
X104240000Y-96747064D02*
X104240000Y-96292936D01*
X102770000Y-96747064D02*
X102770000Y-96292936D01*
%TO.C,R12*%
X106145000Y-96747064D02*
X106145000Y-96292936D01*
X104675000Y-96747064D02*
X104675000Y-96292936D01*
%TO.C,R11*%
X108050000Y-96747064D02*
X108050000Y-96292936D01*
X106580000Y-96747064D02*
X106580000Y-96292936D01*
%TO.C,R10*%
X109955000Y-96747064D02*
X109955000Y-96292936D01*
X108485000Y-96747064D02*
X108485000Y-96292936D01*
%TO.C,R9*%
X111860000Y-96747064D02*
X111860000Y-96292936D01*
X110390000Y-96747064D02*
X110390000Y-96292936D01*
D11*
%TO.C,U4*%
X110615000Y-78405000D02*
G75*
G03*
X110615000Y-78405000I-125000J0D01*
G01*
D13*
X110237500Y-82635904D02*
G75*
G03*
X110237500Y-82635904I-250000J0D01*
G01*
D10*
X93282500Y-87424096D02*
X93282500Y-81485904D01*
X111187500Y-87424096D02*
X93282500Y-87424096D01*
X111187500Y-81485904D02*
X111187500Y-87424096D01*
X93282500Y-81485904D02*
X111187500Y-81485904D01*
D12*
%TO.C,U3*%
X164211000Y-89240000D02*
X167136000Y-89240000D01*
X164211000Y-89240000D02*
X162711000Y-89240000D01*
X164211000Y-86020000D02*
X165711000Y-86020000D01*
X164211000Y-86020000D02*
X162711000Y-86020000D01*
%TO.C,R30*%
X79282936Y-81555000D02*
X80737064Y-81555000D01*
X79282936Y-79735000D02*
X80737064Y-79735000D01*
%TO.C,R29*%
X79282936Y-67585000D02*
X80737064Y-67585000D01*
X79282936Y-65765000D02*
X80737064Y-65765000D01*
%TO.C,R28*%
X79282936Y-53615000D02*
X80737064Y-53615000D01*
X79282936Y-51795000D02*
X80737064Y-51795000D01*
%TO.C,R8*%
X119740000Y-86267936D02*
X119740000Y-87722064D01*
X121560000Y-86267936D02*
X121560000Y-87722064D01*
%TO.C,R7*%
X115930000Y-86267936D02*
X115930000Y-87722064D01*
X117750000Y-86267936D02*
X117750000Y-87722064D01*
%TO.C,R6*%
X193950000Y-75657064D02*
X193950000Y-74202936D01*
X192130000Y-75657064D02*
X192130000Y-74202936D01*
%TO.C,R5*%
X187558000Y-101787936D02*
X187558000Y-103242064D01*
X189378000Y-101787936D02*
X189378000Y-103242064D01*
%TO.C,R4*%
X160761000Y-96147936D02*
X160761000Y-97602064D01*
X162581000Y-96147936D02*
X162581000Y-97602064D01*
%TO.C,R3*%
X165841000Y-96147936D02*
X165841000Y-97602064D01*
X167661000Y-96147936D02*
X167661000Y-97602064D01*
%TO.C,R2*%
X167547936Y-101875000D02*
X169002064Y-101875000D01*
X167547936Y-100055000D02*
X169002064Y-100055000D01*
%TO.C,R1*%
X201387064Y-46715000D02*
X199932936Y-46715000D01*
X201387064Y-48535000D02*
X199932936Y-48535000D01*
%TO.C,J5*%
X240260000Y-46600000D02*
X224560000Y-46600000D01*
X224560000Y-105800000D02*
X240260000Y-105800000D01*
X224560000Y-46600000D02*
X224560000Y-105800000D01*
X240260000Y-46600000D02*
X240260000Y-105800000D01*
%TO.C,J3*%
X168910000Y-113320000D02*
X168910000Y-105120000D01*
X168910000Y-113320000D02*
X158750000Y-113320000D01*
X158750000Y-105120000D02*
X158750000Y-113320000D01*
X158750000Y-105120000D02*
X168910000Y-105120000D01*
%TO.C,FB1*%
X193717936Y-64870000D02*
X194172064Y-64870000D01*
X193717936Y-63400000D02*
X194172064Y-63400000D01*
%TO.C,D4*%
X203350000Y-60355000D02*
X200510000Y-60355000D01*
X203350000Y-60595000D02*
X200510000Y-60595000D01*
X203350000Y-60475000D02*
X200510000Y-60475000D01*
X200510000Y-63315000D02*
X200690000Y-63315000D01*
X200510000Y-59875000D02*
X200510000Y-63315000D01*
X200690000Y-59875000D02*
X200510000Y-59875000D01*
X203350000Y-63315000D02*
X203170000Y-63315000D01*
X203350000Y-59875000D02*
X203350000Y-63315000D01*
X203170000Y-59875000D02*
X203350000Y-59875000D01*
%TO.C,D1*%
X195890000Y-73070000D02*
X195890000Y-75930000D01*
X197810000Y-73070000D02*
X195890000Y-73070000D01*
X197810000Y-75930000D02*
X197810000Y-73070000D01*
%TO.C,C12*%
X176395748Y-105256000D02*
X176918252Y-105256000D01*
X176395748Y-103786000D02*
X176918252Y-103786000D01*
%TO.C,C11*%
X115035000Y-84716252D02*
X115035000Y-84193748D01*
X113565000Y-84716252D02*
X113565000Y-84193748D01*
%TO.C,C10*%
X159624752Y-91340000D02*
X159102248Y-91340000D01*
X159624752Y-92810000D02*
X159102248Y-92810000D01*
%TO.C,C9*%
X164704752Y-91340000D02*
X164182248Y-91340000D01*
X164704752Y-92810000D02*
X164182248Y-92810000D01*
%TO.C,C8*%
X169552252Y-91340000D02*
X169029748Y-91340000D01*
X169552252Y-92810000D02*
X169029748Y-92810000D01*
%TO.C,C7*%
X164203748Y-81126000D02*
X164726252Y-81126000D01*
X164203748Y-79656000D02*
X164726252Y-79656000D01*
%TO.C,C6*%
X164203748Y-83666000D02*
X164726252Y-83666000D01*
X164203748Y-82196000D02*
X164726252Y-82196000D01*
%TO.C,C4*%
X198020000Y-64911248D02*
X198020000Y-65433752D01*
X199490000Y-64911248D02*
X199490000Y-65433752D01*
%TO.C,C3*%
X196115000Y-59831248D02*
X196115000Y-60353752D01*
X197585000Y-59831248D02*
X197585000Y-60353752D01*
%TO.C,C2*%
X183253748Y-81380000D02*
X183776252Y-81380000D01*
X183253748Y-79910000D02*
X183776252Y-79910000D01*
%TO.C,C1*%
X183253748Y-84555000D02*
X183776252Y-84555000D01*
X183253748Y-83085000D02*
X183776252Y-83085000D01*
%TO.C,U2*%
D10*
X211328095Y-65547380D02*
X211328095Y-66356904D01*
X211375714Y-66452142D01*
X211423333Y-66499761D01*
X211518571Y-66547380D01*
X211709047Y-66547380D01*
X211804285Y-66499761D01*
X211851904Y-66452142D01*
X211899523Y-66356904D01*
X211899523Y-65547380D01*
X212328095Y-65642619D02*
X212375714Y-65595000D01*
X212470952Y-65547380D01*
X212709047Y-65547380D01*
X212804285Y-65595000D01*
X212851904Y-65642619D01*
X212899523Y-65737857D01*
X212899523Y-65833095D01*
X212851904Y-65975952D01*
X212280476Y-66547380D01*
X212899523Y-66547380D01*
%TO.C,H1*%
X76708095Y-49982380D02*
X76708095Y-48982380D01*
X76708095Y-49458571D02*
X77279523Y-49458571D01*
X77279523Y-49982380D02*
X77279523Y-48982380D01*
X78279523Y-49982380D02*
X77708095Y-49982380D01*
X77993809Y-49982380D02*
X77993809Y-48982380D01*
X77898571Y-49125238D01*
X77803333Y-49220476D01*
X77708095Y-49268095D01*
%TO.C,H2*%
X71628095Y-105862380D02*
X71628095Y-104862380D01*
X71628095Y-105338571D02*
X72199523Y-105338571D01*
X72199523Y-105862380D02*
X72199523Y-104862380D01*
X72628095Y-104957619D02*
X72675714Y-104910000D01*
X72770952Y-104862380D01*
X73009047Y-104862380D01*
X73104285Y-104910000D01*
X73151904Y-104957619D01*
X73199523Y-105052857D01*
X73199523Y-105148095D01*
X73151904Y-105290952D01*
X72580476Y-105862380D01*
X73199523Y-105862380D01*
%TO.C,H4*%
X237998095Y-110307380D02*
X237998095Y-109307380D01*
X237998095Y-109783571D02*
X238569523Y-109783571D01*
X238569523Y-110307380D02*
X238569523Y-109307380D01*
X239474285Y-109640714D02*
X239474285Y-110307380D01*
X239236190Y-109259761D02*
X238998095Y-109974047D01*
X239617142Y-109974047D01*
%TO.C,H3*%
X243078095Y-54427380D02*
X243078095Y-53427380D01*
X243078095Y-53903571D02*
X243649523Y-53903571D01*
X243649523Y-54427380D02*
X243649523Y-53427380D01*
X244030476Y-53427380D02*
X244649523Y-53427380D01*
X244316190Y-53808333D01*
X244459047Y-53808333D01*
X244554285Y-53855952D01*
X244601904Y-53903571D01*
X244649523Y-53998809D01*
X244649523Y-54236904D01*
X244601904Y-54332142D01*
X244554285Y-54379761D01*
X244459047Y-54427380D01*
X244173333Y-54427380D01*
X244078095Y-54379761D01*
X244030476Y-54332142D01*
%TO.C,U5*%
X196937380Y-104901904D02*
X197746904Y-104901904D01*
X197842142Y-104854285D01*
X197889761Y-104806666D01*
X197937380Y-104711428D01*
X197937380Y-104520952D01*
X197889761Y-104425714D01*
X197842142Y-104378095D01*
X197746904Y-104330476D01*
X196937380Y-104330476D01*
X196937380Y-103378095D02*
X196937380Y-103854285D01*
X197413571Y-103901904D01*
X197365952Y-103854285D01*
X197318333Y-103759047D01*
X197318333Y-103520952D01*
X197365952Y-103425714D01*
X197413571Y-103378095D01*
X197508809Y-103330476D01*
X197746904Y-103330476D01*
X197842142Y-103378095D01*
X197889761Y-103425714D01*
X197937380Y-103520952D01*
X197937380Y-103759047D01*
X197889761Y-103854285D01*
X197842142Y-103901904D01*
%TO.C,R32*%
X194762380Y-89542857D02*
X194286190Y-89876190D01*
X194762380Y-90114285D02*
X193762380Y-90114285D01*
X193762380Y-89733333D01*
X193810000Y-89638095D01*
X193857619Y-89590476D01*
X193952857Y-89542857D01*
X194095714Y-89542857D01*
X194190952Y-89590476D01*
X194238571Y-89638095D01*
X194286190Y-89733333D01*
X194286190Y-90114285D01*
X193762380Y-89209523D02*
X193762380Y-88590476D01*
X194143333Y-88923809D01*
X194143333Y-88780952D01*
X194190952Y-88685714D01*
X194238571Y-88638095D01*
X194333809Y-88590476D01*
X194571904Y-88590476D01*
X194667142Y-88638095D01*
X194714761Y-88685714D01*
X194762380Y-88780952D01*
X194762380Y-89066666D01*
X194714761Y-89161904D01*
X194667142Y-89209523D01*
X193857619Y-88209523D02*
X193810000Y-88161904D01*
X193762380Y-88066666D01*
X193762380Y-87828571D01*
X193810000Y-87733333D01*
X193857619Y-87685714D01*
X193952857Y-87638095D01*
X194048095Y-87638095D01*
X194190952Y-87685714D01*
X194762380Y-88257142D01*
X194762380Y-87638095D01*
%TO.C,R31*%
X194762380Y-95527857D02*
X194286190Y-95861190D01*
X194762380Y-96099285D02*
X193762380Y-96099285D01*
X193762380Y-95718333D01*
X193810000Y-95623095D01*
X193857619Y-95575476D01*
X193952857Y-95527857D01*
X194095714Y-95527857D01*
X194190952Y-95575476D01*
X194238571Y-95623095D01*
X194286190Y-95718333D01*
X194286190Y-96099285D01*
X193762380Y-95194523D02*
X193762380Y-94575476D01*
X194143333Y-94908809D01*
X194143333Y-94765952D01*
X194190952Y-94670714D01*
X194238571Y-94623095D01*
X194333809Y-94575476D01*
X194571904Y-94575476D01*
X194667142Y-94623095D01*
X194714761Y-94670714D01*
X194762380Y-94765952D01*
X194762380Y-95051666D01*
X194714761Y-95146904D01*
X194667142Y-95194523D01*
X194762380Y-93623095D02*
X194762380Y-94194523D01*
X194762380Y-93908809D02*
X193762380Y-93908809D01*
X193905238Y-94004047D01*
X194000476Y-94099285D01*
X194048095Y-94194523D01*
%TO.C,L1*%
X212558333Y-75382380D02*
X212082142Y-75382380D01*
X212082142Y-74382380D01*
X213415476Y-75382380D02*
X212844047Y-75382380D01*
X213129761Y-75382380D02*
X213129761Y-74382380D01*
X213034523Y-74525238D01*
X212939285Y-74620476D01*
X212844047Y-74668095D01*
%TO.C,D6*%
X206271904Y-95582380D02*
X206271904Y-94582380D01*
X206510000Y-94582380D01*
X206652857Y-94630000D01*
X206748095Y-94725238D01*
X206795714Y-94820476D01*
X206843333Y-95010952D01*
X206843333Y-95153809D01*
X206795714Y-95344285D01*
X206748095Y-95439523D01*
X206652857Y-95534761D01*
X206510000Y-95582380D01*
X206271904Y-95582380D01*
X207700476Y-94582380D02*
X207510000Y-94582380D01*
X207414761Y-94630000D01*
X207367142Y-94677619D01*
X207271904Y-94820476D01*
X207224285Y-95010952D01*
X207224285Y-95391904D01*
X207271904Y-95487142D01*
X207319523Y-95534761D01*
X207414761Y-95582380D01*
X207605238Y-95582380D01*
X207700476Y-95534761D01*
X207748095Y-95487142D01*
X207795714Y-95391904D01*
X207795714Y-95153809D01*
X207748095Y-95058571D01*
X207700476Y-95010952D01*
X207605238Y-94963333D01*
X207414761Y-94963333D01*
X207319523Y-95010952D01*
X207271904Y-95058571D01*
X207224285Y-95153809D01*
X209288095Y-95162380D02*
X209288095Y-94162380D01*
X209859523Y-95162380D02*
X209430952Y-94590952D01*
X209859523Y-94162380D02*
X209288095Y-94733809D01*
%TO.C,C15*%
X201287142Y-71067142D02*
X201239523Y-71114761D01*
X201096666Y-71162380D01*
X201001428Y-71162380D01*
X200858571Y-71114761D01*
X200763333Y-71019523D01*
X200715714Y-70924285D01*
X200668095Y-70733809D01*
X200668095Y-70590952D01*
X200715714Y-70400476D01*
X200763333Y-70305238D01*
X200858571Y-70210000D01*
X201001428Y-70162380D01*
X201096666Y-70162380D01*
X201239523Y-70210000D01*
X201287142Y-70257619D01*
X202239523Y-71162380D02*
X201668095Y-71162380D01*
X201953809Y-71162380D02*
X201953809Y-70162380D01*
X201858571Y-70305238D01*
X201763333Y-70400476D01*
X201668095Y-70448095D01*
X203144285Y-70162380D02*
X202668095Y-70162380D01*
X202620476Y-70638571D01*
X202668095Y-70590952D01*
X202763333Y-70543333D01*
X203001428Y-70543333D01*
X203096666Y-70590952D01*
X203144285Y-70638571D01*
X203191904Y-70733809D01*
X203191904Y-70971904D01*
X203144285Y-71067142D01*
X203096666Y-71114761D01*
X203001428Y-71162380D01*
X202763333Y-71162380D01*
X202668095Y-71114761D01*
X202620476Y-71067142D01*
%TO.C,C14*%
X195937142Y-82557857D02*
X195984761Y-82605476D01*
X196032380Y-82748333D01*
X196032380Y-82843571D01*
X195984761Y-82986428D01*
X195889523Y-83081666D01*
X195794285Y-83129285D01*
X195603809Y-83176904D01*
X195460952Y-83176904D01*
X195270476Y-83129285D01*
X195175238Y-83081666D01*
X195080000Y-82986428D01*
X195032380Y-82843571D01*
X195032380Y-82748333D01*
X195080000Y-82605476D01*
X195127619Y-82557857D01*
X196032380Y-81605476D02*
X196032380Y-82176904D01*
X196032380Y-81891190D02*
X195032380Y-81891190D01*
X195175238Y-81986428D01*
X195270476Y-82081666D01*
X195318095Y-82176904D01*
X195365714Y-80748333D02*
X196032380Y-80748333D01*
X194984761Y-80986428D02*
X195699047Y-81224523D01*
X195699047Y-80605476D01*
%TO.C,C13*%
X211812142Y-103512857D02*
X211859761Y-103560476D01*
X211907380Y-103703333D01*
X211907380Y-103798571D01*
X211859761Y-103941428D01*
X211764523Y-104036666D01*
X211669285Y-104084285D01*
X211478809Y-104131904D01*
X211335952Y-104131904D01*
X211145476Y-104084285D01*
X211050238Y-104036666D01*
X210955000Y-103941428D01*
X210907380Y-103798571D01*
X210907380Y-103703333D01*
X210955000Y-103560476D01*
X211002619Y-103512857D01*
X211907380Y-102560476D02*
X211907380Y-103131904D01*
X211907380Y-102846190D02*
X210907380Y-102846190D01*
X211050238Y-102941428D01*
X211145476Y-103036666D01*
X211193095Y-103131904D01*
X210907380Y-102227142D02*
X210907380Y-101608095D01*
X211288333Y-101941428D01*
X211288333Y-101798571D01*
X211335952Y-101703333D01*
X211383571Y-101655714D01*
X211478809Y-101608095D01*
X211716904Y-101608095D01*
X211812142Y-101655714D01*
X211859761Y-101703333D01*
X211907380Y-101798571D01*
X211907380Y-102084285D01*
X211859761Y-102179523D01*
X211812142Y-102227142D01*
%TO.C,D5*%
X132017380Y-109323095D02*
X131017380Y-109323095D01*
X131017380Y-109085000D01*
X131065000Y-108942142D01*
X131160238Y-108846904D01*
X131255476Y-108799285D01*
X131445952Y-108751666D01*
X131588809Y-108751666D01*
X131779285Y-108799285D01*
X131874523Y-108846904D01*
X131969761Y-108942142D01*
X132017380Y-109085000D01*
X132017380Y-109323095D01*
X131017380Y-107846904D02*
X131017380Y-108323095D01*
X131493571Y-108370714D01*
X131445952Y-108323095D01*
X131398333Y-108227857D01*
X131398333Y-107989761D01*
X131445952Y-107894523D01*
X131493571Y-107846904D01*
X131588809Y-107799285D01*
X131826904Y-107799285D01*
X131922142Y-107846904D01*
X131969761Y-107894523D01*
X132017380Y-107989761D01*
X132017380Y-108227857D01*
X131969761Y-108323095D01*
X131922142Y-108370714D01*
X132437380Y-111386904D02*
X131437380Y-111386904D01*
X132437380Y-110815476D02*
X131865952Y-111244047D01*
X131437380Y-110815476D02*
X132008809Y-111386904D01*
%TO.C,R34*%
X204837380Y-53347857D02*
X204361190Y-53681190D01*
X204837380Y-53919285D02*
X203837380Y-53919285D01*
X203837380Y-53538333D01*
X203885000Y-53443095D01*
X203932619Y-53395476D01*
X204027857Y-53347857D01*
X204170714Y-53347857D01*
X204265952Y-53395476D01*
X204313571Y-53443095D01*
X204361190Y-53538333D01*
X204361190Y-53919285D01*
X203837380Y-53014523D02*
X203837380Y-52395476D01*
X204218333Y-52728809D01*
X204218333Y-52585952D01*
X204265952Y-52490714D01*
X204313571Y-52443095D01*
X204408809Y-52395476D01*
X204646904Y-52395476D01*
X204742142Y-52443095D01*
X204789761Y-52490714D01*
X204837380Y-52585952D01*
X204837380Y-52871666D01*
X204789761Y-52966904D01*
X204742142Y-53014523D01*
X204170714Y-51538333D02*
X204837380Y-51538333D01*
X203789761Y-51776428D02*
X204504047Y-52014523D01*
X204504047Y-51395476D01*
%TO.C,TP4*%
X229415380Y-108576904D02*
X229415380Y-108005476D01*
X230415380Y-108291190D02*
X229415380Y-108291190D01*
X230415380Y-107672142D02*
X229415380Y-107672142D01*
X229415380Y-107291190D01*
X229463000Y-107195952D01*
X229510619Y-107148333D01*
X229605857Y-107100714D01*
X229748714Y-107100714D01*
X229843952Y-107148333D01*
X229891571Y-107195952D01*
X229939190Y-107291190D01*
X229939190Y-107672142D01*
X229748714Y-106243571D02*
X230415380Y-106243571D01*
X229367761Y-106481666D02*
X230082047Y-106719761D01*
X230082047Y-106100714D01*
%TO.C,TP3*%
X189952380Y-69841904D02*
X189952380Y-69270476D01*
X190952380Y-69556190D02*
X189952380Y-69556190D01*
X190952380Y-68937142D02*
X189952380Y-68937142D01*
X189952380Y-68556190D01*
X190000000Y-68460952D01*
X190047619Y-68413333D01*
X190142857Y-68365714D01*
X190285714Y-68365714D01*
X190380952Y-68413333D01*
X190428571Y-68460952D01*
X190476190Y-68556190D01*
X190476190Y-68937142D01*
X189952380Y-68032380D02*
X189952380Y-67413333D01*
X190333333Y-67746666D01*
X190333333Y-67603809D01*
X190380952Y-67508571D01*
X190428571Y-67460952D01*
X190523809Y-67413333D01*
X190761904Y-67413333D01*
X190857142Y-67460952D01*
X190904761Y-67508571D01*
X190952380Y-67603809D01*
X190952380Y-67889523D01*
X190904761Y-67984761D01*
X190857142Y-68032380D01*
%TO.C,TP2*%
X189952380Y-56506904D02*
X189952380Y-55935476D01*
X190952380Y-56221190D02*
X189952380Y-56221190D01*
X190952380Y-55602142D02*
X189952380Y-55602142D01*
X189952380Y-55221190D01*
X190000000Y-55125952D01*
X190047619Y-55078333D01*
X190142857Y-55030714D01*
X190285714Y-55030714D01*
X190380952Y-55078333D01*
X190428571Y-55125952D01*
X190476190Y-55221190D01*
X190476190Y-55602142D01*
X190047619Y-54649761D02*
X190000000Y-54602142D01*
X189952380Y-54506904D01*
X189952380Y-54268809D01*
X190000000Y-54173571D01*
X190047619Y-54125952D01*
X190142857Y-54078333D01*
X190238095Y-54078333D01*
X190380952Y-54125952D01*
X190952380Y-54697380D01*
X190952380Y-54078333D01*
%TO.C,TP1*%
X219255380Y-94606904D02*
X219255380Y-94035476D01*
X220255380Y-94321190D02*
X219255380Y-94321190D01*
X220255380Y-93702142D02*
X219255380Y-93702142D01*
X219255380Y-93321190D01*
X219303000Y-93225952D01*
X219350619Y-93178333D01*
X219445857Y-93130714D01*
X219588714Y-93130714D01*
X219683952Y-93178333D01*
X219731571Y-93225952D01*
X219779190Y-93321190D01*
X219779190Y-93702142D01*
X220255380Y-92178333D02*
X220255380Y-92749761D01*
X220255380Y-92464047D02*
X219255380Y-92464047D01*
X219398238Y-92559285D01*
X219493476Y-92654523D01*
X219541095Y-92749761D01*
%TO.C,R33*%
X151122142Y-106582380D02*
X150788809Y-106106190D01*
X150550714Y-106582380D02*
X150550714Y-105582380D01*
X150931666Y-105582380D01*
X151026904Y-105630000D01*
X151074523Y-105677619D01*
X151122142Y-105772857D01*
X151122142Y-105915714D01*
X151074523Y-106010952D01*
X151026904Y-106058571D01*
X150931666Y-106106190D01*
X150550714Y-106106190D01*
X151455476Y-105582380D02*
X152074523Y-105582380D01*
X151741190Y-105963333D01*
X151884047Y-105963333D01*
X151979285Y-106010952D01*
X152026904Y-106058571D01*
X152074523Y-106153809D01*
X152074523Y-106391904D01*
X152026904Y-106487142D01*
X151979285Y-106534761D01*
X151884047Y-106582380D01*
X151598333Y-106582380D01*
X151503095Y-106534761D01*
X151455476Y-106487142D01*
X152407857Y-105582380D02*
X153026904Y-105582380D01*
X152693571Y-105963333D01*
X152836428Y-105963333D01*
X152931666Y-106010952D01*
X152979285Y-106058571D01*
X153026904Y-106153809D01*
X153026904Y-106391904D01*
X152979285Y-106487142D01*
X152931666Y-106534761D01*
X152836428Y-106582380D01*
X152550714Y-106582380D01*
X152455476Y-106534761D01*
X152407857Y-106487142D01*
%TO.C,Q2*%
X142144761Y-111092619D02*
X142049523Y-111045000D01*
X141954285Y-110949761D01*
X141811428Y-110806904D01*
X141716190Y-110759285D01*
X141620952Y-110759285D01*
X141668571Y-110997380D02*
X141573333Y-110949761D01*
X141478095Y-110854523D01*
X141430476Y-110664047D01*
X141430476Y-110330714D01*
X141478095Y-110140238D01*
X141573333Y-110045000D01*
X141668571Y-109997380D01*
X141859047Y-109997380D01*
X141954285Y-110045000D01*
X142049523Y-110140238D01*
X142097142Y-110330714D01*
X142097142Y-110664047D01*
X142049523Y-110854523D01*
X141954285Y-110949761D01*
X141859047Y-110997380D01*
X141668571Y-110997380D01*
X142478095Y-110092619D02*
X142525714Y-110045000D01*
X142620952Y-109997380D01*
X142859047Y-109997380D01*
X142954285Y-110045000D01*
X143001904Y-110092619D01*
X143049523Y-110187857D01*
X143049523Y-110283095D01*
X143001904Y-110425952D01*
X142430476Y-110997380D01*
X143049523Y-110997380D01*
%TO.C,J6*%
X128571666Y-103167380D02*
X128571666Y-103881666D01*
X128524047Y-104024523D01*
X128428809Y-104119761D01*
X128285952Y-104167380D01*
X128190714Y-104167380D01*
X129476428Y-103167380D02*
X129285952Y-103167380D01*
X129190714Y-103215000D01*
X129143095Y-103262619D01*
X129047857Y-103405476D01*
X129000238Y-103595952D01*
X129000238Y-103976904D01*
X129047857Y-104072142D01*
X129095476Y-104119761D01*
X129190714Y-104167380D01*
X129381190Y-104167380D01*
X129476428Y-104119761D01*
X129524047Y-104072142D01*
X129571666Y-103976904D01*
X129571666Y-103738809D01*
X129524047Y-103643571D01*
X129476428Y-103595952D01*
X129381190Y-103548333D01*
X129190714Y-103548333D01*
X129095476Y-103595952D01*
X129047857Y-103643571D01*
X129000238Y-103738809D01*
%TO.C,U1*%
X182753095Y-84977380D02*
X182753095Y-85786904D01*
X182800714Y-85882142D01*
X182848333Y-85929761D01*
X182943571Y-85977380D01*
X183134047Y-85977380D01*
X183229285Y-85929761D01*
X183276904Y-85882142D01*
X183324523Y-85786904D01*
X183324523Y-84977380D01*
X184324523Y-85977380D02*
X183753095Y-85977380D01*
X184038809Y-85977380D02*
X184038809Y-84977380D01*
X183943571Y-85120238D01*
X183848333Y-85215476D01*
X183753095Y-85263095D01*
%TO.C,Q1*%
X211994761Y-55157619D02*
X211899523Y-55110000D01*
X211804285Y-55014761D01*
X211661428Y-54871904D01*
X211566190Y-54824285D01*
X211470952Y-54824285D01*
X211518571Y-55062380D02*
X211423333Y-55014761D01*
X211328095Y-54919523D01*
X211280476Y-54729047D01*
X211280476Y-54395714D01*
X211328095Y-54205238D01*
X211423333Y-54110000D01*
X211518571Y-54062380D01*
X211709047Y-54062380D01*
X211804285Y-54110000D01*
X211899523Y-54205238D01*
X211947142Y-54395714D01*
X211947142Y-54729047D01*
X211899523Y-54919523D01*
X211804285Y-55014761D01*
X211709047Y-55062380D01*
X211518571Y-55062380D01*
X212899523Y-55062380D02*
X212328095Y-55062380D01*
X212613809Y-55062380D02*
X212613809Y-54062380D01*
X212518571Y-54205238D01*
X212423333Y-54300476D01*
X212328095Y-54348095D01*
%TO.C,D3*%
X73556904Y-96337380D02*
X73556904Y-95337380D01*
X73795000Y-95337380D01*
X73937857Y-95385000D01*
X74033095Y-95480238D01*
X74080714Y-95575476D01*
X74128333Y-95765952D01*
X74128333Y-95908809D01*
X74080714Y-96099285D01*
X74033095Y-96194523D01*
X73937857Y-96289761D01*
X73795000Y-96337380D01*
X73556904Y-96337380D01*
X74461666Y-95337380D02*
X75080714Y-95337380D01*
X74747380Y-95718333D01*
X74890238Y-95718333D01*
X74985476Y-95765952D01*
X75033095Y-95813571D01*
X75080714Y-95908809D01*
X75080714Y-96146904D01*
X75033095Y-96242142D01*
X74985476Y-96289761D01*
X74890238Y-96337380D01*
X74604523Y-96337380D01*
X74509285Y-96289761D01*
X74461666Y-96242142D01*
%TO.C,R22*%
X97987380Y-75572857D02*
X97511190Y-75906190D01*
X97987380Y-76144285D02*
X96987380Y-76144285D01*
X96987380Y-75763333D01*
X97035000Y-75668095D01*
X97082619Y-75620476D01*
X97177857Y-75572857D01*
X97320714Y-75572857D01*
X97415952Y-75620476D01*
X97463571Y-75668095D01*
X97511190Y-75763333D01*
X97511190Y-76144285D01*
X97082619Y-75191904D02*
X97035000Y-75144285D01*
X96987380Y-75049047D01*
X96987380Y-74810952D01*
X97035000Y-74715714D01*
X97082619Y-74668095D01*
X97177857Y-74620476D01*
X97273095Y-74620476D01*
X97415952Y-74668095D01*
X97987380Y-75239523D01*
X97987380Y-74620476D01*
X97082619Y-74239523D02*
X97035000Y-74191904D01*
X96987380Y-74096666D01*
X96987380Y-73858571D01*
X97035000Y-73763333D01*
X97082619Y-73715714D01*
X97177857Y-73668095D01*
X97273095Y-73668095D01*
X97415952Y-73715714D01*
X97987380Y-74287142D01*
X97987380Y-73668095D01*
%TO.C,R21*%
X94432380Y-72397857D02*
X93956190Y-72731190D01*
X94432380Y-72969285D02*
X93432380Y-72969285D01*
X93432380Y-72588333D01*
X93480000Y-72493095D01*
X93527619Y-72445476D01*
X93622857Y-72397857D01*
X93765714Y-72397857D01*
X93860952Y-72445476D01*
X93908571Y-72493095D01*
X93956190Y-72588333D01*
X93956190Y-72969285D01*
X93527619Y-72016904D02*
X93480000Y-71969285D01*
X93432380Y-71874047D01*
X93432380Y-71635952D01*
X93480000Y-71540714D01*
X93527619Y-71493095D01*
X93622857Y-71445476D01*
X93718095Y-71445476D01*
X93860952Y-71493095D01*
X94432380Y-72064523D01*
X94432380Y-71445476D01*
X94432380Y-70493095D02*
X94432380Y-71064523D01*
X94432380Y-70778809D02*
X93432380Y-70778809D01*
X93575238Y-70874047D01*
X93670476Y-70969285D01*
X93718095Y-71064523D01*
%TO.C,R20*%
X90622380Y-75572857D02*
X90146190Y-75906190D01*
X90622380Y-76144285D02*
X89622380Y-76144285D01*
X89622380Y-75763333D01*
X89670000Y-75668095D01*
X89717619Y-75620476D01*
X89812857Y-75572857D01*
X89955714Y-75572857D01*
X90050952Y-75620476D01*
X90098571Y-75668095D01*
X90146190Y-75763333D01*
X90146190Y-76144285D01*
X89717619Y-75191904D02*
X89670000Y-75144285D01*
X89622380Y-75049047D01*
X89622380Y-74810952D01*
X89670000Y-74715714D01*
X89717619Y-74668095D01*
X89812857Y-74620476D01*
X89908095Y-74620476D01*
X90050952Y-74668095D01*
X90622380Y-75239523D01*
X90622380Y-74620476D01*
X89622380Y-74001428D02*
X89622380Y-73906190D01*
X89670000Y-73810952D01*
X89717619Y-73763333D01*
X89812857Y-73715714D01*
X90003333Y-73668095D01*
X90241428Y-73668095D01*
X90431904Y-73715714D01*
X90527142Y-73763333D01*
X90574761Y-73810952D01*
X90622380Y-73906190D01*
X90622380Y-74001428D01*
X90574761Y-74096666D01*
X90527142Y-74144285D01*
X90431904Y-74191904D01*
X90241428Y-74239523D01*
X90003333Y-74239523D01*
X89812857Y-74191904D01*
X89717619Y-74144285D01*
X89670000Y-74096666D01*
X89622380Y-74001428D01*
%TO.C,R19*%
X92527380Y-100337857D02*
X92051190Y-100671190D01*
X92527380Y-100909285D02*
X91527380Y-100909285D01*
X91527380Y-100528333D01*
X91575000Y-100433095D01*
X91622619Y-100385476D01*
X91717857Y-100337857D01*
X91860714Y-100337857D01*
X91955952Y-100385476D01*
X92003571Y-100433095D01*
X92051190Y-100528333D01*
X92051190Y-100909285D01*
X92527380Y-99385476D02*
X92527380Y-99956904D01*
X92527380Y-99671190D02*
X91527380Y-99671190D01*
X91670238Y-99766428D01*
X91765476Y-99861666D01*
X91813095Y-99956904D01*
X92527380Y-98909285D02*
X92527380Y-98718809D01*
X92479761Y-98623571D01*
X92432142Y-98575952D01*
X92289285Y-98480714D01*
X92098809Y-98433095D01*
X91717857Y-98433095D01*
X91622619Y-98480714D01*
X91575000Y-98528333D01*
X91527380Y-98623571D01*
X91527380Y-98814047D01*
X91575000Y-98909285D01*
X91622619Y-98956904D01*
X91717857Y-99004523D01*
X91955952Y-99004523D01*
X92051190Y-98956904D01*
X92098809Y-98909285D01*
X92146428Y-98814047D01*
X92146428Y-98623571D01*
X92098809Y-98528333D01*
X92051190Y-98480714D01*
X91955952Y-98433095D01*
%TO.C,R18*%
X94432380Y-100337857D02*
X93956190Y-100671190D01*
X94432380Y-100909285D02*
X93432380Y-100909285D01*
X93432380Y-100528333D01*
X93480000Y-100433095D01*
X93527619Y-100385476D01*
X93622857Y-100337857D01*
X93765714Y-100337857D01*
X93860952Y-100385476D01*
X93908571Y-100433095D01*
X93956190Y-100528333D01*
X93956190Y-100909285D01*
X94432380Y-99385476D02*
X94432380Y-99956904D01*
X94432380Y-99671190D02*
X93432380Y-99671190D01*
X93575238Y-99766428D01*
X93670476Y-99861666D01*
X93718095Y-99956904D01*
X93860952Y-98814047D02*
X93813333Y-98909285D01*
X93765714Y-98956904D01*
X93670476Y-99004523D01*
X93622857Y-99004523D01*
X93527619Y-98956904D01*
X93480000Y-98909285D01*
X93432380Y-98814047D01*
X93432380Y-98623571D01*
X93480000Y-98528333D01*
X93527619Y-98480714D01*
X93622857Y-98433095D01*
X93670476Y-98433095D01*
X93765714Y-98480714D01*
X93813333Y-98528333D01*
X93860952Y-98623571D01*
X93860952Y-98814047D01*
X93908571Y-98909285D01*
X93956190Y-98956904D01*
X94051428Y-99004523D01*
X94241904Y-99004523D01*
X94337142Y-98956904D01*
X94384761Y-98909285D01*
X94432380Y-98814047D01*
X94432380Y-98623571D01*
X94384761Y-98528333D01*
X94337142Y-98480714D01*
X94241904Y-98433095D01*
X94051428Y-98433095D01*
X93956190Y-98480714D01*
X93908571Y-98528333D01*
X93860952Y-98623571D01*
%TO.C,R17*%
X96337380Y-100337857D02*
X95861190Y-100671190D01*
X96337380Y-100909285D02*
X95337380Y-100909285D01*
X95337380Y-100528333D01*
X95385000Y-100433095D01*
X95432619Y-100385476D01*
X95527857Y-100337857D01*
X95670714Y-100337857D01*
X95765952Y-100385476D01*
X95813571Y-100433095D01*
X95861190Y-100528333D01*
X95861190Y-100909285D01*
X96337380Y-99385476D02*
X96337380Y-99956904D01*
X96337380Y-99671190D02*
X95337380Y-99671190D01*
X95480238Y-99766428D01*
X95575476Y-99861666D01*
X95623095Y-99956904D01*
X95337380Y-99052142D02*
X95337380Y-98385476D01*
X96337380Y-98814047D01*
%TO.C,R16*%
X98242380Y-100337857D02*
X97766190Y-100671190D01*
X98242380Y-100909285D02*
X97242380Y-100909285D01*
X97242380Y-100528333D01*
X97290000Y-100433095D01*
X97337619Y-100385476D01*
X97432857Y-100337857D01*
X97575714Y-100337857D01*
X97670952Y-100385476D01*
X97718571Y-100433095D01*
X97766190Y-100528333D01*
X97766190Y-100909285D01*
X98242380Y-99385476D02*
X98242380Y-99956904D01*
X98242380Y-99671190D02*
X97242380Y-99671190D01*
X97385238Y-99766428D01*
X97480476Y-99861666D01*
X97528095Y-99956904D01*
X97242380Y-98528333D02*
X97242380Y-98718809D01*
X97290000Y-98814047D01*
X97337619Y-98861666D01*
X97480476Y-98956904D01*
X97670952Y-99004523D01*
X98051904Y-99004523D01*
X98147142Y-98956904D01*
X98194761Y-98909285D01*
X98242380Y-98814047D01*
X98242380Y-98623571D01*
X98194761Y-98528333D01*
X98147142Y-98480714D01*
X98051904Y-98433095D01*
X97813809Y-98433095D01*
X97718571Y-98480714D01*
X97670952Y-98528333D01*
X97623333Y-98623571D01*
X97623333Y-98814047D01*
X97670952Y-98909285D01*
X97718571Y-98956904D01*
X97813809Y-99004523D01*
%TO.C,R15*%
X100147380Y-100337857D02*
X99671190Y-100671190D01*
X100147380Y-100909285D02*
X99147380Y-100909285D01*
X99147380Y-100528333D01*
X99195000Y-100433095D01*
X99242619Y-100385476D01*
X99337857Y-100337857D01*
X99480714Y-100337857D01*
X99575952Y-100385476D01*
X99623571Y-100433095D01*
X99671190Y-100528333D01*
X99671190Y-100909285D01*
X100147380Y-99385476D02*
X100147380Y-99956904D01*
X100147380Y-99671190D02*
X99147380Y-99671190D01*
X99290238Y-99766428D01*
X99385476Y-99861666D01*
X99433095Y-99956904D01*
X99147380Y-98480714D02*
X99147380Y-98956904D01*
X99623571Y-99004523D01*
X99575952Y-98956904D01*
X99528333Y-98861666D01*
X99528333Y-98623571D01*
X99575952Y-98528333D01*
X99623571Y-98480714D01*
X99718809Y-98433095D01*
X99956904Y-98433095D01*
X100052142Y-98480714D01*
X100099761Y-98528333D01*
X100147380Y-98623571D01*
X100147380Y-98861666D01*
X100099761Y-98956904D01*
X100052142Y-99004523D01*
%TO.C,R14*%
X102052380Y-100337857D02*
X101576190Y-100671190D01*
X102052380Y-100909285D02*
X101052380Y-100909285D01*
X101052380Y-100528333D01*
X101100000Y-100433095D01*
X101147619Y-100385476D01*
X101242857Y-100337857D01*
X101385714Y-100337857D01*
X101480952Y-100385476D01*
X101528571Y-100433095D01*
X101576190Y-100528333D01*
X101576190Y-100909285D01*
X102052380Y-99385476D02*
X102052380Y-99956904D01*
X102052380Y-99671190D02*
X101052380Y-99671190D01*
X101195238Y-99766428D01*
X101290476Y-99861666D01*
X101338095Y-99956904D01*
X101385714Y-98528333D02*
X102052380Y-98528333D01*
X101004761Y-98766428D02*
X101719047Y-99004523D01*
X101719047Y-98385476D01*
%TO.C,R13*%
X103957380Y-100337857D02*
X103481190Y-100671190D01*
X103957380Y-100909285D02*
X102957380Y-100909285D01*
X102957380Y-100528333D01*
X103005000Y-100433095D01*
X103052619Y-100385476D01*
X103147857Y-100337857D01*
X103290714Y-100337857D01*
X103385952Y-100385476D01*
X103433571Y-100433095D01*
X103481190Y-100528333D01*
X103481190Y-100909285D01*
X103957380Y-99385476D02*
X103957380Y-99956904D01*
X103957380Y-99671190D02*
X102957380Y-99671190D01*
X103100238Y-99766428D01*
X103195476Y-99861666D01*
X103243095Y-99956904D01*
X102957380Y-99052142D02*
X102957380Y-98433095D01*
X103338333Y-98766428D01*
X103338333Y-98623571D01*
X103385952Y-98528333D01*
X103433571Y-98480714D01*
X103528809Y-98433095D01*
X103766904Y-98433095D01*
X103862142Y-98480714D01*
X103909761Y-98528333D01*
X103957380Y-98623571D01*
X103957380Y-98909285D01*
X103909761Y-99004523D01*
X103862142Y-99052142D01*
%TO.C,R12*%
X105862380Y-100337857D02*
X105386190Y-100671190D01*
X105862380Y-100909285D02*
X104862380Y-100909285D01*
X104862380Y-100528333D01*
X104910000Y-100433095D01*
X104957619Y-100385476D01*
X105052857Y-100337857D01*
X105195714Y-100337857D01*
X105290952Y-100385476D01*
X105338571Y-100433095D01*
X105386190Y-100528333D01*
X105386190Y-100909285D01*
X105862380Y-99385476D02*
X105862380Y-99956904D01*
X105862380Y-99671190D02*
X104862380Y-99671190D01*
X105005238Y-99766428D01*
X105100476Y-99861666D01*
X105148095Y-99956904D01*
X104957619Y-99004523D02*
X104910000Y-98956904D01*
X104862380Y-98861666D01*
X104862380Y-98623571D01*
X104910000Y-98528333D01*
X104957619Y-98480714D01*
X105052857Y-98433095D01*
X105148095Y-98433095D01*
X105290952Y-98480714D01*
X105862380Y-99052142D01*
X105862380Y-98433095D01*
%TO.C,R11*%
X107767380Y-100337857D02*
X107291190Y-100671190D01*
X107767380Y-100909285D02*
X106767380Y-100909285D01*
X106767380Y-100528333D01*
X106815000Y-100433095D01*
X106862619Y-100385476D01*
X106957857Y-100337857D01*
X107100714Y-100337857D01*
X107195952Y-100385476D01*
X107243571Y-100433095D01*
X107291190Y-100528333D01*
X107291190Y-100909285D01*
X107767380Y-99385476D02*
X107767380Y-99956904D01*
X107767380Y-99671190D02*
X106767380Y-99671190D01*
X106910238Y-99766428D01*
X107005476Y-99861666D01*
X107053095Y-99956904D01*
X107767380Y-98433095D02*
X107767380Y-99004523D01*
X107767380Y-98718809D02*
X106767380Y-98718809D01*
X106910238Y-98814047D01*
X107005476Y-98909285D01*
X107053095Y-99004523D01*
%TO.C,R10*%
X109672380Y-100337857D02*
X109196190Y-100671190D01*
X109672380Y-100909285D02*
X108672380Y-100909285D01*
X108672380Y-100528333D01*
X108720000Y-100433095D01*
X108767619Y-100385476D01*
X108862857Y-100337857D01*
X109005714Y-100337857D01*
X109100952Y-100385476D01*
X109148571Y-100433095D01*
X109196190Y-100528333D01*
X109196190Y-100909285D01*
X109672380Y-99385476D02*
X109672380Y-99956904D01*
X109672380Y-99671190D02*
X108672380Y-99671190D01*
X108815238Y-99766428D01*
X108910476Y-99861666D01*
X108958095Y-99956904D01*
X108672380Y-98766428D02*
X108672380Y-98671190D01*
X108720000Y-98575952D01*
X108767619Y-98528333D01*
X108862857Y-98480714D01*
X109053333Y-98433095D01*
X109291428Y-98433095D01*
X109481904Y-98480714D01*
X109577142Y-98528333D01*
X109624761Y-98575952D01*
X109672380Y-98671190D01*
X109672380Y-98766428D01*
X109624761Y-98861666D01*
X109577142Y-98909285D01*
X109481904Y-98956904D01*
X109291428Y-99004523D01*
X109053333Y-99004523D01*
X108862857Y-98956904D01*
X108767619Y-98909285D01*
X108720000Y-98861666D01*
X108672380Y-98766428D01*
%TO.C,R9*%
X111577380Y-99861666D02*
X111101190Y-100195000D01*
X111577380Y-100433095D02*
X110577380Y-100433095D01*
X110577380Y-100052142D01*
X110625000Y-99956904D01*
X110672619Y-99909285D01*
X110767857Y-99861666D01*
X110910714Y-99861666D01*
X111005952Y-99909285D01*
X111053571Y-99956904D01*
X111101190Y-100052142D01*
X111101190Y-100433095D01*
X111577380Y-99385476D02*
X111577380Y-99195000D01*
X111529761Y-99099761D01*
X111482142Y-99052142D01*
X111339285Y-98956904D01*
X111148809Y-98909285D01*
X110767857Y-98909285D01*
X110672619Y-98956904D01*
X110625000Y-99004523D01*
X110577380Y-99099761D01*
X110577380Y-99290238D01*
X110625000Y-99385476D01*
X110672619Y-99433095D01*
X110767857Y-99480714D01*
X111005952Y-99480714D01*
X111101190Y-99433095D01*
X111148809Y-99385476D01*
X111196428Y-99290238D01*
X111196428Y-99099761D01*
X111148809Y-99004523D01*
X111101190Y-98956904D01*
X111005952Y-98909285D01*
%TO.C,U4*%
X91527380Y-85389404D02*
X92336904Y-85389404D01*
X92432142Y-85341785D01*
X92479761Y-85294166D01*
X92527380Y-85198928D01*
X92527380Y-85008452D01*
X92479761Y-84913214D01*
X92432142Y-84865595D01*
X92336904Y-84817976D01*
X91527380Y-84817976D01*
X91860714Y-83913214D02*
X92527380Y-83913214D01*
X91479761Y-84151309D02*
X92194047Y-84389404D01*
X92194047Y-83770357D01*
X98334285Y-85029523D02*
X98334285Y-83759523D01*
X98334285Y-84364285D02*
X99060000Y-84364285D01*
X99060000Y-85029523D02*
X99060000Y-83759523D01*
X99483333Y-83759523D02*
X100209047Y-83759523D01*
X99846190Y-85029523D02*
X99846190Y-83759523D01*
X101297619Y-85029523D02*
X100571904Y-85029523D01*
X100934761Y-85029523D02*
X100934761Y-83759523D01*
X100813809Y-83940952D01*
X100692857Y-84061904D01*
X100571904Y-84122380D01*
X102386190Y-83759523D02*
X102144285Y-83759523D01*
X102023333Y-83820000D01*
X101962857Y-83880476D01*
X101841904Y-84061904D01*
X101781428Y-84303809D01*
X101781428Y-84787619D01*
X101841904Y-84908571D01*
X101902380Y-84969047D01*
X102023333Y-85029523D01*
X102265238Y-85029523D01*
X102386190Y-84969047D01*
X102446666Y-84908571D01*
X102507142Y-84787619D01*
X102507142Y-84485238D01*
X102446666Y-84364285D01*
X102386190Y-84303809D01*
X102265238Y-84243333D01*
X102023333Y-84243333D01*
X101902380Y-84303809D01*
X101841904Y-84364285D01*
X101781428Y-84485238D01*
X103051428Y-85029523D02*
X103051428Y-83759523D01*
X103777142Y-85029523D02*
X103232857Y-84303809D01*
X103777142Y-83759523D02*
X103051428Y-84485238D01*
X104200476Y-83759523D02*
X104986666Y-83759523D01*
X104563333Y-84243333D01*
X104744761Y-84243333D01*
X104865714Y-84303809D01*
X104926190Y-84364285D01*
X104986666Y-84485238D01*
X104986666Y-84787619D01*
X104926190Y-84908571D01*
X104865714Y-84969047D01*
X104744761Y-85029523D01*
X104381904Y-85029523D01*
X104260952Y-84969047D01*
X104200476Y-84908571D01*
X105410000Y-83759523D02*
X106196190Y-83759523D01*
X105772857Y-84243333D01*
X105954285Y-84243333D01*
X106075238Y-84303809D01*
X106135714Y-84364285D01*
X106196190Y-84485238D01*
X106196190Y-84787619D01*
X106135714Y-84908571D01*
X106075238Y-84969047D01*
X105954285Y-85029523D01*
X105591428Y-85029523D01*
X105470476Y-84969047D01*
X105410000Y-84908571D01*
%TO.C,U3*%
X163449095Y-84542380D02*
X163449095Y-85351904D01*
X163496714Y-85447142D01*
X163544333Y-85494761D01*
X163639571Y-85542380D01*
X163830047Y-85542380D01*
X163925285Y-85494761D01*
X163972904Y-85447142D01*
X164020523Y-85351904D01*
X164020523Y-84542380D01*
X164401476Y-84542380D02*
X165020523Y-84542380D01*
X164687190Y-84923333D01*
X164830047Y-84923333D01*
X164925285Y-84970952D01*
X164972904Y-85018571D01*
X165020523Y-85113809D01*
X165020523Y-85351904D01*
X164972904Y-85447142D01*
X164925285Y-85494761D01*
X164830047Y-85542380D01*
X164544333Y-85542380D01*
X164449095Y-85494761D01*
X164401476Y-85447142D01*
%TO.C,R30*%
X79367142Y-79277380D02*
X79033809Y-78801190D01*
X78795714Y-79277380D02*
X78795714Y-78277380D01*
X79176666Y-78277380D01*
X79271904Y-78325000D01*
X79319523Y-78372619D01*
X79367142Y-78467857D01*
X79367142Y-78610714D01*
X79319523Y-78705952D01*
X79271904Y-78753571D01*
X79176666Y-78801190D01*
X78795714Y-78801190D01*
X79700476Y-78277380D02*
X80319523Y-78277380D01*
X79986190Y-78658333D01*
X80129047Y-78658333D01*
X80224285Y-78705952D01*
X80271904Y-78753571D01*
X80319523Y-78848809D01*
X80319523Y-79086904D01*
X80271904Y-79182142D01*
X80224285Y-79229761D01*
X80129047Y-79277380D01*
X79843333Y-79277380D01*
X79748095Y-79229761D01*
X79700476Y-79182142D01*
X80938571Y-78277380D02*
X81033809Y-78277380D01*
X81129047Y-78325000D01*
X81176666Y-78372619D01*
X81224285Y-78467857D01*
X81271904Y-78658333D01*
X81271904Y-78896428D01*
X81224285Y-79086904D01*
X81176666Y-79182142D01*
X81129047Y-79229761D01*
X81033809Y-79277380D01*
X80938571Y-79277380D01*
X80843333Y-79229761D01*
X80795714Y-79182142D01*
X80748095Y-79086904D01*
X80700476Y-78896428D01*
X80700476Y-78658333D01*
X80748095Y-78467857D01*
X80795714Y-78372619D01*
X80843333Y-78325000D01*
X80938571Y-78277380D01*
%TO.C,R29*%
X79367142Y-65307380D02*
X79033809Y-64831190D01*
X78795714Y-65307380D02*
X78795714Y-64307380D01*
X79176666Y-64307380D01*
X79271904Y-64355000D01*
X79319523Y-64402619D01*
X79367142Y-64497857D01*
X79367142Y-64640714D01*
X79319523Y-64735952D01*
X79271904Y-64783571D01*
X79176666Y-64831190D01*
X78795714Y-64831190D01*
X79748095Y-64402619D02*
X79795714Y-64355000D01*
X79890952Y-64307380D01*
X80129047Y-64307380D01*
X80224285Y-64355000D01*
X80271904Y-64402619D01*
X80319523Y-64497857D01*
X80319523Y-64593095D01*
X80271904Y-64735952D01*
X79700476Y-65307380D01*
X80319523Y-65307380D01*
X80795714Y-65307380D02*
X80986190Y-65307380D01*
X81081428Y-65259761D01*
X81129047Y-65212142D01*
X81224285Y-65069285D01*
X81271904Y-64878809D01*
X81271904Y-64497857D01*
X81224285Y-64402619D01*
X81176666Y-64355000D01*
X81081428Y-64307380D01*
X80890952Y-64307380D01*
X80795714Y-64355000D01*
X80748095Y-64402619D01*
X80700476Y-64497857D01*
X80700476Y-64735952D01*
X80748095Y-64831190D01*
X80795714Y-64878809D01*
X80890952Y-64926428D01*
X81081428Y-64926428D01*
X81176666Y-64878809D01*
X81224285Y-64831190D01*
X81271904Y-64735952D01*
%TO.C,R28*%
X79367142Y-51337380D02*
X79033809Y-50861190D01*
X78795714Y-51337380D02*
X78795714Y-50337380D01*
X79176666Y-50337380D01*
X79271904Y-50385000D01*
X79319523Y-50432619D01*
X79367142Y-50527857D01*
X79367142Y-50670714D01*
X79319523Y-50765952D01*
X79271904Y-50813571D01*
X79176666Y-50861190D01*
X78795714Y-50861190D01*
X79748095Y-50432619D02*
X79795714Y-50385000D01*
X79890952Y-50337380D01*
X80129047Y-50337380D01*
X80224285Y-50385000D01*
X80271904Y-50432619D01*
X80319523Y-50527857D01*
X80319523Y-50623095D01*
X80271904Y-50765952D01*
X79700476Y-51337380D01*
X80319523Y-51337380D01*
X80890952Y-50765952D02*
X80795714Y-50718333D01*
X80748095Y-50670714D01*
X80700476Y-50575476D01*
X80700476Y-50527857D01*
X80748095Y-50432619D01*
X80795714Y-50385000D01*
X80890952Y-50337380D01*
X81081428Y-50337380D01*
X81176666Y-50385000D01*
X81224285Y-50432619D01*
X81271904Y-50527857D01*
X81271904Y-50575476D01*
X81224285Y-50670714D01*
X81176666Y-50718333D01*
X81081428Y-50765952D01*
X80890952Y-50765952D01*
X80795714Y-50813571D01*
X80748095Y-50861190D01*
X80700476Y-50956428D01*
X80700476Y-51146904D01*
X80748095Y-51242142D01*
X80795714Y-51289761D01*
X80890952Y-51337380D01*
X81081428Y-51337380D01*
X81176666Y-51289761D01*
X81224285Y-51242142D01*
X81271904Y-51146904D01*
X81271904Y-50956428D01*
X81224285Y-50861190D01*
X81176666Y-50813571D01*
X81081428Y-50765952D01*
%TO.C,R8*%
X122922380Y-87161666D02*
X122446190Y-87495000D01*
X122922380Y-87733095D02*
X121922380Y-87733095D01*
X121922380Y-87352142D01*
X121970000Y-87256904D01*
X122017619Y-87209285D01*
X122112857Y-87161666D01*
X122255714Y-87161666D01*
X122350952Y-87209285D01*
X122398571Y-87256904D01*
X122446190Y-87352142D01*
X122446190Y-87733095D01*
X122350952Y-86590238D02*
X122303333Y-86685476D01*
X122255714Y-86733095D01*
X122160476Y-86780714D01*
X122112857Y-86780714D01*
X122017619Y-86733095D01*
X121970000Y-86685476D01*
X121922380Y-86590238D01*
X121922380Y-86399761D01*
X121970000Y-86304523D01*
X122017619Y-86256904D01*
X122112857Y-86209285D01*
X122160476Y-86209285D01*
X122255714Y-86256904D01*
X122303333Y-86304523D01*
X122350952Y-86399761D01*
X122350952Y-86590238D01*
X122398571Y-86685476D01*
X122446190Y-86733095D01*
X122541428Y-86780714D01*
X122731904Y-86780714D01*
X122827142Y-86733095D01*
X122874761Y-86685476D01*
X122922380Y-86590238D01*
X122922380Y-86399761D01*
X122874761Y-86304523D01*
X122827142Y-86256904D01*
X122731904Y-86209285D01*
X122541428Y-86209285D01*
X122446190Y-86256904D01*
X122398571Y-86304523D01*
X122350952Y-86399761D01*
%TO.C,R7*%
X119112380Y-87161666D02*
X118636190Y-87495000D01*
X119112380Y-87733095D02*
X118112380Y-87733095D01*
X118112380Y-87352142D01*
X118160000Y-87256904D01*
X118207619Y-87209285D01*
X118302857Y-87161666D01*
X118445714Y-87161666D01*
X118540952Y-87209285D01*
X118588571Y-87256904D01*
X118636190Y-87352142D01*
X118636190Y-87733095D01*
X118112380Y-86828333D02*
X118112380Y-86161666D01*
X119112380Y-86590238D01*
%TO.C,R6*%
X191672380Y-75096666D02*
X191196190Y-75430000D01*
X191672380Y-75668095D02*
X190672380Y-75668095D01*
X190672380Y-75287142D01*
X190720000Y-75191904D01*
X190767619Y-75144285D01*
X190862857Y-75096666D01*
X191005714Y-75096666D01*
X191100952Y-75144285D01*
X191148571Y-75191904D01*
X191196190Y-75287142D01*
X191196190Y-75668095D01*
X190672380Y-74239523D02*
X190672380Y-74430000D01*
X190720000Y-74525238D01*
X190767619Y-74572857D01*
X190910476Y-74668095D01*
X191100952Y-74715714D01*
X191481904Y-74715714D01*
X191577142Y-74668095D01*
X191624761Y-74620476D01*
X191672380Y-74525238D01*
X191672380Y-74334761D01*
X191624761Y-74239523D01*
X191577142Y-74191904D01*
X191481904Y-74144285D01*
X191243809Y-74144285D01*
X191148571Y-74191904D01*
X191100952Y-74239523D01*
X191053333Y-74334761D01*
X191053333Y-74525238D01*
X191100952Y-74620476D01*
X191148571Y-74668095D01*
X191243809Y-74715714D01*
%TO.C,R5*%
X190740380Y-102681666D02*
X190264190Y-103015000D01*
X190740380Y-103253095D02*
X189740380Y-103253095D01*
X189740380Y-102872142D01*
X189788000Y-102776904D01*
X189835619Y-102729285D01*
X189930857Y-102681666D01*
X190073714Y-102681666D01*
X190168952Y-102729285D01*
X190216571Y-102776904D01*
X190264190Y-102872142D01*
X190264190Y-103253095D01*
X189740380Y-101776904D02*
X189740380Y-102253095D01*
X190216571Y-102300714D01*
X190168952Y-102253095D01*
X190121333Y-102157857D01*
X190121333Y-101919761D01*
X190168952Y-101824523D01*
X190216571Y-101776904D01*
X190311809Y-101729285D01*
X190549904Y-101729285D01*
X190645142Y-101776904D01*
X190692761Y-101824523D01*
X190740380Y-101919761D01*
X190740380Y-102157857D01*
X190692761Y-102253095D01*
X190645142Y-102300714D01*
%TO.C,R4*%
X159837380Y-97041666D02*
X159361190Y-97375000D01*
X159837380Y-97613095D02*
X158837380Y-97613095D01*
X158837380Y-97232142D01*
X158885000Y-97136904D01*
X158932619Y-97089285D01*
X159027857Y-97041666D01*
X159170714Y-97041666D01*
X159265952Y-97089285D01*
X159313571Y-97136904D01*
X159361190Y-97232142D01*
X159361190Y-97613095D01*
X159170714Y-96184523D02*
X159837380Y-96184523D01*
X158789761Y-96422619D02*
X159504047Y-96660714D01*
X159504047Y-96041666D01*
%TO.C,R3*%
X169023380Y-97041666D02*
X168547190Y-97375000D01*
X169023380Y-97613095D02*
X168023380Y-97613095D01*
X168023380Y-97232142D01*
X168071000Y-97136904D01*
X168118619Y-97089285D01*
X168213857Y-97041666D01*
X168356714Y-97041666D01*
X168451952Y-97089285D01*
X168499571Y-97136904D01*
X168547190Y-97232142D01*
X168547190Y-97613095D01*
X168023380Y-96708333D02*
X168023380Y-96089285D01*
X168404333Y-96422619D01*
X168404333Y-96279761D01*
X168451952Y-96184523D01*
X168499571Y-96136904D01*
X168594809Y-96089285D01*
X168832904Y-96089285D01*
X168928142Y-96136904D01*
X168975761Y-96184523D01*
X169023380Y-96279761D01*
X169023380Y-96565476D01*
X168975761Y-96660714D01*
X168928142Y-96708333D01*
%TO.C,R2*%
X172019333Y-101417380D02*
X171686000Y-100941190D01*
X171447904Y-101417380D02*
X171447904Y-100417380D01*
X171828857Y-100417380D01*
X171924095Y-100465000D01*
X171971714Y-100512619D01*
X172019333Y-100607857D01*
X172019333Y-100750714D01*
X171971714Y-100845952D01*
X171924095Y-100893571D01*
X171828857Y-100941190D01*
X171447904Y-100941190D01*
X172400285Y-100512619D02*
X172447904Y-100465000D01*
X172543142Y-100417380D01*
X172781238Y-100417380D01*
X172876476Y-100465000D01*
X172924095Y-100512619D01*
X172971714Y-100607857D01*
X172971714Y-100703095D01*
X172924095Y-100845952D01*
X172352666Y-101417380D01*
X172971714Y-101417380D01*
%TO.C,R1*%
X200493333Y-49982380D02*
X200160000Y-49506190D01*
X199921904Y-49982380D02*
X199921904Y-48982380D01*
X200302857Y-48982380D01*
X200398095Y-49030000D01*
X200445714Y-49077619D01*
X200493333Y-49172857D01*
X200493333Y-49315714D01*
X200445714Y-49410952D01*
X200398095Y-49458571D01*
X200302857Y-49506190D01*
X199921904Y-49506190D01*
X201445714Y-49982380D02*
X200874285Y-49982380D01*
X201160000Y-49982380D02*
X201160000Y-48982380D01*
X201064761Y-49125238D01*
X200969523Y-49220476D01*
X200874285Y-49268095D01*
%TO.C,J5*%
X222972380Y-76533333D02*
X223686666Y-76533333D01*
X223829523Y-76580952D01*
X223924761Y-76676190D01*
X223972380Y-76819047D01*
X223972380Y-76914285D01*
X222972380Y-75580952D02*
X222972380Y-76057142D01*
X223448571Y-76104761D01*
X223400952Y-76057142D01*
X223353333Y-75961904D01*
X223353333Y-75723809D01*
X223400952Y-75628571D01*
X223448571Y-75580952D01*
X223543809Y-75533333D01*
X223781904Y-75533333D01*
X223877142Y-75580952D01*
X223924761Y-75628571D01*
X223972380Y-75723809D01*
X223972380Y-75961904D01*
X223924761Y-76057142D01*
X223877142Y-76104761D01*
%TO.C,J3*%
X157146666Y-108672380D02*
X157146666Y-109386666D01*
X157099047Y-109529523D01*
X157003809Y-109624761D01*
X156860952Y-109672380D01*
X156765714Y-109672380D01*
X157527619Y-108672380D02*
X158146666Y-108672380D01*
X157813333Y-109053333D01*
X157956190Y-109053333D01*
X158051428Y-109100952D01*
X158099047Y-109148571D01*
X158146666Y-109243809D01*
X158146666Y-109481904D01*
X158099047Y-109577142D01*
X158051428Y-109624761D01*
X157956190Y-109672380D01*
X157670476Y-109672380D01*
X157575238Y-109624761D01*
X157527619Y-109577142D01*
%TO.C,FB1*%
X193111666Y-62413571D02*
X192778333Y-62413571D01*
X192778333Y-62937380D02*
X192778333Y-61937380D01*
X193254523Y-61937380D01*
X193968809Y-62413571D02*
X194111666Y-62461190D01*
X194159285Y-62508809D01*
X194206904Y-62604047D01*
X194206904Y-62746904D01*
X194159285Y-62842142D01*
X194111666Y-62889761D01*
X194016428Y-62937380D01*
X193635476Y-62937380D01*
X193635476Y-61937380D01*
X193968809Y-61937380D01*
X194064047Y-61985000D01*
X194111666Y-62032619D01*
X194159285Y-62127857D01*
X194159285Y-62223095D01*
X194111666Y-62318333D01*
X194064047Y-62365952D01*
X193968809Y-62413571D01*
X193635476Y-62413571D01*
X195159285Y-62937380D02*
X194587857Y-62937380D01*
X194873571Y-62937380D02*
X194873571Y-61937380D01*
X194778333Y-62080238D01*
X194683095Y-62175476D01*
X194587857Y-62223095D01*
%TO.C,D4*%
X204802380Y-62333095D02*
X203802380Y-62333095D01*
X203802380Y-62095000D01*
X203850000Y-61952142D01*
X203945238Y-61856904D01*
X204040476Y-61809285D01*
X204230952Y-61761666D01*
X204373809Y-61761666D01*
X204564285Y-61809285D01*
X204659523Y-61856904D01*
X204754761Y-61952142D01*
X204802380Y-62095000D01*
X204802380Y-62333095D01*
X204135714Y-60904523D02*
X204802380Y-60904523D01*
X203754761Y-61142619D02*
X204469047Y-61380714D01*
X204469047Y-60761666D01*
X204382380Y-59316904D02*
X203382380Y-59316904D01*
X204382380Y-58745476D02*
X203810952Y-59174047D01*
X203382380Y-58745476D02*
X203953809Y-59316904D01*
%TO.C,D1*%
X198952380Y-75668095D02*
X197952380Y-75668095D01*
X197952380Y-75430000D01*
X198000000Y-75287142D01*
X198095238Y-75191904D01*
X198190476Y-75144285D01*
X198380952Y-75096666D01*
X198523809Y-75096666D01*
X198714285Y-75144285D01*
X198809523Y-75191904D01*
X198904761Y-75287142D01*
X198952380Y-75430000D01*
X198952380Y-75668095D01*
X198952380Y-74144285D02*
X198952380Y-74715714D01*
X198952380Y-74430000D02*
X197952380Y-74430000D01*
X198095238Y-74525238D01*
X198190476Y-74620476D01*
X198238095Y-74715714D01*
%TO.C,C12*%
X176014142Y-103198142D02*
X175966523Y-103245761D01*
X175823666Y-103293380D01*
X175728428Y-103293380D01*
X175585571Y-103245761D01*
X175490333Y-103150523D01*
X175442714Y-103055285D01*
X175395095Y-102864809D01*
X175395095Y-102721952D01*
X175442714Y-102531476D01*
X175490333Y-102436238D01*
X175585571Y-102341000D01*
X175728428Y-102293380D01*
X175823666Y-102293380D01*
X175966523Y-102341000D01*
X176014142Y-102388619D01*
X176966523Y-103293380D02*
X176395095Y-103293380D01*
X176680809Y-103293380D02*
X176680809Y-102293380D01*
X176585571Y-102436238D01*
X176490333Y-102531476D01*
X176395095Y-102579095D01*
X177347476Y-102388619D02*
X177395095Y-102341000D01*
X177490333Y-102293380D01*
X177728428Y-102293380D01*
X177823666Y-102341000D01*
X177871285Y-102388619D01*
X177918904Y-102483857D01*
X177918904Y-102579095D01*
X177871285Y-102721952D01*
X177299857Y-103293380D01*
X177918904Y-103293380D01*
%TO.C,C11*%
X112752142Y-85097857D02*
X112799761Y-85145476D01*
X112847380Y-85288333D01*
X112847380Y-85383571D01*
X112799761Y-85526428D01*
X112704523Y-85621666D01*
X112609285Y-85669285D01*
X112418809Y-85716904D01*
X112275952Y-85716904D01*
X112085476Y-85669285D01*
X111990238Y-85621666D01*
X111895000Y-85526428D01*
X111847380Y-85383571D01*
X111847380Y-85288333D01*
X111895000Y-85145476D01*
X111942619Y-85097857D01*
X112847380Y-84145476D02*
X112847380Y-84716904D01*
X112847380Y-84431190D02*
X111847380Y-84431190D01*
X111990238Y-84526428D01*
X112085476Y-84621666D01*
X112133095Y-84716904D01*
X112847380Y-83193095D02*
X112847380Y-83764523D01*
X112847380Y-83478809D02*
X111847380Y-83478809D01*
X111990238Y-83574047D01*
X112085476Y-83669285D01*
X112133095Y-83764523D01*
%TO.C,C10*%
X158720642Y-94112142D02*
X158673023Y-94159761D01*
X158530166Y-94207380D01*
X158434928Y-94207380D01*
X158292071Y-94159761D01*
X158196833Y-94064523D01*
X158149214Y-93969285D01*
X158101595Y-93778809D01*
X158101595Y-93635952D01*
X158149214Y-93445476D01*
X158196833Y-93350238D01*
X158292071Y-93255000D01*
X158434928Y-93207380D01*
X158530166Y-93207380D01*
X158673023Y-93255000D01*
X158720642Y-93302619D01*
X159673023Y-94207380D02*
X159101595Y-94207380D01*
X159387309Y-94207380D02*
X159387309Y-93207380D01*
X159292071Y-93350238D01*
X159196833Y-93445476D01*
X159101595Y-93493095D01*
X160292071Y-93207380D02*
X160387309Y-93207380D01*
X160482547Y-93255000D01*
X160530166Y-93302619D01*
X160577785Y-93397857D01*
X160625404Y-93588333D01*
X160625404Y-93826428D01*
X160577785Y-94016904D01*
X160530166Y-94112142D01*
X160482547Y-94159761D01*
X160387309Y-94207380D01*
X160292071Y-94207380D01*
X160196833Y-94159761D01*
X160149214Y-94112142D01*
X160101595Y-94016904D01*
X160053976Y-93826428D01*
X160053976Y-93588333D01*
X160101595Y-93397857D01*
X160149214Y-93302619D01*
X160196833Y-93255000D01*
X160292071Y-93207380D01*
%TO.C,C9*%
X164276833Y-94112142D02*
X164229214Y-94159761D01*
X164086357Y-94207380D01*
X163991119Y-94207380D01*
X163848261Y-94159761D01*
X163753023Y-94064523D01*
X163705404Y-93969285D01*
X163657785Y-93778809D01*
X163657785Y-93635952D01*
X163705404Y-93445476D01*
X163753023Y-93350238D01*
X163848261Y-93255000D01*
X163991119Y-93207380D01*
X164086357Y-93207380D01*
X164229214Y-93255000D01*
X164276833Y-93302619D01*
X164753023Y-94207380D02*
X164943500Y-94207380D01*
X165038738Y-94159761D01*
X165086357Y-94112142D01*
X165181595Y-93969285D01*
X165229214Y-93778809D01*
X165229214Y-93397857D01*
X165181595Y-93302619D01*
X165133976Y-93255000D01*
X165038738Y-93207380D01*
X164848261Y-93207380D01*
X164753023Y-93255000D01*
X164705404Y-93302619D01*
X164657785Y-93397857D01*
X164657785Y-93635952D01*
X164705404Y-93731190D01*
X164753023Y-93778809D01*
X164848261Y-93826428D01*
X165038738Y-93826428D01*
X165133976Y-93778809D01*
X165181595Y-93731190D01*
X165229214Y-93635952D01*
%TO.C,C8*%
X169124333Y-94112142D02*
X169076714Y-94159761D01*
X168933857Y-94207380D01*
X168838619Y-94207380D01*
X168695761Y-94159761D01*
X168600523Y-94064523D01*
X168552904Y-93969285D01*
X168505285Y-93778809D01*
X168505285Y-93635952D01*
X168552904Y-93445476D01*
X168600523Y-93350238D01*
X168695761Y-93255000D01*
X168838619Y-93207380D01*
X168933857Y-93207380D01*
X169076714Y-93255000D01*
X169124333Y-93302619D01*
X169695761Y-93635952D02*
X169600523Y-93588333D01*
X169552904Y-93540714D01*
X169505285Y-93445476D01*
X169505285Y-93397857D01*
X169552904Y-93302619D01*
X169600523Y-93255000D01*
X169695761Y-93207380D01*
X169886238Y-93207380D01*
X169981476Y-93255000D01*
X170029095Y-93302619D01*
X170076714Y-93397857D01*
X170076714Y-93445476D01*
X170029095Y-93540714D01*
X169981476Y-93588333D01*
X169886238Y-93635952D01*
X169695761Y-93635952D01*
X169600523Y-93683571D01*
X169552904Y-93731190D01*
X169505285Y-93826428D01*
X169505285Y-94016904D01*
X169552904Y-94112142D01*
X169600523Y-94159761D01*
X169695761Y-94207380D01*
X169886238Y-94207380D01*
X169981476Y-94159761D01*
X170029095Y-94112142D01*
X170076714Y-94016904D01*
X170076714Y-93826428D01*
X170029095Y-93731190D01*
X169981476Y-93683571D01*
X169886238Y-93635952D01*
%TO.C,C7*%
X167473333Y-80367142D02*
X167425714Y-80414761D01*
X167282857Y-80462380D01*
X167187619Y-80462380D01*
X167044761Y-80414761D01*
X166949523Y-80319523D01*
X166901904Y-80224285D01*
X166854285Y-80033809D01*
X166854285Y-79890952D01*
X166901904Y-79700476D01*
X166949523Y-79605238D01*
X167044761Y-79510000D01*
X167187619Y-79462380D01*
X167282857Y-79462380D01*
X167425714Y-79510000D01*
X167473333Y-79557619D01*
X167806666Y-79462380D02*
X168473333Y-79462380D01*
X168044761Y-80462380D01*
%TO.C,C6*%
X167473333Y-83542142D02*
X167425714Y-83589761D01*
X167282857Y-83637380D01*
X167187619Y-83637380D01*
X167044761Y-83589761D01*
X166949523Y-83494523D01*
X166901904Y-83399285D01*
X166854285Y-83208809D01*
X166854285Y-83065952D01*
X166901904Y-82875476D01*
X166949523Y-82780238D01*
X167044761Y-82685000D01*
X167187619Y-82637380D01*
X167282857Y-82637380D01*
X167425714Y-82685000D01*
X167473333Y-82732619D01*
X168330476Y-82637380D02*
X168140000Y-82637380D01*
X168044761Y-82685000D01*
X167997142Y-82732619D01*
X167901904Y-82875476D01*
X167854285Y-83065952D01*
X167854285Y-83446904D01*
X167901904Y-83542142D01*
X167949523Y-83589761D01*
X168044761Y-83637380D01*
X168235238Y-83637380D01*
X168330476Y-83589761D01*
X168378095Y-83542142D01*
X168425714Y-83446904D01*
X168425714Y-83208809D01*
X168378095Y-83113571D01*
X168330476Y-83065952D01*
X168235238Y-83018333D01*
X168044761Y-83018333D01*
X167949523Y-83065952D01*
X167901904Y-83113571D01*
X167854285Y-83208809D01*
%TO.C,C4*%
X199112142Y-68111666D02*
X199159761Y-68159285D01*
X199207380Y-68302142D01*
X199207380Y-68397380D01*
X199159761Y-68540238D01*
X199064523Y-68635476D01*
X198969285Y-68683095D01*
X198778809Y-68730714D01*
X198635952Y-68730714D01*
X198445476Y-68683095D01*
X198350238Y-68635476D01*
X198255000Y-68540238D01*
X198207380Y-68397380D01*
X198207380Y-68302142D01*
X198255000Y-68159285D01*
X198302619Y-68111666D01*
X198540714Y-67254523D02*
X199207380Y-67254523D01*
X198159761Y-67492619D02*
X198874047Y-67730714D01*
X198874047Y-67111666D01*
%TO.C,C3*%
X195302142Y-60259166D02*
X195349761Y-60306785D01*
X195397380Y-60449642D01*
X195397380Y-60544880D01*
X195349761Y-60687738D01*
X195254523Y-60782976D01*
X195159285Y-60830595D01*
X194968809Y-60878214D01*
X194825952Y-60878214D01*
X194635476Y-60830595D01*
X194540238Y-60782976D01*
X194445000Y-60687738D01*
X194397380Y-60544880D01*
X194397380Y-60449642D01*
X194445000Y-60306785D01*
X194492619Y-60259166D01*
X194397380Y-59925833D02*
X194397380Y-59306785D01*
X194778333Y-59640119D01*
X194778333Y-59497261D01*
X194825952Y-59402023D01*
X194873571Y-59354404D01*
X194968809Y-59306785D01*
X195206904Y-59306785D01*
X195302142Y-59354404D01*
X195349761Y-59402023D01*
X195397380Y-59497261D01*
X195397380Y-59782976D01*
X195349761Y-59878214D01*
X195302142Y-59925833D01*
%TO.C,C2*%
X180173333Y-81002142D02*
X180125714Y-81049761D01*
X179982857Y-81097380D01*
X179887619Y-81097380D01*
X179744761Y-81049761D01*
X179649523Y-80954523D01*
X179601904Y-80859285D01*
X179554285Y-80668809D01*
X179554285Y-80525952D01*
X179601904Y-80335476D01*
X179649523Y-80240238D01*
X179744761Y-80145000D01*
X179887619Y-80097380D01*
X179982857Y-80097380D01*
X180125714Y-80145000D01*
X180173333Y-80192619D01*
X180554285Y-80192619D02*
X180601904Y-80145000D01*
X180697142Y-80097380D01*
X180935238Y-80097380D01*
X181030476Y-80145000D01*
X181078095Y-80192619D01*
X181125714Y-80287857D01*
X181125714Y-80383095D01*
X181078095Y-80525952D01*
X180506666Y-81097380D01*
X181125714Y-81097380D01*
%TO.C,C1*%
X180173333Y-84177142D02*
X180125714Y-84224761D01*
X179982857Y-84272380D01*
X179887619Y-84272380D01*
X179744761Y-84224761D01*
X179649523Y-84129523D01*
X179601904Y-84034285D01*
X179554285Y-83843809D01*
X179554285Y-83700952D01*
X179601904Y-83510476D01*
X179649523Y-83415238D01*
X179744761Y-83320000D01*
X179887619Y-83272380D01*
X179982857Y-83272380D01*
X180125714Y-83320000D01*
X180173333Y-83367619D01*
X181125714Y-84272380D02*
X180554285Y-84272380D01*
X180840000Y-84272380D02*
X180840000Y-83272380D01*
X180744761Y-83415238D01*
X180649523Y-83510476D01*
X180554285Y-83558095D01*
%TD*%
M02*
