%TF.GenerationSoftware,KiCad,Pcbnew,(5.1.9)-1*%
%TF.CreationDate,2021-10-09T09:33:42-04:00*%
%TF.ProjectId,Control Board,436f6e74-726f-46c2-9042-6f6172642e6b,rev?*%
%TF.SameCoordinates,Original*%
%TF.FileFunction,Copper,L2,Bot*%
%TF.FilePolarity,Positive*%
%FSLAX46Y46*%
G04 Gerber Fmt 4.6, Leading zero omitted, Abs format (unit mm)*
G04 Created by KiCad (PCBNEW (5.1.9)-1) date 2021-10-09 09:33:42*
%MOMM*%
%LPD*%
G01*
G04 APERTURE LIST*
%TA.AperFunction,ComponentPad*%
%ADD10C,2.000000*%
%TD*%
%TA.AperFunction,ComponentPad*%
%ADD11O,2.000000X2.000000*%
%TD*%
%TA.AperFunction,ComponentPad*%
%ADD12R,2.000000X2.000000*%
%TD*%
%TA.AperFunction,ComponentPad*%
%ADD13O,1.700000X1.700000*%
%TD*%
%TA.AperFunction,ComponentPad*%
%ADD14R,1.700000X1.700000*%
%TD*%
%TA.AperFunction,ComponentPad*%
%ADD15C,3.000000*%
%TD*%
%TA.AperFunction,SMDPad,CuDef*%
%ADD16R,1.500000X2.800000*%
%TD*%
%TA.AperFunction,SMDPad,CuDef*%
%ADD17R,0.700000X1.500000*%
%TD*%
%TA.AperFunction,SMDPad,CuDef*%
%ADD18R,1.000000X1.500000*%
%TD*%
%TA.AperFunction,ComponentPad*%
%ADD19C,2.300000*%
%TD*%
%TA.AperFunction,ViaPad*%
%ADD20C,1.000000*%
%TD*%
%TA.AperFunction,ViaPad*%
%ADD21C,0.800000*%
%TD*%
%TA.AperFunction,Conductor*%
%ADD22C,0.508000*%
%TD*%
%TA.AperFunction,Conductor*%
%ADD23C,0.381000*%
%TD*%
%TA.AperFunction,Conductor*%
%ADD24C,1.016000*%
%TD*%
%TA.AperFunction,Conductor*%
%ADD25C,0.254000*%
%TD*%
%TA.AperFunction,Conductor*%
%ADD26C,0.100000*%
%TD*%
G04 APERTURE END LIST*
D10*
%TO.P,SW2,1*%
%TO.N,Net-(R29-Pad1)*%
X77470000Y-69700000D03*
%TO.P,SW2,2*%
%TO.N,Net-(D3-Pad1)*%
X72970000Y-69700000D03*
%TO.P,SW2,1*%
%TO.N,Net-(R29-Pad1)*%
X77470000Y-76200000D03*
%TO.P,SW2,2*%
%TO.N,Net-(D3-Pad1)*%
X72970000Y-76200000D03*
%TD*%
D11*
%TO.P,D6,2*%
%TO.N,GND*%
X204470000Y-92710000D03*
D12*
%TO.P,D6,1*%
%TO.N,Net-(D6-Pad1)*%
X209550000Y-92710000D03*
%TD*%
D11*
%TO.P,D5,2*%
%TO.N,Net-(D5-Pad2)*%
X133985000Y-106045000D03*
D12*
%TO.P,D5,1*%
%TO.N,+5V*%
X133985000Y-111125000D03*
%TD*%
D13*
%TO.P,J6,2*%
%TO.N,+5V*%
X128905000Y-108585000D03*
D14*
%TO.P,J6,1*%
%TO.N,Net-(D5-Pad2)*%
X128905000Y-106045000D03*
%TD*%
D10*
%TO.P,DS3,12*%
%TO.N,/COM3*%
X97790000Y-68580000D03*
%TO.P,DS3,11*%
%TO.N,/A2*%
X100330000Y-68580000D03*
%TO.P,DS3,10*%
%TO.N,/F2*%
X102870000Y-68580000D03*
%TO.P,DS3,9*%
%TO.N,/COM2*%
X105410000Y-68580000D03*
%TO.P,DS3,8*%
%TO.N,/COM1*%
X107950000Y-68580000D03*
%TO.P,DS3,7*%
%TO.N,/B2*%
X110490000Y-68580000D03*
%TO.P,DS3,6*%
%TO.N,N/C*%
X110490000Y-53340000D03*
%TO.P,DS3,5*%
%TO.N,/G2*%
X107950000Y-53340000D03*
%TO.P,DS3,4*%
%TO.N,/C2*%
X105410000Y-53340000D03*
%TO.P,DS3,3*%
%TO.N,N/C*%
X102870000Y-53340000D03*
%TO.P,DS3,2*%
%TO.N,/D2*%
X100330000Y-53340000D03*
D12*
%TO.P,DS3,1*%
%TO.N,/E2*%
X97790000Y-53340000D03*
%TD*%
D10*
%TO.P,SW3,1*%
%TO.N,Net-(R30-Pad1)*%
X77470000Y-83670000D03*
%TO.P,SW3,2*%
%TO.N,Net-(D3-Pad1)*%
X72970000Y-83670000D03*
%TO.P,SW3,1*%
%TO.N,Net-(R30-Pad1)*%
X77470000Y-90170000D03*
%TO.P,SW3,2*%
%TO.N,Net-(D3-Pad1)*%
X72970000Y-90170000D03*
%TD*%
%TO.P,SW1,1*%
%TO.N,Net-(R28-Pad1)*%
X77470000Y-55730000D03*
%TO.P,SW1,2*%
%TO.N,Net-(D3-Pad1)*%
X72970000Y-55730000D03*
%TO.P,SW1,1*%
%TO.N,Net-(R28-Pad1)*%
X77470000Y-62230000D03*
%TO.P,SW1,2*%
%TO.N,Net-(D3-Pad1)*%
X72970000Y-62230000D03*
%TD*%
D13*
%TO.P,RV1,3*%
%TO.N,GND*%
X177927000Y-108331000D03*
%TO.P,RV1,2*%
%TO.N,/TempCtrl*%
X175387000Y-108331000D03*
D14*
%TO.P,RV1,1*%
%TO.N,+3V3*%
X172847000Y-108331000D03*
%TD*%
D13*
%TO.P,J7,3*%
%TO.N,GND*%
X185928000Y-108585000D03*
%TO.P,J7,2*%
%TO.N,Net-(J7-Pad2)*%
X188468000Y-108585000D03*
D14*
%TO.P,J7,1*%
%TO.N,+3V3*%
X191008000Y-108585000D03*
%TD*%
D15*
%TO.P,J5,4*%
%TO.N,VCC*%
X232410000Y-90495000D03*
%TO.P,J5,3*%
X232410000Y-80965000D03*
%TO.P,J5,2*%
%TO.N,GND*%
X232410000Y-71435000D03*
%TO.P,J5,1*%
%TO.N,/H-*%
X232410000Y-61905000D03*
%TD*%
D16*
%TO.P,J4,12*%
%TO.N,GND*%
X173040000Y-69865000D03*
X173040000Y-48365000D03*
X200340000Y-48365000D03*
X198140000Y-69865000D03*
D17*
%TO.P,J4,11*%
%TO.N,N/C*%
X174435000Y-71665000D03*
%TO.P,J4,10*%
%TO.N,/SDDet*%
X175635000Y-71665000D03*
D18*
%TO.P,J4,9*%
%TO.N,N/C*%
X196065000Y-71665000D03*
%TO.P,J4,8*%
X176935000Y-71665000D03*
%TO.P,J4,7*%
%TO.N,/MISO*%
X178635000Y-71665000D03*
%TO.P,J4,6*%
%TO.N,GND*%
X181065000Y-71665000D03*
%TO.P,J4,5*%
%TO.N,/SCK*%
X183565000Y-71665000D03*
%TO.P,J4,4*%
%TO.N,+3V3*%
X186065000Y-71665000D03*
%TO.P,J4,3*%
%TO.N,GND*%
X188565000Y-71665000D03*
%TO.P,J4,2*%
%TO.N,/MOSI*%
X191065000Y-71665000D03*
%TO.P,J4,1*%
%TO.N,/SS*%
X193565000Y-71665000D03*
%TD*%
D19*
%TO.P,J3,2*%
%TO.N,Net-(J3-Pad2)*%
X166370000Y-109220000D03*
%TO.P,J3,1*%
%TO.N,Net-(J3-Pad1)*%
X161290000Y-109220000D03*
%TD*%
D10*
%TO.P,DS2,12*%
%TO.N,/COM4*%
X140970000Y-91440000D03*
%TO.P,DS2,11*%
%TO.N,/A*%
X143510000Y-91440000D03*
%TO.P,DS2,10*%
%TO.N,/F*%
X146050000Y-91440000D03*
%TO.P,DS2,9*%
%TO.N,/COM5*%
X148590000Y-91440000D03*
%TO.P,DS2,8*%
%TO.N,/COM6*%
X151130000Y-91440000D03*
%TO.P,DS2,7*%
%TO.N,/B*%
X153670000Y-91440000D03*
%TO.P,DS2,6*%
%TO.N,N/C*%
X153670000Y-76200000D03*
%TO.P,DS2,5*%
%TO.N,/G*%
X151130000Y-76200000D03*
%TO.P,DS2,4*%
%TO.N,/C*%
X148590000Y-76200000D03*
%TO.P,DS2,3*%
%TO.N,N/C*%
X146050000Y-76200000D03*
%TO.P,DS2,2*%
%TO.N,/D*%
X143510000Y-76200000D03*
D12*
%TO.P,DS2,1*%
%TO.N,/E*%
X140970000Y-76200000D03*
%TD*%
D10*
%TO.P,DS1,12*%
%TO.N,/COM3*%
X140970000Y-68580000D03*
%TO.P,DS1,11*%
%TO.N,/A*%
X143510000Y-68580000D03*
%TO.P,DS1,10*%
%TO.N,/F*%
X146050000Y-68580000D03*
%TO.P,DS1,9*%
%TO.N,/COM2*%
X148590000Y-68580000D03*
%TO.P,DS1,8*%
%TO.N,/COM1*%
X151130000Y-68580000D03*
%TO.P,DS1,7*%
%TO.N,/B*%
X153670000Y-68580000D03*
%TO.P,DS1,6*%
%TO.N,N/C*%
X153670000Y-53340000D03*
%TO.P,DS1,5*%
%TO.N,/G*%
X151130000Y-53340000D03*
%TO.P,DS1,4*%
%TO.N,/C*%
X148590000Y-53340000D03*
%TO.P,DS1,3*%
%TO.N,N/C*%
X146050000Y-53340000D03*
%TO.P,DS1,2*%
%TO.N,/D*%
X143510000Y-53340000D03*
D12*
%TO.P,DS1,1*%
%TO.N,/E*%
X140970000Y-53340000D03*
%TD*%
D11*
%TO.P,D4,2*%
%TO.N,Net-(C4-Pad1)*%
X201930000Y-64135000D03*
D12*
%TO.P,D4,1*%
%TO.N,+5V*%
X201930000Y-59055000D03*
%TD*%
D20*
%TO.N,*%
X103505000Y-71755000D03*
%TO.N,GND*%
X132715000Y-75565000D03*
X146050000Y-59055000D03*
X98425000Y-75565000D03*
X106680000Y-74295000D03*
X95885000Y-60960000D03*
X106045000Y-58420000D03*
X106680000Y-85090000D03*
X119380000Y-81915000D03*
X120650000Y-92710000D03*
X177927000Y-102616000D03*
X164211000Y-102870000D03*
X219075000Y-63500000D03*
X216535000Y-66040000D03*
X205105000Y-72390000D03*
X205105000Y-81280000D03*
X198755000Y-96520000D03*
X198755000Y-91440000D03*
X212725000Y-95885000D03*
X212725000Y-100965000D03*
X203835000Y-85725000D03*
X201295000Y-88900000D03*
X205105000Y-53975000D03*
X200660000Y-66675000D03*
X198755000Y-72390000D03*
X198755000Y-77470000D03*
X192405000Y-78740000D03*
X195580000Y-102235000D03*
X186055000Y-102235000D03*
X186690000Y-82550000D03*
X172085000Y-92075000D03*
X158115000Y-94615000D03*
X165735000Y-78105000D03*
X146685000Y-101600000D03*
X156210000Y-100965000D03*
X184785000Y-69215000D03*
X173355000Y-66675000D03*
X170180000Y-48260000D03*
X198120000Y-50800000D03*
X166370000Y-66675000D03*
X135890000Y-93980000D03*
D21*
%TO.N,+3V3*%
X186055000Y-74930000D03*
%TO.N,/TempCtrl*%
X179070000Y-90805000D03*
X175260000Y-98425000D03*
%TO.N,/COM1*%
X133350000Y-63500000D03*
%TO.N,/COM2*%
X127000000Y-64770000D03*
X134620000Y-64770000D03*
X91440000Y-88265000D03*
X87630000Y-92075000D03*
%TO.N,/A*%
X132080000Y-98552004D03*
%TO.N,/F*%
X139065000Y-98425000D03*
%TO.N,/COM3*%
X100330000Y-73025000D03*
%TO.N,/B*%
X135921970Y-99663024D03*
%TO.N,/G*%
X101473000Y-99949000D03*
%TO.N,/C*%
X107949992Y-99060000D03*
%TO.N,/D*%
X106044997Y-99060003D03*
%TO.N,/E*%
X124459999Y-94614999D03*
%TO.N,/COM4*%
X105410000Y-78105000D03*
X116840000Y-76835000D03*
%TO.N,/COM5*%
X113665000Y-75565000D03*
X104140000Y-77470000D03*
%TO.N,/COM6*%
X113665000Y-79375000D03*
X104140000Y-81915000D03*
%TO.N,/A2*%
X97790000Y-99060004D03*
%TO.N,/B2*%
X97282000Y-100203000D03*
%TO.N,/C2*%
X90170000Y-68580000D03*
%TO.N,/D2*%
X90805000Y-63500006D03*
%TO.N,/SDDet*%
X178435000Y-76200000D03*
%TO.N,/MISO*%
X184129110Y-76853029D03*
%TO.N,/SCK*%
X186931494Y-77949490D03*
%TO.N,/MOSI*%
X189865000Y-76200000D03*
%TO.N,/SS*%
X180974964Y-78740000D03*
%TO.N,/Gate*%
X169545000Y-73025000D03*
X168275000Y-76835000D03*
%TO.N,/K1*%
X105410000Y-92710000D03*
X87630000Y-80010000D03*
X93345000Y-84455000D03*
%TO.N,/K2*%
X103505000Y-92075000D03*
X86995000Y-81279990D03*
X93345006Y-85725000D03*
%TO.N,/K3*%
X101600000Y-91440000D03*
X86995000Y-83185000D03*
X93345000Y-86995000D03*
%TO.N,/TOUT*%
X160020000Y-86995000D03*
X173355000Y-86995000D03*
%TO.N,/FanPWM*%
X153670000Y-99695000D03*
X169545000Y-85090000D03*
D20*
%TO.N,+5V*%
X203835000Y-66675000D03*
X193040000Y-80645000D03*
%TD*%
D22*
%TO.N,+3V3*%
X186065000Y-74920000D02*
X186055000Y-74930000D01*
X186065000Y-71665000D02*
X186065000Y-74920000D01*
D23*
%TO.N,/TempCtrl*%
X179070000Y-90805000D02*
X178435000Y-90805000D01*
X178435000Y-90805000D02*
X175260000Y-93980000D01*
X175260000Y-93980000D02*
X175260000Y-98425000D01*
X175260000Y-98425000D02*
X175260000Y-98425000D01*
D22*
%TO.N,/COM1*%
X108047019Y-68580000D02*
X107950000Y-68580000D01*
X113127019Y-63500000D02*
X108047019Y-68580000D01*
X133350000Y-63500000D02*
X113127019Y-63500000D01*
%TO.N,/COM2*%
X127000000Y-64770000D02*
X134620000Y-64770000D01*
X134620000Y-64770000D02*
X134620000Y-64770000D01*
D23*
X91440000Y-88265000D02*
X87630000Y-92075000D01*
X87630000Y-92075000D02*
X87630000Y-92075000D01*
%TO.N,Net-(D3-Pad1)*%
X72970000Y-90170000D02*
X72970000Y-55730000D01*
%TO.N,/A*%
X136397996Y-98552004D02*
X143510000Y-91440000D01*
X132080000Y-98552004D02*
X136397996Y-98552004D01*
%TO.N,/F*%
X146050000Y-91440000D02*
X139065000Y-98425000D01*
%TO.N,/COM3*%
X97790000Y-70485000D02*
X100330000Y-73025000D01*
X97790000Y-68580000D02*
X97790000Y-70485000D01*
%TO.N,/B*%
X135953946Y-99695000D02*
X135921970Y-99663024D01*
X145415000Y-99695000D02*
X135953946Y-99695000D01*
X153670000Y-91440000D02*
X145415000Y-99695000D01*
D22*
%TO.N,/G*%
X156845000Y-59055000D02*
X156845000Y-70485000D01*
X156845000Y-70485000D02*
X151130000Y-76200000D01*
X151130000Y-53340000D02*
X156845000Y-59055000D01*
D23*
X127381000Y-99949000D02*
X101473000Y-99949000D01*
X151130000Y-76200000D02*
X127381000Y-99949000D01*
D22*
%TO.N,/C*%
X155575000Y-69215000D02*
X148590000Y-76200000D01*
X155575000Y-60325000D02*
X155575000Y-69215000D01*
X148590000Y-53340000D02*
X155575000Y-60325000D01*
D23*
X125730000Y-99060000D02*
X107949992Y-99060000D01*
X148590000Y-76200000D02*
X125730000Y-99060000D01*
D22*
%TO.N,/D*%
X143510000Y-53975000D02*
X143510000Y-53340000D01*
X137795000Y-59690000D02*
X143510000Y-53975000D01*
X137795000Y-69850000D02*
X137795000Y-59690000D01*
X143510000Y-75565000D02*
X137795000Y-69850000D01*
X143510000Y-76200000D02*
X143510000Y-75565000D01*
D23*
X106835501Y-98269499D02*
X106044997Y-99060003D01*
X122854714Y-98269499D02*
X106835501Y-98269499D01*
X143510000Y-77614213D02*
X122854714Y-98269499D01*
X143510000Y-76200000D02*
X143510000Y-77614213D01*
D22*
%TO.N,/E*%
X136525000Y-71755000D02*
X140970000Y-76200000D01*
X136525000Y-56277000D02*
X136525000Y-71755000D01*
X139462000Y-53340000D02*
X136525000Y-56277000D01*
X140970000Y-53340000D02*
X139462000Y-53340000D01*
D23*
X140970000Y-78104998D02*
X124459999Y-94614999D01*
X140970000Y-76200000D02*
X140970000Y-78104998D01*
%TO.N,/COM4*%
X106680000Y-76835000D02*
X116840000Y-76835000D01*
X105410000Y-78105000D02*
X106680000Y-76835000D01*
%TO.N,/COM5*%
X113665000Y-75565000D02*
X106045000Y-75565000D01*
X106045000Y-75565000D02*
X104457500Y-77152500D01*
X104457500Y-77152500D02*
X104140000Y-77470000D01*
X104140000Y-77470000D02*
X104140000Y-77470000D01*
%TO.N,/COM6*%
X113665000Y-79375000D02*
X113665000Y-79375000D01*
X111125000Y-81915000D02*
X104140000Y-81915000D01*
X113665000Y-79375000D02*
X111125000Y-81915000D01*
%TO.N,/A2*%
X99060000Y-97790004D02*
X97790000Y-99060004D01*
X99060000Y-78105000D02*
X99060000Y-97790004D01*
X101600000Y-75565000D02*
X99060000Y-78105000D01*
X101600000Y-69850000D02*
X101600000Y-75565000D01*
X100330000Y-68580000D02*
X101600000Y-69850000D01*
%TO.N,/B2*%
X100330000Y-78740000D02*
X100330000Y-97720685D01*
X110490000Y-68580000D02*
X100330000Y-78740000D01*
X100330000Y-97720685D02*
X97847685Y-100203000D01*
X97847685Y-100203000D02*
X97282000Y-100203000D01*
%TO.N,/C2*%
X105410000Y-53340000D02*
X104410001Y-54339999D01*
X104410001Y-54339999D02*
X90170000Y-68580000D01*
%TO.N,/D2*%
X90805000Y-63500000D02*
X90805000Y-63500006D01*
X100330000Y-53975000D02*
X90805000Y-63500000D01*
X100330000Y-53340000D02*
X100330000Y-53975000D01*
%TO.N,/SDDet*%
X175635000Y-71665000D02*
X175635000Y-73400000D01*
X175635000Y-73400000D02*
X178435000Y-76200000D01*
%TO.N,/MISO*%
X178635000Y-72796000D02*
X182692029Y-76853029D01*
X182692029Y-76853029D02*
X184129110Y-76853029D01*
X178635000Y-71665000D02*
X178635000Y-72796000D01*
%TO.N,/SCK*%
X183565000Y-74582996D02*
X186931494Y-77949490D01*
X183565000Y-71665000D02*
X183565000Y-74582996D01*
%TO.N,/MOSI*%
X191065000Y-75000000D02*
X189865000Y-76200000D01*
X191065000Y-71665000D02*
X191065000Y-75000000D01*
%TO.N,/SS*%
X188542153Y-78740000D02*
X180974964Y-78740000D01*
X193565000Y-71665000D02*
X193565000Y-73717153D01*
X193565000Y-73717153D02*
X188542153Y-78740000D01*
D22*
%TO.N,/Gate*%
X168275000Y-74295000D02*
X168275000Y-76835000D01*
X169545000Y-73025000D02*
X168275000Y-74295000D01*
D23*
%TO.N,/K1*%
X87630000Y-80010000D02*
X87630000Y-80010000D01*
X92075000Y-84455000D02*
X93345000Y-84455000D01*
X87630000Y-80010000D02*
X92075000Y-84455000D01*
%TO.N,/K2*%
X86995000Y-81279990D02*
X91440010Y-85725000D01*
X91440010Y-85725000D02*
X93345006Y-85725000D01*
%TO.N,/K3*%
X86995000Y-83185000D02*
X90805000Y-86995000D01*
X90805000Y-86995000D02*
X93345000Y-86995000D01*
%TO.N,Net-(R28-Pad1)*%
X77470000Y-62230000D02*
X77470000Y-55730000D01*
%TO.N,Net-(R29-Pad1)*%
X77470000Y-76200000D02*
X77470000Y-69700000D01*
%TO.N,Net-(R30-Pad1)*%
X77470000Y-90170000D02*
X77470000Y-83670000D01*
%TO.N,/TOUT*%
X160020000Y-86995000D02*
X173355000Y-86995000D01*
D22*
%TO.N,/FanPWM*%
X153670000Y-99695000D02*
X153670000Y-99695000D01*
X160020000Y-85090000D02*
X169545000Y-85090000D01*
X156210000Y-97155000D02*
X156210000Y-88900000D01*
X156210000Y-88900000D02*
X160020000Y-85090000D01*
X153670000Y-99695000D02*
X156210000Y-97155000D01*
D24*
%TO.N,+5V*%
X203835000Y-60960000D02*
X201930000Y-59055000D01*
X203835000Y-66675000D02*
X203835000Y-60960000D01*
X203835000Y-69850000D02*
X203835000Y-66675000D01*
X193040000Y-80645000D02*
X203835000Y-69850000D01*
%TD*%
D25*
%TO.N,GND*%
X171838815Y-46513815D02*
X171759463Y-46610506D01*
X171700498Y-46720820D01*
X171664188Y-46840518D01*
X171651928Y-46965000D01*
X171655000Y-48079250D01*
X171813750Y-48238000D01*
X172913000Y-48238000D01*
X172913000Y-48218000D01*
X173167000Y-48218000D01*
X173167000Y-48238000D01*
X174266250Y-48238000D01*
X174425000Y-48079250D01*
X174428072Y-46965000D01*
X174415812Y-46840518D01*
X174379502Y-46720820D01*
X174320537Y-46610506D01*
X174241185Y-46513815D01*
X174202418Y-46482000D01*
X199177582Y-46482000D01*
X199138815Y-46513815D01*
X199059463Y-46610506D01*
X199000498Y-46720820D01*
X198964188Y-46840518D01*
X198951928Y-46965000D01*
X198955000Y-48079250D01*
X199113750Y-48238000D01*
X200213000Y-48238000D01*
X200213000Y-48218000D01*
X200467000Y-48218000D01*
X200467000Y-48238000D01*
X201566250Y-48238000D01*
X201725000Y-48079250D01*
X201728072Y-46965000D01*
X201715812Y-46840518D01*
X201679502Y-46720820D01*
X201620537Y-46610506D01*
X201541185Y-46513815D01*
X201502418Y-46482000D01*
X244580078Y-46482000D01*
X245039164Y-46620606D01*
X245581436Y-46908937D01*
X246057364Y-47297094D01*
X246448845Y-47770314D01*
X246740951Y-48310552D01*
X246888000Y-48785589D01*
X246888000Y-110595078D01*
X246749394Y-111054164D01*
X246461063Y-111596436D01*
X246072906Y-112072364D01*
X245599686Y-112463845D01*
X245059449Y-112755950D01*
X244584410Y-112903000D01*
X71649922Y-112903000D01*
X71190836Y-112764394D01*
X70648564Y-112476063D01*
X70172636Y-112087906D01*
X69781155Y-111614686D01*
X69489050Y-111074449D01*
X69342000Y-110599410D01*
X69342000Y-109634872D01*
X70155000Y-109634872D01*
X70155000Y-110075128D01*
X70240890Y-110506925D01*
X70409369Y-110913669D01*
X70653962Y-111279729D01*
X70965271Y-111591038D01*
X71331331Y-111835631D01*
X71738075Y-112004110D01*
X72169872Y-112090000D01*
X72610128Y-112090000D01*
X73041925Y-112004110D01*
X73448669Y-111835631D01*
X73814729Y-111591038D01*
X74126038Y-111279729D01*
X74370631Y-110913669D01*
X74539110Y-110506925D01*
X74615079Y-110125000D01*
X132346928Y-110125000D01*
X132346928Y-112125000D01*
X132359188Y-112249482D01*
X132395498Y-112369180D01*
X132454463Y-112479494D01*
X132533815Y-112576185D01*
X132630506Y-112655537D01*
X132740820Y-112714502D01*
X132860518Y-112750812D01*
X132985000Y-112763072D01*
X134985000Y-112763072D01*
X135109482Y-112750812D01*
X135229180Y-112714502D01*
X135339494Y-112655537D01*
X135436185Y-112576185D01*
X135515537Y-112479494D01*
X135574502Y-112369180D01*
X135610812Y-112249482D01*
X135623072Y-112125000D01*
X135623072Y-110125000D01*
X135610812Y-110000518D01*
X135574502Y-109880820D01*
X135515537Y-109770506D01*
X135436185Y-109673815D01*
X135339494Y-109594463D01*
X135229180Y-109535498D01*
X135109482Y-109499188D01*
X134985000Y-109486928D01*
X132985000Y-109486928D01*
X132860518Y-109499188D01*
X132740820Y-109535498D01*
X132630506Y-109594463D01*
X132533815Y-109673815D01*
X132454463Y-109770506D01*
X132395498Y-109880820D01*
X132359188Y-110000518D01*
X132346928Y-110125000D01*
X74615079Y-110125000D01*
X74625000Y-110075128D01*
X74625000Y-109634872D01*
X74539110Y-109203075D01*
X74370631Y-108796331D01*
X74126038Y-108430271D01*
X73814729Y-108118962D01*
X73448669Y-107874369D01*
X73041925Y-107705890D01*
X72610128Y-107620000D01*
X72169872Y-107620000D01*
X71738075Y-107705890D01*
X71331331Y-107874369D01*
X70965271Y-108118962D01*
X70653962Y-108430271D01*
X70409369Y-108796331D01*
X70240890Y-109203075D01*
X70155000Y-109634872D01*
X69342000Y-109634872D01*
X69342000Y-105195000D01*
X127416928Y-105195000D01*
X127416928Y-106895000D01*
X127429188Y-107019482D01*
X127465498Y-107139180D01*
X127524463Y-107249494D01*
X127603815Y-107346185D01*
X127700506Y-107425537D01*
X127810820Y-107484502D01*
X127883380Y-107506513D01*
X127751525Y-107638368D01*
X127589010Y-107881589D01*
X127477068Y-108151842D01*
X127420000Y-108438740D01*
X127420000Y-108731260D01*
X127477068Y-109018158D01*
X127589010Y-109288411D01*
X127751525Y-109531632D01*
X127958368Y-109738475D01*
X128201589Y-109900990D01*
X128471842Y-110012932D01*
X128758740Y-110070000D01*
X129051260Y-110070000D01*
X129338158Y-110012932D01*
X129608411Y-109900990D01*
X129851632Y-109738475D01*
X130058475Y-109531632D01*
X130220990Y-109288411D01*
X130322147Y-109044193D01*
X159505000Y-109044193D01*
X159505000Y-109395807D01*
X159573596Y-109740665D01*
X159708153Y-110065515D01*
X159903500Y-110357871D01*
X160152129Y-110606500D01*
X160444485Y-110801847D01*
X160769335Y-110936404D01*
X161114193Y-111005000D01*
X161465807Y-111005000D01*
X161810665Y-110936404D01*
X162135515Y-110801847D01*
X162427871Y-110606500D01*
X162676500Y-110357871D01*
X162871847Y-110065515D01*
X163006404Y-109740665D01*
X163075000Y-109395807D01*
X163075000Y-109044193D01*
X164585000Y-109044193D01*
X164585000Y-109395807D01*
X164653596Y-109740665D01*
X164788153Y-110065515D01*
X164983500Y-110357871D01*
X165232129Y-110606500D01*
X165524485Y-110801847D01*
X165849335Y-110936404D01*
X166194193Y-111005000D01*
X166545807Y-111005000D01*
X166890665Y-110936404D01*
X167215515Y-110801847D01*
X167507871Y-110606500D01*
X167756500Y-110357871D01*
X167951847Y-110065515D01*
X168086404Y-109740665D01*
X168155000Y-109395807D01*
X168155000Y-109044193D01*
X168086404Y-108699335D01*
X167951847Y-108374485D01*
X167756500Y-108082129D01*
X167507871Y-107833500D01*
X167215515Y-107638153D01*
X166890665Y-107503596D01*
X166777067Y-107481000D01*
X171358928Y-107481000D01*
X171358928Y-109181000D01*
X171371188Y-109305482D01*
X171407498Y-109425180D01*
X171466463Y-109535494D01*
X171545815Y-109632185D01*
X171642506Y-109711537D01*
X171752820Y-109770502D01*
X171872518Y-109806812D01*
X171997000Y-109819072D01*
X173697000Y-109819072D01*
X173821482Y-109806812D01*
X173941180Y-109770502D01*
X174051494Y-109711537D01*
X174148185Y-109632185D01*
X174227537Y-109535494D01*
X174286502Y-109425180D01*
X174308513Y-109352620D01*
X174440368Y-109484475D01*
X174683589Y-109646990D01*
X174953842Y-109758932D01*
X175240740Y-109816000D01*
X175533260Y-109816000D01*
X175820158Y-109758932D01*
X176090411Y-109646990D01*
X176333632Y-109484475D01*
X176540475Y-109277632D01*
X176662195Y-109095466D01*
X176731822Y-109212355D01*
X176926731Y-109428588D01*
X177160080Y-109602641D01*
X177422901Y-109727825D01*
X177570110Y-109772476D01*
X177800000Y-109651155D01*
X177800000Y-108458000D01*
X178054000Y-108458000D01*
X178054000Y-109651155D01*
X178283890Y-109772476D01*
X178431099Y-109727825D01*
X178693920Y-109602641D01*
X178927269Y-109428588D01*
X179122178Y-109212355D01*
X179271157Y-108962252D01*
X179278379Y-108941891D01*
X184486519Y-108941891D01*
X184583843Y-109216252D01*
X184732822Y-109466355D01*
X184927731Y-109682588D01*
X185161080Y-109856641D01*
X185423901Y-109981825D01*
X185571110Y-110026476D01*
X185801000Y-109905155D01*
X185801000Y-108712000D01*
X184607186Y-108712000D01*
X184486519Y-108941891D01*
X179278379Y-108941891D01*
X179368481Y-108687891D01*
X179247814Y-108458000D01*
X178054000Y-108458000D01*
X177800000Y-108458000D01*
X177780000Y-108458000D01*
X177780000Y-108228109D01*
X184486519Y-108228109D01*
X184607186Y-108458000D01*
X185801000Y-108458000D01*
X185801000Y-107264845D01*
X186055000Y-107264845D01*
X186055000Y-108458000D01*
X186075000Y-108458000D01*
X186075000Y-108712000D01*
X186055000Y-108712000D01*
X186055000Y-109905155D01*
X186284890Y-110026476D01*
X186432099Y-109981825D01*
X186694920Y-109856641D01*
X186928269Y-109682588D01*
X187123178Y-109466355D01*
X187192805Y-109349466D01*
X187314525Y-109531632D01*
X187521368Y-109738475D01*
X187764589Y-109900990D01*
X188034842Y-110012932D01*
X188321740Y-110070000D01*
X188614260Y-110070000D01*
X188901158Y-110012932D01*
X189171411Y-109900990D01*
X189414632Y-109738475D01*
X189546487Y-109606620D01*
X189568498Y-109679180D01*
X189627463Y-109789494D01*
X189706815Y-109886185D01*
X189803506Y-109965537D01*
X189913820Y-110024502D01*
X190033518Y-110060812D01*
X190158000Y-110073072D01*
X191858000Y-110073072D01*
X191982482Y-110060812D01*
X192102180Y-110024502D01*
X192212494Y-109965537D01*
X192309185Y-109886185D01*
X192388537Y-109789494D01*
X192447502Y-109679180D01*
X192460942Y-109634872D01*
X241605000Y-109634872D01*
X241605000Y-110075128D01*
X241690890Y-110506925D01*
X241859369Y-110913669D01*
X242103962Y-111279729D01*
X242415271Y-111591038D01*
X242781331Y-111835631D01*
X243188075Y-112004110D01*
X243619872Y-112090000D01*
X244060128Y-112090000D01*
X244491925Y-112004110D01*
X244898669Y-111835631D01*
X245264729Y-111591038D01*
X245576038Y-111279729D01*
X245820631Y-110913669D01*
X245989110Y-110506925D01*
X246075000Y-110075128D01*
X246075000Y-109634872D01*
X245989110Y-109203075D01*
X245820631Y-108796331D01*
X245576038Y-108430271D01*
X245264729Y-108118962D01*
X244898669Y-107874369D01*
X244491925Y-107705890D01*
X244060128Y-107620000D01*
X243619872Y-107620000D01*
X243188075Y-107705890D01*
X242781331Y-107874369D01*
X242415271Y-108118962D01*
X242103962Y-108430271D01*
X241859369Y-108796331D01*
X241690890Y-109203075D01*
X241605000Y-109634872D01*
X192460942Y-109634872D01*
X192483812Y-109559482D01*
X192496072Y-109435000D01*
X192496072Y-107735000D01*
X192483812Y-107610518D01*
X192447502Y-107490820D01*
X192388537Y-107380506D01*
X192309185Y-107283815D01*
X192212494Y-107204463D01*
X192102180Y-107145498D01*
X191982482Y-107109188D01*
X191858000Y-107096928D01*
X190158000Y-107096928D01*
X190033518Y-107109188D01*
X189913820Y-107145498D01*
X189803506Y-107204463D01*
X189706815Y-107283815D01*
X189627463Y-107380506D01*
X189568498Y-107490820D01*
X189546487Y-107563380D01*
X189414632Y-107431525D01*
X189171411Y-107269010D01*
X188901158Y-107157068D01*
X188614260Y-107100000D01*
X188321740Y-107100000D01*
X188034842Y-107157068D01*
X187764589Y-107269010D01*
X187521368Y-107431525D01*
X187314525Y-107638368D01*
X187192805Y-107820534D01*
X187123178Y-107703645D01*
X186928269Y-107487412D01*
X186694920Y-107313359D01*
X186432099Y-107188175D01*
X186284890Y-107143524D01*
X186055000Y-107264845D01*
X185801000Y-107264845D01*
X185571110Y-107143524D01*
X185423901Y-107188175D01*
X185161080Y-107313359D01*
X184927731Y-107487412D01*
X184732822Y-107703645D01*
X184583843Y-107953748D01*
X184486519Y-108228109D01*
X177780000Y-108228109D01*
X177780000Y-108204000D01*
X177800000Y-108204000D01*
X177800000Y-107010845D01*
X178054000Y-107010845D01*
X178054000Y-108204000D01*
X179247814Y-108204000D01*
X179368481Y-107974109D01*
X179271157Y-107699748D01*
X179122178Y-107449645D01*
X178927269Y-107233412D01*
X178693920Y-107059359D01*
X178431099Y-106934175D01*
X178283890Y-106889524D01*
X178054000Y-107010845D01*
X177800000Y-107010845D01*
X177570110Y-106889524D01*
X177422901Y-106934175D01*
X177160080Y-107059359D01*
X176926731Y-107233412D01*
X176731822Y-107449645D01*
X176662195Y-107566534D01*
X176540475Y-107384368D01*
X176333632Y-107177525D01*
X176090411Y-107015010D01*
X175820158Y-106903068D01*
X175533260Y-106846000D01*
X175240740Y-106846000D01*
X174953842Y-106903068D01*
X174683589Y-107015010D01*
X174440368Y-107177525D01*
X174308513Y-107309380D01*
X174286502Y-107236820D01*
X174227537Y-107126506D01*
X174148185Y-107029815D01*
X174051494Y-106950463D01*
X173941180Y-106891498D01*
X173821482Y-106855188D01*
X173697000Y-106842928D01*
X171997000Y-106842928D01*
X171872518Y-106855188D01*
X171752820Y-106891498D01*
X171642506Y-106950463D01*
X171545815Y-107029815D01*
X171466463Y-107126506D01*
X171407498Y-107236820D01*
X171371188Y-107356518D01*
X171358928Y-107481000D01*
X166777067Y-107481000D01*
X166545807Y-107435000D01*
X166194193Y-107435000D01*
X165849335Y-107503596D01*
X165524485Y-107638153D01*
X165232129Y-107833500D01*
X164983500Y-108082129D01*
X164788153Y-108374485D01*
X164653596Y-108699335D01*
X164585000Y-109044193D01*
X163075000Y-109044193D01*
X163006404Y-108699335D01*
X162871847Y-108374485D01*
X162676500Y-108082129D01*
X162427871Y-107833500D01*
X162135515Y-107638153D01*
X161810665Y-107503596D01*
X161465807Y-107435000D01*
X161114193Y-107435000D01*
X160769335Y-107503596D01*
X160444485Y-107638153D01*
X160152129Y-107833500D01*
X159903500Y-108082129D01*
X159708153Y-108374485D01*
X159573596Y-108699335D01*
X159505000Y-109044193D01*
X130322147Y-109044193D01*
X130332932Y-109018158D01*
X130390000Y-108731260D01*
X130390000Y-108438740D01*
X130332932Y-108151842D01*
X130220990Y-107881589D01*
X130058475Y-107638368D01*
X129926620Y-107506513D01*
X129999180Y-107484502D01*
X130109494Y-107425537D01*
X130206185Y-107346185D01*
X130285537Y-107249494D01*
X130344502Y-107139180D01*
X130380812Y-107019482D01*
X130393072Y-106895000D01*
X130393072Y-105883967D01*
X132350000Y-105883967D01*
X132350000Y-106206033D01*
X132412832Y-106521912D01*
X132536082Y-106819463D01*
X132715013Y-107087252D01*
X132942748Y-107314987D01*
X133210537Y-107493918D01*
X133508088Y-107617168D01*
X133823967Y-107680000D01*
X134146033Y-107680000D01*
X134461912Y-107617168D01*
X134759463Y-107493918D01*
X135027252Y-107314987D01*
X135254987Y-107087252D01*
X135433918Y-106819463D01*
X135557168Y-106521912D01*
X135620000Y-106206033D01*
X135620000Y-105883967D01*
X135557168Y-105568088D01*
X135433918Y-105270537D01*
X135254987Y-105002748D01*
X135027252Y-104775013D01*
X134759463Y-104596082D01*
X134461912Y-104472832D01*
X134146033Y-104410000D01*
X133823967Y-104410000D01*
X133508088Y-104472832D01*
X133210537Y-104596082D01*
X132942748Y-104775013D01*
X132715013Y-105002748D01*
X132536082Y-105270537D01*
X132412832Y-105568088D01*
X132350000Y-105883967D01*
X130393072Y-105883967D01*
X130393072Y-105195000D01*
X130380812Y-105070518D01*
X130344502Y-104950820D01*
X130285537Y-104840506D01*
X130206185Y-104743815D01*
X130109494Y-104664463D01*
X129999180Y-104605498D01*
X129879482Y-104569188D01*
X129755000Y-104556928D01*
X128055000Y-104556928D01*
X127930518Y-104569188D01*
X127810820Y-104605498D01*
X127700506Y-104664463D01*
X127603815Y-104743815D01*
X127524463Y-104840506D01*
X127465498Y-104950820D01*
X127429188Y-105070518D01*
X127416928Y-105195000D01*
X69342000Y-105195000D01*
X69342000Y-55568967D01*
X71335000Y-55568967D01*
X71335000Y-55891033D01*
X71397832Y-56206912D01*
X71521082Y-56504463D01*
X71700013Y-56772252D01*
X71927748Y-56999987D01*
X72144501Y-57144817D01*
X72144501Y-60815183D01*
X71927748Y-60960013D01*
X71700013Y-61187748D01*
X71521082Y-61455537D01*
X71397832Y-61753088D01*
X71335000Y-62068967D01*
X71335000Y-62391033D01*
X71397832Y-62706912D01*
X71521082Y-63004463D01*
X71700013Y-63272252D01*
X71927748Y-63499987D01*
X72144501Y-63644817D01*
X72144501Y-68285183D01*
X71927748Y-68430013D01*
X71700013Y-68657748D01*
X71521082Y-68925537D01*
X71397832Y-69223088D01*
X71335000Y-69538967D01*
X71335000Y-69861033D01*
X71397832Y-70176912D01*
X71521082Y-70474463D01*
X71700013Y-70742252D01*
X71927748Y-70969987D01*
X72144501Y-71114817D01*
X72144500Y-74785184D01*
X71927748Y-74930013D01*
X71700013Y-75157748D01*
X71521082Y-75425537D01*
X71397832Y-75723088D01*
X71335000Y-76038967D01*
X71335000Y-76361033D01*
X71397832Y-76676912D01*
X71521082Y-76974463D01*
X71700013Y-77242252D01*
X71927748Y-77469987D01*
X72144500Y-77614816D01*
X72144500Y-82255184D01*
X71927748Y-82400013D01*
X71700013Y-82627748D01*
X71521082Y-82895537D01*
X71397832Y-83193088D01*
X71335000Y-83508967D01*
X71335000Y-83831033D01*
X71397832Y-84146912D01*
X71521082Y-84444463D01*
X71700013Y-84712252D01*
X71927748Y-84939987D01*
X72144500Y-85084816D01*
X72144500Y-88755184D01*
X71927748Y-88900013D01*
X71700013Y-89127748D01*
X71521082Y-89395537D01*
X71397832Y-89693088D01*
X71335000Y-90008967D01*
X71335000Y-90331033D01*
X71397832Y-90646912D01*
X71521082Y-90944463D01*
X71700013Y-91212252D01*
X71927748Y-91439987D01*
X72195537Y-91618918D01*
X72493088Y-91742168D01*
X72808967Y-91805000D01*
X73131033Y-91805000D01*
X73446912Y-91742168D01*
X73744463Y-91618918D01*
X74012252Y-91439987D01*
X74239987Y-91212252D01*
X74418918Y-90944463D01*
X74542168Y-90646912D01*
X74605000Y-90331033D01*
X74605000Y-90008967D01*
X74542168Y-89693088D01*
X74418918Y-89395537D01*
X74239987Y-89127748D01*
X74012252Y-88900013D01*
X73795500Y-88755184D01*
X73795500Y-85084816D01*
X74012252Y-84939987D01*
X74239987Y-84712252D01*
X74418918Y-84444463D01*
X74542168Y-84146912D01*
X74605000Y-83831033D01*
X74605000Y-83508967D01*
X75835000Y-83508967D01*
X75835000Y-83831033D01*
X75897832Y-84146912D01*
X76021082Y-84444463D01*
X76200013Y-84712252D01*
X76427748Y-84939987D01*
X76644501Y-85084817D01*
X76644500Y-88755184D01*
X76427748Y-88900013D01*
X76200013Y-89127748D01*
X76021082Y-89395537D01*
X75897832Y-89693088D01*
X75835000Y-90008967D01*
X75835000Y-90331033D01*
X75897832Y-90646912D01*
X76021082Y-90944463D01*
X76200013Y-91212252D01*
X76427748Y-91439987D01*
X76695537Y-91618918D01*
X76993088Y-91742168D01*
X77308967Y-91805000D01*
X77631033Y-91805000D01*
X77946912Y-91742168D01*
X78244463Y-91618918D01*
X78512252Y-91439987D01*
X78739987Y-91212252D01*
X78918918Y-90944463D01*
X79042168Y-90646912D01*
X79105000Y-90331033D01*
X79105000Y-90008967D01*
X79042168Y-89693088D01*
X78918918Y-89395537D01*
X78739987Y-89127748D01*
X78512252Y-88900013D01*
X78295500Y-88755184D01*
X78295500Y-85084816D01*
X78512252Y-84939987D01*
X78739987Y-84712252D01*
X78918918Y-84444463D01*
X79042168Y-84146912D01*
X79105000Y-83831033D01*
X79105000Y-83508967D01*
X79042168Y-83193088D01*
X78918918Y-82895537D01*
X78739987Y-82627748D01*
X78512252Y-82400013D01*
X78244463Y-82221082D01*
X77946912Y-82097832D01*
X77631033Y-82035000D01*
X77308967Y-82035000D01*
X76993088Y-82097832D01*
X76695537Y-82221082D01*
X76427748Y-82400013D01*
X76200013Y-82627748D01*
X76021082Y-82895537D01*
X75897832Y-83193088D01*
X75835000Y-83508967D01*
X74605000Y-83508967D01*
X74542168Y-83193088D01*
X74418918Y-82895537D01*
X74239987Y-82627748D01*
X74012252Y-82400013D01*
X73795500Y-82255184D01*
X73795500Y-81178051D01*
X85960000Y-81178051D01*
X85960000Y-81381929D01*
X85999774Y-81581888D01*
X86077795Y-81770246D01*
X86191063Y-81939764D01*
X86335226Y-82083927D01*
X86504744Y-82197195D01*
X86589965Y-82232495D01*
X86504744Y-82267795D01*
X86335226Y-82381063D01*
X86191063Y-82525226D01*
X86077795Y-82694744D01*
X85999774Y-82883102D01*
X85960000Y-83083061D01*
X85960000Y-83286939D01*
X85999774Y-83486898D01*
X86077795Y-83675256D01*
X86191063Y-83844774D01*
X86335226Y-83988937D01*
X86504744Y-84102205D01*
X86693102Y-84180226D01*
X86854996Y-84212429D01*
X90192611Y-87550045D01*
X90218459Y-87581541D01*
X90249955Y-87607389D01*
X90249958Y-87607392D01*
X90344157Y-87684699D01*
X90487566Y-87761353D01*
X90524298Y-87772495D01*
X90522795Y-87774744D01*
X90444774Y-87963102D01*
X90412572Y-88124994D01*
X87489996Y-91047571D01*
X87328102Y-91079774D01*
X87139744Y-91157795D01*
X86970226Y-91271063D01*
X86826063Y-91415226D01*
X86712795Y-91584744D01*
X86634774Y-91773102D01*
X86595000Y-91973061D01*
X86595000Y-92176939D01*
X86634774Y-92376898D01*
X86712795Y-92565256D01*
X86826063Y-92734774D01*
X86970226Y-92878937D01*
X87139744Y-92992205D01*
X87328102Y-93070226D01*
X87528061Y-93110000D01*
X87731939Y-93110000D01*
X87931898Y-93070226D01*
X88120256Y-92992205D01*
X88289774Y-92878937D01*
X88433937Y-92734774D01*
X88547205Y-92565256D01*
X88625226Y-92376898D01*
X88657429Y-92215004D01*
X91580006Y-89292428D01*
X91741898Y-89260226D01*
X91930256Y-89182205D01*
X92099774Y-89068937D01*
X92243937Y-88924774D01*
X92357205Y-88755256D01*
X92435226Y-88566898D01*
X92475000Y-88366939D01*
X92475000Y-88163061D01*
X92435226Y-87963102D01*
X92376158Y-87820500D01*
X92717497Y-87820500D01*
X92854744Y-87912205D01*
X93043102Y-87990226D01*
X93243061Y-88030000D01*
X93446939Y-88030000D01*
X93646898Y-87990226D01*
X93835256Y-87912205D01*
X94004774Y-87798937D01*
X94148937Y-87654774D01*
X94262205Y-87485256D01*
X94340226Y-87296898D01*
X94380000Y-87096939D01*
X94380000Y-86893061D01*
X94340226Y-86693102D01*
X94262205Y-86504744D01*
X94165493Y-86360004D01*
X94262211Y-86215256D01*
X94340232Y-86026898D01*
X94380006Y-85826939D01*
X94380006Y-85623061D01*
X94340232Y-85423102D01*
X94262211Y-85234744D01*
X94165493Y-85089996D01*
X94262205Y-84945256D01*
X94340226Y-84756898D01*
X94380000Y-84556939D01*
X94380000Y-84353061D01*
X94340226Y-84153102D01*
X94262205Y-83964744D01*
X94148937Y-83795226D01*
X94004774Y-83651063D01*
X93835256Y-83537795D01*
X93646898Y-83459774D01*
X93446939Y-83420000D01*
X93243061Y-83420000D01*
X93043102Y-83459774D01*
X92854744Y-83537795D01*
X92717497Y-83629500D01*
X92416933Y-83629500D01*
X88657429Y-79869996D01*
X88625226Y-79708102D01*
X88547205Y-79519744D01*
X88433937Y-79350226D01*
X88289774Y-79206063D01*
X88120256Y-79092795D01*
X87931898Y-79014774D01*
X87731939Y-78975000D01*
X87528061Y-78975000D01*
X87328102Y-79014774D01*
X87139744Y-79092795D01*
X86970226Y-79206063D01*
X86826063Y-79350226D01*
X86712795Y-79519744D01*
X86634774Y-79708102D01*
X86595000Y-79908061D01*
X86595000Y-80111939D01*
X86634228Y-80309151D01*
X86504744Y-80362785D01*
X86335226Y-80476053D01*
X86191063Y-80620216D01*
X86077795Y-80789734D01*
X85999774Y-80978092D01*
X85960000Y-81178051D01*
X73795500Y-81178051D01*
X73795500Y-77614816D01*
X74012252Y-77469987D01*
X74239987Y-77242252D01*
X74418918Y-76974463D01*
X74542168Y-76676912D01*
X74605000Y-76361033D01*
X74605000Y-76038967D01*
X74542168Y-75723088D01*
X74418918Y-75425537D01*
X74239987Y-75157748D01*
X74012252Y-74930013D01*
X73795500Y-74785184D01*
X73795500Y-71114816D01*
X74012252Y-70969987D01*
X74239987Y-70742252D01*
X74418918Y-70474463D01*
X74542168Y-70176912D01*
X74605000Y-69861033D01*
X74605000Y-69538967D01*
X75835000Y-69538967D01*
X75835000Y-69861033D01*
X75897832Y-70176912D01*
X76021082Y-70474463D01*
X76200013Y-70742252D01*
X76427748Y-70969987D01*
X76644501Y-71114817D01*
X76644500Y-74785184D01*
X76427748Y-74930013D01*
X76200013Y-75157748D01*
X76021082Y-75425537D01*
X75897832Y-75723088D01*
X75835000Y-76038967D01*
X75835000Y-76361033D01*
X75897832Y-76676912D01*
X76021082Y-76974463D01*
X76200013Y-77242252D01*
X76427748Y-77469987D01*
X76695537Y-77648918D01*
X76993088Y-77772168D01*
X77308967Y-77835000D01*
X77631033Y-77835000D01*
X77946912Y-77772168D01*
X78244463Y-77648918D01*
X78512252Y-77469987D01*
X78739987Y-77242252D01*
X78918918Y-76974463D01*
X79042168Y-76676912D01*
X79105000Y-76361033D01*
X79105000Y-76038967D01*
X79042168Y-75723088D01*
X78918918Y-75425537D01*
X78739987Y-75157748D01*
X78512252Y-74930013D01*
X78295500Y-74785184D01*
X78295500Y-71114816D01*
X78512252Y-70969987D01*
X78739987Y-70742252D01*
X78918918Y-70474463D01*
X79042168Y-70176912D01*
X79105000Y-69861033D01*
X79105000Y-69538967D01*
X79042168Y-69223088D01*
X78918918Y-68925537D01*
X78739987Y-68657748D01*
X78560300Y-68478061D01*
X89135000Y-68478061D01*
X89135000Y-68681939D01*
X89174774Y-68881898D01*
X89252795Y-69070256D01*
X89366063Y-69239774D01*
X89510226Y-69383937D01*
X89679744Y-69497205D01*
X89868102Y-69575226D01*
X90068061Y-69615000D01*
X90271939Y-69615000D01*
X90471898Y-69575226D01*
X90660256Y-69497205D01*
X90829774Y-69383937D01*
X90973937Y-69239774D01*
X91087205Y-69070256D01*
X91165226Y-68881898D01*
X91197429Y-68720004D01*
X91498466Y-68418967D01*
X96155000Y-68418967D01*
X96155000Y-68741033D01*
X96217832Y-69056912D01*
X96341082Y-69354463D01*
X96520013Y-69622252D01*
X96747748Y-69849987D01*
X96964501Y-69994817D01*
X96964501Y-70444440D01*
X96960506Y-70485000D01*
X96976445Y-70646826D01*
X97023647Y-70802433D01*
X97100301Y-70945842D01*
X97154800Y-71012248D01*
X97203460Y-71071541D01*
X97234961Y-71097393D01*
X99302572Y-73165004D01*
X99334774Y-73326898D01*
X99412795Y-73515256D01*
X99526063Y-73684774D01*
X99670226Y-73828937D01*
X99839744Y-73942205D01*
X100028102Y-74020226D01*
X100228061Y-74060000D01*
X100431939Y-74060000D01*
X100631898Y-74020226D01*
X100774501Y-73961158D01*
X100774501Y-75223066D01*
X98504966Y-77492602D01*
X98473459Y-77518459D01*
X98405431Y-77601353D01*
X98370301Y-77644158D01*
X98305768Y-77764891D01*
X98293647Y-77787567D01*
X98246444Y-77943175D01*
X98235782Y-78051429D01*
X98230506Y-78105000D01*
X98234500Y-78145550D01*
X98234501Y-97448070D01*
X97649996Y-98032576D01*
X97488102Y-98064778D01*
X97299744Y-98142799D01*
X97130226Y-98256067D01*
X96986063Y-98400230D01*
X96872795Y-98569748D01*
X96794774Y-98758106D01*
X96755000Y-98958065D01*
X96755000Y-99161943D01*
X96781056Y-99292936D01*
X96622226Y-99399063D01*
X96478063Y-99543226D01*
X96364795Y-99712744D01*
X96286774Y-99901102D01*
X96247000Y-100101061D01*
X96247000Y-100304939D01*
X96286774Y-100504898D01*
X96364795Y-100693256D01*
X96478063Y-100862774D01*
X96622226Y-101006937D01*
X96791744Y-101120205D01*
X96980102Y-101198226D01*
X97180061Y-101238000D01*
X97383939Y-101238000D01*
X97583898Y-101198226D01*
X97772256Y-101120205D01*
X97913179Y-101026044D01*
X98009511Y-101016556D01*
X98165119Y-100969353D01*
X98308527Y-100892699D01*
X98434226Y-100789541D01*
X98460083Y-100758034D01*
X100885045Y-98333074D01*
X100916541Y-98307226D01*
X100942389Y-98275730D01*
X100942392Y-98275727D01*
X101019699Y-98181528D01*
X101096353Y-98038119D01*
X101118393Y-97965463D01*
X101143556Y-97882511D01*
X101155500Y-97761238D01*
X101155500Y-97761236D01*
X101159494Y-97720685D01*
X101155500Y-97680135D01*
X101155500Y-92376158D01*
X101298102Y-92435226D01*
X101498061Y-92475000D01*
X101701939Y-92475000D01*
X101901898Y-92435226D01*
X102090256Y-92357205D01*
X102259774Y-92243937D01*
X102403937Y-92099774D01*
X102470000Y-92000903D01*
X102470000Y-92176939D01*
X102509774Y-92376898D01*
X102587795Y-92565256D01*
X102701063Y-92734774D01*
X102845226Y-92878937D01*
X103014744Y-92992205D01*
X103203102Y-93070226D01*
X103403061Y-93110000D01*
X103606939Y-93110000D01*
X103806898Y-93070226D01*
X103995256Y-92992205D01*
X104164774Y-92878937D01*
X104308937Y-92734774D01*
X104375000Y-92635903D01*
X104375000Y-92811939D01*
X104414774Y-93011898D01*
X104492795Y-93200256D01*
X104606063Y-93369774D01*
X104750226Y-93513937D01*
X104919744Y-93627205D01*
X105108102Y-93705226D01*
X105308061Y-93745000D01*
X105511939Y-93745000D01*
X105711898Y-93705226D01*
X105900256Y-93627205D01*
X106069774Y-93513937D01*
X106213937Y-93369774D01*
X106327205Y-93200256D01*
X106405226Y-93011898D01*
X106445000Y-92811939D01*
X106445000Y-92608061D01*
X106405226Y-92408102D01*
X106327205Y-92219744D01*
X106213937Y-92050226D01*
X106069774Y-91906063D01*
X105900256Y-91792795D01*
X105711898Y-91714774D01*
X105511939Y-91675000D01*
X105308061Y-91675000D01*
X105108102Y-91714774D01*
X104919744Y-91792795D01*
X104750226Y-91906063D01*
X104606063Y-92050226D01*
X104540000Y-92149097D01*
X104540000Y-91973061D01*
X104500226Y-91773102D01*
X104422205Y-91584744D01*
X104308937Y-91415226D01*
X104164774Y-91271063D01*
X103995256Y-91157795D01*
X103806898Y-91079774D01*
X103606939Y-91040000D01*
X103403061Y-91040000D01*
X103203102Y-91079774D01*
X103014744Y-91157795D01*
X102845226Y-91271063D01*
X102701063Y-91415226D01*
X102635000Y-91514097D01*
X102635000Y-91338061D01*
X102595226Y-91138102D01*
X102517205Y-90949744D01*
X102403937Y-90780226D01*
X102259774Y-90636063D01*
X102090256Y-90522795D01*
X101901898Y-90444774D01*
X101701939Y-90405000D01*
X101498061Y-90405000D01*
X101298102Y-90444774D01*
X101155500Y-90503842D01*
X101155500Y-81813061D01*
X103105000Y-81813061D01*
X103105000Y-82016939D01*
X103144774Y-82216898D01*
X103222795Y-82405256D01*
X103336063Y-82574774D01*
X103480226Y-82718937D01*
X103649744Y-82832205D01*
X103838102Y-82910226D01*
X104038061Y-82950000D01*
X104241939Y-82950000D01*
X104441898Y-82910226D01*
X104630256Y-82832205D01*
X104767503Y-82740500D01*
X111084450Y-82740500D01*
X111125000Y-82744494D01*
X111165550Y-82740500D01*
X111165553Y-82740500D01*
X111286826Y-82728556D01*
X111442434Y-82681353D01*
X111585842Y-82604699D01*
X111711541Y-82501541D01*
X111737398Y-82470034D01*
X113805004Y-80402428D01*
X113966898Y-80370226D01*
X114155256Y-80292205D01*
X114324774Y-80178937D01*
X114468937Y-80034774D01*
X114582205Y-79865256D01*
X114660226Y-79676898D01*
X114700000Y-79476939D01*
X114700000Y-79273061D01*
X114660226Y-79073102D01*
X114582205Y-78884744D01*
X114468937Y-78715226D01*
X114324774Y-78571063D01*
X114155256Y-78457795D01*
X113966898Y-78379774D01*
X113766939Y-78340000D01*
X113563061Y-78340000D01*
X113363102Y-78379774D01*
X113174744Y-78457795D01*
X113005226Y-78571063D01*
X112861063Y-78715226D01*
X112747795Y-78884744D01*
X112669774Y-79073102D01*
X112637572Y-79234996D01*
X110783068Y-81089500D01*
X104767503Y-81089500D01*
X104630256Y-80997795D01*
X104441898Y-80919774D01*
X104241939Y-80880000D01*
X104038061Y-80880000D01*
X103838102Y-80919774D01*
X103649744Y-80997795D01*
X103480226Y-81111063D01*
X103336063Y-81255226D01*
X103222795Y-81424744D01*
X103144774Y-81613102D01*
X103105000Y-81813061D01*
X101155500Y-81813061D01*
X101155500Y-79081932D01*
X103198121Y-77039311D01*
X103144774Y-77168102D01*
X103105000Y-77368061D01*
X103105000Y-77571939D01*
X103144774Y-77771898D01*
X103222795Y-77960256D01*
X103336063Y-78129774D01*
X103480226Y-78273937D01*
X103649744Y-78387205D01*
X103838102Y-78465226D01*
X104038061Y-78505000D01*
X104241939Y-78505000D01*
X104439160Y-78465771D01*
X104492795Y-78595256D01*
X104606063Y-78764774D01*
X104750226Y-78908937D01*
X104919744Y-79022205D01*
X105108102Y-79100226D01*
X105308061Y-79140000D01*
X105511939Y-79140000D01*
X105711898Y-79100226D01*
X105900256Y-79022205D01*
X106069774Y-78908937D01*
X106213937Y-78764774D01*
X106327205Y-78595256D01*
X106405226Y-78406898D01*
X106437428Y-78245004D01*
X107021933Y-77660500D01*
X116212497Y-77660500D01*
X116349744Y-77752205D01*
X116538102Y-77830226D01*
X116738061Y-77870000D01*
X116941939Y-77870000D01*
X117141898Y-77830226D01*
X117330256Y-77752205D01*
X117499774Y-77638937D01*
X117643937Y-77494774D01*
X117757205Y-77325256D01*
X117835226Y-77136898D01*
X117875000Y-76936939D01*
X117875000Y-76733061D01*
X117835226Y-76533102D01*
X117757205Y-76344744D01*
X117643937Y-76175226D01*
X117499774Y-76031063D01*
X117330256Y-75917795D01*
X117141898Y-75839774D01*
X116941939Y-75800000D01*
X116738061Y-75800000D01*
X116538102Y-75839774D01*
X116349744Y-75917795D01*
X116212497Y-76009500D01*
X114601158Y-76009500D01*
X114660226Y-75866898D01*
X114700000Y-75666939D01*
X114700000Y-75463061D01*
X114660226Y-75263102D01*
X114582205Y-75074744D01*
X114468937Y-74905226D01*
X114324774Y-74761063D01*
X114155256Y-74647795D01*
X113966898Y-74569774D01*
X113766939Y-74530000D01*
X113563061Y-74530000D01*
X113363102Y-74569774D01*
X113174744Y-74647795D01*
X113037497Y-74739500D01*
X106085550Y-74739500D01*
X106044999Y-74735506D01*
X106004449Y-74739500D01*
X106004447Y-74739500D01*
X105883174Y-74751444D01*
X105751816Y-74791291D01*
X105727566Y-74798647D01*
X105584157Y-74875301D01*
X105553539Y-74900429D01*
X105458459Y-74978459D01*
X105432606Y-75009961D01*
X103999996Y-76442571D01*
X103838102Y-76474774D01*
X103709311Y-76528121D01*
X110073291Y-70164143D01*
X110328967Y-70215000D01*
X110651033Y-70215000D01*
X110966912Y-70152168D01*
X111264463Y-70028918D01*
X111532252Y-69849987D01*
X111759987Y-69622252D01*
X111938918Y-69354463D01*
X112062168Y-69056912D01*
X112125000Y-68741033D01*
X112125000Y-68418967D01*
X112062168Y-68103088D01*
X111938918Y-67805537D01*
X111759987Y-67537748D01*
X111532252Y-67310013D01*
X111264463Y-67131082D01*
X110966912Y-67007832D01*
X110891436Y-66992819D01*
X113495255Y-64389000D01*
X126037539Y-64389000D01*
X126004774Y-64468102D01*
X125965000Y-64668061D01*
X125965000Y-64871939D01*
X126004774Y-65071898D01*
X126082795Y-65260256D01*
X126196063Y-65429774D01*
X126340226Y-65573937D01*
X126509744Y-65687205D01*
X126698102Y-65765226D01*
X126898061Y-65805000D01*
X127101939Y-65805000D01*
X127301898Y-65765226D01*
X127490256Y-65687205D01*
X127532468Y-65659000D01*
X134087532Y-65659000D01*
X134129744Y-65687205D01*
X134318102Y-65765226D01*
X134518061Y-65805000D01*
X134721939Y-65805000D01*
X134921898Y-65765226D01*
X135110256Y-65687205D01*
X135279774Y-65573937D01*
X135423937Y-65429774D01*
X135537205Y-65260256D01*
X135615226Y-65071898D01*
X135636001Y-64967456D01*
X135636001Y-71711330D01*
X135631700Y-71755000D01*
X135648864Y-71929274D01*
X135699698Y-72096852D01*
X135746071Y-72183609D01*
X135782248Y-72251291D01*
X135893342Y-72386659D01*
X135927259Y-72414494D01*
X139331928Y-75819163D01*
X139331928Y-77200000D01*
X139344188Y-77324482D01*
X139380498Y-77444180D01*
X139439463Y-77554494D01*
X139518815Y-77651185D01*
X139615506Y-77730537D01*
X139725820Y-77789502D01*
X139845518Y-77825812D01*
X139970000Y-77838072D01*
X140069493Y-77838072D01*
X124319996Y-93587570D01*
X124158101Y-93619773D01*
X123969743Y-93697794D01*
X123800225Y-93811062D01*
X123656062Y-93955225D01*
X123542794Y-94124743D01*
X123464773Y-94313101D01*
X123424999Y-94513060D01*
X123424999Y-94716938D01*
X123464773Y-94916897D01*
X123542794Y-95105255D01*
X123656062Y-95274773D01*
X123800225Y-95418936D01*
X123969743Y-95532204D01*
X124158101Y-95610225D01*
X124315289Y-95641491D01*
X122512782Y-97443999D01*
X106876043Y-97443999D01*
X106835500Y-97440006D01*
X106794957Y-97443999D01*
X106794948Y-97443999D01*
X106673675Y-97455943D01*
X106518067Y-97503146D01*
X106393179Y-97569901D01*
X106374657Y-97579801D01*
X106350654Y-97599500D01*
X106248960Y-97682958D01*
X106223109Y-97714458D01*
X105904993Y-98032575D01*
X105743099Y-98064777D01*
X105554741Y-98142798D01*
X105385223Y-98256066D01*
X105241060Y-98400229D01*
X105127792Y-98569747D01*
X105049771Y-98758105D01*
X105009997Y-98958064D01*
X105009997Y-99123500D01*
X102100503Y-99123500D01*
X101963256Y-99031795D01*
X101774898Y-98953774D01*
X101574939Y-98914000D01*
X101371061Y-98914000D01*
X101171102Y-98953774D01*
X100982744Y-99031795D01*
X100813226Y-99145063D01*
X100669063Y-99289226D01*
X100555795Y-99458744D01*
X100477774Y-99647102D01*
X100438000Y-99847061D01*
X100438000Y-100050939D01*
X100477774Y-100250898D01*
X100555795Y-100439256D01*
X100669063Y-100608774D01*
X100813226Y-100752937D01*
X100982744Y-100866205D01*
X101171102Y-100944226D01*
X101371061Y-100984000D01*
X101574939Y-100984000D01*
X101774898Y-100944226D01*
X101963256Y-100866205D01*
X102100503Y-100774500D01*
X127340450Y-100774500D01*
X127381000Y-100778494D01*
X127421550Y-100774500D01*
X127421553Y-100774500D01*
X127542826Y-100762556D01*
X127698434Y-100715353D01*
X127841842Y-100638699D01*
X127967541Y-100535541D01*
X127993398Y-100504034D01*
X130047367Y-98450065D01*
X131045000Y-98450065D01*
X131045000Y-98653943D01*
X131084774Y-98853902D01*
X131162795Y-99042260D01*
X131276063Y-99211778D01*
X131420226Y-99355941D01*
X131589744Y-99469209D01*
X131778102Y-99547230D01*
X131978061Y-99587004D01*
X132181939Y-99587004D01*
X132381898Y-99547230D01*
X132570256Y-99469209D01*
X132707503Y-99377504D01*
X134923486Y-99377504D01*
X134886970Y-99561085D01*
X134886970Y-99764963D01*
X134926744Y-99964922D01*
X135004765Y-100153280D01*
X135118033Y-100322798D01*
X135262196Y-100466961D01*
X135431714Y-100580229D01*
X135620072Y-100658250D01*
X135820031Y-100698024D01*
X136023909Y-100698024D01*
X136223868Y-100658250D01*
X136412226Y-100580229D01*
X136501617Y-100520500D01*
X145374450Y-100520500D01*
X145415000Y-100524494D01*
X145455550Y-100520500D01*
X145455553Y-100520500D01*
X145576826Y-100508556D01*
X145732434Y-100461353D01*
X145875842Y-100384699D01*
X146001541Y-100281541D01*
X146027398Y-100250034D01*
X146684371Y-99593061D01*
X152635000Y-99593061D01*
X152635000Y-99796939D01*
X152674774Y-99996898D01*
X152752795Y-100185256D01*
X152866063Y-100354774D01*
X153010226Y-100498937D01*
X153179744Y-100612205D01*
X153368102Y-100690226D01*
X153568061Y-100730000D01*
X153771939Y-100730000D01*
X153971898Y-100690226D01*
X154160256Y-100612205D01*
X154329774Y-100498937D01*
X154473937Y-100354774D01*
X154587205Y-100185256D01*
X154665226Y-99996898D01*
X154675130Y-99947105D01*
X156299174Y-98323061D01*
X174225000Y-98323061D01*
X174225000Y-98526939D01*
X174264774Y-98726898D01*
X174342795Y-98915256D01*
X174456063Y-99084774D01*
X174600226Y-99228937D01*
X174769744Y-99342205D01*
X174958102Y-99420226D01*
X175158061Y-99460000D01*
X175361939Y-99460000D01*
X175561898Y-99420226D01*
X175750256Y-99342205D01*
X175919774Y-99228937D01*
X176063937Y-99084774D01*
X176177205Y-98915256D01*
X176255226Y-98726898D01*
X176295000Y-98526939D01*
X176295000Y-98323061D01*
X176255226Y-98123102D01*
X176177205Y-97934744D01*
X176085500Y-97797497D01*
X176085500Y-94321932D01*
X177316998Y-93090434D01*
X202879876Y-93090434D01*
X202936498Y-93277107D01*
X203076601Y-93565382D01*
X203270252Y-93820785D01*
X203510008Y-94033501D01*
X203786656Y-94195356D01*
X204089565Y-94300129D01*
X204343000Y-94181315D01*
X204343000Y-92837000D01*
X204597000Y-92837000D01*
X204597000Y-94181315D01*
X204850435Y-94300129D01*
X205153344Y-94195356D01*
X205429992Y-94033501D01*
X205669748Y-93820785D01*
X205863399Y-93565382D01*
X206003502Y-93277107D01*
X206060124Y-93090434D01*
X205940777Y-92837000D01*
X204597000Y-92837000D01*
X204343000Y-92837000D01*
X202999223Y-92837000D01*
X202879876Y-93090434D01*
X177316998Y-93090434D01*
X178077866Y-92329566D01*
X202879876Y-92329566D01*
X202999223Y-92583000D01*
X204343000Y-92583000D01*
X204343000Y-91238685D01*
X204597000Y-91238685D01*
X204597000Y-92583000D01*
X205940777Y-92583000D01*
X206060124Y-92329566D01*
X206003502Y-92142893D01*
X205863399Y-91854618D01*
X205753748Y-91710000D01*
X207911928Y-91710000D01*
X207911928Y-93710000D01*
X207924188Y-93834482D01*
X207960498Y-93954180D01*
X208019463Y-94064494D01*
X208098815Y-94161185D01*
X208195506Y-94240537D01*
X208305820Y-94299502D01*
X208425518Y-94335812D01*
X208550000Y-94348072D01*
X210550000Y-94348072D01*
X210674482Y-94335812D01*
X210794180Y-94299502D01*
X210904494Y-94240537D01*
X211001185Y-94161185D01*
X211080537Y-94064494D01*
X211139502Y-93954180D01*
X211175812Y-93834482D01*
X211188072Y-93710000D01*
X211188072Y-91710000D01*
X211175812Y-91585518D01*
X211139502Y-91465820D01*
X211080537Y-91355506D01*
X211001185Y-91258815D01*
X210904494Y-91179463D01*
X210794180Y-91120498D01*
X210674482Y-91084188D01*
X210550000Y-91071928D01*
X208550000Y-91071928D01*
X208425518Y-91084188D01*
X208305820Y-91120498D01*
X208195506Y-91179463D01*
X208098815Y-91258815D01*
X208019463Y-91355506D01*
X207960498Y-91465820D01*
X207924188Y-91585518D01*
X207911928Y-91710000D01*
X205753748Y-91710000D01*
X205669748Y-91599215D01*
X205429992Y-91386499D01*
X205153344Y-91224644D01*
X204850435Y-91119871D01*
X204597000Y-91238685D01*
X204343000Y-91238685D01*
X204089565Y-91119871D01*
X203786656Y-91224644D01*
X203510008Y-91386499D01*
X203270252Y-91599215D01*
X203076601Y-91854618D01*
X202936498Y-92142893D01*
X202879876Y-92329566D01*
X178077866Y-92329566D01*
X178654332Y-91753101D01*
X178768102Y-91800226D01*
X178968061Y-91840000D01*
X179171939Y-91840000D01*
X179371898Y-91800226D01*
X179560256Y-91722205D01*
X179729774Y-91608937D01*
X179873937Y-91464774D01*
X179987205Y-91295256D01*
X180065226Y-91106898D01*
X180105000Y-90906939D01*
X180105000Y-90703061D01*
X180065226Y-90503102D01*
X179987205Y-90314744D01*
X179967145Y-90284721D01*
X230275000Y-90284721D01*
X230275000Y-90705279D01*
X230357047Y-91117756D01*
X230517988Y-91506302D01*
X230751637Y-91855983D01*
X231049017Y-92153363D01*
X231398698Y-92387012D01*
X231787244Y-92547953D01*
X232199721Y-92630000D01*
X232620279Y-92630000D01*
X233032756Y-92547953D01*
X233421302Y-92387012D01*
X233770983Y-92153363D01*
X234068363Y-91855983D01*
X234302012Y-91506302D01*
X234462953Y-91117756D01*
X234545000Y-90705279D01*
X234545000Y-90284721D01*
X234462953Y-89872244D01*
X234302012Y-89483698D01*
X234068363Y-89134017D01*
X233770983Y-88836637D01*
X233421302Y-88602988D01*
X233032756Y-88442047D01*
X232620279Y-88360000D01*
X232199721Y-88360000D01*
X231787244Y-88442047D01*
X231398698Y-88602988D01*
X231049017Y-88836637D01*
X230751637Y-89134017D01*
X230517988Y-89483698D01*
X230357047Y-89872244D01*
X230275000Y-90284721D01*
X179967145Y-90284721D01*
X179873937Y-90145226D01*
X179729774Y-90001063D01*
X179560256Y-89887795D01*
X179371898Y-89809774D01*
X179171939Y-89770000D01*
X178968061Y-89770000D01*
X178768102Y-89809774D01*
X178579744Y-89887795D01*
X178446744Y-89976663D01*
X178434999Y-89975506D01*
X178394449Y-89979500D01*
X178394447Y-89979500D01*
X178273174Y-89991444D01*
X178117566Y-90038647D01*
X177974157Y-90115301D01*
X177937694Y-90145226D01*
X177848459Y-90218459D01*
X177822606Y-90249961D01*
X174704966Y-93367602D01*
X174673459Y-93393459D01*
X174604214Y-93477835D01*
X174570301Y-93519158D01*
X174493648Y-93662566D01*
X174493647Y-93662567D01*
X174446444Y-93818175D01*
X174434500Y-93939447D01*
X174430506Y-93980000D01*
X174434500Y-94020551D01*
X174434501Y-97797496D01*
X174342795Y-97934744D01*
X174264774Y-98123102D01*
X174225000Y-98323061D01*
X156299174Y-98323061D01*
X156807743Y-97814493D01*
X156841659Y-97786659D01*
X156952753Y-97651291D01*
X157035303Y-97496851D01*
X157055650Y-97429774D01*
X157086136Y-97329276D01*
X157089406Y-97296076D01*
X157099000Y-97198667D01*
X157099000Y-97198661D01*
X157103300Y-97155001D01*
X157099000Y-97111341D01*
X157099000Y-89268235D01*
X159038119Y-87329116D01*
X159102795Y-87485256D01*
X159216063Y-87654774D01*
X159360226Y-87798937D01*
X159529744Y-87912205D01*
X159718102Y-87990226D01*
X159918061Y-88030000D01*
X160121939Y-88030000D01*
X160321898Y-87990226D01*
X160510256Y-87912205D01*
X160647503Y-87820500D01*
X172727497Y-87820500D01*
X172864744Y-87912205D01*
X173053102Y-87990226D01*
X173253061Y-88030000D01*
X173456939Y-88030000D01*
X173656898Y-87990226D01*
X173845256Y-87912205D01*
X174014774Y-87798937D01*
X174158937Y-87654774D01*
X174272205Y-87485256D01*
X174350226Y-87296898D01*
X174390000Y-87096939D01*
X174390000Y-86893061D01*
X174350226Y-86693102D01*
X174272205Y-86504744D01*
X174158937Y-86335226D01*
X174014774Y-86191063D01*
X173845256Y-86077795D01*
X173656898Y-85999774D01*
X173456939Y-85960000D01*
X173253061Y-85960000D01*
X173053102Y-85999774D01*
X172864744Y-86077795D01*
X172727497Y-86169500D01*
X160647503Y-86169500D01*
X160510256Y-86077795D01*
X160354116Y-86013119D01*
X160388236Y-85979000D01*
X169012532Y-85979000D01*
X169054744Y-86007205D01*
X169243102Y-86085226D01*
X169443061Y-86125000D01*
X169646939Y-86125000D01*
X169846898Y-86085226D01*
X170035256Y-86007205D01*
X170204774Y-85893937D01*
X170348937Y-85749774D01*
X170462205Y-85580256D01*
X170540226Y-85391898D01*
X170580000Y-85191939D01*
X170580000Y-84988061D01*
X170540226Y-84788102D01*
X170462205Y-84599744D01*
X170348937Y-84430226D01*
X170204774Y-84286063D01*
X170035256Y-84172795D01*
X169846898Y-84094774D01*
X169646939Y-84055000D01*
X169443061Y-84055000D01*
X169243102Y-84094774D01*
X169054744Y-84172795D01*
X169012532Y-84201000D01*
X160063660Y-84201000D01*
X160020000Y-84196700D01*
X159976340Y-84201000D01*
X159976333Y-84201000D01*
X159862325Y-84212229D01*
X159845725Y-84213864D01*
X159794892Y-84229284D01*
X159678149Y-84264697D01*
X159523709Y-84347247D01*
X159388341Y-84458341D01*
X159360506Y-84492258D01*
X155612259Y-88240506D01*
X155578342Y-88268341D01*
X155550507Y-88302258D01*
X155550505Y-88302260D01*
X155467248Y-88403709D01*
X155384698Y-88558148D01*
X155333864Y-88725726D01*
X155316700Y-88900000D01*
X155321001Y-88943670D01*
X155321000Y-96786764D01*
X153417895Y-98689870D01*
X153368102Y-98699774D01*
X153179744Y-98777795D01*
X153010226Y-98891063D01*
X152866063Y-99035226D01*
X152752795Y-99204744D01*
X152674774Y-99393102D01*
X152635000Y-99593061D01*
X146684371Y-99593061D01*
X153253290Y-93024143D01*
X153508967Y-93075000D01*
X153831033Y-93075000D01*
X154146912Y-93012168D01*
X154444463Y-92888918D01*
X154712252Y-92709987D01*
X154939987Y-92482252D01*
X155118918Y-92214463D01*
X155242168Y-91916912D01*
X155305000Y-91601033D01*
X155305000Y-91278967D01*
X155242168Y-90963088D01*
X155118918Y-90665537D01*
X154939987Y-90397748D01*
X154712252Y-90170013D01*
X154444463Y-89991082D01*
X154146912Y-89867832D01*
X153831033Y-89805000D01*
X153508967Y-89805000D01*
X153193088Y-89867832D01*
X152895537Y-89991082D01*
X152627748Y-90170013D01*
X152400013Y-90397748D01*
X152400000Y-90397767D01*
X152399987Y-90397748D01*
X152172252Y-90170013D01*
X151904463Y-89991082D01*
X151606912Y-89867832D01*
X151291033Y-89805000D01*
X150968967Y-89805000D01*
X150653088Y-89867832D01*
X150355537Y-89991082D01*
X150087748Y-90170013D01*
X149860013Y-90397748D01*
X149860000Y-90397767D01*
X149859987Y-90397748D01*
X149632252Y-90170013D01*
X149364463Y-89991082D01*
X149066912Y-89867832D01*
X148751033Y-89805000D01*
X148428967Y-89805000D01*
X148113088Y-89867832D01*
X147815537Y-89991082D01*
X147547748Y-90170013D01*
X147320013Y-90397748D01*
X147320000Y-90397767D01*
X147319987Y-90397748D01*
X147092252Y-90170013D01*
X146824463Y-89991082D01*
X146526912Y-89867832D01*
X146211033Y-89805000D01*
X145888967Y-89805000D01*
X145573088Y-89867832D01*
X145275537Y-89991082D01*
X145007748Y-90170013D01*
X144780013Y-90397748D01*
X144780000Y-90397767D01*
X144779987Y-90397748D01*
X144552252Y-90170013D01*
X144284463Y-89991082D01*
X143986912Y-89867832D01*
X143671033Y-89805000D01*
X143348967Y-89805000D01*
X143033088Y-89867832D01*
X142735537Y-89991082D01*
X142467748Y-90170013D01*
X142240013Y-90397748D01*
X142240000Y-90397767D01*
X142239987Y-90397748D01*
X142012252Y-90170013D01*
X141744463Y-89991082D01*
X141446912Y-89867832D01*
X141131033Y-89805000D01*
X140808967Y-89805000D01*
X140493088Y-89867832D01*
X140195537Y-89991082D01*
X139927748Y-90170013D01*
X139700013Y-90397748D01*
X139521082Y-90665537D01*
X139397832Y-90963088D01*
X139335000Y-91278967D01*
X139335000Y-91601033D01*
X139397832Y-91916912D01*
X139521082Y-92214463D01*
X139700013Y-92482252D01*
X139927748Y-92709987D01*
X140195537Y-92888918D01*
X140493088Y-93012168D01*
X140724390Y-93058177D01*
X136056064Y-97726504D01*
X132707503Y-97726504D01*
X132570256Y-97634799D01*
X132381898Y-97556778D01*
X132181939Y-97517004D01*
X131978061Y-97517004D01*
X131778102Y-97556778D01*
X131589744Y-97634799D01*
X131420226Y-97748067D01*
X131276063Y-97892230D01*
X131162795Y-98061748D01*
X131084774Y-98250106D01*
X131045000Y-98450065D01*
X130047367Y-98450065D01*
X147852433Y-80645000D01*
X191891471Y-80645000D01*
X191913539Y-80869067D01*
X191978898Y-81084523D01*
X192085033Y-81283088D01*
X192227867Y-81457133D01*
X192401912Y-81599967D01*
X192600477Y-81706102D01*
X192815933Y-81771461D01*
X193040000Y-81793529D01*
X193264067Y-81771461D01*
X193479523Y-81706102D01*
X193678088Y-81599967D01*
X193808521Y-81492924D01*
X194546724Y-80754721D01*
X230275000Y-80754721D01*
X230275000Y-81175279D01*
X230357047Y-81587756D01*
X230517988Y-81976302D01*
X230751637Y-82325983D01*
X231049017Y-82623363D01*
X231398698Y-82857012D01*
X231787244Y-83017953D01*
X232199721Y-83100000D01*
X232620279Y-83100000D01*
X233032756Y-83017953D01*
X233421302Y-82857012D01*
X233770983Y-82623363D01*
X234068363Y-82325983D01*
X234302012Y-81976302D01*
X234462953Y-81587756D01*
X234545000Y-81175279D01*
X234545000Y-80754721D01*
X234462953Y-80342244D01*
X234302012Y-79953698D01*
X234068363Y-79604017D01*
X233770983Y-79306637D01*
X233421302Y-79072988D01*
X233032756Y-78912047D01*
X232620279Y-78830000D01*
X232199721Y-78830000D01*
X231787244Y-78912047D01*
X231398698Y-79072988D01*
X231049017Y-79306637D01*
X230751637Y-79604017D01*
X230517988Y-79953698D01*
X230357047Y-80342244D01*
X230275000Y-80754721D01*
X194546724Y-80754721D01*
X202374792Y-72926653D01*
X231097952Y-72926653D01*
X231253962Y-73242214D01*
X231628745Y-73433020D01*
X232033551Y-73547044D01*
X232452824Y-73579902D01*
X232870451Y-73530334D01*
X233270383Y-73400243D01*
X233566038Y-73242214D01*
X233722048Y-72926653D01*
X232410000Y-71614605D01*
X231097952Y-72926653D01*
X202374792Y-72926653D01*
X203823621Y-71477824D01*
X230265098Y-71477824D01*
X230314666Y-71895451D01*
X230444757Y-72295383D01*
X230602786Y-72591038D01*
X230918347Y-72747048D01*
X232230395Y-71435000D01*
X232589605Y-71435000D01*
X233901653Y-72747048D01*
X234217214Y-72591038D01*
X234408020Y-72216255D01*
X234522044Y-71811449D01*
X234554902Y-71392176D01*
X234505334Y-70974549D01*
X234375243Y-70574617D01*
X234217214Y-70278962D01*
X233901653Y-70122952D01*
X232589605Y-71435000D01*
X232230395Y-71435000D01*
X230918347Y-70122952D01*
X230602786Y-70278962D01*
X230411980Y-70653745D01*
X230297956Y-71058551D01*
X230265098Y-71477824D01*
X203823621Y-71477824D01*
X204603524Y-70697922D01*
X204647133Y-70662133D01*
X204789968Y-70488089D01*
X204896103Y-70289523D01*
X204961461Y-70074067D01*
X204974335Y-69943347D01*
X231097952Y-69943347D01*
X232410000Y-71255395D01*
X233722048Y-69943347D01*
X233566038Y-69627786D01*
X233191255Y-69436980D01*
X232786449Y-69322956D01*
X232367176Y-69290098D01*
X231949549Y-69339666D01*
X231549617Y-69469757D01*
X231253962Y-69627786D01*
X231097952Y-69943347D01*
X204974335Y-69943347D01*
X204978000Y-69906146D01*
X204978000Y-69906140D01*
X204983529Y-69850001D01*
X204978000Y-69793862D01*
X204978000Y-61694721D01*
X230275000Y-61694721D01*
X230275000Y-62115279D01*
X230357047Y-62527756D01*
X230517988Y-62916302D01*
X230751637Y-63265983D01*
X231049017Y-63563363D01*
X231398698Y-63797012D01*
X231787244Y-63957953D01*
X232199721Y-64040000D01*
X232620279Y-64040000D01*
X233032756Y-63957953D01*
X233421302Y-63797012D01*
X233770983Y-63563363D01*
X234068363Y-63265983D01*
X234302012Y-62916302D01*
X234462953Y-62527756D01*
X234545000Y-62115279D01*
X234545000Y-61694721D01*
X234462953Y-61282244D01*
X234302012Y-60893698D01*
X234068363Y-60544017D01*
X233770983Y-60246637D01*
X233421302Y-60012988D01*
X233032756Y-59852047D01*
X232620279Y-59770000D01*
X232199721Y-59770000D01*
X231787244Y-59852047D01*
X231398698Y-60012988D01*
X231049017Y-60246637D01*
X230751637Y-60544017D01*
X230517988Y-60893698D01*
X230357047Y-61282244D01*
X230275000Y-61694721D01*
X204978000Y-61694721D01*
X204978000Y-61016139D01*
X204983529Y-60960000D01*
X204978000Y-60903861D01*
X204978000Y-60903854D01*
X204961461Y-60735933D01*
X204896103Y-60520477D01*
X204789968Y-60321911D01*
X204647133Y-60147867D01*
X204603523Y-60112077D01*
X203568072Y-59076627D01*
X203568072Y-58055000D01*
X203555812Y-57930518D01*
X203519502Y-57810820D01*
X203460537Y-57700506D01*
X203381185Y-57603815D01*
X203284494Y-57524463D01*
X203174180Y-57465498D01*
X203054482Y-57429188D01*
X202930000Y-57416928D01*
X200930000Y-57416928D01*
X200805518Y-57429188D01*
X200685820Y-57465498D01*
X200575506Y-57524463D01*
X200478815Y-57603815D01*
X200399463Y-57700506D01*
X200340498Y-57810820D01*
X200304188Y-57930518D01*
X200291928Y-58055000D01*
X200291928Y-60055000D01*
X200304188Y-60179482D01*
X200340498Y-60299180D01*
X200399463Y-60409494D01*
X200478815Y-60506185D01*
X200575506Y-60585537D01*
X200685820Y-60644502D01*
X200805518Y-60680812D01*
X200930000Y-60693072D01*
X201951627Y-60693072D01*
X202692001Y-61433447D01*
X202692001Y-62680920D01*
X202406912Y-62562832D01*
X202091033Y-62500000D01*
X201768967Y-62500000D01*
X201453088Y-62562832D01*
X201155537Y-62686082D01*
X200887748Y-62865013D01*
X200660013Y-63092748D01*
X200481082Y-63360537D01*
X200357832Y-63658088D01*
X200295000Y-63973967D01*
X200295000Y-64296033D01*
X200357832Y-64611912D01*
X200481082Y-64909463D01*
X200660013Y-65177252D01*
X200887748Y-65404987D01*
X201155537Y-65583918D01*
X201453088Y-65707168D01*
X201768967Y-65770000D01*
X202091033Y-65770000D01*
X202406912Y-65707168D01*
X202692000Y-65589080D01*
X202692000Y-66731145D01*
X202692001Y-66731155D01*
X202692000Y-69376554D01*
X192192076Y-79876479D01*
X192085033Y-80006912D01*
X191978898Y-80205477D01*
X191913539Y-80420933D01*
X191891471Y-80645000D01*
X147852433Y-80645000D01*
X150713291Y-77784143D01*
X150968967Y-77835000D01*
X151291033Y-77835000D01*
X151606912Y-77772168D01*
X151904463Y-77648918D01*
X152172252Y-77469987D01*
X152399987Y-77242252D01*
X152400000Y-77242233D01*
X152400013Y-77242252D01*
X152627748Y-77469987D01*
X152895537Y-77648918D01*
X153193088Y-77772168D01*
X153508967Y-77835000D01*
X153831033Y-77835000D01*
X154146912Y-77772168D01*
X154444463Y-77648918D01*
X154712252Y-77469987D01*
X154939987Y-77242252D01*
X155118918Y-76974463D01*
X155218910Y-76733061D01*
X167240000Y-76733061D01*
X167240000Y-76936939D01*
X167279774Y-77136898D01*
X167357795Y-77325256D01*
X167471063Y-77494774D01*
X167615226Y-77638937D01*
X167784744Y-77752205D01*
X167973102Y-77830226D01*
X168173061Y-77870000D01*
X168376939Y-77870000D01*
X168576898Y-77830226D01*
X168765256Y-77752205D01*
X168934774Y-77638937D01*
X169078937Y-77494774D01*
X169192205Y-77325256D01*
X169270226Y-77136898D01*
X169310000Y-76936939D01*
X169310000Y-76733061D01*
X169270226Y-76533102D01*
X169192205Y-76344744D01*
X169164000Y-76302532D01*
X169164000Y-74663235D01*
X169797105Y-74030130D01*
X169846898Y-74020226D01*
X170035256Y-73942205D01*
X170204774Y-73828937D01*
X170348937Y-73684774D01*
X170462205Y-73515256D01*
X170540226Y-73326898D01*
X170580000Y-73126939D01*
X170580000Y-72923061D01*
X170540226Y-72723102D01*
X170462205Y-72534744D01*
X170348937Y-72365226D01*
X170204774Y-72221063D01*
X170035256Y-72107795D01*
X169846898Y-72029774D01*
X169646939Y-71990000D01*
X169443061Y-71990000D01*
X169243102Y-72029774D01*
X169054744Y-72107795D01*
X168885226Y-72221063D01*
X168741063Y-72365226D01*
X168627795Y-72534744D01*
X168549774Y-72723102D01*
X168539870Y-72772895D01*
X167677264Y-73635501D01*
X167643341Y-73663341D01*
X167532247Y-73798710D01*
X167449697Y-73953150D01*
X167439568Y-73986541D01*
X167406760Y-74094698D01*
X167398864Y-74120727D01*
X167386000Y-74251334D01*
X167386000Y-74251340D01*
X167381700Y-74295000D01*
X167386000Y-74338660D01*
X167386001Y-76302531D01*
X167357795Y-76344744D01*
X167279774Y-76533102D01*
X167240000Y-76733061D01*
X155218910Y-76733061D01*
X155242168Y-76676912D01*
X155305000Y-76361033D01*
X155305000Y-76038967D01*
X155242168Y-75723088D01*
X155118918Y-75425537D01*
X154939987Y-75157748D01*
X154712252Y-74930013D01*
X154444463Y-74751082D01*
X154146912Y-74627832D01*
X153990513Y-74596722D01*
X157322235Y-71265000D01*
X171651928Y-71265000D01*
X171664188Y-71389482D01*
X171700498Y-71509180D01*
X171759463Y-71619494D01*
X171838815Y-71716185D01*
X171935506Y-71795537D01*
X172045820Y-71854502D01*
X172165518Y-71890812D01*
X172290000Y-71903072D01*
X172754250Y-71900000D01*
X172913000Y-71741250D01*
X172913000Y-69992000D01*
X173167000Y-69992000D01*
X173167000Y-71741250D01*
X173325750Y-71900000D01*
X173446928Y-71900802D01*
X173446928Y-72415000D01*
X173459188Y-72539482D01*
X173495498Y-72659180D01*
X173554463Y-72769494D01*
X173633815Y-72866185D01*
X173730506Y-72945537D01*
X173840820Y-73004502D01*
X173960518Y-73040812D01*
X174085000Y-73053072D01*
X174785000Y-73053072D01*
X174809501Y-73050659D01*
X174809501Y-73359440D01*
X174805506Y-73400000D01*
X174821445Y-73561826D01*
X174868647Y-73717433D01*
X174945301Y-73860842D01*
X175005976Y-73934774D01*
X175048460Y-73986541D01*
X175079961Y-74012393D01*
X177407572Y-76340004D01*
X177439774Y-76501898D01*
X177517795Y-76690256D01*
X177631063Y-76859774D01*
X177775226Y-77003937D01*
X177944744Y-77117205D01*
X178133102Y-77195226D01*
X178333061Y-77235000D01*
X178536939Y-77235000D01*
X178736898Y-77195226D01*
X178925256Y-77117205D01*
X179094774Y-77003937D01*
X179238937Y-76859774D01*
X179352205Y-76690256D01*
X179430226Y-76501898D01*
X179470000Y-76301939D01*
X179470000Y-76098061D01*
X179430226Y-75898102D01*
X179352205Y-75709744D01*
X179238937Y-75540226D01*
X179094774Y-75396063D01*
X178925256Y-75282795D01*
X178736898Y-75204774D01*
X178575004Y-75172572D01*
X176460500Y-73058068D01*
X176460500Y-73053072D01*
X177435000Y-73053072D01*
X177559482Y-73040812D01*
X177679180Y-73004502D01*
X177785000Y-72947939D01*
X177824918Y-72969276D01*
X177868647Y-73113433D01*
X177945301Y-73256842D01*
X178002795Y-73326898D01*
X178048460Y-73382541D01*
X178079961Y-73408393D01*
X182079636Y-77408068D01*
X182105488Y-77439570D01*
X182165288Y-77488646D01*
X182231185Y-77542727D01*
X182231187Y-77542728D01*
X182374595Y-77619382D01*
X182530203Y-77666585D01*
X182651476Y-77678529D01*
X182651485Y-77678529D01*
X182692028Y-77682522D01*
X182732571Y-77678529D01*
X183501607Y-77678529D01*
X183638854Y-77770234D01*
X183827212Y-77848255D01*
X184027171Y-77888029D01*
X184231049Y-77888029D01*
X184431008Y-77848255D01*
X184619366Y-77770234D01*
X184788884Y-77656966D01*
X184933047Y-77512803D01*
X185046315Y-77343285D01*
X185078985Y-77264414D01*
X185729071Y-77914500D01*
X181602467Y-77914500D01*
X181465220Y-77822795D01*
X181276862Y-77744774D01*
X181076903Y-77705000D01*
X180873025Y-77705000D01*
X180673066Y-77744774D01*
X180484708Y-77822795D01*
X180315190Y-77936063D01*
X180171027Y-78080226D01*
X180057759Y-78249744D01*
X179979738Y-78438102D01*
X179939964Y-78638061D01*
X179939964Y-78841939D01*
X179979738Y-79041898D01*
X180057759Y-79230256D01*
X180171027Y-79399774D01*
X180315190Y-79543937D01*
X180484708Y-79657205D01*
X180673066Y-79735226D01*
X180873025Y-79775000D01*
X181076903Y-79775000D01*
X181276862Y-79735226D01*
X181465220Y-79657205D01*
X181602467Y-79565500D01*
X188501603Y-79565500D01*
X188542153Y-79569494D01*
X188582703Y-79565500D01*
X188582706Y-79565500D01*
X188703979Y-79553556D01*
X188859587Y-79506353D01*
X189002995Y-79429699D01*
X189128694Y-79326541D01*
X189154551Y-79295034D01*
X194120040Y-74329546D01*
X194151541Y-74303694D01*
X194254699Y-74177995D01*
X194331353Y-74034587D01*
X194378556Y-73878979D01*
X194390500Y-73757706D01*
X194390500Y-73757697D01*
X194394493Y-73717154D01*
X194390500Y-73676611D01*
X194390500Y-72961035D01*
X194419494Y-72945537D01*
X194516185Y-72866185D01*
X194595537Y-72769494D01*
X194654502Y-72659180D01*
X194690812Y-72539482D01*
X194703072Y-72415000D01*
X194703072Y-70915000D01*
X194690812Y-70790518D01*
X194654502Y-70670820D01*
X194595537Y-70560506D01*
X194516185Y-70463815D01*
X194419494Y-70384463D01*
X194309180Y-70325498D01*
X194189482Y-70289188D01*
X194065000Y-70276928D01*
X193065000Y-70276928D01*
X192940518Y-70289188D01*
X192820820Y-70325498D01*
X192710506Y-70384463D01*
X192613815Y-70463815D01*
X192534463Y-70560506D01*
X192475498Y-70670820D01*
X192439188Y-70790518D01*
X192426928Y-70915000D01*
X192426928Y-72415000D01*
X192439188Y-72539482D01*
X192475498Y-72659180D01*
X192534463Y-72769494D01*
X192613815Y-72866185D01*
X192710506Y-72945537D01*
X192739501Y-72961035D01*
X192739501Y-73375219D01*
X191890500Y-74224220D01*
X191890500Y-72961035D01*
X191919494Y-72945537D01*
X192016185Y-72866185D01*
X192095537Y-72769494D01*
X192154502Y-72659180D01*
X192190812Y-72539482D01*
X192203072Y-72415000D01*
X192203072Y-70915000D01*
X192190812Y-70790518D01*
X192154502Y-70670820D01*
X192095537Y-70560506D01*
X192016185Y-70463815D01*
X191919494Y-70384463D01*
X191809180Y-70325498D01*
X191689482Y-70289188D01*
X191565000Y-70276928D01*
X190565000Y-70276928D01*
X190440518Y-70289188D01*
X190320820Y-70325498D01*
X190210506Y-70384463D01*
X190113815Y-70463815D01*
X190034463Y-70560506D01*
X189975498Y-70670820D01*
X189939188Y-70790518D01*
X189926928Y-70915000D01*
X189926928Y-72415000D01*
X189939188Y-72539482D01*
X189975498Y-72659180D01*
X190034463Y-72769494D01*
X190113815Y-72866185D01*
X190210506Y-72945537D01*
X190239500Y-72961035D01*
X190239501Y-74658066D01*
X189724996Y-75172572D01*
X189563102Y-75204774D01*
X189374744Y-75282795D01*
X189205226Y-75396063D01*
X189061063Y-75540226D01*
X188947795Y-75709744D01*
X188869774Y-75898102D01*
X188830000Y-76098061D01*
X188830000Y-76301939D01*
X188869774Y-76501898D01*
X188947795Y-76690256D01*
X189061063Y-76859774D01*
X189158005Y-76956716D01*
X188200221Y-77914500D01*
X187966494Y-77914500D01*
X187966494Y-77847551D01*
X187926720Y-77647592D01*
X187848699Y-77459234D01*
X187735431Y-77289716D01*
X187591268Y-77145553D01*
X187421750Y-77032285D01*
X187233392Y-76954264D01*
X187071499Y-76922062D01*
X186114437Y-75965000D01*
X186156939Y-75965000D01*
X186356898Y-75925226D01*
X186545256Y-75847205D01*
X186714774Y-75733937D01*
X186858937Y-75589774D01*
X186972205Y-75420256D01*
X187050226Y-75231898D01*
X187090000Y-75031939D01*
X187090000Y-74828061D01*
X187050226Y-74628102D01*
X186972205Y-74439744D01*
X186954000Y-74412498D01*
X186954000Y-72917219D01*
X187016185Y-72866185D01*
X187095537Y-72769494D01*
X187154502Y-72659180D01*
X187190812Y-72539482D01*
X187203072Y-72415000D01*
X187426928Y-72415000D01*
X187439188Y-72539482D01*
X187475498Y-72659180D01*
X187534463Y-72769494D01*
X187613815Y-72866185D01*
X187710506Y-72945537D01*
X187820820Y-73004502D01*
X187940518Y-73040812D01*
X188065000Y-73053072D01*
X188279250Y-73050000D01*
X188438000Y-72891250D01*
X188438000Y-71792000D01*
X188692000Y-71792000D01*
X188692000Y-72891250D01*
X188850750Y-73050000D01*
X189065000Y-73053072D01*
X189189482Y-73040812D01*
X189309180Y-73004502D01*
X189419494Y-72945537D01*
X189516185Y-72866185D01*
X189595537Y-72769494D01*
X189654502Y-72659180D01*
X189690812Y-72539482D01*
X189703072Y-72415000D01*
X189700000Y-71950750D01*
X189541250Y-71792000D01*
X188692000Y-71792000D01*
X188438000Y-71792000D01*
X187588750Y-71792000D01*
X187430000Y-71950750D01*
X187426928Y-72415000D01*
X187203072Y-72415000D01*
X187203072Y-70915000D01*
X187426928Y-70915000D01*
X187430000Y-71379250D01*
X187588750Y-71538000D01*
X188438000Y-71538000D01*
X188438000Y-70438750D01*
X188692000Y-70438750D01*
X188692000Y-71538000D01*
X189541250Y-71538000D01*
X189700000Y-71379250D01*
X189703072Y-70915000D01*
X189690812Y-70790518D01*
X189654502Y-70670820D01*
X189595537Y-70560506D01*
X189516185Y-70463815D01*
X189419494Y-70384463D01*
X189309180Y-70325498D01*
X189189482Y-70289188D01*
X189065000Y-70276928D01*
X188850750Y-70280000D01*
X188692000Y-70438750D01*
X188438000Y-70438750D01*
X188279250Y-70280000D01*
X188065000Y-70276928D01*
X187940518Y-70289188D01*
X187820820Y-70325498D01*
X187710506Y-70384463D01*
X187613815Y-70463815D01*
X187534463Y-70560506D01*
X187475498Y-70670820D01*
X187439188Y-70790518D01*
X187426928Y-70915000D01*
X187203072Y-70915000D01*
X187190812Y-70790518D01*
X187154502Y-70670820D01*
X187095537Y-70560506D01*
X187016185Y-70463815D01*
X186919494Y-70384463D01*
X186809180Y-70325498D01*
X186689482Y-70289188D01*
X186565000Y-70276928D01*
X185565000Y-70276928D01*
X185440518Y-70289188D01*
X185320820Y-70325498D01*
X185210506Y-70384463D01*
X185113815Y-70463815D01*
X185034463Y-70560506D01*
X184975498Y-70670820D01*
X184939188Y-70790518D01*
X184926928Y-70915000D01*
X184926928Y-72415000D01*
X184939188Y-72539482D01*
X184975498Y-72659180D01*
X185034463Y-72769494D01*
X185113815Y-72866185D01*
X185176000Y-72917219D01*
X185176001Y-74382565D01*
X185137795Y-74439744D01*
X185059774Y-74628102D01*
X185020000Y-74828061D01*
X185020000Y-74870564D01*
X184390500Y-74241064D01*
X184390500Y-72961035D01*
X184419494Y-72945537D01*
X184516185Y-72866185D01*
X184595537Y-72769494D01*
X184654502Y-72659180D01*
X184690812Y-72539482D01*
X184703072Y-72415000D01*
X184703072Y-70915000D01*
X184690812Y-70790518D01*
X184654502Y-70670820D01*
X184595537Y-70560506D01*
X184516185Y-70463815D01*
X184419494Y-70384463D01*
X184309180Y-70325498D01*
X184189482Y-70289188D01*
X184065000Y-70276928D01*
X183065000Y-70276928D01*
X182940518Y-70289188D01*
X182820820Y-70325498D01*
X182710506Y-70384463D01*
X182613815Y-70463815D01*
X182534463Y-70560506D01*
X182475498Y-70670820D01*
X182439188Y-70790518D01*
X182426928Y-70915000D01*
X182426928Y-72415000D01*
X182439188Y-72539482D01*
X182475498Y-72659180D01*
X182534463Y-72769494D01*
X182613815Y-72866185D01*
X182710506Y-72945537D01*
X182739500Y-72961035D01*
X182739501Y-74542436D01*
X182735506Y-74582996D01*
X182751445Y-74744822D01*
X182798647Y-74900429D01*
X182875301Y-75043838D01*
X182916694Y-75094275D01*
X182978460Y-75169537D01*
X183009961Y-75195389D01*
X183717726Y-75903154D01*
X183638854Y-75935824D01*
X183501607Y-76027529D01*
X183033962Y-76027529D01*
X179703989Y-72697557D01*
X179724502Y-72659180D01*
X179760812Y-72539482D01*
X179773072Y-72415000D01*
X179926928Y-72415000D01*
X179939188Y-72539482D01*
X179975498Y-72659180D01*
X180034463Y-72769494D01*
X180113815Y-72866185D01*
X180210506Y-72945537D01*
X180320820Y-73004502D01*
X180440518Y-73040812D01*
X180565000Y-73053072D01*
X180779250Y-73050000D01*
X180938000Y-72891250D01*
X180938000Y-71792000D01*
X181192000Y-71792000D01*
X181192000Y-72891250D01*
X181350750Y-73050000D01*
X181565000Y-73053072D01*
X181689482Y-73040812D01*
X181809180Y-73004502D01*
X181919494Y-72945537D01*
X182016185Y-72866185D01*
X182095537Y-72769494D01*
X182154502Y-72659180D01*
X182190812Y-72539482D01*
X182203072Y-72415000D01*
X182200000Y-71950750D01*
X182041250Y-71792000D01*
X181192000Y-71792000D01*
X180938000Y-71792000D01*
X180088750Y-71792000D01*
X179930000Y-71950750D01*
X179926928Y-72415000D01*
X179773072Y-72415000D01*
X179773072Y-70915000D01*
X179926928Y-70915000D01*
X179930000Y-71379250D01*
X180088750Y-71538000D01*
X180938000Y-71538000D01*
X180938000Y-70438750D01*
X181192000Y-70438750D01*
X181192000Y-71538000D01*
X182041250Y-71538000D01*
X182200000Y-71379250D01*
X182203072Y-70915000D01*
X182190812Y-70790518D01*
X182154502Y-70670820D01*
X182095537Y-70560506D01*
X182016185Y-70463815D01*
X181919494Y-70384463D01*
X181809180Y-70325498D01*
X181689482Y-70289188D01*
X181565000Y-70276928D01*
X181350750Y-70280000D01*
X181192000Y-70438750D01*
X180938000Y-70438750D01*
X180779250Y-70280000D01*
X180565000Y-70276928D01*
X180440518Y-70289188D01*
X180320820Y-70325498D01*
X180210506Y-70384463D01*
X180113815Y-70463815D01*
X180034463Y-70560506D01*
X179975498Y-70670820D01*
X179939188Y-70790518D01*
X179926928Y-70915000D01*
X179773072Y-70915000D01*
X179760812Y-70790518D01*
X179724502Y-70670820D01*
X179665537Y-70560506D01*
X179586185Y-70463815D01*
X179489494Y-70384463D01*
X179379180Y-70325498D01*
X179259482Y-70289188D01*
X179135000Y-70276928D01*
X178135000Y-70276928D01*
X178010518Y-70289188D01*
X177890820Y-70325498D01*
X177785000Y-70382061D01*
X177679180Y-70325498D01*
X177559482Y-70289188D01*
X177435000Y-70276928D01*
X176435000Y-70276928D01*
X176310518Y-70289188D01*
X176210000Y-70319680D01*
X176109482Y-70289188D01*
X175985000Y-70276928D01*
X175285000Y-70276928D01*
X175160518Y-70289188D01*
X175040820Y-70325498D01*
X175035000Y-70328609D01*
X175029180Y-70325498D01*
X174909482Y-70289188D01*
X174785000Y-70276928D01*
X174425348Y-70276928D01*
X174425000Y-70150750D01*
X174266250Y-69992000D01*
X173167000Y-69992000D01*
X172913000Y-69992000D01*
X171813750Y-69992000D01*
X171655000Y-70150750D01*
X171651928Y-71265000D01*
X157322235Y-71265000D01*
X157442742Y-71144494D01*
X157476659Y-71116659D01*
X157587753Y-70981291D01*
X157670303Y-70826851D01*
X157705716Y-70710108D01*
X157721136Y-70659275D01*
X157738301Y-70485000D01*
X157734000Y-70441332D01*
X157734000Y-68465000D01*
X171651928Y-68465000D01*
X171655000Y-69579250D01*
X171813750Y-69738000D01*
X172913000Y-69738000D01*
X172913000Y-67988750D01*
X173167000Y-67988750D01*
X173167000Y-69738000D01*
X174266250Y-69738000D01*
X174326703Y-69677547D01*
X174434606Y-69785450D01*
X174628692Y-69915134D01*
X174844348Y-70004461D01*
X175073288Y-70050000D01*
X175306712Y-70050000D01*
X175535652Y-70004461D01*
X175751308Y-69915134D01*
X175945394Y-69785450D01*
X176110450Y-69620394D01*
X176240134Y-69426308D01*
X176329461Y-69210652D01*
X176375000Y-68981712D01*
X176375000Y-68748288D01*
X176329461Y-68519348D01*
X176240134Y-68303692D01*
X176110450Y-68109606D01*
X175945394Y-67944550D01*
X175943918Y-67943564D01*
X175958500Y-67945000D01*
X195080604Y-67945000D01*
X195075363Y-67950241D01*
X194918320Y-68185273D01*
X194810147Y-68446426D01*
X194755000Y-68723665D01*
X194755000Y-69006335D01*
X194810147Y-69283574D01*
X194918320Y-69544727D01*
X195075363Y-69779759D01*
X195275241Y-69979637D01*
X195510273Y-70136680D01*
X195771426Y-70244853D01*
X195932676Y-70276928D01*
X195565000Y-70276928D01*
X195440518Y-70289188D01*
X195320820Y-70325498D01*
X195210506Y-70384463D01*
X195113815Y-70463815D01*
X195034463Y-70560506D01*
X194975498Y-70670820D01*
X194939188Y-70790518D01*
X194926928Y-70915000D01*
X194926928Y-72415000D01*
X194939188Y-72539482D01*
X194975498Y-72659180D01*
X195034463Y-72769494D01*
X195113815Y-72866185D01*
X195210506Y-72945537D01*
X195320820Y-73004502D01*
X195440518Y-73040812D01*
X195565000Y-73053072D01*
X196565000Y-73053072D01*
X196689482Y-73040812D01*
X196809180Y-73004502D01*
X196919494Y-72945537D01*
X197016185Y-72866185D01*
X197095537Y-72769494D01*
X197154502Y-72659180D01*
X197190812Y-72539482D01*
X197203072Y-72415000D01*
X197203072Y-71871869D01*
X197265518Y-71890812D01*
X197390000Y-71903072D01*
X197854250Y-71900000D01*
X198013000Y-71741250D01*
X198013000Y-69992000D01*
X198267000Y-69992000D01*
X198267000Y-71741250D01*
X198425750Y-71900000D01*
X198890000Y-71903072D01*
X199014482Y-71890812D01*
X199134180Y-71854502D01*
X199244494Y-71795537D01*
X199341185Y-71716185D01*
X199420537Y-71619494D01*
X199479502Y-71509180D01*
X199515812Y-71389482D01*
X199528072Y-71265000D01*
X199525000Y-70150750D01*
X199366250Y-69992000D01*
X198267000Y-69992000D01*
X198013000Y-69992000D01*
X197993000Y-69992000D01*
X197993000Y-69738000D01*
X198013000Y-69738000D01*
X198013000Y-67988750D01*
X198267000Y-67988750D01*
X198267000Y-69738000D01*
X199366250Y-69738000D01*
X199525000Y-69579250D01*
X199528072Y-68465000D01*
X199515812Y-68340518D01*
X199479502Y-68220820D01*
X199420537Y-68110506D01*
X199341185Y-68013815D01*
X199244494Y-67934463D01*
X199134180Y-67875498D01*
X199014482Y-67839188D01*
X198890000Y-67826928D01*
X198425750Y-67830000D01*
X198267000Y-67988750D01*
X198013000Y-67988750D01*
X197854250Y-67830000D01*
X197390000Y-67826928D01*
X197265518Y-67839188D01*
X197210326Y-67855930D01*
X197167500Y-67813104D01*
X197167500Y-58737500D01*
X197165060Y-58712724D01*
X197157833Y-58688899D01*
X197146097Y-58666943D01*
X197130303Y-58647697D01*
X197111057Y-58631903D01*
X197089101Y-58620167D01*
X197065276Y-58612940D01*
X197040500Y-58610500D01*
X175958500Y-58610500D01*
X175933724Y-58612940D01*
X175909899Y-58620167D01*
X175887943Y-58631903D01*
X175868697Y-58647697D01*
X175852903Y-58666943D01*
X175841167Y-58688899D01*
X175833940Y-58712724D01*
X175831500Y-58737500D01*
X175831500Y-67818000D01*
X175833940Y-67842776D01*
X175841167Y-67866601D01*
X175848074Y-67879523D01*
X175751308Y-67814866D01*
X175535652Y-67725539D01*
X175306712Y-67680000D01*
X175073288Y-67680000D01*
X174844348Y-67725539D01*
X174628692Y-67814866D01*
X174434606Y-67944550D01*
X174297149Y-68082007D01*
X174241185Y-68013815D01*
X174144494Y-67934463D01*
X174034180Y-67875498D01*
X173914482Y-67839188D01*
X173790000Y-67826928D01*
X173325750Y-67830000D01*
X173167000Y-67988750D01*
X172913000Y-67988750D01*
X172754250Y-67830000D01*
X172290000Y-67826928D01*
X172165518Y-67839188D01*
X172045820Y-67875498D01*
X171935506Y-67934463D01*
X171838815Y-68013815D01*
X171759463Y-68110506D01*
X171700498Y-68220820D01*
X171664188Y-68340518D01*
X171651928Y-68465000D01*
X157734000Y-68465000D01*
X157734000Y-59098668D01*
X157738301Y-59055000D01*
X157721136Y-58880725D01*
X157695647Y-58796699D01*
X157670303Y-58713149D01*
X157587753Y-58558709D01*
X157476659Y-58423341D01*
X157442743Y-58395507D01*
X153990513Y-54943278D01*
X154146912Y-54912168D01*
X154444463Y-54788918D01*
X154712252Y-54609987D01*
X154939987Y-54382252D01*
X155118918Y-54114463D01*
X155242168Y-53816912D01*
X155305000Y-53501033D01*
X155305000Y-53178967D01*
X155242168Y-52863088D01*
X155118918Y-52565537D01*
X154939987Y-52297748D01*
X154712252Y-52070013D01*
X154444463Y-51891082D01*
X154146912Y-51767832D01*
X153831033Y-51705000D01*
X153508967Y-51705000D01*
X153193088Y-51767832D01*
X152895537Y-51891082D01*
X152627748Y-52070013D01*
X152400013Y-52297748D01*
X152400000Y-52297767D01*
X152399987Y-52297748D01*
X152172252Y-52070013D01*
X151904463Y-51891082D01*
X151606912Y-51767832D01*
X151291033Y-51705000D01*
X150968967Y-51705000D01*
X150653088Y-51767832D01*
X150355537Y-51891082D01*
X150087748Y-52070013D01*
X149860013Y-52297748D01*
X149860000Y-52297767D01*
X149859987Y-52297748D01*
X149632252Y-52070013D01*
X149364463Y-51891082D01*
X149066912Y-51767832D01*
X148751033Y-51705000D01*
X148428967Y-51705000D01*
X148113088Y-51767832D01*
X147815537Y-51891082D01*
X147547748Y-52070013D01*
X147320013Y-52297748D01*
X147320000Y-52297767D01*
X147319987Y-52297748D01*
X147092252Y-52070013D01*
X146824463Y-51891082D01*
X146526912Y-51767832D01*
X146211033Y-51705000D01*
X145888967Y-51705000D01*
X145573088Y-51767832D01*
X145275537Y-51891082D01*
X145007748Y-52070013D01*
X144780013Y-52297748D01*
X144780000Y-52297767D01*
X144779987Y-52297748D01*
X144552252Y-52070013D01*
X144284463Y-51891082D01*
X143986912Y-51767832D01*
X143671033Y-51705000D01*
X143348967Y-51705000D01*
X143033088Y-51767832D01*
X142735537Y-51891082D01*
X142525191Y-52031630D01*
X142500537Y-51985506D01*
X142421185Y-51888815D01*
X142324494Y-51809463D01*
X142214180Y-51750498D01*
X142094482Y-51714188D01*
X141970000Y-51701928D01*
X139970000Y-51701928D01*
X139845518Y-51714188D01*
X139725820Y-51750498D01*
X139615506Y-51809463D01*
X139518815Y-51888815D01*
X139439463Y-51985506D01*
X139380498Y-52095820D01*
X139344188Y-52215518D01*
X139331928Y-52340000D01*
X139331928Y-52459510D01*
X139320924Y-52460594D01*
X139287724Y-52463864D01*
X139186058Y-52494704D01*
X139120149Y-52514697D01*
X138965709Y-52597247D01*
X138830341Y-52708341D01*
X138802501Y-52742264D01*
X135927264Y-55617501D01*
X135893341Y-55645341D01*
X135782247Y-55780710D01*
X135699697Y-55935150D01*
X135648864Y-56102727D01*
X135636000Y-56233334D01*
X135636000Y-56233340D01*
X135631700Y-56277000D01*
X135636000Y-56320660D01*
X135636001Y-64572543D01*
X135615226Y-64468102D01*
X135537205Y-64279744D01*
X135423937Y-64110226D01*
X135279774Y-63966063D01*
X135110256Y-63852795D01*
X134921898Y-63774774D01*
X134721939Y-63735000D01*
X134518061Y-63735000D01*
X134351961Y-63768039D01*
X134385000Y-63601939D01*
X134385000Y-63398061D01*
X134345226Y-63198102D01*
X134267205Y-63009744D01*
X134153937Y-62840226D01*
X134009774Y-62696063D01*
X133840256Y-62582795D01*
X133651898Y-62504774D01*
X133451939Y-62465000D01*
X133248061Y-62465000D01*
X133048102Y-62504774D01*
X132859744Y-62582795D01*
X132817532Y-62611000D01*
X113170679Y-62611000D01*
X113127019Y-62606700D01*
X113083359Y-62611000D01*
X113083352Y-62611000D01*
X112969344Y-62622229D01*
X112952744Y-62623864D01*
X112879777Y-62645998D01*
X112785168Y-62674697D01*
X112630728Y-62757247D01*
X112495360Y-62868341D01*
X112467525Y-62902258D01*
X108372729Y-66997054D01*
X108111033Y-66945000D01*
X107788967Y-66945000D01*
X107473088Y-67007832D01*
X107175537Y-67131082D01*
X106907748Y-67310013D01*
X106680013Y-67537748D01*
X106680000Y-67537767D01*
X106679987Y-67537748D01*
X106452252Y-67310013D01*
X106184463Y-67131082D01*
X105886912Y-67007832D01*
X105571033Y-66945000D01*
X105248967Y-66945000D01*
X104933088Y-67007832D01*
X104635537Y-67131082D01*
X104367748Y-67310013D01*
X104140013Y-67537748D01*
X104140000Y-67537767D01*
X104139987Y-67537748D01*
X103912252Y-67310013D01*
X103644463Y-67131082D01*
X103346912Y-67007832D01*
X103031033Y-66945000D01*
X102708967Y-66945000D01*
X102393088Y-67007832D01*
X102095537Y-67131082D01*
X101827748Y-67310013D01*
X101600013Y-67537748D01*
X101600000Y-67537767D01*
X101599987Y-67537748D01*
X101372252Y-67310013D01*
X101104463Y-67131082D01*
X100806912Y-67007832D01*
X100491033Y-66945000D01*
X100168967Y-66945000D01*
X99853088Y-67007832D01*
X99555537Y-67131082D01*
X99287748Y-67310013D01*
X99060013Y-67537748D01*
X99060000Y-67537767D01*
X99059987Y-67537748D01*
X98832252Y-67310013D01*
X98564463Y-67131082D01*
X98266912Y-67007832D01*
X97951033Y-66945000D01*
X97628967Y-66945000D01*
X97313088Y-67007832D01*
X97015537Y-67131082D01*
X96747748Y-67310013D01*
X96520013Y-67537748D01*
X96341082Y-67805537D01*
X96217832Y-68103088D01*
X96155000Y-68418967D01*
X91498466Y-68418967D01*
X104993291Y-54924143D01*
X105248967Y-54975000D01*
X105571033Y-54975000D01*
X105886912Y-54912168D01*
X106184463Y-54788918D01*
X106452252Y-54609987D01*
X106679987Y-54382252D01*
X106680000Y-54382233D01*
X106680013Y-54382252D01*
X106907748Y-54609987D01*
X107175537Y-54788918D01*
X107473088Y-54912168D01*
X107788967Y-54975000D01*
X108111033Y-54975000D01*
X108426912Y-54912168D01*
X108724463Y-54788918D01*
X108992252Y-54609987D01*
X109219987Y-54382252D01*
X109220000Y-54382233D01*
X109220013Y-54382252D01*
X109447748Y-54609987D01*
X109715537Y-54788918D01*
X110013088Y-54912168D01*
X110328967Y-54975000D01*
X110651033Y-54975000D01*
X110966912Y-54912168D01*
X111264463Y-54788918D01*
X111532252Y-54609987D01*
X111759987Y-54382252D01*
X111938918Y-54114463D01*
X112062168Y-53816912D01*
X112125000Y-53501033D01*
X112125000Y-53178967D01*
X112062168Y-52863088D01*
X111938918Y-52565537D01*
X111759987Y-52297748D01*
X111532252Y-52070013D01*
X111264463Y-51891082D01*
X110966912Y-51767832D01*
X110651033Y-51705000D01*
X110328967Y-51705000D01*
X110013088Y-51767832D01*
X109715537Y-51891082D01*
X109447748Y-52070013D01*
X109220013Y-52297748D01*
X109220000Y-52297767D01*
X109219987Y-52297748D01*
X108992252Y-52070013D01*
X108724463Y-51891082D01*
X108426912Y-51767832D01*
X108111033Y-51705000D01*
X107788967Y-51705000D01*
X107473088Y-51767832D01*
X107175537Y-51891082D01*
X106907748Y-52070013D01*
X106680013Y-52297748D01*
X106680000Y-52297767D01*
X106679987Y-52297748D01*
X106452252Y-52070013D01*
X106184463Y-51891082D01*
X105886912Y-51767832D01*
X105571033Y-51705000D01*
X105248967Y-51705000D01*
X104933088Y-51767832D01*
X104635537Y-51891082D01*
X104367748Y-52070013D01*
X104140013Y-52297748D01*
X104140000Y-52297767D01*
X104139987Y-52297748D01*
X103912252Y-52070013D01*
X103644463Y-51891082D01*
X103346912Y-51767832D01*
X103031033Y-51705000D01*
X102708967Y-51705000D01*
X102393088Y-51767832D01*
X102095537Y-51891082D01*
X101827748Y-52070013D01*
X101600013Y-52297748D01*
X101600000Y-52297767D01*
X101599987Y-52297748D01*
X101372252Y-52070013D01*
X101104463Y-51891082D01*
X100806912Y-51767832D01*
X100491033Y-51705000D01*
X100168967Y-51705000D01*
X99853088Y-51767832D01*
X99555537Y-51891082D01*
X99345191Y-52031630D01*
X99320537Y-51985506D01*
X99241185Y-51888815D01*
X99144494Y-51809463D01*
X99034180Y-51750498D01*
X98914482Y-51714188D01*
X98790000Y-51701928D01*
X96790000Y-51701928D01*
X96665518Y-51714188D01*
X96545820Y-51750498D01*
X96435506Y-51809463D01*
X96338815Y-51888815D01*
X96259463Y-51985506D01*
X96200498Y-52095820D01*
X96164188Y-52215518D01*
X96151928Y-52340000D01*
X96151928Y-54340000D01*
X96164188Y-54464482D01*
X96200498Y-54584180D01*
X96259463Y-54694494D01*
X96338815Y-54791185D01*
X96435506Y-54870537D01*
X96545820Y-54929502D01*
X96665518Y-54965812D01*
X96790000Y-54978072D01*
X98159495Y-54978072D01*
X90664989Y-62472579D01*
X90503102Y-62504780D01*
X90314744Y-62582801D01*
X90145226Y-62696069D01*
X90001063Y-62840232D01*
X89887795Y-63009750D01*
X89809774Y-63198108D01*
X89770000Y-63398067D01*
X89770000Y-63601945D01*
X89809774Y-63801904D01*
X89887795Y-63990262D01*
X90001063Y-64159780D01*
X90145226Y-64303943D01*
X90314744Y-64417211D01*
X90503102Y-64495232D01*
X90703061Y-64535006D01*
X90906939Y-64535006D01*
X91106898Y-64495232D01*
X91295256Y-64417211D01*
X91464774Y-64303943D01*
X91608937Y-64159780D01*
X91722205Y-63990262D01*
X91800226Y-63801904D01*
X91832430Y-63640002D01*
X100499022Y-54973411D01*
X100806912Y-54912168D01*
X101104463Y-54788918D01*
X101372252Y-54609987D01*
X101599987Y-54382252D01*
X101600000Y-54382233D01*
X101600013Y-54382252D01*
X101827748Y-54609987D01*
X102095537Y-54788918D01*
X102393088Y-54912168D01*
X102624390Y-54958177D01*
X90029996Y-67552571D01*
X89868102Y-67584774D01*
X89679744Y-67662795D01*
X89510226Y-67776063D01*
X89366063Y-67920226D01*
X89252795Y-68089744D01*
X89174774Y-68278102D01*
X89135000Y-68478061D01*
X78560300Y-68478061D01*
X78512252Y-68430013D01*
X78244463Y-68251082D01*
X77946912Y-68127832D01*
X77631033Y-68065000D01*
X77308967Y-68065000D01*
X76993088Y-68127832D01*
X76695537Y-68251082D01*
X76427748Y-68430013D01*
X76200013Y-68657748D01*
X76021082Y-68925537D01*
X75897832Y-69223088D01*
X75835000Y-69538967D01*
X74605000Y-69538967D01*
X74542168Y-69223088D01*
X74418918Y-68925537D01*
X74239987Y-68657748D01*
X74012252Y-68430013D01*
X73795500Y-68285184D01*
X73795500Y-63644816D01*
X74012252Y-63499987D01*
X74239987Y-63272252D01*
X74418918Y-63004463D01*
X74542168Y-62706912D01*
X74605000Y-62391033D01*
X74605000Y-62068967D01*
X74542168Y-61753088D01*
X74418918Y-61455537D01*
X74239987Y-61187748D01*
X74012252Y-60960013D01*
X73795500Y-60815184D01*
X73795500Y-57144816D01*
X74012252Y-56999987D01*
X74239987Y-56772252D01*
X74418918Y-56504463D01*
X74542168Y-56206912D01*
X74605000Y-55891033D01*
X74605000Y-55568967D01*
X75835000Y-55568967D01*
X75835000Y-55891033D01*
X75897832Y-56206912D01*
X76021082Y-56504463D01*
X76200013Y-56772252D01*
X76427748Y-56999987D01*
X76644501Y-57144817D01*
X76644500Y-60815184D01*
X76427748Y-60960013D01*
X76200013Y-61187748D01*
X76021082Y-61455537D01*
X75897832Y-61753088D01*
X75835000Y-62068967D01*
X75835000Y-62391033D01*
X75897832Y-62706912D01*
X76021082Y-63004463D01*
X76200013Y-63272252D01*
X76427748Y-63499987D01*
X76695537Y-63678918D01*
X76993088Y-63802168D01*
X77308967Y-63865000D01*
X77631033Y-63865000D01*
X77946912Y-63802168D01*
X78244463Y-63678918D01*
X78512252Y-63499987D01*
X78739987Y-63272252D01*
X78918918Y-63004463D01*
X79042168Y-62706912D01*
X79105000Y-62391033D01*
X79105000Y-62068967D01*
X79042168Y-61753088D01*
X78918918Y-61455537D01*
X78739987Y-61187748D01*
X78512252Y-60960013D01*
X78295500Y-60815184D01*
X78295500Y-57144816D01*
X78512252Y-56999987D01*
X78739987Y-56772252D01*
X78918918Y-56504463D01*
X79042168Y-56206912D01*
X79105000Y-55891033D01*
X79105000Y-55568967D01*
X79042168Y-55253088D01*
X78918918Y-54955537D01*
X78739987Y-54687748D01*
X78512252Y-54460013D01*
X78244463Y-54281082D01*
X77946912Y-54157832D01*
X77631033Y-54095000D01*
X77308967Y-54095000D01*
X76993088Y-54157832D01*
X76695537Y-54281082D01*
X76427748Y-54460013D01*
X76200013Y-54687748D01*
X76021082Y-54955537D01*
X75897832Y-55253088D01*
X75835000Y-55568967D01*
X74605000Y-55568967D01*
X74542168Y-55253088D01*
X74418918Y-54955537D01*
X74239987Y-54687748D01*
X74012252Y-54460013D01*
X73744463Y-54281082D01*
X73446912Y-54157832D01*
X73131033Y-54095000D01*
X72808967Y-54095000D01*
X72493088Y-54157832D01*
X72195537Y-54281082D01*
X71927748Y-54460013D01*
X71700013Y-54687748D01*
X71521082Y-54955537D01*
X71397832Y-55253088D01*
X71335000Y-55568967D01*
X69342000Y-55568967D01*
X69342000Y-49309872D01*
X70155000Y-49309872D01*
X70155000Y-49750128D01*
X70240890Y-50181925D01*
X70409369Y-50588669D01*
X70653962Y-50954729D01*
X70965271Y-51266038D01*
X71331331Y-51510631D01*
X71738075Y-51679110D01*
X72169872Y-51765000D01*
X72610128Y-51765000D01*
X73041925Y-51679110D01*
X73448669Y-51510631D01*
X73814729Y-51266038D01*
X74126038Y-50954729D01*
X74370631Y-50588669D01*
X74539110Y-50181925D01*
X74622041Y-49765000D01*
X171651928Y-49765000D01*
X171664188Y-49889482D01*
X171700498Y-50009180D01*
X171759463Y-50119494D01*
X171838815Y-50216185D01*
X171935506Y-50295537D01*
X172045820Y-50354502D01*
X172165518Y-50390812D01*
X172290000Y-50403072D01*
X172754250Y-50400000D01*
X172913000Y-50241250D01*
X172913000Y-48492000D01*
X173167000Y-48492000D01*
X173167000Y-50241250D01*
X173325750Y-50400000D01*
X173790000Y-50403072D01*
X173914482Y-50390812D01*
X174034180Y-50354502D01*
X174144494Y-50295537D01*
X174241185Y-50216185D01*
X174320537Y-50119494D01*
X174379502Y-50009180D01*
X174415812Y-49889482D01*
X174428072Y-49765000D01*
X198951928Y-49765000D01*
X198964188Y-49889482D01*
X199000498Y-50009180D01*
X199059463Y-50119494D01*
X199138815Y-50216185D01*
X199235506Y-50295537D01*
X199345820Y-50354502D01*
X199465518Y-50390812D01*
X199590000Y-50403072D01*
X200054250Y-50400000D01*
X200213000Y-50241250D01*
X200213000Y-48492000D01*
X200467000Y-48492000D01*
X200467000Y-50241250D01*
X200625750Y-50400000D01*
X201090000Y-50403072D01*
X201214482Y-50390812D01*
X201334180Y-50354502D01*
X201444494Y-50295537D01*
X201541185Y-50216185D01*
X201620537Y-50119494D01*
X201679502Y-50009180D01*
X201715812Y-49889482D01*
X201728072Y-49765000D01*
X201726818Y-49309872D01*
X241605000Y-49309872D01*
X241605000Y-49750128D01*
X241690890Y-50181925D01*
X241859369Y-50588669D01*
X242103962Y-50954729D01*
X242415271Y-51266038D01*
X242781331Y-51510631D01*
X243188075Y-51679110D01*
X243619872Y-51765000D01*
X244060128Y-51765000D01*
X244491925Y-51679110D01*
X244898669Y-51510631D01*
X245264729Y-51266038D01*
X245576038Y-50954729D01*
X245820631Y-50588669D01*
X245989110Y-50181925D01*
X246075000Y-49750128D01*
X246075000Y-49309872D01*
X245989110Y-48878075D01*
X245820631Y-48471331D01*
X245576038Y-48105271D01*
X245264729Y-47793962D01*
X244898669Y-47549369D01*
X244491925Y-47380890D01*
X244060128Y-47295000D01*
X243619872Y-47295000D01*
X243188075Y-47380890D01*
X242781331Y-47549369D01*
X242415271Y-47793962D01*
X242103962Y-48105271D01*
X241859369Y-48471331D01*
X241690890Y-48878075D01*
X241605000Y-49309872D01*
X201726818Y-49309872D01*
X201725000Y-48650750D01*
X201566250Y-48492000D01*
X200467000Y-48492000D01*
X200213000Y-48492000D01*
X199113750Y-48492000D01*
X198955000Y-48650750D01*
X198951928Y-49765000D01*
X174428072Y-49765000D01*
X174425000Y-48650750D01*
X174266250Y-48492000D01*
X173167000Y-48492000D01*
X172913000Y-48492000D01*
X171813750Y-48492000D01*
X171655000Y-48650750D01*
X171651928Y-49765000D01*
X74622041Y-49765000D01*
X74625000Y-49750128D01*
X74625000Y-49309872D01*
X74539110Y-48878075D01*
X74370631Y-48471331D01*
X74126038Y-48105271D01*
X73814729Y-47793962D01*
X73448669Y-47549369D01*
X73041925Y-47380890D01*
X72610128Y-47295000D01*
X72169872Y-47295000D01*
X71738075Y-47380890D01*
X71331331Y-47549369D01*
X70965271Y-47793962D01*
X70653962Y-48105271D01*
X70409369Y-48471331D01*
X70240890Y-48878075D01*
X70155000Y-49309872D01*
X69342000Y-49309872D01*
X69342000Y-48789922D01*
X69480606Y-48330836D01*
X69768937Y-47788564D01*
X70157094Y-47312636D01*
X70630314Y-46921155D01*
X71170552Y-46629049D01*
X71645589Y-46482000D01*
X171877582Y-46482000D01*
X171838815Y-46513815D01*
%TA.AperFunction,Conductor*%
D26*
G36*
X171838815Y-46513815D02*
G01*
X171759463Y-46610506D01*
X171700498Y-46720820D01*
X171664188Y-46840518D01*
X171651928Y-46965000D01*
X171655000Y-48079250D01*
X171813750Y-48238000D01*
X172913000Y-48238000D01*
X172913000Y-48218000D01*
X173167000Y-48218000D01*
X173167000Y-48238000D01*
X174266250Y-48238000D01*
X174425000Y-48079250D01*
X174428072Y-46965000D01*
X174415812Y-46840518D01*
X174379502Y-46720820D01*
X174320537Y-46610506D01*
X174241185Y-46513815D01*
X174202418Y-46482000D01*
X199177582Y-46482000D01*
X199138815Y-46513815D01*
X199059463Y-46610506D01*
X199000498Y-46720820D01*
X198964188Y-46840518D01*
X198951928Y-46965000D01*
X198955000Y-48079250D01*
X199113750Y-48238000D01*
X200213000Y-48238000D01*
X200213000Y-48218000D01*
X200467000Y-48218000D01*
X200467000Y-48238000D01*
X201566250Y-48238000D01*
X201725000Y-48079250D01*
X201728072Y-46965000D01*
X201715812Y-46840518D01*
X201679502Y-46720820D01*
X201620537Y-46610506D01*
X201541185Y-46513815D01*
X201502418Y-46482000D01*
X244580078Y-46482000D01*
X245039164Y-46620606D01*
X245581436Y-46908937D01*
X246057364Y-47297094D01*
X246448845Y-47770314D01*
X246740951Y-48310552D01*
X246888000Y-48785589D01*
X246888000Y-110595078D01*
X246749394Y-111054164D01*
X246461063Y-111596436D01*
X246072906Y-112072364D01*
X245599686Y-112463845D01*
X245059449Y-112755950D01*
X244584410Y-112903000D01*
X71649922Y-112903000D01*
X71190836Y-112764394D01*
X70648564Y-112476063D01*
X70172636Y-112087906D01*
X69781155Y-111614686D01*
X69489050Y-111074449D01*
X69342000Y-110599410D01*
X69342000Y-109634872D01*
X70155000Y-109634872D01*
X70155000Y-110075128D01*
X70240890Y-110506925D01*
X70409369Y-110913669D01*
X70653962Y-111279729D01*
X70965271Y-111591038D01*
X71331331Y-111835631D01*
X71738075Y-112004110D01*
X72169872Y-112090000D01*
X72610128Y-112090000D01*
X73041925Y-112004110D01*
X73448669Y-111835631D01*
X73814729Y-111591038D01*
X74126038Y-111279729D01*
X74370631Y-110913669D01*
X74539110Y-110506925D01*
X74615079Y-110125000D01*
X132346928Y-110125000D01*
X132346928Y-112125000D01*
X132359188Y-112249482D01*
X132395498Y-112369180D01*
X132454463Y-112479494D01*
X132533815Y-112576185D01*
X132630506Y-112655537D01*
X132740820Y-112714502D01*
X132860518Y-112750812D01*
X132985000Y-112763072D01*
X134985000Y-112763072D01*
X135109482Y-112750812D01*
X135229180Y-112714502D01*
X135339494Y-112655537D01*
X135436185Y-112576185D01*
X135515537Y-112479494D01*
X135574502Y-112369180D01*
X135610812Y-112249482D01*
X135623072Y-112125000D01*
X135623072Y-110125000D01*
X135610812Y-110000518D01*
X135574502Y-109880820D01*
X135515537Y-109770506D01*
X135436185Y-109673815D01*
X135339494Y-109594463D01*
X135229180Y-109535498D01*
X135109482Y-109499188D01*
X134985000Y-109486928D01*
X132985000Y-109486928D01*
X132860518Y-109499188D01*
X132740820Y-109535498D01*
X132630506Y-109594463D01*
X132533815Y-109673815D01*
X132454463Y-109770506D01*
X132395498Y-109880820D01*
X132359188Y-110000518D01*
X132346928Y-110125000D01*
X74615079Y-110125000D01*
X74625000Y-110075128D01*
X74625000Y-109634872D01*
X74539110Y-109203075D01*
X74370631Y-108796331D01*
X74126038Y-108430271D01*
X73814729Y-108118962D01*
X73448669Y-107874369D01*
X73041925Y-107705890D01*
X72610128Y-107620000D01*
X72169872Y-107620000D01*
X71738075Y-107705890D01*
X71331331Y-107874369D01*
X70965271Y-108118962D01*
X70653962Y-108430271D01*
X70409369Y-108796331D01*
X70240890Y-109203075D01*
X70155000Y-109634872D01*
X69342000Y-109634872D01*
X69342000Y-105195000D01*
X127416928Y-105195000D01*
X127416928Y-106895000D01*
X127429188Y-107019482D01*
X127465498Y-107139180D01*
X127524463Y-107249494D01*
X127603815Y-107346185D01*
X127700506Y-107425537D01*
X127810820Y-107484502D01*
X127883380Y-107506513D01*
X127751525Y-107638368D01*
X127589010Y-107881589D01*
X127477068Y-108151842D01*
X127420000Y-108438740D01*
X127420000Y-108731260D01*
X127477068Y-109018158D01*
X127589010Y-109288411D01*
X127751525Y-109531632D01*
X127958368Y-109738475D01*
X128201589Y-109900990D01*
X128471842Y-110012932D01*
X128758740Y-110070000D01*
X129051260Y-110070000D01*
X129338158Y-110012932D01*
X129608411Y-109900990D01*
X129851632Y-109738475D01*
X130058475Y-109531632D01*
X130220990Y-109288411D01*
X130322147Y-109044193D01*
X159505000Y-109044193D01*
X159505000Y-109395807D01*
X159573596Y-109740665D01*
X159708153Y-110065515D01*
X159903500Y-110357871D01*
X160152129Y-110606500D01*
X160444485Y-110801847D01*
X160769335Y-110936404D01*
X161114193Y-111005000D01*
X161465807Y-111005000D01*
X161810665Y-110936404D01*
X162135515Y-110801847D01*
X162427871Y-110606500D01*
X162676500Y-110357871D01*
X162871847Y-110065515D01*
X163006404Y-109740665D01*
X163075000Y-109395807D01*
X163075000Y-109044193D01*
X164585000Y-109044193D01*
X164585000Y-109395807D01*
X164653596Y-109740665D01*
X164788153Y-110065515D01*
X164983500Y-110357871D01*
X165232129Y-110606500D01*
X165524485Y-110801847D01*
X165849335Y-110936404D01*
X166194193Y-111005000D01*
X166545807Y-111005000D01*
X166890665Y-110936404D01*
X167215515Y-110801847D01*
X167507871Y-110606500D01*
X167756500Y-110357871D01*
X167951847Y-110065515D01*
X168086404Y-109740665D01*
X168155000Y-109395807D01*
X168155000Y-109044193D01*
X168086404Y-108699335D01*
X167951847Y-108374485D01*
X167756500Y-108082129D01*
X167507871Y-107833500D01*
X167215515Y-107638153D01*
X166890665Y-107503596D01*
X166777067Y-107481000D01*
X171358928Y-107481000D01*
X171358928Y-109181000D01*
X171371188Y-109305482D01*
X171407498Y-109425180D01*
X171466463Y-109535494D01*
X171545815Y-109632185D01*
X171642506Y-109711537D01*
X171752820Y-109770502D01*
X171872518Y-109806812D01*
X171997000Y-109819072D01*
X173697000Y-109819072D01*
X173821482Y-109806812D01*
X173941180Y-109770502D01*
X174051494Y-109711537D01*
X174148185Y-109632185D01*
X174227537Y-109535494D01*
X174286502Y-109425180D01*
X174308513Y-109352620D01*
X174440368Y-109484475D01*
X174683589Y-109646990D01*
X174953842Y-109758932D01*
X175240740Y-109816000D01*
X175533260Y-109816000D01*
X175820158Y-109758932D01*
X176090411Y-109646990D01*
X176333632Y-109484475D01*
X176540475Y-109277632D01*
X176662195Y-109095466D01*
X176731822Y-109212355D01*
X176926731Y-109428588D01*
X177160080Y-109602641D01*
X177422901Y-109727825D01*
X177570110Y-109772476D01*
X177800000Y-109651155D01*
X177800000Y-108458000D01*
X178054000Y-108458000D01*
X178054000Y-109651155D01*
X178283890Y-109772476D01*
X178431099Y-109727825D01*
X178693920Y-109602641D01*
X178927269Y-109428588D01*
X179122178Y-109212355D01*
X179271157Y-108962252D01*
X179278379Y-108941891D01*
X184486519Y-108941891D01*
X184583843Y-109216252D01*
X184732822Y-109466355D01*
X184927731Y-109682588D01*
X185161080Y-109856641D01*
X185423901Y-109981825D01*
X185571110Y-110026476D01*
X185801000Y-109905155D01*
X185801000Y-108712000D01*
X184607186Y-108712000D01*
X184486519Y-108941891D01*
X179278379Y-108941891D01*
X179368481Y-108687891D01*
X179247814Y-108458000D01*
X178054000Y-108458000D01*
X177800000Y-108458000D01*
X177780000Y-108458000D01*
X177780000Y-108228109D01*
X184486519Y-108228109D01*
X184607186Y-108458000D01*
X185801000Y-108458000D01*
X185801000Y-107264845D01*
X186055000Y-107264845D01*
X186055000Y-108458000D01*
X186075000Y-108458000D01*
X186075000Y-108712000D01*
X186055000Y-108712000D01*
X186055000Y-109905155D01*
X186284890Y-110026476D01*
X186432099Y-109981825D01*
X186694920Y-109856641D01*
X186928269Y-109682588D01*
X187123178Y-109466355D01*
X187192805Y-109349466D01*
X187314525Y-109531632D01*
X187521368Y-109738475D01*
X187764589Y-109900990D01*
X188034842Y-110012932D01*
X188321740Y-110070000D01*
X188614260Y-110070000D01*
X188901158Y-110012932D01*
X189171411Y-109900990D01*
X189414632Y-109738475D01*
X189546487Y-109606620D01*
X189568498Y-109679180D01*
X189627463Y-109789494D01*
X189706815Y-109886185D01*
X189803506Y-109965537D01*
X189913820Y-110024502D01*
X190033518Y-110060812D01*
X190158000Y-110073072D01*
X191858000Y-110073072D01*
X191982482Y-110060812D01*
X192102180Y-110024502D01*
X192212494Y-109965537D01*
X192309185Y-109886185D01*
X192388537Y-109789494D01*
X192447502Y-109679180D01*
X192460942Y-109634872D01*
X241605000Y-109634872D01*
X241605000Y-110075128D01*
X241690890Y-110506925D01*
X241859369Y-110913669D01*
X242103962Y-111279729D01*
X242415271Y-111591038D01*
X242781331Y-111835631D01*
X243188075Y-112004110D01*
X243619872Y-112090000D01*
X244060128Y-112090000D01*
X244491925Y-112004110D01*
X244898669Y-111835631D01*
X245264729Y-111591038D01*
X245576038Y-111279729D01*
X245820631Y-110913669D01*
X245989110Y-110506925D01*
X246075000Y-110075128D01*
X246075000Y-109634872D01*
X245989110Y-109203075D01*
X245820631Y-108796331D01*
X245576038Y-108430271D01*
X245264729Y-108118962D01*
X244898669Y-107874369D01*
X244491925Y-107705890D01*
X244060128Y-107620000D01*
X243619872Y-107620000D01*
X243188075Y-107705890D01*
X242781331Y-107874369D01*
X242415271Y-108118962D01*
X242103962Y-108430271D01*
X241859369Y-108796331D01*
X241690890Y-109203075D01*
X241605000Y-109634872D01*
X192460942Y-109634872D01*
X192483812Y-109559482D01*
X192496072Y-109435000D01*
X192496072Y-107735000D01*
X192483812Y-107610518D01*
X192447502Y-107490820D01*
X192388537Y-107380506D01*
X192309185Y-107283815D01*
X192212494Y-107204463D01*
X192102180Y-107145498D01*
X191982482Y-107109188D01*
X191858000Y-107096928D01*
X190158000Y-107096928D01*
X190033518Y-107109188D01*
X189913820Y-107145498D01*
X189803506Y-107204463D01*
X189706815Y-107283815D01*
X189627463Y-107380506D01*
X189568498Y-107490820D01*
X189546487Y-107563380D01*
X189414632Y-107431525D01*
X189171411Y-107269010D01*
X188901158Y-107157068D01*
X188614260Y-107100000D01*
X188321740Y-107100000D01*
X188034842Y-107157068D01*
X187764589Y-107269010D01*
X187521368Y-107431525D01*
X187314525Y-107638368D01*
X187192805Y-107820534D01*
X187123178Y-107703645D01*
X186928269Y-107487412D01*
X186694920Y-107313359D01*
X186432099Y-107188175D01*
X186284890Y-107143524D01*
X186055000Y-107264845D01*
X185801000Y-107264845D01*
X185571110Y-107143524D01*
X185423901Y-107188175D01*
X185161080Y-107313359D01*
X184927731Y-107487412D01*
X184732822Y-107703645D01*
X184583843Y-107953748D01*
X184486519Y-108228109D01*
X177780000Y-108228109D01*
X177780000Y-108204000D01*
X177800000Y-108204000D01*
X177800000Y-107010845D01*
X178054000Y-107010845D01*
X178054000Y-108204000D01*
X179247814Y-108204000D01*
X179368481Y-107974109D01*
X179271157Y-107699748D01*
X179122178Y-107449645D01*
X178927269Y-107233412D01*
X178693920Y-107059359D01*
X178431099Y-106934175D01*
X178283890Y-106889524D01*
X178054000Y-107010845D01*
X177800000Y-107010845D01*
X177570110Y-106889524D01*
X177422901Y-106934175D01*
X177160080Y-107059359D01*
X176926731Y-107233412D01*
X176731822Y-107449645D01*
X176662195Y-107566534D01*
X176540475Y-107384368D01*
X176333632Y-107177525D01*
X176090411Y-107015010D01*
X175820158Y-106903068D01*
X175533260Y-106846000D01*
X175240740Y-106846000D01*
X174953842Y-106903068D01*
X174683589Y-107015010D01*
X174440368Y-107177525D01*
X174308513Y-107309380D01*
X174286502Y-107236820D01*
X174227537Y-107126506D01*
X174148185Y-107029815D01*
X174051494Y-106950463D01*
X173941180Y-106891498D01*
X173821482Y-106855188D01*
X173697000Y-106842928D01*
X171997000Y-106842928D01*
X171872518Y-106855188D01*
X171752820Y-106891498D01*
X171642506Y-106950463D01*
X171545815Y-107029815D01*
X171466463Y-107126506D01*
X171407498Y-107236820D01*
X171371188Y-107356518D01*
X171358928Y-107481000D01*
X166777067Y-107481000D01*
X166545807Y-107435000D01*
X166194193Y-107435000D01*
X165849335Y-107503596D01*
X165524485Y-107638153D01*
X165232129Y-107833500D01*
X164983500Y-108082129D01*
X164788153Y-108374485D01*
X164653596Y-108699335D01*
X164585000Y-109044193D01*
X163075000Y-109044193D01*
X163006404Y-108699335D01*
X162871847Y-108374485D01*
X162676500Y-108082129D01*
X162427871Y-107833500D01*
X162135515Y-107638153D01*
X161810665Y-107503596D01*
X161465807Y-107435000D01*
X161114193Y-107435000D01*
X160769335Y-107503596D01*
X160444485Y-107638153D01*
X160152129Y-107833500D01*
X159903500Y-108082129D01*
X159708153Y-108374485D01*
X159573596Y-108699335D01*
X159505000Y-109044193D01*
X130322147Y-109044193D01*
X130332932Y-109018158D01*
X130390000Y-108731260D01*
X130390000Y-108438740D01*
X130332932Y-108151842D01*
X130220990Y-107881589D01*
X130058475Y-107638368D01*
X129926620Y-107506513D01*
X129999180Y-107484502D01*
X130109494Y-107425537D01*
X130206185Y-107346185D01*
X130285537Y-107249494D01*
X130344502Y-107139180D01*
X130380812Y-107019482D01*
X130393072Y-106895000D01*
X130393072Y-105883967D01*
X132350000Y-105883967D01*
X132350000Y-106206033D01*
X132412832Y-106521912D01*
X132536082Y-106819463D01*
X132715013Y-107087252D01*
X132942748Y-107314987D01*
X133210537Y-107493918D01*
X133508088Y-107617168D01*
X133823967Y-107680000D01*
X134146033Y-107680000D01*
X134461912Y-107617168D01*
X134759463Y-107493918D01*
X135027252Y-107314987D01*
X135254987Y-107087252D01*
X135433918Y-106819463D01*
X135557168Y-106521912D01*
X135620000Y-106206033D01*
X135620000Y-105883967D01*
X135557168Y-105568088D01*
X135433918Y-105270537D01*
X135254987Y-105002748D01*
X135027252Y-104775013D01*
X134759463Y-104596082D01*
X134461912Y-104472832D01*
X134146033Y-104410000D01*
X133823967Y-104410000D01*
X133508088Y-104472832D01*
X133210537Y-104596082D01*
X132942748Y-104775013D01*
X132715013Y-105002748D01*
X132536082Y-105270537D01*
X132412832Y-105568088D01*
X132350000Y-105883967D01*
X130393072Y-105883967D01*
X130393072Y-105195000D01*
X130380812Y-105070518D01*
X130344502Y-104950820D01*
X130285537Y-104840506D01*
X130206185Y-104743815D01*
X130109494Y-104664463D01*
X129999180Y-104605498D01*
X129879482Y-104569188D01*
X129755000Y-104556928D01*
X128055000Y-104556928D01*
X127930518Y-104569188D01*
X127810820Y-104605498D01*
X127700506Y-104664463D01*
X127603815Y-104743815D01*
X127524463Y-104840506D01*
X127465498Y-104950820D01*
X127429188Y-105070518D01*
X127416928Y-105195000D01*
X69342000Y-105195000D01*
X69342000Y-55568967D01*
X71335000Y-55568967D01*
X71335000Y-55891033D01*
X71397832Y-56206912D01*
X71521082Y-56504463D01*
X71700013Y-56772252D01*
X71927748Y-56999987D01*
X72144501Y-57144817D01*
X72144501Y-60815183D01*
X71927748Y-60960013D01*
X71700013Y-61187748D01*
X71521082Y-61455537D01*
X71397832Y-61753088D01*
X71335000Y-62068967D01*
X71335000Y-62391033D01*
X71397832Y-62706912D01*
X71521082Y-63004463D01*
X71700013Y-63272252D01*
X71927748Y-63499987D01*
X72144501Y-63644817D01*
X72144501Y-68285183D01*
X71927748Y-68430013D01*
X71700013Y-68657748D01*
X71521082Y-68925537D01*
X71397832Y-69223088D01*
X71335000Y-69538967D01*
X71335000Y-69861033D01*
X71397832Y-70176912D01*
X71521082Y-70474463D01*
X71700013Y-70742252D01*
X71927748Y-70969987D01*
X72144501Y-71114817D01*
X72144500Y-74785184D01*
X71927748Y-74930013D01*
X71700013Y-75157748D01*
X71521082Y-75425537D01*
X71397832Y-75723088D01*
X71335000Y-76038967D01*
X71335000Y-76361033D01*
X71397832Y-76676912D01*
X71521082Y-76974463D01*
X71700013Y-77242252D01*
X71927748Y-77469987D01*
X72144500Y-77614816D01*
X72144500Y-82255184D01*
X71927748Y-82400013D01*
X71700013Y-82627748D01*
X71521082Y-82895537D01*
X71397832Y-83193088D01*
X71335000Y-83508967D01*
X71335000Y-83831033D01*
X71397832Y-84146912D01*
X71521082Y-84444463D01*
X71700013Y-84712252D01*
X71927748Y-84939987D01*
X72144500Y-85084816D01*
X72144500Y-88755184D01*
X71927748Y-88900013D01*
X71700013Y-89127748D01*
X71521082Y-89395537D01*
X71397832Y-89693088D01*
X71335000Y-90008967D01*
X71335000Y-90331033D01*
X71397832Y-90646912D01*
X71521082Y-90944463D01*
X71700013Y-91212252D01*
X71927748Y-91439987D01*
X72195537Y-91618918D01*
X72493088Y-91742168D01*
X72808967Y-91805000D01*
X73131033Y-91805000D01*
X73446912Y-91742168D01*
X73744463Y-91618918D01*
X74012252Y-91439987D01*
X74239987Y-91212252D01*
X74418918Y-90944463D01*
X74542168Y-90646912D01*
X74605000Y-90331033D01*
X74605000Y-90008967D01*
X74542168Y-89693088D01*
X74418918Y-89395537D01*
X74239987Y-89127748D01*
X74012252Y-88900013D01*
X73795500Y-88755184D01*
X73795500Y-85084816D01*
X74012252Y-84939987D01*
X74239987Y-84712252D01*
X74418918Y-84444463D01*
X74542168Y-84146912D01*
X74605000Y-83831033D01*
X74605000Y-83508967D01*
X75835000Y-83508967D01*
X75835000Y-83831033D01*
X75897832Y-84146912D01*
X76021082Y-84444463D01*
X76200013Y-84712252D01*
X76427748Y-84939987D01*
X76644501Y-85084817D01*
X76644500Y-88755184D01*
X76427748Y-88900013D01*
X76200013Y-89127748D01*
X76021082Y-89395537D01*
X75897832Y-89693088D01*
X75835000Y-90008967D01*
X75835000Y-90331033D01*
X75897832Y-90646912D01*
X76021082Y-90944463D01*
X76200013Y-91212252D01*
X76427748Y-91439987D01*
X76695537Y-91618918D01*
X76993088Y-91742168D01*
X77308967Y-91805000D01*
X77631033Y-91805000D01*
X77946912Y-91742168D01*
X78244463Y-91618918D01*
X78512252Y-91439987D01*
X78739987Y-91212252D01*
X78918918Y-90944463D01*
X79042168Y-90646912D01*
X79105000Y-90331033D01*
X79105000Y-90008967D01*
X79042168Y-89693088D01*
X78918918Y-89395537D01*
X78739987Y-89127748D01*
X78512252Y-88900013D01*
X78295500Y-88755184D01*
X78295500Y-85084816D01*
X78512252Y-84939987D01*
X78739987Y-84712252D01*
X78918918Y-84444463D01*
X79042168Y-84146912D01*
X79105000Y-83831033D01*
X79105000Y-83508967D01*
X79042168Y-83193088D01*
X78918918Y-82895537D01*
X78739987Y-82627748D01*
X78512252Y-82400013D01*
X78244463Y-82221082D01*
X77946912Y-82097832D01*
X77631033Y-82035000D01*
X77308967Y-82035000D01*
X76993088Y-82097832D01*
X76695537Y-82221082D01*
X76427748Y-82400013D01*
X76200013Y-82627748D01*
X76021082Y-82895537D01*
X75897832Y-83193088D01*
X75835000Y-83508967D01*
X74605000Y-83508967D01*
X74542168Y-83193088D01*
X74418918Y-82895537D01*
X74239987Y-82627748D01*
X74012252Y-82400013D01*
X73795500Y-82255184D01*
X73795500Y-81178051D01*
X85960000Y-81178051D01*
X85960000Y-81381929D01*
X85999774Y-81581888D01*
X86077795Y-81770246D01*
X86191063Y-81939764D01*
X86335226Y-82083927D01*
X86504744Y-82197195D01*
X86589965Y-82232495D01*
X86504744Y-82267795D01*
X86335226Y-82381063D01*
X86191063Y-82525226D01*
X86077795Y-82694744D01*
X85999774Y-82883102D01*
X85960000Y-83083061D01*
X85960000Y-83286939D01*
X85999774Y-83486898D01*
X86077795Y-83675256D01*
X86191063Y-83844774D01*
X86335226Y-83988937D01*
X86504744Y-84102205D01*
X86693102Y-84180226D01*
X86854996Y-84212429D01*
X90192611Y-87550045D01*
X90218459Y-87581541D01*
X90249955Y-87607389D01*
X90249958Y-87607392D01*
X90344157Y-87684699D01*
X90487566Y-87761353D01*
X90524298Y-87772495D01*
X90522795Y-87774744D01*
X90444774Y-87963102D01*
X90412572Y-88124994D01*
X87489996Y-91047571D01*
X87328102Y-91079774D01*
X87139744Y-91157795D01*
X86970226Y-91271063D01*
X86826063Y-91415226D01*
X86712795Y-91584744D01*
X86634774Y-91773102D01*
X86595000Y-91973061D01*
X86595000Y-92176939D01*
X86634774Y-92376898D01*
X86712795Y-92565256D01*
X86826063Y-92734774D01*
X86970226Y-92878937D01*
X87139744Y-92992205D01*
X87328102Y-93070226D01*
X87528061Y-93110000D01*
X87731939Y-93110000D01*
X87931898Y-93070226D01*
X88120256Y-92992205D01*
X88289774Y-92878937D01*
X88433937Y-92734774D01*
X88547205Y-92565256D01*
X88625226Y-92376898D01*
X88657429Y-92215004D01*
X91580006Y-89292428D01*
X91741898Y-89260226D01*
X91930256Y-89182205D01*
X92099774Y-89068937D01*
X92243937Y-88924774D01*
X92357205Y-88755256D01*
X92435226Y-88566898D01*
X92475000Y-88366939D01*
X92475000Y-88163061D01*
X92435226Y-87963102D01*
X92376158Y-87820500D01*
X92717497Y-87820500D01*
X92854744Y-87912205D01*
X93043102Y-87990226D01*
X93243061Y-88030000D01*
X93446939Y-88030000D01*
X93646898Y-87990226D01*
X93835256Y-87912205D01*
X94004774Y-87798937D01*
X94148937Y-87654774D01*
X94262205Y-87485256D01*
X94340226Y-87296898D01*
X94380000Y-87096939D01*
X94380000Y-86893061D01*
X94340226Y-86693102D01*
X94262205Y-86504744D01*
X94165493Y-86360004D01*
X94262211Y-86215256D01*
X94340232Y-86026898D01*
X94380006Y-85826939D01*
X94380006Y-85623061D01*
X94340232Y-85423102D01*
X94262211Y-85234744D01*
X94165493Y-85089996D01*
X94262205Y-84945256D01*
X94340226Y-84756898D01*
X94380000Y-84556939D01*
X94380000Y-84353061D01*
X94340226Y-84153102D01*
X94262205Y-83964744D01*
X94148937Y-83795226D01*
X94004774Y-83651063D01*
X93835256Y-83537795D01*
X93646898Y-83459774D01*
X93446939Y-83420000D01*
X93243061Y-83420000D01*
X93043102Y-83459774D01*
X92854744Y-83537795D01*
X92717497Y-83629500D01*
X92416933Y-83629500D01*
X88657429Y-79869996D01*
X88625226Y-79708102D01*
X88547205Y-79519744D01*
X88433937Y-79350226D01*
X88289774Y-79206063D01*
X88120256Y-79092795D01*
X87931898Y-79014774D01*
X87731939Y-78975000D01*
X87528061Y-78975000D01*
X87328102Y-79014774D01*
X87139744Y-79092795D01*
X86970226Y-79206063D01*
X86826063Y-79350226D01*
X86712795Y-79519744D01*
X86634774Y-79708102D01*
X86595000Y-79908061D01*
X86595000Y-80111939D01*
X86634228Y-80309151D01*
X86504744Y-80362785D01*
X86335226Y-80476053D01*
X86191063Y-80620216D01*
X86077795Y-80789734D01*
X85999774Y-80978092D01*
X85960000Y-81178051D01*
X73795500Y-81178051D01*
X73795500Y-77614816D01*
X74012252Y-77469987D01*
X74239987Y-77242252D01*
X74418918Y-76974463D01*
X74542168Y-76676912D01*
X74605000Y-76361033D01*
X74605000Y-76038967D01*
X74542168Y-75723088D01*
X74418918Y-75425537D01*
X74239987Y-75157748D01*
X74012252Y-74930013D01*
X73795500Y-74785184D01*
X73795500Y-71114816D01*
X74012252Y-70969987D01*
X74239987Y-70742252D01*
X74418918Y-70474463D01*
X74542168Y-70176912D01*
X74605000Y-69861033D01*
X74605000Y-69538967D01*
X75835000Y-69538967D01*
X75835000Y-69861033D01*
X75897832Y-70176912D01*
X76021082Y-70474463D01*
X76200013Y-70742252D01*
X76427748Y-70969987D01*
X76644501Y-71114817D01*
X76644500Y-74785184D01*
X76427748Y-74930013D01*
X76200013Y-75157748D01*
X76021082Y-75425537D01*
X75897832Y-75723088D01*
X75835000Y-76038967D01*
X75835000Y-76361033D01*
X75897832Y-76676912D01*
X76021082Y-76974463D01*
X76200013Y-77242252D01*
X76427748Y-77469987D01*
X76695537Y-77648918D01*
X76993088Y-77772168D01*
X77308967Y-77835000D01*
X77631033Y-77835000D01*
X77946912Y-77772168D01*
X78244463Y-77648918D01*
X78512252Y-77469987D01*
X78739987Y-77242252D01*
X78918918Y-76974463D01*
X79042168Y-76676912D01*
X79105000Y-76361033D01*
X79105000Y-76038967D01*
X79042168Y-75723088D01*
X78918918Y-75425537D01*
X78739987Y-75157748D01*
X78512252Y-74930013D01*
X78295500Y-74785184D01*
X78295500Y-71114816D01*
X78512252Y-70969987D01*
X78739987Y-70742252D01*
X78918918Y-70474463D01*
X79042168Y-70176912D01*
X79105000Y-69861033D01*
X79105000Y-69538967D01*
X79042168Y-69223088D01*
X78918918Y-68925537D01*
X78739987Y-68657748D01*
X78560300Y-68478061D01*
X89135000Y-68478061D01*
X89135000Y-68681939D01*
X89174774Y-68881898D01*
X89252795Y-69070256D01*
X89366063Y-69239774D01*
X89510226Y-69383937D01*
X89679744Y-69497205D01*
X89868102Y-69575226D01*
X90068061Y-69615000D01*
X90271939Y-69615000D01*
X90471898Y-69575226D01*
X90660256Y-69497205D01*
X90829774Y-69383937D01*
X90973937Y-69239774D01*
X91087205Y-69070256D01*
X91165226Y-68881898D01*
X91197429Y-68720004D01*
X91498466Y-68418967D01*
X96155000Y-68418967D01*
X96155000Y-68741033D01*
X96217832Y-69056912D01*
X96341082Y-69354463D01*
X96520013Y-69622252D01*
X96747748Y-69849987D01*
X96964501Y-69994817D01*
X96964501Y-70444440D01*
X96960506Y-70485000D01*
X96976445Y-70646826D01*
X97023647Y-70802433D01*
X97100301Y-70945842D01*
X97154800Y-71012248D01*
X97203460Y-71071541D01*
X97234961Y-71097393D01*
X99302572Y-73165004D01*
X99334774Y-73326898D01*
X99412795Y-73515256D01*
X99526063Y-73684774D01*
X99670226Y-73828937D01*
X99839744Y-73942205D01*
X100028102Y-74020226D01*
X100228061Y-74060000D01*
X100431939Y-74060000D01*
X100631898Y-74020226D01*
X100774501Y-73961158D01*
X100774501Y-75223066D01*
X98504966Y-77492602D01*
X98473459Y-77518459D01*
X98405431Y-77601353D01*
X98370301Y-77644158D01*
X98305768Y-77764891D01*
X98293647Y-77787567D01*
X98246444Y-77943175D01*
X98235782Y-78051429D01*
X98230506Y-78105000D01*
X98234500Y-78145550D01*
X98234501Y-97448070D01*
X97649996Y-98032576D01*
X97488102Y-98064778D01*
X97299744Y-98142799D01*
X97130226Y-98256067D01*
X96986063Y-98400230D01*
X96872795Y-98569748D01*
X96794774Y-98758106D01*
X96755000Y-98958065D01*
X96755000Y-99161943D01*
X96781056Y-99292936D01*
X96622226Y-99399063D01*
X96478063Y-99543226D01*
X96364795Y-99712744D01*
X96286774Y-99901102D01*
X96247000Y-100101061D01*
X96247000Y-100304939D01*
X96286774Y-100504898D01*
X96364795Y-100693256D01*
X96478063Y-100862774D01*
X96622226Y-101006937D01*
X96791744Y-101120205D01*
X96980102Y-101198226D01*
X97180061Y-101238000D01*
X97383939Y-101238000D01*
X97583898Y-101198226D01*
X97772256Y-101120205D01*
X97913179Y-101026044D01*
X98009511Y-101016556D01*
X98165119Y-100969353D01*
X98308527Y-100892699D01*
X98434226Y-100789541D01*
X98460083Y-100758034D01*
X100885045Y-98333074D01*
X100916541Y-98307226D01*
X100942389Y-98275730D01*
X100942392Y-98275727D01*
X101019699Y-98181528D01*
X101096353Y-98038119D01*
X101118393Y-97965463D01*
X101143556Y-97882511D01*
X101155500Y-97761238D01*
X101155500Y-97761236D01*
X101159494Y-97720685D01*
X101155500Y-97680135D01*
X101155500Y-92376158D01*
X101298102Y-92435226D01*
X101498061Y-92475000D01*
X101701939Y-92475000D01*
X101901898Y-92435226D01*
X102090256Y-92357205D01*
X102259774Y-92243937D01*
X102403937Y-92099774D01*
X102470000Y-92000903D01*
X102470000Y-92176939D01*
X102509774Y-92376898D01*
X102587795Y-92565256D01*
X102701063Y-92734774D01*
X102845226Y-92878937D01*
X103014744Y-92992205D01*
X103203102Y-93070226D01*
X103403061Y-93110000D01*
X103606939Y-93110000D01*
X103806898Y-93070226D01*
X103995256Y-92992205D01*
X104164774Y-92878937D01*
X104308937Y-92734774D01*
X104375000Y-92635903D01*
X104375000Y-92811939D01*
X104414774Y-93011898D01*
X104492795Y-93200256D01*
X104606063Y-93369774D01*
X104750226Y-93513937D01*
X104919744Y-93627205D01*
X105108102Y-93705226D01*
X105308061Y-93745000D01*
X105511939Y-93745000D01*
X105711898Y-93705226D01*
X105900256Y-93627205D01*
X106069774Y-93513937D01*
X106213937Y-93369774D01*
X106327205Y-93200256D01*
X106405226Y-93011898D01*
X106445000Y-92811939D01*
X106445000Y-92608061D01*
X106405226Y-92408102D01*
X106327205Y-92219744D01*
X106213937Y-92050226D01*
X106069774Y-91906063D01*
X105900256Y-91792795D01*
X105711898Y-91714774D01*
X105511939Y-91675000D01*
X105308061Y-91675000D01*
X105108102Y-91714774D01*
X104919744Y-91792795D01*
X104750226Y-91906063D01*
X104606063Y-92050226D01*
X104540000Y-92149097D01*
X104540000Y-91973061D01*
X104500226Y-91773102D01*
X104422205Y-91584744D01*
X104308937Y-91415226D01*
X104164774Y-91271063D01*
X103995256Y-91157795D01*
X103806898Y-91079774D01*
X103606939Y-91040000D01*
X103403061Y-91040000D01*
X103203102Y-91079774D01*
X103014744Y-91157795D01*
X102845226Y-91271063D01*
X102701063Y-91415226D01*
X102635000Y-91514097D01*
X102635000Y-91338061D01*
X102595226Y-91138102D01*
X102517205Y-90949744D01*
X102403937Y-90780226D01*
X102259774Y-90636063D01*
X102090256Y-90522795D01*
X101901898Y-90444774D01*
X101701939Y-90405000D01*
X101498061Y-90405000D01*
X101298102Y-90444774D01*
X101155500Y-90503842D01*
X101155500Y-81813061D01*
X103105000Y-81813061D01*
X103105000Y-82016939D01*
X103144774Y-82216898D01*
X103222795Y-82405256D01*
X103336063Y-82574774D01*
X103480226Y-82718937D01*
X103649744Y-82832205D01*
X103838102Y-82910226D01*
X104038061Y-82950000D01*
X104241939Y-82950000D01*
X104441898Y-82910226D01*
X104630256Y-82832205D01*
X104767503Y-82740500D01*
X111084450Y-82740500D01*
X111125000Y-82744494D01*
X111165550Y-82740500D01*
X111165553Y-82740500D01*
X111286826Y-82728556D01*
X111442434Y-82681353D01*
X111585842Y-82604699D01*
X111711541Y-82501541D01*
X111737398Y-82470034D01*
X113805004Y-80402428D01*
X113966898Y-80370226D01*
X114155256Y-80292205D01*
X114324774Y-80178937D01*
X114468937Y-80034774D01*
X114582205Y-79865256D01*
X114660226Y-79676898D01*
X114700000Y-79476939D01*
X114700000Y-79273061D01*
X114660226Y-79073102D01*
X114582205Y-78884744D01*
X114468937Y-78715226D01*
X114324774Y-78571063D01*
X114155256Y-78457795D01*
X113966898Y-78379774D01*
X113766939Y-78340000D01*
X113563061Y-78340000D01*
X113363102Y-78379774D01*
X113174744Y-78457795D01*
X113005226Y-78571063D01*
X112861063Y-78715226D01*
X112747795Y-78884744D01*
X112669774Y-79073102D01*
X112637572Y-79234996D01*
X110783068Y-81089500D01*
X104767503Y-81089500D01*
X104630256Y-80997795D01*
X104441898Y-80919774D01*
X104241939Y-80880000D01*
X104038061Y-80880000D01*
X103838102Y-80919774D01*
X103649744Y-80997795D01*
X103480226Y-81111063D01*
X103336063Y-81255226D01*
X103222795Y-81424744D01*
X103144774Y-81613102D01*
X103105000Y-81813061D01*
X101155500Y-81813061D01*
X101155500Y-79081932D01*
X103198121Y-77039311D01*
X103144774Y-77168102D01*
X103105000Y-77368061D01*
X103105000Y-77571939D01*
X103144774Y-77771898D01*
X103222795Y-77960256D01*
X103336063Y-78129774D01*
X103480226Y-78273937D01*
X103649744Y-78387205D01*
X103838102Y-78465226D01*
X104038061Y-78505000D01*
X104241939Y-78505000D01*
X104439160Y-78465771D01*
X104492795Y-78595256D01*
X104606063Y-78764774D01*
X104750226Y-78908937D01*
X104919744Y-79022205D01*
X105108102Y-79100226D01*
X105308061Y-79140000D01*
X105511939Y-79140000D01*
X105711898Y-79100226D01*
X105900256Y-79022205D01*
X106069774Y-78908937D01*
X106213937Y-78764774D01*
X106327205Y-78595256D01*
X106405226Y-78406898D01*
X106437428Y-78245004D01*
X107021933Y-77660500D01*
X116212497Y-77660500D01*
X116349744Y-77752205D01*
X116538102Y-77830226D01*
X116738061Y-77870000D01*
X116941939Y-77870000D01*
X117141898Y-77830226D01*
X117330256Y-77752205D01*
X117499774Y-77638937D01*
X117643937Y-77494774D01*
X117757205Y-77325256D01*
X117835226Y-77136898D01*
X117875000Y-76936939D01*
X117875000Y-76733061D01*
X117835226Y-76533102D01*
X117757205Y-76344744D01*
X117643937Y-76175226D01*
X117499774Y-76031063D01*
X117330256Y-75917795D01*
X117141898Y-75839774D01*
X116941939Y-75800000D01*
X116738061Y-75800000D01*
X116538102Y-75839774D01*
X116349744Y-75917795D01*
X116212497Y-76009500D01*
X114601158Y-76009500D01*
X114660226Y-75866898D01*
X114700000Y-75666939D01*
X114700000Y-75463061D01*
X114660226Y-75263102D01*
X114582205Y-75074744D01*
X114468937Y-74905226D01*
X114324774Y-74761063D01*
X114155256Y-74647795D01*
X113966898Y-74569774D01*
X113766939Y-74530000D01*
X113563061Y-74530000D01*
X113363102Y-74569774D01*
X113174744Y-74647795D01*
X113037497Y-74739500D01*
X106085550Y-74739500D01*
X106044999Y-74735506D01*
X106004449Y-74739500D01*
X106004447Y-74739500D01*
X105883174Y-74751444D01*
X105751816Y-74791291D01*
X105727566Y-74798647D01*
X105584157Y-74875301D01*
X105553539Y-74900429D01*
X105458459Y-74978459D01*
X105432606Y-75009961D01*
X103999996Y-76442571D01*
X103838102Y-76474774D01*
X103709311Y-76528121D01*
X110073291Y-70164143D01*
X110328967Y-70215000D01*
X110651033Y-70215000D01*
X110966912Y-70152168D01*
X111264463Y-70028918D01*
X111532252Y-69849987D01*
X111759987Y-69622252D01*
X111938918Y-69354463D01*
X112062168Y-69056912D01*
X112125000Y-68741033D01*
X112125000Y-68418967D01*
X112062168Y-68103088D01*
X111938918Y-67805537D01*
X111759987Y-67537748D01*
X111532252Y-67310013D01*
X111264463Y-67131082D01*
X110966912Y-67007832D01*
X110891436Y-66992819D01*
X113495255Y-64389000D01*
X126037539Y-64389000D01*
X126004774Y-64468102D01*
X125965000Y-64668061D01*
X125965000Y-64871939D01*
X126004774Y-65071898D01*
X126082795Y-65260256D01*
X126196063Y-65429774D01*
X126340226Y-65573937D01*
X126509744Y-65687205D01*
X126698102Y-65765226D01*
X126898061Y-65805000D01*
X127101939Y-65805000D01*
X127301898Y-65765226D01*
X127490256Y-65687205D01*
X127532468Y-65659000D01*
X134087532Y-65659000D01*
X134129744Y-65687205D01*
X134318102Y-65765226D01*
X134518061Y-65805000D01*
X134721939Y-65805000D01*
X134921898Y-65765226D01*
X135110256Y-65687205D01*
X135279774Y-65573937D01*
X135423937Y-65429774D01*
X135537205Y-65260256D01*
X135615226Y-65071898D01*
X135636001Y-64967456D01*
X135636001Y-71711330D01*
X135631700Y-71755000D01*
X135648864Y-71929274D01*
X135699698Y-72096852D01*
X135746071Y-72183609D01*
X135782248Y-72251291D01*
X135893342Y-72386659D01*
X135927259Y-72414494D01*
X139331928Y-75819163D01*
X139331928Y-77200000D01*
X139344188Y-77324482D01*
X139380498Y-77444180D01*
X139439463Y-77554494D01*
X139518815Y-77651185D01*
X139615506Y-77730537D01*
X139725820Y-77789502D01*
X139845518Y-77825812D01*
X139970000Y-77838072D01*
X140069493Y-77838072D01*
X124319996Y-93587570D01*
X124158101Y-93619773D01*
X123969743Y-93697794D01*
X123800225Y-93811062D01*
X123656062Y-93955225D01*
X123542794Y-94124743D01*
X123464773Y-94313101D01*
X123424999Y-94513060D01*
X123424999Y-94716938D01*
X123464773Y-94916897D01*
X123542794Y-95105255D01*
X123656062Y-95274773D01*
X123800225Y-95418936D01*
X123969743Y-95532204D01*
X124158101Y-95610225D01*
X124315289Y-95641491D01*
X122512782Y-97443999D01*
X106876043Y-97443999D01*
X106835500Y-97440006D01*
X106794957Y-97443999D01*
X106794948Y-97443999D01*
X106673675Y-97455943D01*
X106518067Y-97503146D01*
X106393179Y-97569901D01*
X106374657Y-97579801D01*
X106350654Y-97599500D01*
X106248960Y-97682958D01*
X106223109Y-97714458D01*
X105904993Y-98032575D01*
X105743099Y-98064777D01*
X105554741Y-98142798D01*
X105385223Y-98256066D01*
X105241060Y-98400229D01*
X105127792Y-98569747D01*
X105049771Y-98758105D01*
X105009997Y-98958064D01*
X105009997Y-99123500D01*
X102100503Y-99123500D01*
X101963256Y-99031795D01*
X101774898Y-98953774D01*
X101574939Y-98914000D01*
X101371061Y-98914000D01*
X101171102Y-98953774D01*
X100982744Y-99031795D01*
X100813226Y-99145063D01*
X100669063Y-99289226D01*
X100555795Y-99458744D01*
X100477774Y-99647102D01*
X100438000Y-99847061D01*
X100438000Y-100050939D01*
X100477774Y-100250898D01*
X100555795Y-100439256D01*
X100669063Y-100608774D01*
X100813226Y-100752937D01*
X100982744Y-100866205D01*
X101171102Y-100944226D01*
X101371061Y-100984000D01*
X101574939Y-100984000D01*
X101774898Y-100944226D01*
X101963256Y-100866205D01*
X102100503Y-100774500D01*
X127340450Y-100774500D01*
X127381000Y-100778494D01*
X127421550Y-100774500D01*
X127421553Y-100774500D01*
X127542826Y-100762556D01*
X127698434Y-100715353D01*
X127841842Y-100638699D01*
X127967541Y-100535541D01*
X127993398Y-100504034D01*
X130047367Y-98450065D01*
X131045000Y-98450065D01*
X131045000Y-98653943D01*
X131084774Y-98853902D01*
X131162795Y-99042260D01*
X131276063Y-99211778D01*
X131420226Y-99355941D01*
X131589744Y-99469209D01*
X131778102Y-99547230D01*
X131978061Y-99587004D01*
X132181939Y-99587004D01*
X132381898Y-99547230D01*
X132570256Y-99469209D01*
X132707503Y-99377504D01*
X134923486Y-99377504D01*
X134886970Y-99561085D01*
X134886970Y-99764963D01*
X134926744Y-99964922D01*
X135004765Y-100153280D01*
X135118033Y-100322798D01*
X135262196Y-100466961D01*
X135431714Y-100580229D01*
X135620072Y-100658250D01*
X135820031Y-100698024D01*
X136023909Y-100698024D01*
X136223868Y-100658250D01*
X136412226Y-100580229D01*
X136501617Y-100520500D01*
X145374450Y-100520500D01*
X145415000Y-100524494D01*
X145455550Y-100520500D01*
X145455553Y-100520500D01*
X145576826Y-100508556D01*
X145732434Y-100461353D01*
X145875842Y-100384699D01*
X146001541Y-100281541D01*
X146027398Y-100250034D01*
X146684371Y-99593061D01*
X152635000Y-99593061D01*
X152635000Y-99796939D01*
X152674774Y-99996898D01*
X152752795Y-100185256D01*
X152866063Y-100354774D01*
X153010226Y-100498937D01*
X153179744Y-100612205D01*
X153368102Y-100690226D01*
X153568061Y-100730000D01*
X153771939Y-100730000D01*
X153971898Y-100690226D01*
X154160256Y-100612205D01*
X154329774Y-100498937D01*
X154473937Y-100354774D01*
X154587205Y-100185256D01*
X154665226Y-99996898D01*
X154675130Y-99947105D01*
X156299174Y-98323061D01*
X174225000Y-98323061D01*
X174225000Y-98526939D01*
X174264774Y-98726898D01*
X174342795Y-98915256D01*
X174456063Y-99084774D01*
X174600226Y-99228937D01*
X174769744Y-99342205D01*
X174958102Y-99420226D01*
X175158061Y-99460000D01*
X175361939Y-99460000D01*
X175561898Y-99420226D01*
X175750256Y-99342205D01*
X175919774Y-99228937D01*
X176063937Y-99084774D01*
X176177205Y-98915256D01*
X176255226Y-98726898D01*
X176295000Y-98526939D01*
X176295000Y-98323061D01*
X176255226Y-98123102D01*
X176177205Y-97934744D01*
X176085500Y-97797497D01*
X176085500Y-94321932D01*
X177316998Y-93090434D01*
X202879876Y-93090434D01*
X202936498Y-93277107D01*
X203076601Y-93565382D01*
X203270252Y-93820785D01*
X203510008Y-94033501D01*
X203786656Y-94195356D01*
X204089565Y-94300129D01*
X204343000Y-94181315D01*
X204343000Y-92837000D01*
X204597000Y-92837000D01*
X204597000Y-94181315D01*
X204850435Y-94300129D01*
X205153344Y-94195356D01*
X205429992Y-94033501D01*
X205669748Y-93820785D01*
X205863399Y-93565382D01*
X206003502Y-93277107D01*
X206060124Y-93090434D01*
X205940777Y-92837000D01*
X204597000Y-92837000D01*
X204343000Y-92837000D01*
X202999223Y-92837000D01*
X202879876Y-93090434D01*
X177316998Y-93090434D01*
X178077866Y-92329566D01*
X202879876Y-92329566D01*
X202999223Y-92583000D01*
X204343000Y-92583000D01*
X204343000Y-91238685D01*
X204597000Y-91238685D01*
X204597000Y-92583000D01*
X205940777Y-92583000D01*
X206060124Y-92329566D01*
X206003502Y-92142893D01*
X205863399Y-91854618D01*
X205753748Y-91710000D01*
X207911928Y-91710000D01*
X207911928Y-93710000D01*
X207924188Y-93834482D01*
X207960498Y-93954180D01*
X208019463Y-94064494D01*
X208098815Y-94161185D01*
X208195506Y-94240537D01*
X208305820Y-94299502D01*
X208425518Y-94335812D01*
X208550000Y-94348072D01*
X210550000Y-94348072D01*
X210674482Y-94335812D01*
X210794180Y-94299502D01*
X210904494Y-94240537D01*
X211001185Y-94161185D01*
X211080537Y-94064494D01*
X211139502Y-93954180D01*
X211175812Y-93834482D01*
X211188072Y-93710000D01*
X211188072Y-91710000D01*
X211175812Y-91585518D01*
X211139502Y-91465820D01*
X211080537Y-91355506D01*
X211001185Y-91258815D01*
X210904494Y-91179463D01*
X210794180Y-91120498D01*
X210674482Y-91084188D01*
X210550000Y-91071928D01*
X208550000Y-91071928D01*
X208425518Y-91084188D01*
X208305820Y-91120498D01*
X208195506Y-91179463D01*
X208098815Y-91258815D01*
X208019463Y-91355506D01*
X207960498Y-91465820D01*
X207924188Y-91585518D01*
X207911928Y-91710000D01*
X205753748Y-91710000D01*
X205669748Y-91599215D01*
X205429992Y-91386499D01*
X205153344Y-91224644D01*
X204850435Y-91119871D01*
X204597000Y-91238685D01*
X204343000Y-91238685D01*
X204089565Y-91119871D01*
X203786656Y-91224644D01*
X203510008Y-91386499D01*
X203270252Y-91599215D01*
X203076601Y-91854618D01*
X202936498Y-92142893D01*
X202879876Y-92329566D01*
X178077866Y-92329566D01*
X178654332Y-91753101D01*
X178768102Y-91800226D01*
X178968061Y-91840000D01*
X179171939Y-91840000D01*
X179371898Y-91800226D01*
X179560256Y-91722205D01*
X179729774Y-91608937D01*
X179873937Y-91464774D01*
X179987205Y-91295256D01*
X180065226Y-91106898D01*
X180105000Y-90906939D01*
X180105000Y-90703061D01*
X180065226Y-90503102D01*
X179987205Y-90314744D01*
X179967145Y-90284721D01*
X230275000Y-90284721D01*
X230275000Y-90705279D01*
X230357047Y-91117756D01*
X230517988Y-91506302D01*
X230751637Y-91855983D01*
X231049017Y-92153363D01*
X231398698Y-92387012D01*
X231787244Y-92547953D01*
X232199721Y-92630000D01*
X232620279Y-92630000D01*
X233032756Y-92547953D01*
X233421302Y-92387012D01*
X233770983Y-92153363D01*
X234068363Y-91855983D01*
X234302012Y-91506302D01*
X234462953Y-91117756D01*
X234545000Y-90705279D01*
X234545000Y-90284721D01*
X234462953Y-89872244D01*
X234302012Y-89483698D01*
X234068363Y-89134017D01*
X233770983Y-88836637D01*
X233421302Y-88602988D01*
X233032756Y-88442047D01*
X232620279Y-88360000D01*
X232199721Y-88360000D01*
X231787244Y-88442047D01*
X231398698Y-88602988D01*
X231049017Y-88836637D01*
X230751637Y-89134017D01*
X230517988Y-89483698D01*
X230357047Y-89872244D01*
X230275000Y-90284721D01*
X179967145Y-90284721D01*
X179873937Y-90145226D01*
X179729774Y-90001063D01*
X179560256Y-89887795D01*
X179371898Y-89809774D01*
X179171939Y-89770000D01*
X178968061Y-89770000D01*
X178768102Y-89809774D01*
X178579744Y-89887795D01*
X178446744Y-89976663D01*
X178434999Y-89975506D01*
X178394449Y-89979500D01*
X178394447Y-89979500D01*
X178273174Y-89991444D01*
X178117566Y-90038647D01*
X177974157Y-90115301D01*
X177937694Y-90145226D01*
X177848459Y-90218459D01*
X177822606Y-90249961D01*
X174704966Y-93367602D01*
X174673459Y-93393459D01*
X174604214Y-93477835D01*
X174570301Y-93519158D01*
X174493648Y-93662566D01*
X174493647Y-93662567D01*
X174446444Y-93818175D01*
X174434500Y-93939447D01*
X174430506Y-93980000D01*
X174434500Y-94020551D01*
X174434501Y-97797496D01*
X174342795Y-97934744D01*
X174264774Y-98123102D01*
X174225000Y-98323061D01*
X156299174Y-98323061D01*
X156807743Y-97814493D01*
X156841659Y-97786659D01*
X156952753Y-97651291D01*
X157035303Y-97496851D01*
X157055650Y-97429774D01*
X157086136Y-97329276D01*
X157089406Y-97296076D01*
X157099000Y-97198667D01*
X157099000Y-97198661D01*
X157103300Y-97155001D01*
X157099000Y-97111341D01*
X157099000Y-89268235D01*
X159038119Y-87329116D01*
X159102795Y-87485256D01*
X159216063Y-87654774D01*
X159360226Y-87798937D01*
X159529744Y-87912205D01*
X159718102Y-87990226D01*
X159918061Y-88030000D01*
X160121939Y-88030000D01*
X160321898Y-87990226D01*
X160510256Y-87912205D01*
X160647503Y-87820500D01*
X172727497Y-87820500D01*
X172864744Y-87912205D01*
X173053102Y-87990226D01*
X173253061Y-88030000D01*
X173456939Y-88030000D01*
X173656898Y-87990226D01*
X173845256Y-87912205D01*
X174014774Y-87798937D01*
X174158937Y-87654774D01*
X174272205Y-87485256D01*
X174350226Y-87296898D01*
X174390000Y-87096939D01*
X174390000Y-86893061D01*
X174350226Y-86693102D01*
X174272205Y-86504744D01*
X174158937Y-86335226D01*
X174014774Y-86191063D01*
X173845256Y-86077795D01*
X173656898Y-85999774D01*
X173456939Y-85960000D01*
X173253061Y-85960000D01*
X173053102Y-85999774D01*
X172864744Y-86077795D01*
X172727497Y-86169500D01*
X160647503Y-86169500D01*
X160510256Y-86077795D01*
X160354116Y-86013119D01*
X160388236Y-85979000D01*
X169012532Y-85979000D01*
X169054744Y-86007205D01*
X169243102Y-86085226D01*
X169443061Y-86125000D01*
X169646939Y-86125000D01*
X169846898Y-86085226D01*
X170035256Y-86007205D01*
X170204774Y-85893937D01*
X170348937Y-85749774D01*
X170462205Y-85580256D01*
X170540226Y-85391898D01*
X170580000Y-85191939D01*
X170580000Y-84988061D01*
X170540226Y-84788102D01*
X170462205Y-84599744D01*
X170348937Y-84430226D01*
X170204774Y-84286063D01*
X170035256Y-84172795D01*
X169846898Y-84094774D01*
X169646939Y-84055000D01*
X169443061Y-84055000D01*
X169243102Y-84094774D01*
X169054744Y-84172795D01*
X169012532Y-84201000D01*
X160063660Y-84201000D01*
X160020000Y-84196700D01*
X159976340Y-84201000D01*
X159976333Y-84201000D01*
X159862325Y-84212229D01*
X159845725Y-84213864D01*
X159794892Y-84229284D01*
X159678149Y-84264697D01*
X159523709Y-84347247D01*
X159388341Y-84458341D01*
X159360506Y-84492258D01*
X155612259Y-88240506D01*
X155578342Y-88268341D01*
X155550507Y-88302258D01*
X155550505Y-88302260D01*
X155467248Y-88403709D01*
X155384698Y-88558148D01*
X155333864Y-88725726D01*
X155316700Y-88900000D01*
X155321001Y-88943670D01*
X155321000Y-96786764D01*
X153417895Y-98689870D01*
X153368102Y-98699774D01*
X153179744Y-98777795D01*
X153010226Y-98891063D01*
X152866063Y-99035226D01*
X152752795Y-99204744D01*
X152674774Y-99393102D01*
X152635000Y-99593061D01*
X146684371Y-99593061D01*
X153253290Y-93024143D01*
X153508967Y-93075000D01*
X153831033Y-93075000D01*
X154146912Y-93012168D01*
X154444463Y-92888918D01*
X154712252Y-92709987D01*
X154939987Y-92482252D01*
X155118918Y-92214463D01*
X155242168Y-91916912D01*
X155305000Y-91601033D01*
X155305000Y-91278967D01*
X155242168Y-90963088D01*
X155118918Y-90665537D01*
X154939987Y-90397748D01*
X154712252Y-90170013D01*
X154444463Y-89991082D01*
X154146912Y-89867832D01*
X153831033Y-89805000D01*
X153508967Y-89805000D01*
X153193088Y-89867832D01*
X152895537Y-89991082D01*
X152627748Y-90170013D01*
X152400013Y-90397748D01*
X152400000Y-90397767D01*
X152399987Y-90397748D01*
X152172252Y-90170013D01*
X151904463Y-89991082D01*
X151606912Y-89867832D01*
X151291033Y-89805000D01*
X150968967Y-89805000D01*
X150653088Y-89867832D01*
X150355537Y-89991082D01*
X150087748Y-90170013D01*
X149860013Y-90397748D01*
X149860000Y-90397767D01*
X149859987Y-90397748D01*
X149632252Y-90170013D01*
X149364463Y-89991082D01*
X149066912Y-89867832D01*
X148751033Y-89805000D01*
X148428967Y-89805000D01*
X148113088Y-89867832D01*
X147815537Y-89991082D01*
X147547748Y-90170013D01*
X147320013Y-90397748D01*
X147320000Y-90397767D01*
X147319987Y-90397748D01*
X147092252Y-90170013D01*
X146824463Y-89991082D01*
X146526912Y-89867832D01*
X146211033Y-89805000D01*
X145888967Y-89805000D01*
X145573088Y-89867832D01*
X145275537Y-89991082D01*
X145007748Y-90170013D01*
X144780013Y-90397748D01*
X144780000Y-90397767D01*
X144779987Y-90397748D01*
X144552252Y-90170013D01*
X144284463Y-89991082D01*
X143986912Y-89867832D01*
X143671033Y-89805000D01*
X143348967Y-89805000D01*
X143033088Y-89867832D01*
X142735537Y-89991082D01*
X142467748Y-90170013D01*
X142240013Y-90397748D01*
X142240000Y-90397767D01*
X142239987Y-90397748D01*
X142012252Y-90170013D01*
X141744463Y-89991082D01*
X141446912Y-89867832D01*
X141131033Y-89805000D01*
X140808967Y-89805000D01*
X140493088Y-89867832D01*
X140195537Y-89991082D01*
X139927748Y-90170013D01*
X139700013Y-90397748D01*
X139521082Y-90665537D01*
X139397832Y-90963088D01*
X139335000Y-91278967D01*
X139335000Y-91601033D01*
X139397832Y-91916912D01*
X139521082Y-92214463D01*
X139700013Y-92482252D01*
X139927748Y-92709987D01*
X140195537Y-92888918D01*
X140493088Y-93012168D01*
X140724390Y-93058177D01*
X136056064Y-97726504D01*
X132707503Y-97726504D01*
X132570256Y-97634799D01*
X132381898Y-97556778D01*
X132181939Y-97517004D01*
X131978061Y-97517004D01*
X131778102Y-97556778D01*
X131589744Y-97634799D01*
X131420226Y-97748067D01*
X131276063Y-97892230D01*
X131162795Y-98061748D01*
X131084774Y-98250106D01*
X131045000Y-98450065D01*
X130047367Y-98450065D01*
X147852433Y-80645000D01*
X191891471Y-80645000D01*
X191913539Y-80869067D01*
X191978898Y-81084523D01*
X192085033Y-81283088D01*
X192227867Y-81457133D01*
X192401912Y-81599967D01*
X192600477Y-81706102D01*
X192815933Y-81771461D01*
X193040000Y-81793529D01*
X193264067Y-81771461D01*
X193479523Y-81706102D01*
X193678088Y-81599967D01*
X193808521Y-81492924D01*
X194546724Y-80754721D01*
X230275000Y-80754721D01*
X230275000Y-81175279D01*
X230357047Y-81587756D01*
X230517988Y-81976302D01*
X230751637Y-82325983D01*
X231049017Y-82623363D01*
X231398698Y-82857012D01*
X231787244Y-83017953D01*
X232199721Y-83100000D01*
X232620279Y-83100000D01*
X233032756Y-83017953D01*
X233421302Y-82857012D01*
X233770983Y-82623363D01*
X234068363Y-82325983D01*
X234302012Y-81976302D01*
X234462953Y-81587756D01*
X234545000Y-81175279D01*
X234545000Y-80754721D01*
X234462953Y-80342244D01*
X234302012Y-79953698D01*
X234068363Y-79604017D01*
X233770983Y-79306637D01*
X233421302Y-79072988D01*
X233032756Y-78912047D01*
X232620279Y-78830000D01*
X232199721Y-78830000D01*
X231787244Y-78912047D01*
X231398698Y-79072988D01*
X231049017Y-79306637D01*
X230751637Y-79604017D01*
X230517988Y-79953698D01*
X230357047Y-80342244D01*
X230275000Y-80754721D01*
X194546724Y-80754721D01*
X202374792Y-72926653D01*
X231097952Y-72926653D01*
X231253962Y-73242214D01*
X231628745Y-73433020D01*
X232033551Y-73547044D01*
X232452824Y-73579902D01*
X232870451Y-73530334D01*
X233270383Y-73400243D01*
X233566038Y-73242214D01*
X233722048Y-72926653D01*
X232410000Y-71614605D01*
X231097952Y-72926653D01*
X202374792Y-72926653D01*
X203823621Y-71477824D01*
X230265098Y-71477824D01*
X230314666Y-71895451D01*
X230444757Y-72295383D01*
X230602786Y-72591038D01*
X230918347Y-72747048D01*
X232230395Y-71435000D01*
X232589605Y-71435000D01*
X233901653Y-72747048D01*
X234217214Y-72591038D01*
X234408020Y-72216255D01*
X234522044Y-71811449D01*
X234554902Y-71392176D01*
X234505334Y-70974549D01*
X234375243Y-70574617D01*
X234217214Y-70278962D01*
X233901653Y-70122952D01*
X232589605Y-71435000D01*
X232230395Y-71435000D01*
X230918347Y-70122952D01*
X230602786Y-70278962D01*
X230411980Y-70653745D01*
X230297956Y-71058551D01*
X230265098Y-71477824D01*
X203823621Y-71477824D01*
X204603524Y-70697922D01*
X204647133Y-70662133D01*
X204789968Y-70488089D01*
X204896103Y-70289523D01*
X204961461Y-70074067D01*
X204974335Y-69943347D01*
X231097952Y-69943347D01*
X232410000Y-71255395D01*
X233722048Y-69943347D01*
X233566038Y-69627786D01*
X233191255Y-69436980D01*
X232786449Y-69322956D01*
X232367176Y-69290098D01*
X231949549Y-69339666D01*
X231549617Y-69469757D01*
X231253962Y-69627786D01*
X231097952Y-69943347D01*
X204974335Y-69943347D01*
X204978000Y-69906146D01*
X204978000Y-69906140D01*
X204983529Y-69850001D01*
X204978000Y-69793862D01*
X204978000Y-61694721D01*
X230275000Y-61694721D01*
X230275000Y-62115279D01*
X230357047Y-62527756D01*
X230517988Y-62916302D01*
X230751637Y-63265983D01*
X231049017Y-63563363D01*
X231398698Y-63797012D01*
X231787244Y-63957953D01*
X232199721Y-64040000D01*
X232620279Y-64040000D01*
X233032756Y-63957953D01*
X233421302Y-63797012D01*
X233770983Y-63563363D01*
X234068363Y-63265983D01*
X234302012Y-62916302D01*
X234462953Y-62527756D01*
X234545000Y-62115279D01*
X234545000Y-61694721D01*
X234462953Y-61282244D01*
X234302012Y-60893698D01*
X234068363Y-60544017D01*
X233770983Y-60246637D01*
X233421302Y-60012988D01*
X233032756Y-59852047D01*
X232620279Y-59770000D01*
X232199721Y-59770000D01*
X231787244Y-59852047D01*
X231398698Y-60012988D01*
X231049017Y-60246637D01*
X230751637Y-60544017D01*
X230517988Y-60893698D01*
X230357047Y-61282244D01*
X230275000Y-61694721D01*
X204978000Y-61694721D01*
X204978000Y-61016139D01*
X204983529Y-60960000D01*
X204978000Y-60903861D01*
X204978000Y-60903854D01*
X204961461Y-60735933D01*
X204896103Y-60520477D01*
X204789968Y-60321911D01*
X204647133Y-60147867D01*
X204603523Y-60112077D01*
X203568072Y-59076627D01*
X203568072Y-58055000D01*
X203555812Y-57930518D01*
X203519502Y-57810820D01*
X203460537Y-57700506D01*
X203381185Y-57603815D01*
X203284494Y-57524463D01*
X203174180Y-57465498D01*
X203054482Y-57429188D01*
X202930000Y-57416928D01*
X200930000Y-57416928D01*
X200805518Y-57429188D01*
X200685820Y-57465498D01*
X200575506Y-57524463D01*
X200478815Y-57603815D01*
X200399463Y-57700506D01*
X200340498Y-57810820D01*
X200304188Y-57930518D01*
X200291928Y-58055000D01*
X200291928Y-60055000D01*
X200304188Y-60179482D01*
X200340498Y-60299180D01*
X200399463Y-60409494D01*
X200478815Y-60506185D01*
X200575506Y-60585537D01*
X200685820Y-60644502D01*
X200805518Y-60680812D01*
X200930000Y-60693072D01*
X201951627Y-60693072D01*
X202692001Y-61433447D01*
X202692001Y-62680920D01*
X202406912Y-62562832D01*
X202091033Y-62500000D01*
X201768967Y-62500000D01*
X201453088Y-62562832D01*
X201155537Y-62686082D01*
X200887748Y-62865013D01*
X200660013Y-63092748D01*
X200481082Y-63360537D01*
X200357832Y-63658088D01*
X200295000Y-63973967D01*
X200295000Y-64296033D01*
X200357832Y-64611912D01*
X200481082Y-64909463D01*
X200660013Y-65177252D01*
X200887748Y-65404987D01*
X201155537Y-65583918D01*
X201453088Y-65707168D01*
X201768967Y-65770000D01*
X202091033Y-65770000D01*
X202406912Y-65707168D01*
X202692000Y-65589080D01*
X202692000Y-66731145D01*
X202692001Y-66731155D01*
X202692000Y-69376554D01*
X192192076Y-79876479D01*
X192085033Y-80006912D01*
X191978898Y-80205477D01*
X191913539Y-80420933D01*
X191891471Y-80645000D01*
X147852433Y-80645000D01*
X150713291Y-77784143D01*
X150968967Y-77835000D01*
X151291033Y-77835000D01*
X151606912Y-77772168D01*
X151904463Y-77648918D01*
X152172252Y-77469987D01*
X152399987Y-77242252D01*
X152400000Y-77242233D01*
X152400013Y-77242252D01*
X152627748Y-77469987D01*
X152895537Y-77648918D01*
X153193088Y-77772168D01*
X153508967Y-77835000D01*
X153831033Y-77835000D01*
X154146912Y-77772168D01*
X154444463Y-77648918D01*
X154712252Y-77469987D01*
X154939987Y-77242252D01*
X155118918Y-76974463D01*
X155218910Y-76733061D01*
X167240000Y-76733061D01*
X167240000Y-76936939D01*
X167279774Y-77136898D01*
X167357795Y-77325256D01*
X167471063Y-77494774D01*
X167615226Y-77638937D01*
X167784744Y-77752205D01*
X167973102Y-77830226D01*
X168173061Y-77870000D01*
X168376939Y-77870000D01*
X168576898Y-77830226D01*
X168765256Y-77752205D01*
X168934774Y-77638937D01*
X169078937Y-77494774D01*
X169192205Y-77325256D01*
X169270226Y-77136898D01*
X169310000Y-76936939D01*
X169310000Y-76733061D01*
X169270226Y-76533102D01*
X169192205Y-76344744D01*
X169164000Y-76302532D01*
X169164000Y-74663235D01*
X169797105Y-74030130D01*
X169846898Y-74020226D01*
X170035256Y-73942205D01*
X170204774Y-73828937D01*
X170348937Y-73684774D01*
X170462205Y-73515256D01*
X170540226Y-73326898D01*
X170580000Y-73126939D01*
X170580000Y-72923061D01*
X170540226Y-72723102D01*
X170462205Y-72534744D01*
X170348937Y-72365226D01*
X170204774Y-72221063D01*
X170035256Y-72107795D01*
X169846898Y-72029774D01*
X169646939Y-71990000D01*
X169443061Y-71990000D01*
X169243102Y-72029774D01*
X169054744Y-72107795D01*
X168885226Y-72221063D01*
X168741063Y-72365226D01*
X168627795Y-72534744D01*
X168549774Y-72723102D01*
X168539870Y-72772895D01*
X167677264Y-73635501D01*
X167643341Y-73663341D01*
X167532247Y-73798710D01*
X167449697Y-73953150D01*
X167439568Y-73986541D01*
X167406760Y-74094698D01*
X167398864Y-74120727D01*
X167386000Y-74251334D01*
X167386000Y-74251340D01*
X167381700Y-74295000D01*
X167386000Y-74338660D01*
X167386001Y-76302531D01*
X167357795Y-76344744D01*
X167279774Y-76533102D01*
X167240000Y-76733061D01*
X155218910Y-76733061D01*
X155242168Y-76676912D01*
X155305000Y-76361033D01*
X155305000Y-76038967D01*
X155242168Y-75723088D01*
X155118918Y-75425537D01*
X154939987Y-75157748D01*
X154712252Y-74930013D01*
X154444463Y-74751082D01*
X154146912Y-74627832D01*
X153990513Y-74596722D01*
X157322235Y-71265000D01*
X171651928Y-71265000D01*
X171664188Y-71389482D01*
X171700498Y-71509180D01*
X171759463Y-71619494D01*
X171838815Y-71716185D01*
X171935506Y-71795537D01*
X172045820Y-71854502D01*
X172165518Y-71890812D01*
X172290000Y-71903072D01*
X172754250Y-71900000D01*
X172913000Y-71741250D01*
X172913000Y-69992000D01*
X173167000Y-69992000D01*
X173167000Y-71741250D01*
X173325750Y-71900000D01*
X173446928Y-71900802D01*
X173446928Y-72415000D01*
X173459188Y-72539482D01*
X173495498Y-72659180D01*
X173554463Y-72769494D01*
X173633815Y-72866185D01*
X173730506Y-72945537D01*
X173840820Y-73004502D01*
X173960518Y-73040812D01*
X174085000Y-73053072D01*
X174785000Y-73053072D01*
X174809501Y-73050659D01*
X174809501Y-73359440D01*
X174805506Y-73400000D01*
X174821445Y-73561826D01*
X174868647Y-73717433D01*
X174945301Y-73860842D01*
X175005976Y-73934774D01*
X175048460Y-73986541D01*
X175079961Y-74012393D01*
X177407572Y-76340004D01*
X177439774Y-76501898D01*
X177517795Y-76690256D01*
X177631063Y-76859774D01*
X177775226Y-77003937D01*
X177944744Y-77117205D01*
X178133102Y-77195226D01*
X178333061Y-77235000D01*
X178536939Y-77235000D01*
X178736898Y-77195226D01*
X178925256Y-77117205D01*
X179094774Y-77003937D01*
X179238937Y-76859774D01*
X179352205Y-76690256D01*
X179430226Y-76501898D01*
X179470000Y-76301939D01*
X179470000Y-76098061D01*
X179430226Y-75898102D01*
X179352205Y-75709744D01*
X179238937Y-75540226D01*
X179094774Y-75396063D01*
X178925256Y-75282795D01*
X178736898Y-75204774D01*
X178575004Y-75172572D01*
X176460500Y-73058068D01*
X176460500Y-73053072D01*
X177435000Y-73053072D01*
X177559482Y-73040812D01*
X177679180Y-73004502D01*
X177785000Y-72947939D01*
X177824918Y-72969276D01*
X177868647Y-73113433D01*
X177945301Y-73256842D01*
X178002795Y-73326898D01*
X178048460Y-73382541D01*
X178079961Y-73408393D01*
X182079636Y-77408068D01*
X182105488Y-77439570D01*
X182165288Y-77488646D01*
X182231185Y-77542727D01*
X182231187Y-77542728D01*
X182374595Y-77619382D01*
X182530203Y-77666585D01*
X182651476Y-77678529D01*
X182651485Y-77678529D01*
X182692028Y-77682522D01*
X182732571Y-77678529D01*
X183501607Y-77678529D01*
X183638854Y-77770234D01*
X183827212Y-77848255D01*
X184027171Y-77888029D01*
X184231049Y-77888029D01*
X184431008Y-77848255D01*
X184619366Y-77770234D01*
X184788884Y-77656966D01*
X184933047Y-77512803D01*
X185046315Y-77343285D01*
X185078985Y-77264414D01*
X185729071Y-77914500D01*
X181602467Y-77914500D01*
X181465220Y-77822795D01*
X181276862Y-77744774D01*
X181076903Y-77705000D01*
X180873025Y-77705000D01*
X180673066Y-77744774D01*
X180484708Y-77822795D01*
X180315190Y-77936063D01*
X180171027Y-78080226D01*
X180057759Y-78249744D01*
X179979738Y-78438102D01*
X179939964Y-78638061D01*
X179939964Y-78841939D01*
X179979738Y-79041898D01*
X180057759Y-79230256D01*
X180171027Y-79399774D01*
X180315190Y-79543937D01*
X180484708Y-79657205D01*
X180673066Y-79735226D01*
X180873025Y-79775000D01*
X181076903Y-79775000D01*
X181276862Y-79735226D01*
X181465220Y-79657205D01*
X181602467Y-79565500D01*
X188501603Y-79565500D01*
X188542153Y-79569494D01*
X188582703Y-79565500D01*
X188582706Y-79565500D01*
X188703979Y-79553556D01*
X188859587Y-79506353D01*
X189002995Y-79429699D01*
X189128694Y-79326541D01*
X189154551Y-79295034D01*
X194120040Y-74329546D01*
X194151541Y-74303694D01*
X194254699Y-74177995D01*
X194331353Y-74034587D01*
X194378556Y-73878979D01*
X194390500Y-73757706D01*
X194390500Y-73757697D01*
X194394493Y-73717154D01*
X194390500Y-73676611D01*
X194390500Y-72961035D01*
X194419494Y-72945537D01*
X194516185Y-72866185D01*
X194595537Y-72769494D01*
X194654502Y-72659180D01*
X194690812Y-72539482D01*
X194703072Y-72415000D01*
X194703072Y-70915000D01*
X194690812Y-70790518D01*
X194654502Y-70670820D01*
X194595537Y-70560506D01*
X194516185Y-70463815D01*
X194419494Y-70384463D01*
X194309180Y-70325498D01*
X194189482Y-70289188D01*
X194065000Y-70276928D01*
X193065000Y-70276928D01*
X192940518Y-70289188D01*
X192820820Y-70325498D01*
X192710506Y-70384463D01*
X192613815Y-70463815D01*
X192534463Y-70560506D01*
X192475498Y-70670820D01*
X192439188Y-70790518D01*
X192426928Y-70915000D01*
X192426928Y-72415000D01*
X192439188Y-72539482D01*
X192475498Y-72659180D01*
X192534463Y-72769494D01*
X192613815Y-72866185D01*
X192710506Y-72945537D01*
X192739501Y-72961035D01*
X192739501Y-73375219D01*
X191890500Y-74224220D01*
X191890500Y-72961035D01*
X191919494Y-72945537D01*
X192016185Y-72866185D01*
X192095537Y-72769494D01*
X192154502Y-72659180D01*
X192190812Y-72539482D01*
X192203072Y-72415000D01*
X192203072Y-70915000D01*
X192190812Y-70790518D01*
X192154502Y-70670820D01*
X192095537Y-70560506D01*
X192016185Y-70463815D01*
X191919494Y-70384463D01*
X191809180Y-70325498D01*
X191689482Y-70289188D01*
X191565000Y-70276928D01*
X190565000Y-70276928D01*
X190440518Y-70289188D01*
X190320820Y-70325498D01*
X190210506Y-70384463D01*
X190113815Y-70463815D01*
X190034463Y-70560506D01*
X189975498Y-70670820D01*
X189939188Y-70790518D01*
X189926928Y-70915000D01*
X189926928Y-72415000D01*
X189939188Y-72539482D01*
X189975498Y-72659180D01*
X190034463Y-72769494D01*
X190113815Y-72866185D01*
X190210506Y-72945537D01*
X190239500Y-72961035D01*
X190239501Y-74658066D01*
X189724996Y-75172572D01*
X189563102Y-75204774D01*
X189374744Y-75282795D01*
X189205226Y-75396063D01*
X189061063Y-75540226D01*
X188947795Y-75709744D01*
X188869774Y-75898102D01*
X188830000Y-76098061D01*
X188830000Y-76301939D01*
X188869774Y-76501898D01*
X188947795Y-76690256D01*
X189061063Y-76859774D01*
X189158005Y-76956716D01*
X188200221Y-77914500D01*
X187966494Y-77914500D01*
X187966494Y-77847551D01*
X187926720Y-77647592D01*
X187848699Y-77459234D01*
X187735431Y-77289716D01*
X187591268Y-77145553D01*
X187421750Y-77032285D01*
X187233392Y-76954264D01*
X187071499Y-76922062D01*
X186114437Y-75965000D01*
X186156939Y-75965000D01*
X186356898Y-75925226D01*
X186545256Y-75847205D01*
X186714774Y-75733937D01*
X186858937Y-75589774D01*
X186972205Y-75420256D01*
X187050226Y-75231898D01*
X187090000Y-75031939D01*
X187090000Y-74828061D01*
X187050226Y-74628102D01*
X186972205Y-74439744D01*
X186954000Y-74412498D01*
X186954000Y-72917219D01*
X187016185Y-72866185D01*
X187095537Y-72769494D01*
X187154502Y-72659180D01*
X187190812Y-72539482D01*
X187203072Y-72415000D01*
X187426928Y-72415000D01*
X187439188Y-72539482D01*
X187475498Y-72659180D01*
X187534463Y-72769494D01*
X187613815Y-72866185D01*
X187710506Y-72945537D01*
X187820820Y-73004502D01*
X187940518Y-73040812D01*
X188065000Y-73053072D01*
X188279250Y-73050000D01*
X188438000Y-72891250D01*
X188438000Y-71792000D01*
X188692000Y-71792000D01*
X188692000Y-72891250D01*
X188850750Y-73050000D01*
X189065000Y-73053072D01*
X189189482Y-73040812D01*
X189309180Y-73004502D01*
X189419494Y-72945537D01*
X189516185Y-72866185D01*
X189595537Y-72769494D01*
X189654502Y-72659180D01*
X189690812Y-72539482D01*
X189703072Y-72415000D01*
X189700000Y-71950750D01*
X189541250Y-71792000D01*
X188692000Y-71792000D01*
X188438000Y-71792000D01*
X187588750Y-71792000D01*
X187430000Y-71950750D01*
X187426928Y-72415000D01*
X187203072Y-72415000D01*
X187203072Y-70915000D01*
X187426928Y-70915000D01*
X187430000Y-71379250D01*
X187588750Y-71538000D01*
X188438000Y-71538000D01*
X188438000Y-70438750D01*
X188692000Y-70438750D01*
X188692000Y-71538000D01*
X189541250Y-71538000D01*
X189700000Y-71379250D01*
X189703072Y-70915000D01*
X189690812Y-70790518D01*
X189654502Y-70670820D01*
X189595537Y-70560506D01*
X189516185Y-70463815D01*
X189419494Y-70384463D01*
X189309180Y-70325498D01*
X189189482Y-70289188D01*
X189065000Y-70276928D01*
X188850750Y-70280000D01*
X188692000Y-70438750D01*
X188438000Y-70438750D01*
X188279250Y-70280000D01*
X188065000Y-70276928D01*
X187940518Y-70289188D01*
X187820820Y-70325498D01*
X187710506Y-70384463D01*
X187613815Y-70463815D01*
X187534463Y-70560506D01*
X187475498Y-70670820D01*
X187439188Y-70790518D01*
X187426928Y-70915000D01*
X187203072Y-70915000D01*
X187190812Y-70790518D01*
X187154502Y-70670820D01*
X187095537Y-70560506D01*
X187016185Y-70463815D01*
X186919494Y-70384463D01*
X186809180Y-70325498D01*
X186689482Y-70289188D01*
X186565000Y-70276928D01*
X185565000Y-70276928D01*
X185440518Y-70289188D01*
X185320820Y-70325498D01*
X185210506Y-70384463D01*
X185113815Y-70463815D01*
X185034463Y-70560506D01*
X184975498Y-70670820D01*
X184939188Y-70790518D01*
X184926928Y-70915000D01*
X184926928Y-72415000D01*
X184939188Y-72539482D01*
X184975498Y-72659180D01*
X185034463Y-72769494D01*
X185113815Y-72866185D01*
X185176000Y-72917219D01*
X185176001Y-74382565D01*
X185137795Y-74439744D01*
X185059774Y-74628102D01*
X185020000Y-74828061D01*
X185020000Y-74870564D01*
X184390500Y-74241064D01*
X184390500Y-72961035D01*
X184419494Y-72945537D01*
X184516185Y-72866185D01*
X184595537Y-72769494D01*
X184654502Y-72659180D01*
X184690812Y-72539482D01*
X184703072Y-72415000D01*
X184703072Y-70915000D01*
X184690812Y-70790518D01*
X184654502Y-70670820D01*
X184595537Y-70560506D01*
X184516185Y-70463815D01*
X184419494Y-70384463D01*
X184309180Y-70325498D01*
X184189482Y-70289188D01*
X184065000Y-70276928D01*
X183065000Y-70276928D01*
X182940518Y-70289188D01*
X182820820Y-70325498D01*
X182710506Y-70384463D01*
X182613815Y-70463815D01*
X182534463Y-70560506D01*
X182475498Y-70670820D01*
X182439188Y-70790518D01*
X182426928Y-70915000D01*
X182426928Y-72415000D01*
X182439188Y-72539482D01*
X182475498Y-72659180D01*
X182534463Y-72769494D01*
X182613815Y-72866185D01*
X182710506Y-72945537D01*
X182739500Y-72961035D01*
X182739501Y-74542436D01*
X182735506Y-74582996D01*
X182751445Y-74744822D01*
X182798647Y-74900429D01*
X182875301Y-75043838D01*
X182916694Y-75094275D01*
X182978460Y-75169537D01*
X183009961Y-75195389D01*
X183717726Y-75903154D01*
X183638854Y-75935824D01*
X183501607Y-76027529D01*
X183033962Y-76027529D01*
X179703989Y-72697557D01*
X179724502Y-72659180D01*
X179760812Y-72539482D01*
X179773072Y-72415000D01*
X179926928Y-72415000D01*
X179939188Y-72539482D01*
X179975498Y-72659180D01*
X180034463Y-72769494D01*
X180113815Y-72866185D01*
X180210506Y-72945537D01*
X180320820Y-73004502D01*
X180440518Y-73040812D01*
X180565000Y-73053072D01*
X180779250Y-73050000D01*
X180938000Y-72891250D01*
X180938000Y-71792000D01*
X181192000Y-71792000D01*
X181192000Y-72891250D01*
X181350750Y-73050000D01*
X181565000Y-73053072D01*
X181689482Y-73040812D01*
X181809180Y-73004502D01*
X181919494Y-72945537D01*
X182016185Y-72866185D01*
X182095537Y-72769494D01*
X182154502Y-72659180D01*
X182190812Y-72539482D01*
X182203072Y-72415000D01*
X182200000Y-71950750D01*
X182041250Y-71792000D01*
X181192000Y-71792000D01*
X180938000Y-71792000D01*
X180088750Y-71792000D01*
X179930000Y-71950750D01*
X179926928Y-72415000D01*
X179773072Y-72415000D01*
X179773072Y-70915000D01*
X179926928Y-70915000D01*
X179930000Y-71379250D01*
X180088750Y-71538000D01*
X180938000Y-71538000D01*
X180938000Y-70438750D01*
X181192000Y-70438750D01*
X181192000Y-71538000D01*
X182041250Y-71538000D01*
X182200000Y-71379250D01*
X182203072Y-70915000D01*
X182190812Y-70790518D01*
X182154502Y-70670820D01*
X182095537Y-70560506D01*
X182016185Y-70463815D01*
X181919494Y-70384463D01*
X181809180Y-70325498D01*
X181689482Y-70289188D01*
X181565000Y-70276928D01*
X181350750Y-70280000D01*
X181192000Y-70438750D01*
X180938000Y-70438750D01*
X180779250Y-70280000D01*
X180565000Y-70276928D01*
X180440518Y-70289188D01*
X180320820Y-70325498D01*
X180210506Y-70384463D01*
X180113815Y-70463815D01*
X180034463Y-70560506D01*
X179975498Y-70670820D01*
X179939188Y-70790518D01*
X179926928Y-70915000D01*
X179773072Y-70915000D01*
X179760812Y-70790518D01*
X179724502Y-70670820D01*
X179665537Y-70560506D01*
X179586185Y-70463815D01*
X179489494Y-70384463D01*
X179379180Y-70325498D01*
X179259482Y-70289188D01*
X179135000Y-70276928D01*
X178135000Y-70276928D01*
X178010518Y-70289188D01*
X177890820Y-70325498D01*
X177785000Y-70382061D01*
X177679180Y-70325498D01*
X177559482Y-70289188D01*
X177435000Y-70276928D01*
X176435000Y-70276928D01*
X176310518Y-70289188D01*
X176210000Y-70319680D01*
X176109482Y-70289188D01*
X175985000Y-70276928D01*
X175285000Y-70276928D01*
X175160518Y-70289188D01*
X175040820Y-70325498D01*
X175035000Y-70328609D01*
X175029180Y-70325498D01*
X174909482Y-70289188D01*
X174785000Y-70276928D01*
X174425348Y-70276928D01*
X174425000Y-70150750D01*
X174266250Y-69992000D01*
X173167000Y-69992000D01*
X172913000Y-69992000D01*
X171813750Y-69992000D01*
X171655000Y-70150750D01*
X171651928Y-71265000D01*
X157322235Y-71265000D01*
X157442742Y-71144494D01*
X157476659Y-71116659D01*
X157587753Y-70981291D01*
X157670303Y-70826851D01*
X157705716Y-70710108D01*
X157721136Y-70659275D01*
X157738301Y-70485000D01*
X157734000Y-70441332D01*
X157734000Y-68465000D01*
X171651928Y-68465000D01*
X171655000Y-69579250D01*
X171813750Y-69738000D01*
X172913000Y-69738000D01*
X172913000Y-67988750D01*
X173167000Y-67988750D01*
X173167000Y-69738000D01*
X174266250Y-69738000D01*
X174326703Y-69677547D01*
X174434606Y-69785450D01*
X174628692Y-69915134D01*
X174844348Y-70004461D01*
X175073288Y-70050000D01*
X175306712Y-70050000D01*
X175535652Y-70004461D01*
X175751308Y-69915134D01*
X175945394Y-69785450D01*
X176110450Y-69620394D01*
X176240134Y-69426308D01*
X176329461Y-69210652D01*
X176375000Y-68981712D01*
X176375000Y-68748288D01*
X176329461Y-68519348D01*
X176240134Y-68303692D01*
X176110450Y-68109606D01*
X175945394Y-67944550D01*
X175943918Y-67943564D01*
X175958500Y-67945000D01*
X195080604Y-67945000D01*
X195075363Y-67950241D01*
X194918320Y-68185273D01*
X194810147Y-68446426D01*
X194755000Y-68723665D01*
X194755000Y-69006335D01*
X194810147Y-69283574D01*
X194918320Y-69544727D01*
X195075363Y-69779759D01*
X195275241Y-69979637D01*
X195510273Y-70136680D01*
X195771426Y-70244853D01*
X195932676Y-70276928D01*
X195565000Y-70276928D01*
X195440518Y-70289188D01*
X195320820Y-70325498D01*
X195210506Y-70384463D01*
X195113815Y-70463815D01*
X195034463Y-70560506D01*
X194975498Y-70670820D01*
X194939188Y-70790518D01*
X194926928Y-70915000D01*
X194926928Y-72415000D01*
X194939188Y-72539482D01*
X194975498Y-72659180D01*
X195034463Y-72769494D01*
X195113815Y-72866185D01*
X195210506Y-72945537D01*
X195320820Y-73004502D01*
X195440518Y-73040812D01*
X195565000Y-73053072D01*
X196565000Y-73053072D01*
X196689482Y-73040812D01*
X196809180Y-73004502D01*
X196919494Y-72945537D01*
X197016185Y-72866185D01*
X197095537Y-72769494D01*
X197154502Y-72659180D01*
X197190812Y-72539482D01*
X197203072Y-72415000D01*
X197203072Y-71871869D01*
X197265518Y-71890812D01*
X197390000Y-71903072D01*
X197854250Y-71900000D01*
X198013000Y-71741250D01*
X198013000Y-69992000D01*
X198267000Y-69992000D01*
X198267000Y-71741250D01*
X198425750Y-71900000D01*
X198890000Y-71903072D01*
X199014482Y-71890812D01*
X199134180Y-71854502D01*
X199244494Y-71795537D01*
X199341185Y-71716185D01*
X199420537Y-71619494D01*
X199479502Y-71509180D01*
X199515812Y-71389482D01*
X199528072Y-71265000D01*
X199525000Y-70150750D01*
X199366250Y-69992000D01*
X198267000Y-69992000D01*
X198013000Y-69992000D01*
X197993000Y-69992000D01*
X197993000Y-69738000D01*
X198013000Y-69738000D01*
X198013000Y-67988750D01*
X198267000Y-67988750D01*
X198267000Y-69738000D01*
X199366250Y-69738000D01*
X199525000Y-69579250D01*
X199528072Y-68465000D01*
X199515812Y-68340518D01*
X199479502Y-68220820D01*
X199420537Y-68110506D01*
X199341185Y-68013815D01*
X199244494Y-67934463D01*
X199134180Y-67875498D01*
X199014482Y-67839188D01*
X198890000Y-67826928D01*
X198425750Y-67830000D01*
X198267000Y-67988750D01*
X198013000Y-67988750D01*
X197854250Y-67830000D01*
X197390000Y-67826928D01*
X197265518Y-67839188D01*
X197210326Y-67855930D01*
X197167500Y-67813104D01*
X197167500Y-58737500D01*
X197165060Y-58712724D01*
X197157833Y-58688899D01*
X197146097Y-58666943D01*
X197130303Y-58647697D01*
X197111057Y-58631903D01*
X197089101Y-58620167D01*
X197065276Y-58612940D01*
X197040500Y-58610500D01*
X175958500Y-58610500D01*
X175933724Y-58612940D01*
X175909899Y-58620167D01*
X175887943Y-58631903D01*
X175868697Y-58647697D01*
X175852903Y-58666943D01*
X175841167Y-58688899D01*
X175833940Y-58712724D01*
X175831500Y-58737500D01*
X175831500Y-67818000D01*
X175833940Y-67842776D01*
X175841167Y-67866601D01*
X175848074Y-67879523D01*
X175751308Y-67814866D01*
X175535652Y-67725539D01*
X175306712Y-67680000D01*
X175073288Y-67680000D01*
X174844348Y-67725539D01*
X174628692Y-67814866D01*
X174434606Y-67944550D01*
X174297149Y-68082007D01*
X174241185Y-68013815D01*
X174144494Y-67934463D01*
X174034180Y-67875498D01*
X173914482Y-67839188D01*
X173790000Y-67826928D01*
X173325750Y-67830000D01*
X173167000Y-67988750D01*
X172913000Y-67988750D01*
X172754250Y-67830000D01*
X172290000Y-67826928D01*
X172165518Y-67839188D01*
X172045820Y-67875498D01*
X171935506Y-67934463D01*
X171838815Y-68013815D01*
X171759463Y-68110506D01*
X171700498Y-68220820D01*
X171664188Y-68340518D01*
X171651928Y-68465000D01*
X157734000Y-68465000D01*
X157734000Y-59098668D01*
X157738301Y-59055000D01*
X157721136Y-58880725D01*
X157695647Y-58796699D01*
X157670303Y-58713149D01*
X157587753Y-58558709D01*
X157476659Y-58423341D01*
X157442743Y-58395507D01*
X153990513Y-54943278D01*
X154146912Y-54912168D01*
X154444463Y-54788918D01*
X154712252Y-54609987D01*
X154939987Y-54382252D01*
X155118918Y-54114463D01*
X155242168Y-53816912D01*
X155305000Y-53501033D01*
X155305000Y-53178967D01*
X155242168Y-52863088D01*
X155118918Y-52565537D01*
X154939987Y-52297748D01*
X154712252Y-52070013D01*
X154444463Y-51891082D01*
X154146912Y-51767832D01*
X153831033Y-51705000D01*
X153508967Y-51705000D01*
X153193088Y-51767832D01*
X152895537Y-51891082D01*
X152627748Y-52070013D01*
X152400013Y-52297748D01*
X152400000Y-52297767D01*
X152399987Y-52297748D01*
X152172252Y-52070013D01*
X151904463Y-51891082D01*
X151606912Y-51767832D01*
X151291033Y-51705000D01*
X150968967Y-51705000D01*
X150653088Y-51767832D01*
X150355537Y-51891082D01*
X150087748Y-52070013D01*
X149860013Y-52297748D01*
X149860000Y-52297767D01*
X149859987Y-52297748D01*
X149632252Y-52070013D01*
X149364463Y-51891082D01*
X149066912Y-51767832D01*
X148751033Y-51705000D01*
X148428967Y-51705000D01*
X148113088Y-51767832D01*
X147815537Y-51891082D01*
X147547748Y-52070013D01*
X147320013Y-52297748D01*
X147320000Y-52297767D01*
X147319987Y-52297748D01*
X147092252Y-52070013D01*
X146824463Y-51891082D01*
X146526912Y-51767832D01*
X146211033Y-51705000D01*
X145888967Y-51705000D01*
X145573088Y-51767832D01*
X145275537Y-51891082D01*
X145007748Y-52070013D01*
X144780013Y-52297748D01*
X144780000Y-52297767D01*
X144779987Y-52297748D01*
X144552252Y-52070013D01*
X144284463Y-51891082D01*
X143986912Y-51767832D01*
X143671033Y-51705000D01*
X143348967Y-51705000D01*
X143033088Y-51767832D01*
X142735537Y-51891082D01*
X142525191Y-52031630D01*
X142500537Y-51985506D01*
X142421185Y-51888815D01*
X142324494Y-51809463D01*
X142214180Y-51750498D01*
X142094482Y-51714188D01*
X141970000Y-51701928D01*
X139970000Y-51701928D01*
X139845518Y-51714188D01*
X139725820Y-51750498D01*
X139615506Y-51809463D01*
X139518815Y-51888815D01*
X139439463Y-51985506D01*
X139380498Y-52095820D01*
X139344188Y-52215518D01*
X139331928Y-52340000D01*
X139331928Y-52459510D01*
X139320924Y-52460594D01*
X139287724Y-52463864D01*
X139186058Y-52494704D01*
X139120149Y-52514697D01*
X138965709Y-52597247D01*
X138830341Y-52708341D01*
X138802501Y-52742264D01*
X135927264Y-55617501D01*
X135893341Y-55645341D01*
X135782247Y-55780710D01*
X135699697Y-55935150D01*
X135648864Y-56102727D01*
X135636000Y-56233334D01*
X135636000Y-56233340D01*
X135631700Y-56277000D01*
X135636000Y-56320660D01*
X135636001Y-64572543D01*
X135615226Y-64468102D01*
X135537205Y-64279744D01*
X135423937Y-64110226D01*
X135279774Y-63966063D01*
X135110256Y-63852795D01*
X134921898Y-63774774D01*
X134721939Y-63735000D01*
X134518061Y-63735000D01*
X134351961Y-63768039D01*
X134385000Y-63601939D01*
X134385000Y-63398061D01*
X134345226Y-63198102D01*
X134267205Y-63009744D01*
X134153937Y-62840226D01*
X134009774Y-62696063D01*
X133840256Y-62582795D01*
X133651898Y-62504774D01*
X133451939Y-62465000D01*
X133248061Y-62465000D01*
X133048102Y-62504774D01*
X132859744Y-62582795D01*
X132817532Y-62611000D01*
X113170679Y-62611000D01*
X113127019Y-62606700D01*
X113083359Y-62611000D01*
X113083352Y-62611000D01*
X112969344Y-62622229D01*
X112952744Y-62623864D01*
X112879777Y-62645998D01*
X112785168Y-62674697D01*
X112630728Y-62757247D01*
X112495360Y-62868341D01*
X112467525Y-62902258D01*
X108372729Y-66997054D01*
X108111033Y-66945000D01*
X107788967Y-66945000D01*
X107473088Y-67007832D01*
X107175537Y-67131082D01*
X106907748Y-67310013D01*
X106680013Y-67537748D01*
X106680000Y-67537767D01*
X106679987Y-67537748D01*
X106452252Y-67310013D01*
X106184463Y-67131082D01*
X105886912Y-67007832D01*
X105571033Y-66945000D01*
X105248967Y-66945000D01*
X104933088Y-67007832D01*
X104635537Y-67131082D01*
X104367748Y-67310013D01*
X104140013Y-67537748D01*
X104140000Y-67537767D01*
X104139987Y-67537748D01*
X103912252Y-67310013D01*
X103644463Y-67131082D01*
X103346912Y-67007832D01*
X103031033Y-66945000D01*
X102708967Y-66945000D01*
X102393088Y-67007832D01*
X102095537Y-67131082D01*
X101827748Y-67310013D01*
X101600013Y-67537748D01*
X101600000Y-67537767D01*
X101599987Y-67537748D01*
X101372252Y-67310013D01*
X101104463Y-67131082D01*
X100806912Y-67007832D01*
X100491033Y-66945000D01*
X100168967Y-66945000D01*
X99853088Y-67007832D01*
X99555537Y-67131082D01*
X99287748Y-67310013D01*
X99060013Y-67537748D01*
X99060000Y-67537767D01*
X99059987Y-67537748D01*
X98832252Y-67310013D01*
X98564463Y-67131082D01*
X98266912Y-67007832D01*
X97951033Y-66945000D01*
X97628967Y-66945000D01*
X97313088Y-67007832D01*
X97015537Y-67131082D01*
X96747748Y-67310013D01*
X96520013Y-67537748D01*
X96341082Y-67805537D01*
X96217832Y-68103088D01*
X96155000Y-68418967D01*
X91498466Y-68418967D01*
X104993291Y-54924143D01*
X105248967Y-54975000D01*
X105571033Y-54975000D01*
X105886912Y-54912168D01*
X106184463Y-54788918D01*
X106452252Y-54609987D01*
X106679987Y-54382252D01*
X106680000Y-54382233D01*
X106680013Y-54382252D01*
X106907748Y-54609987D01*
X107175537Y-54788918D01*
X107473088Y-54912168D01*
X107788967Y-54975000D01*
X108111033Y-54975000D01*
X108426912Y-54912168D01*
X108724463Y-54788918D01*
X108992252Y-54609987D01*
X109219987Y-54382252D01*
X109220000Y-54382233D01*
X109220013Y-54382252D01*
X109447748Y-54609987D01*
X109715537Y-54788918D01*
X110013088Y-54912168D01*
X110328967Y-54975000D01*
X110651033Y-54975000D01*
X110966912Y-54912168D01*
X111264463Y-54788918D01*
X111532252Y-54609987D01*
X111759987Y-54382252D01*
X111938918Y-54114463D01*
X112062168Y-53816912D01*
X112125000Y-53501033D01*
X112125000Y-53178967D01*
X112062168Y-52863088D01*
X111938918Y-52565537D01*
X111759987Y-52297748D01*
X111532252Y-52070013D01*
X111264463Y-51891082D01*
X110966912Y-51767832D01*
X110651033Y-51705000D01*
X110328967Y-51705000D01*
X110013088Y-51767832D01*
X109715537Y-51891082D01*
X109447748Y-52070013D01*
X109220013Y-52297748D01*
X109220000Y-52297767D01*
X109219987Y-52297748D01*
X108992252Y-52070013D01*
X108724463Y-51891082D01*
X108426912Y-51767832D01*
X108111033Y-51705000D01*
X107788967Y-51705000D01*
X107473088Y-51767832D01*
X107175537Y-51891082D01*
X106907748Y-52070013D01*
X106680013Y-52297748D01*
X106680000Y-52297767D01*
X106679987Y-52297748D01*
X106452252Y-52070013D01*
X106184463Y-51891082D01*
X105886912Y-51767832D01*
X105571033Y-51705000D01*
X105248967Y-51705000D01*
X104933088Y-51767832D01*
X104635537Y-51891082D01*
X104367748Y-52070013D01*
X104140013Y-52297748D01*
X104140000Y-52297767D01*
X104139987Y-52297748D01*
X103912252Y-52070013D01*
X103644463Y-51891082D01*
X103346912Y-51767832D01*
X103031033Y-51705000D01*
X102708967Y-51705000D01*
X102393088Y-51767832D01*
X102095537Y-51891082D01*
X101827748Y-52070013D01*
X101600013Y-52297748D01*
X101600000Y-52297767D01*
X101599987Y-52297748D01*
X101372252Y-52070013D01*
X101104463Y-51891082D01*
X100806912Y-51767832D01*
X100491033Y-51705000D01*
X100168967Y-51705000D01*
X99853088Y-51767832D01*
X99555537Y-51891082D01*
X99345191Y-52031630D01*
X99320537Y-51985506D01*
X99241185Y-51888815D01*
X99144494Y-51809463D01*
X99034180Y-51750498D01*
X98914482Y-51714188D01*
X98790000Y-51701928D01*
X96790000Y-51701928D01*
X96665518Y-51714188D01*
X96545820Y-51750498D01*
X96435506Y-51809463D01*
X96338815Y-51888815D01*
X96259463Y-51985506D01*
X96200498Y-52095820D01*
X96164188Y-52215518D01*
X96151928Y-52340000D01*
X96151928Y-54340000D01*
X96164188Y-54464482D01*
X96200498Y-54584180D01*
X96259463Y-54694494D01*
X96338815Y-54791185D01*
X96435506Y-54870537D01*
X96545820Y-54929502D01*
X96665518Y-54965812D01*
X96790000Y-54978072D01*
X98159495Y-54978072D01*
X90664989Y-62472579D01*
X90503102Y-62504780D01*
X90314744Y-62582801D01*
X90145226Y-62696069D01*
X90001063Y-62840232D01*
X89887795Y-63009750D01*
X89809774Y-63198108D01*
X89770000Y-63398067D01*
X89770000Y-63601945D01*
X89809774Y-63801904D01*
X89887795Y-63990262D01*
X90001063Y-64159780D01*
X90145226Y-64303943D01*
X90314744Y-64417211D01*
X90503102Y-64495232D01*
X90703061Y-64535006D01*
X90906939Y-64535006D01*
X91106898Y-64495232D01*
X91295256Y-64417211D01*
X91464774Y-64303943D01*
X91608937Y-64159780D01*
X91722205Y-63990262D01*
X91800226Y-63801904D01*
X91832430Y-63640002D01*
X100499022Y-54973411D01*
X100806912Y-54912168D01*
X101104463Y-54788918D01*
X101372252Y-54609987D01*
X101599987Y-54382252D01*
X101600000Y-54382233D01*
X101600013Y-54382252D01*
X101827748Y-54609987D01*
X102095537Y-54788918D01*
X102393088Y-54912168D01*
X102624390Y-54958177D01*
X90029996Y-67552571D01*
X89868102Y-67584774D01*
X89679744Y-67662795D01*
X89510226Y-67776063D01*
X89366063Y-67920226D01*
X89252795Y-68089744D01*
X89174774Y-68278102D01*
X89135000Y-68478061D01*
X78560300Y-68478061D01*
X78512252Y-68430013D01*
X78244463Y-68251082D01*
X77946912Y-68127832D01*
X77631033Y-68065000D01*
X77308967Y-68065000D01*
X76993088Y-68127832D01*
X76695537Y-68251082D01*
X76427748Y-68430013D01*
X76200013Y-68657748D01*
X76021082Y-68925537D01*
X75897832Y-69223088D01*
X75835000Y-69538967D01*
X74605000Y-69538967D01*
X74542168Y-69223088D01*
X74418918Y-68925537D01*
X74239987Y-68657748D01*
X74012252Y-68430013D01*
X73795500Y-68285184D01*
X73795500Y-63644816D01*
X74012252Y-63499987D01*
X74239987Y-63272252D01*
X74418918Y-63004463D01*
X74542168Y-62706912D01*
X74605000Y-62391033D01*
X74605000Y-62068967D01*
X74542168Y-61753088D01*
X74418918Y-61455537D01*
X74239987Y-61187748D01*
X74012252Y-60960013D01*
X73795500Y-60815184D01*
X73795500Y-57144816D01*
X74012252Y-56999987D01*
X74239987Y-56772252D01*
X74418918Y-56504463D01*
X74542168Y-56206912D01*
X74605000Y-55891033D01*
X74605000Y-55568967D01*
X75835000Y-55568967D01*
X75835000Y-55891033D01*
X75897832Y-56206912D01*
X76021082Y-56504463D01*
X76200013Y-56772252D01*
X76427748Y-56999987D01*
X76644501Y-57144817D01*
X76644500Y-60815184D01*
X76427748Y-60960013D01*
X76200013Y-61187748D01*
X76021082Y-61455537D01*
X75897832Y-61753088D01*
X75835000Y-62068967D01*
X75835000Y-62391033D01*
X75897832Y-62706912D01*
X76021082Y-63004463D01*
X76200013Y-63272252D01*
X76427748Y-63499987D01*
X76695537Y-63678918D01*
X76993088Y-63802168D01*
X77308967Y-63865000D01*
X77631033Y-63865000D01*
X77946912Y-63802168D01*
X78244463Y-63678918D01*
X78512252Y-63499987D01*
X78739987Y-63272252D01*
X78918918Y-63004463D01*
X79042168Y-62706912D01*
X79105000Y-62391033D01*
X79105000Y-62068967D01*
X79042168Y-61753088D01*
X78918918Y-61455537D01*
X78739987Y-61187748D01*
X78512252Y-60960013D01*
X78295500Y-60815184D01*
X78295500Y-57144816D01*
X78512252Y-56999987D01*
X78739987Y-56772252D01*
X78918918Y-56504463D01*
X79042168Y-56206912D01*
X79105000Y-55891033D01*
X79105000Y-55568967D01*
X79042168Y-55253088D01*
X78918918Y-54955537D01*
X78739987Y-54687748D01*
X78512252Y-54460013D01*
X78244463Y-54281082D01*
X77946912Y-54157832D01*
X77631033Y-54095000D01*
X77308967Y-54095000D01*
X76993088Y-54157832D01*
X76695537Y-54281082D01*
X76427748Y-54460013D01*
X76200013Y-54687748D01*
X76021082Y-54955537D01*
X75897832Y-55253088D01*
X75835000Y-55568967D01*
X74605000Y-55568967D01*
X74542168Y-55253088D01*
X74418918Y-54955537D01*
X74239987Y-54687748D01*
X74012252Y-54460013D01*
X73744463Y-54281082D01*
X73446912Y-54157832D01*
X73131033Y-54095000D01*
X72808967Y-54095000D01*
X72493088Y-54157832D01*
X72195537Y-54281082D01*
X71927748Y-54460013D01*
X71700013Y-54687748D01*
X71521082Y-54955537D01*
X71397832Y-55253088D01*
X71335000Y-55568967D01*
X69342000Y-55568967D01*
X69342000Y-49309872D01*
X70155000Y-49309872D01*
X70155000Y-49750128D01*
X70240890Y-50181925D01*
X70409369Y-50588669D01*
X70653962Y-50954729D01*
X70965271Y-51266038D01*
X71331331Y-51510631D01*
X71738075Y-51679110D01*
X72169872Y-51765000D01*
X72610128Y-51765000D01*
X73041925Y-51679110D01*
X73448669Y-51510631D01*
X73814729Y-51266038D01*
X74126038Y-50954729D01*
X74370631Y-50588669D01*
X74539110Y-50181925D01*
X74622041Y-49765000D01*
X171651928Y-49765000D01*
X171664188Y-49889482D01*
X171700498Y-50009180D01*
X171759463Y-50119494D01*
X171838815Y-50216185D01*
X171935506Y-50295537D01*
X172045820Y-50354502D01*
X172165518Y-50390812D01*
X172290000Y-50403072D01*
X172754250Y-50400000D01*
X172913000Y-50241250D01*
X172913000Y-48492000D01*
X173167000Y-48492000D01*
X173167000Y-50241250D01*
X173325750Y-50400000D01*
X173790000Y-50403072D01*
X173914482Y-50390812D01*
X174034180Y-50354502D01*
X174144494Y-50295537D01*
X174241185Y-50216185D01*
X174320537Y-50119494D01*
X174379502Y-50009180D01*
X174415812Y-49889482D01*
X174428072Y-49765000D01*
X198951928Y-49765000D01*
X198964188Y-49889482D01*
X199000498Y-50009180D01*
X199059463Y-50119494D01*
X199138815Y-50216185D01*
X199235506Y-50295537D01*
X199345820Y-50354502D01*
X199465518Y-50390812D01*
X199590000Y-50403072D01*
X200054250Y-50400000D01*
X200213000Y-50241250D01*
X200213000Y-48492000D01*
X200467000Y-48492000D01*
X200467000Y-50241250D01*
X200625750Y-50400000D01*
X201090000Y-50403072D01*
X201214482Y-50390812D01*
X201334180Y-50354502D01*
X201444494Y-50295537D01*
X201541185Y-50216185D01*
X201620537Y-50119494D01*
X201679502Y-50009180D01*
X201715812Y-49889482D01*
X201728072Y-49765000D01*
X201726818Y-49309872D01*
X241605000Y-49309872D01*
X241605000Y-49750128D01*
X241690890Y-50181925D01*
X241859369Y-50588669D01*
X242103962Y-50954729D01*
X242415271Y-51266038D01*
X242781331Y-51510631D01*
X243188075Y-51679110D01*
X243619872Y-51765000D01*
X244060128Y-51765000D01*
X244491925Y-51679110D01*
X244898669Y-51510631D01*
X245264729Y-51266038D01*
X245576038Y-50954729D01*
X245820631Y-50588669D01*
X245989110Y-50181925D01*
X246075000Y-49750128D01*
X246075000Y-49309872D01*
X245989110Y-48878075D01*
X245820631Y-48471331D01*
X245576038Y-48105271D01*
X245264729Y-47793962D01*
X244898669Y-47549369D01*
X244491925Y-47380890D01*
X244060128Y-47295000D01*
X243619872Y-47295000D01*
X243188075Y-47380890D01*
X242781331Y-47549369D01*
X242415271Y-47793962D01*
X242103962Y-48105271D01*
X241859369Y-48471331D01*
X241690890Y-48878075D01*
X241605000Y-49309872D01*
X201726818Y-49309872D01*
X201725000Y-48650750D01*
X201566250Y-48492000D01*
X200467000Y-48492000D01*
X200213000Y-48492000D01*
X199113750Y-48492000D01*
X198955000Y-48650750D01*
X198951928Y-49765000D01*
X174428072Y-49765000D01*
X174425000Y-48650750D01*
X174266250Y-48492000D01*
X173167000Y-48492000D01*
X172913000Y-48492000D01*
X171813750Y-48492000D01*
X171655000Y-48650750D01*
X171651928Y-49765000D01*
X74622041Y-49765000D01*
X74625000Y-49750128D01*
X74625000Y-49309872D01*
X74539110Y-48878075D01*
X74370631Y-48471331D01*
X74126038Y-48105271D01*
X73814729Y-47793962D01*
X73448669Y-47549369D01*
X73041925Y-47380890D01*
X72610128Y-47295000D01*
X72169872Y-47295000D01*
X71738075Y-47380890D01*
X71331331Y-47549369D01*
X70965271Y-47793962D01*
X70653962Y-48105271D01*
X70409369Y-48471331D01*
X70240890Y-48878075D01*
X70155000Y-49309872D01*
X69342000Y-49309872D01*
X69342000Y-48789922D01*
X69480606Y-48330836D01*
X69768937Y-47788564D01*
X70157094Y-47312636D01*
X70630314Y-46921155D01*
X71170552Y-46629049D01*
X71645589Y-46482000D01*
X171877582Y-46482000D01*
X171838815Y-46513815D01*
G37*
%TD.AperFunction*%
D25*
X147320013Y-54382252D02*
X147547748Y-54609987D01*
X147815537Y-54788918D01*
X148113088Y-54912168D01*
X148428967Y-54975000D01*
X148751033Y-54975000D01*
X148931807Y-54939042D01*
X154686000Y-60693236D01*
X154686001Y-67292472D01*
X154444463Y-67131082D01*
X154146912Y-67007832D01*
X153831033Y-66945000D01*
X153508967Y-66945000D01*
X153193088Y-67007832D01*
X152895537Y-67131082D01*
X152627748Y-67310013D01*
X152400013Y-67537748D01*
X152400000Y-67537767D01*
X152399987Y-67537748D01*
X152172252Y-67310013D01*
X151904463Y-67131082D01*
X151606912Y-67007832D01*
X151291033Y-66945000D01*
X150968967Y-66945000D01*
X150653088Y-67007832D01*
X150355537Y-67131082D01*
X150087748Y-67310013D01*
X149860013Y-67537748D01*
X149860000Y-67537767D01*
X149859987Y-67537748D01*
X149632252Y-67310013D01*
X149364463Y-67131082D01*
X149066912Y-67007832D01*
X148751033Y-66945000D01*
X148428967Y-66945000D01*
X148113088Y-67007832D01*
X147815537Y-67131082D01*
X147547748Y-67310013D01*
X147320013Y-67537748D01*
X147320000Y-67537767D01*
X147319987Y-67537748D01*
X147092252Y-67310013D01*
X146824463Y-67131082D01*
X146526912Y-67007832D01*
X146211033Y-66945000D01*
X145888967Y-66945000D01*
X145573088Y-67007832D01*
X145275537Y-67131082D01*
X145007748Y-67310013D01*
X144780013Y-67537748D01*
X144780000Y-67537767D01*
X144779987Y-67537748D01*
X144552252Y-67310013D01*
X144284463Y-67131082D01*
X143986912Y-67007832D01*
X143671033Y-66945000D01*
X143348967Y-66945000D01*
X143033088Y-67007832D01*
X142735537Y-67131082D01*
X142467748Y-67310013D01*
X142240013Y-67537748D01*
X142240000Y-67537767D01*
X142239987Y-67537748D01*
X142012252Y-67310013D01*
X141744463Y-67131082D01*
X141446912Y-67007832D01*
X141131033Y-66945000D01*
X140808967Y-66945000D01*
X140493088Y-67007832D01*
X140195537Y-67131082D01*
X139927748Y-67310013D01*
X139700013Y-67537748D01*
X139521082Y-67805537D01*
X139397832Y-68103088D01*
X139335000Y-68418967D01*
X139335000Y-68741033D01*
X139397832Y-69056912D01*
X139521082Y-69354463D01*
X139700013Y-69622252D01*
X139927748Y-69849987D01*
X140195537Y-70028918D01*
X140493088Y-70152168D01*
X140808967Y-70215000D01*
X141131033Y-70215000D01*
X141446912Y-70152168D01*
X141744463Y-70028918D01*
X142012252Y-69849987D01*
X142239987Y-69622252D01*
X142240000Y-69622233D01*
X142240013Y-69622252D01*
X142467748Y-69849987D01*
X142735537Y-70028918D01*
X143033088Y-70152168D01*
X143348967Y-70215000D01*
X143671033Y-70215000D01*
X143986912Y-70152168D01*
X144284463Y-70028918D01*
X144552252Y-69849987D01*
X144779987Y-69622252D01*
X144780000Y-69622233D01*
X144780013Y-69622252D01*
X145007748Y-69849987D01*
X145275537Y-70028918D01*
X145573088Y-70152168D01*
X145888967Y-70215000D01*
X146211033Y-70215000D01*
X146526912Y-70152168D01*
X146824463Y-70028918D01*
X147092252Y-69849987D01*
X147319987Y-69622252D01*
X147320000Y-69622233D01*
X147320013Y-69622252D01*
X147547748Y-69849987D01*
X147815537Y-70028918D01*
X148113088Y-70152168D01*
X148428967Y-70215000D01*
X148751033Y-70215000D01*
X149066912Y-70152168D01*
X149364463Y-70028918D01*
X149632252Y-69849987D01*
X149859987Y-69622252D01*
X149860000Y-69622233D01*
X149860013Y-69622252D01*
X150087748Y-69849987D01*
X150355537Y-70028918D01*
X150653088Y-70152168D01*
X150968967Y-70215000D01*
X151291033Y-70215000D01*
X151606912Y-70152168D01*
X151904463Y-70028918D01*
X152172252Y-69849987D01*
X152399987Y-69622252D01*
X152400000Y-69622233D01*
X152400013Y-69622252D01*
X152627748Y-69849987D01*
X152895537Y-70028918D01*
X153193088Y-70152168D01*
X153349487Y-70183278D01*
X148931807Y-74600958D01*
X148751033Y-74565000D01*
X148428967Y-74565000D01*
X148113088Y-74627832D01*
X147815537Y-74751082D01*
X147547748Y-74930013D01*
X147320013Y-75157748D01*
X147320000Y-75157767D01*
X147319987Y-75157748D01*
X147092252Y-74930013D01*
X146824463Y-74751082D01*
X146526912Y-74627832D01*
X146211033Y-74565000D01*
X145888967Y-74565000D01*
X145573088Y-74627832D01*
X145275537Y-74751082D01*
X145007748Y-74930013D01*
X144780013Y-75157748D01*
X144780000Y-75157767D01*
X144779987Y-75157748D01*
X144552252Y-74930013D01*
X144284463Y-74751082D01*
X143986912Y-74627832D01*
X143791123Y-74588887D01*
X138684000Y-69481765D01*
X138684000Y-60058235D01*
X143791123Y-54951113D01*
X143986912Y-54912168D01*
X144284463Y-54788918D01*
X144552252Y-54609987D01*
X144779987Y-54382252D01*
X144780000Y-54382233D01*
X144780013Y-54382252D01*
X145007748Y-54609987D01*
X145275537Y-54788918D01*
X145573088Y-54912168D01*
X145888967Y-54975000D01*
X146211033Y-54975000D01*
X146526912Y-54912168D01*
X146824463Y-54788918D01*
X147092252Y-54609987D01*
X147319987Y-54382252D01*
X147320000Y-54382233D01*
X147320013Y-54382252D01*
%TA.AperFunction,Conductor*%
D26*
G36*
X147320013Y-54382252D02*
G01*
X147547748Y-54609987D01*
X147815537Y-54788918D01*
X148113088Y-54912168D01*
X148428967Y-54975000D01*
X148751033Y-54975000D01*
X148931807Y-54939042D01*
X154686000Y-60693236D01*
X154686001Y-67292472D01*
X154444463Y-67131082D01*
X154146912Y-67007832D01*
X153831033Y-66945000D01*
X153508967Y-66945000D01*
X153193088Y-67007832D01*
X152895537Y-67131082D01*
X152627748Y-67310013D01*
X152400013Y-67537748D01*
X152400000Y-67537767D01*
X152399987Y-67537748D01*
X152172252Y-67310013D01*
X151904463Y-67131082D01*
X151606912Y-67007832D01*
X151291033Y-66945000D01*
X150968967Y-66945000D01*
X150653088Y-67007832D01*
X150355537Y-67131082D01*
X150087748Y-67310013D01*
X149860013Y-67537748D01*
X149860000Y-67537767D01*
X149859987Y-67537748D01*
X149632252Y-67310013D01*
X149364463Y-67131082D01*
X149066912Y-67007832D01*
X148751033Y-66945000D01*
X148428967Y-66945000D01*
X148113088Y-67007832D01*
X147815537Y-67131082D01*
X147547748Y-67310013D01*
X147320013Y-67537748D01*
X147320000Y-67537767D01*
X147319987Y-67537748D01*
X147092252Y-67310013D01*
X146824463Y-67131082D01*
X146526912Y-67007832D01*
X146211033Y-66945000D01*
X145888967Y-66945000D01*
X145573088Y-67007832D01*
X145275537Y-67131082D01*
X145007748Y-67310013D01*
X144780013Y-67537748D01*
X144780000Y-67537767D01*
X144779987Y-67537748D01*
X144552252Y-67310013D01*
X144284463Y-67131082D01*
X143986912Y-67007832D01*
X143671033Y-66945000D01*
X143348967Y-66945000D01*
X143033088Y-67007832D01*
X142735537Y-67131082D01*
X142467748Y-67310013D01*
X142240013Y-67537748D01*
X142240000Y-67537767D01*
X142239987Y-67537748D01*
X142012252Y-67310013D01*
X141744463Y-67131082D01*
X141446912Y-67007832D01*
X141131033Y-66945000D01*
X140808967Y-66945000D01*
X140493088Y-67007832D01*
X140195537Y-67131082D01*
X139927748Y-67310013D01*
X139700013Y-67537748D01*
X139521082Y-67805537D01*
X139397832Y-68103088D01*
X139335000Y-68418967D01*
X139335000Y-68741033D01*
X139397832Y-69056912D01*
X139521082Y-69354463D01*
X139700013Y-69622252D01*
X139927748Y-69849987D01*
X140195537Y-70028918D01*
X140493088Y-70152168D01*
X140808967Y-70215000D01*
X141131033Y-70215000D01*
X141446912Y-70152168D01*
X141744463Y-70028918D01*
X142012252Y-69849987D01*
X142239987Y-69622252D01*
X142240000Y-69622233D01*
X142240013Y-69622252D01*
X142467748Y-69849987D01*
X142735537Y-70028918D01*
X143033088Y-70152168D01*
X143348967Y-70215000D01*
X143671033Y-70215000D01*
X143986912Y-70152168D01*
X144284463Y-70028918D01*
X144552252Y-69849987D01*
X144779987Y-69622252D01*
X144780000Y-69622233D01*
X144780013Y-69622252D01*
X145007748Y-69849987D01*
X145275537Y-70028918D01*
X145573088Y-70152168D01*
X145888967Y-70215000D01*
X146211033Y-70215000D01*
X146526912Y-70152168D01*
X146824463Y-70028918D01*
X147092252Y-69849987D01*
X147319987Y-69622252D01*
X147320000Y-69622233D01*
X147320013Y-69622252D01*
X147547748Y-69849987D01*
X147815537Y-70028918D01*
X148113088Y-70152168D01*
X148428967Y-70215000D01*
X148751033Y-70215000D01*
X149066912Y-70152168D01*
X149364463Y-70028918D01*
X149632252Y-69849987D01*
X149859987Y-69622252D01*
X149860000Y-69622233D01*
X149860013Y-69622252D01*
X150087748Y-69849987D01*
X150355537Y-70028918D01*
X150653088Y-70152168D01*
X150968967Y-70215000D01*
X151291033Y-70215000D01*
X151606912Y-70152168D01*
X151904463Y-70028918D01*
X152172252Y-69849987D01*
X152399987Y-69622252D01*
X152400000Y-69622233D01*
X152400013Y-69622252D01*
X152627748Y-69849987D01*
X152895537Y-70028918D01*
X153193088Y-70152168D01*
X153349487Y-70183278D01*
X148931807Y-74600958D01*
X148751033Y-74565000D01*
X148428967Y-74565000D01*
X148113088Y-74627832D01*
X147815537Y-74751082D01*
X147547748Y-74930013D01*
X147320013Y-75157748D01*
X147320000Y-75157767D01*
X147319987Y-75157748D01*
X147092252Y-74930013D01*
X146824463Y-74751082D01*
X146526912Y-74627832D01*
X146211033Y-74565000D01*
X145888967Y-74565000D01*
X145573088Y-74627832D01*
X145275537Y-74751082D01*
X145007748Y-74930013D01*
X144780013Y-75157748D01*
X144780000Y-75157767D01*
X144779987Y-75157748D01*
X144552252Y-74930013D01*
X144284463Y-74751082D01*
X143986912Y-74627832D01*
X143791123Y-74588887D01*
X138684000Y-69481765D01*
X138684000Y-60058235D01*
X143791123Y-54951113D01*
X143986912Y-54912168D01*
X144284463Y-54788918D01*
X144552252Y-54609987D01*
X144779987Y-54382252D01*
X144780000Y-54382233D01*
X144780013Y-54382252D01*
X145007748Y-54609987D01*
X145275537Y-54788918D01*
X145573088Y-54912168D01*
X145888967Y-54975000D01*
X146211033Y-54975000D01*
X146526912Y-54912168D01*
X146824463Y-54788918D01*
X147092252Y-54609987D01*
X147319987Y-54382252D01*
X147320000Y-54382233D01*
X147320013Y-54382252D01*
G37*
%TD.AperFunction*%
%TD*%
M02*
