%TF.GenerationSoftware,KiCad,Pcbnew,(5.1.9)-1*%
%TF.CreationDate,2021-10-09T09:33:42-04:00*%
%TF.ProjectId,Control Board,436f6e74-726f-46c2-9042-6f6172642e6b,rev?*%
%TF.SameCoordinates,Original*%
%TF.FileFunction,Soldermask,Bot*%
%TF.FilePolarity,Negative*%
%FSLAX46Y46*%
G04 Gerber Fmt 4.6, Leading zero omitted, Abs format (unit mm)*
G04 Created by KiCad (PCBNEW (5.1.9)-1) date 2021-10-09 09:33:42*
%MOMM*%
%LPD*%
G01*
G04 APERTURE LIST*
%ADD10C,2.000000*%
%ADD11C,3.200000*%
%ADD12O,2.000000X2.000000*%
%ADD13R,2.000000X2.000000*%
%ADD14O,1.700000X1.700000*%
%ADD15R,1.700000X1.700000*%
%ADD16C,3.000000*%
%ADD17R,1.500000X2.800000*%
%ADD18C,1.100000*%
%ADD19C,1.600000*%
%ADD20R,0.700000X1.500000*%
%ADD21R,1.000000X1.500000*%
%ADD22C,2.300000*%
G04 APERTURE END LIST*
D10*
%TO.C,SW2*%
X77470000Y-69700000D03*
X72970000Y-69700000D03*
X77470000Y-76200000D03*
X72970000Y-76200000D03*
%TD*%
D11*
%TO.C,H1*%
X72390000Y-49530000D03*
%TD*%
%TO.C,H2*%
X72390000Y-109855000D03*
%TD*%
%TO.C,H4*%
X243840000Y-109855000D03*
%TD*%
%TO.C,H3*%
X243840000Y-49530000D03*
%TD*%
D12*
%TO.C,D6*%
X204470000Y-92710000D03*
D13*
X209550000Y-92710000D03*
%TD*%
D12*
%TO.C,D5*%
X133985000Y-106045000D03*
D13*
X133985000Y-111125000D03*
%TD*%
D14*
%TO.C,J6*%
X128905000Y-108585000D03*
D15*
X128905000Y-106045000D03*
%TD*%
D10*
%TO.C,DS3*%
X97790000Y-68580000D03*
X100330000Y-68580000D03*
X102870000Y-68580000D03*
X105410000Y-68580000D03*
X107950000Y-68580000D03*
X110490000Y-68580000D03*
X110490000Y-53340000D03*
X107950000Y-53340000D03*
X105410000Y-53340000D03*
X102870000Y-53340000D03*
X100330000Y-53340000D03*
D13*
X97790000Y-53340000D03*
%TD*%
D10*
%TO.C,SW3*%
X77470000Y-83670000D03*
X72970000Y-83670000D03*
X77470000Y-90170000D03*
X72970000Y-90170000D03*
%TD*%
%TO.C,SW1*%
X77470000Y-55730000D03*
X72970000Y-55730000D03*
X77470000Y-62230000D03*
X72970000Y-62230000D03*
%TD*%
D14*
%TO.C,RV1*%
X177927000Y-108331000D03*
X175387000Y-108331000D03*
D15*
X172847000Y-108331000D03*
%TD*%
D14*
%TO.C,J7*%
X185928000Y-108585000D03*
X188468000Y-108585000D03*
D15*
X191008000Y-108585000D03*
%TD*%
D16*
%TO.C,J5*%
X232410000Y-90495000D03*
X232410000Y-80965000D03*
X232410000Y-71435000D03*
X232410000Y-61905000D03*
%TD*%
D17*
%TO.C,J4*%
X173040000Y-69865000D03*
X173040000Y-48365000D03*
X200340000Y-48365000D03*
X198140000Y-69865000D03*
D18*
X175190000Y-68865000D03*
D19*
X196190000Y-68865000D03*
D20*
X174435000Y-71665000D03*
X175635000Y-71665000D03*
D21*
X196065000Y-71665000D03*
X176935000Y-71665000D03*
X178635000Y-71665000D03*
X181065000Y-71665000D03*
X183565000Y-71665000D03*
X186065000Y-71665000D03*
X188565000Y-71665000D03*
X191065000Y-71665000D03*
X193565000Y-71665000D03*
%TD*%
D22*
%TO.C,J3*%
X166370000Y-109220000D03*
X161290000Y-109220000D03*
%TD*%
D10*
%TO.C,DS2*%
X140970000Y-91440000D03*
X143510000Y-91440000D03*
X146050000Y-91440000D03*
X148590000Y-91440000D03*
X151130000Y-91440000D03*
X153670000Y-91440000D03*
X153670000Y-76200000D03*
X151130000Y-76200000D03*
X148590000Y-76200000D03*
X146050000Y-76200000D03*
X143510000Y-76200000D03*
D13*
X140970000Y-76200000D03*
%TD*%
D10*
%TO.C,DS1*%
X140970000Y-68580000D03*
X143510000Y-68580000D03*
X146050000Y-68580000D03*
X148590000Y-68580000D03*
X151130000Y-68580000D03*
X153670000Y-68580000D03*
X153670000Y-53340000D03*
X151130000Y-53340000D03*
X148590000Y-53340000D03*
X146050000Y-53340000D03*
X143510000Y-53340000D03*
D13*
X140970000Y-53340000D03*
%TD*%
D12*
%TO.C,D4*%
X201930000Y-64135000D03*
D13*
X201930000Y-59055000D03*
%TD*%
M02*
