%TF.GenerationSoftware,KiCad,Pcbnew,(5.1.9)-1*%
%TF.CreationDate,2021-09-06T15:07:46-04:00*%
%TF.ProjectId,PCB Heater,50434220-4865-4617-9465-722e6b696361,rev?*%
%TF.SameCoordinates,Original*%
%TF.FileFunction,Legend,Top*%
%TF.FilePolarity,Positive*%
%FSLAX46Y46*%
G04 Gerber Fmt 4.6, Leading zero omitted, Abs format (unit mm)*
G04 Created by KiCad (PCBNEW (5.1.9)-1) date 2021-09-06 15:07:46*
%MOMM*%
%LPD*%
G01*
G04 APERTURE LIST*
%ADD10C,0.150000*%
%ADD11C,0.250000*%
%ADD12C,0.120000*%
%ADD13C,0.500000*%
G04 APERTURE END LIST*
D10*
X111633095Y-88447619D02*
X111680714Y-88400000D01*
X111775952Y-88352380D01*
X112014047Y-88352380D01*
X112109285Y-88400000D01*
X112156904Y-88447619D01*
X112204523Y-88542857D01*
X112204523Y-88638095D01*
X112156904Y-88780952D01*
X111585476Y-89352380D01*
X112204523Y-89352380D01*
X112775952Y-88780952D02*
X112680714Y-88733333D01*
X112633095Y-88685714D01*
X112585476Y-88590476D01*
X112585476Y-88542857D01*
X112633095Y-88447619D01*
X112680714Y-88400000D01*
X112775952Y-88352380D01*
X112966428Y-88352380D01*
X113061666Y-88400000D01*
X113109285Y-88447619D01*
X113156904Y-88542857D01*
X113156904Y-88590476D01*
X113109285Y-88685714D01*
X113061666Y-88733333D01*
X112966428Y-88780952D01*
X112775952Y-88780952D01*
X112680714Y-88828571D01*
X112633095Y-88876190D01*
X112585476Y-88971428D01*
X112585476Y-89161904D01*
X112633095Y-89257142D01*
X112680714Y-89304761D01*
X112775952Y-89352380D01*
X112966428Y-89352380D01*
X113061666Y-89304761D01*
X113109285Y-89257142D01*
X113156904Y-89161904D01*
X113156904Y-88971428D01*
X113109285Y-88876190D01*
X113061666Y-88828571D01*
X112966428Y-88780952D01*
X112045714Y-80462380D02*
X111474285Y-80462380D01*
X111760000Y-80462380D02*
X111760000Y-79462380D01*
X111664761Y-79605238D01*
X111569523Y-79700476D01*
X111474285Y-79748095D01*
X63404761Y-69095952D02*
X63309523Y-69048333D01*
X63261904Y-69000714D01*
X63214285Y-68905476D01*
X63214285Y-68857857D01*
X63261904Y-68762619D01*
X63309523Y-68715000D01*
X63404761Y-68667380D01*
X63595238Y-68667380D01*
X63690476Y-68715000D01*
X63738095Y-68762619D01*
X63785714Y-68857857D01*
X63785714Y-68905476D01*
X63738095Y-69000714D01*
X63690476Y-69048333D01*
X63595238Y-69095952D01*
X63404761Y-69095952D01*
X63309523Y-69143571D01*
X63261904Y-69191190D01*
X63214285Y-69286428D01*
X63214285Y-69476904D01*
X63261904Y-69572142D01*
X63309523Y-69619761D01*
X63404761Y-69667380D01*
X63595238Y-69667380D01*
X63690476Y-69619761D01*
X63738095Y-69572142D01*
X63785714Y-69476904D01*
X63785714Y-69286428D01*
X63738095Y-69191190D01*
X63690476Y-69143571D01*
X63595238Y-69095952D01*
X59340714Y-69667380D02*
X58769285Y-69667380D01*
X59055000Y-69667380D02*
X59055000Y-68667380D01*
X58959761Y-68810238D01*
X58864523Y-68905476D01*
X58769285Y-68953095D01*
X180149523Y-96972380D02*
X179578095Y-96972380D01*
X179863809Y-96972380D02*
X179863809Y-95972380D01*
X179768571Y-96115238D01*
X179673333Y-96210476D01*
X179578095Y-96258095D01*
X181006666Y-96305714D02*
X181006666Y-96972380D01*
X180768571Y-95924761D02*
X180530476Y-96639047D01*
X181149523Y-96639047D01*
X180625714Y-91892380D02*
X180054285Y-91892380D01*
X180340000Y-91892380D02*
X180340000Y-90892380D01*
X180244761Y-91035238D01*
X180149523Y-91130476D01*
X180054285Y-91178095D01*
X110182142Y-55967380D02*
X110753571Y-55967380D01*
X110467857Y-56967380D02*
X110467857Y-55967380D01*
X111086904Y-56967380D02*
X111086904Y-55967380D01*
X111086904Y-56443571D02*
X111658333Y-56443571D01*
X111658333Y-56967380D02*
X111658333Y-55967380D01*
X112134523Y-56967380D02*
X112134523Y-55967380D01*
X112563095Y-56919761D02*
X112705952Y-56967380D01*
X112944047Y-56967380D01*
X113039285Y-56919761D01*
X113086904Y-56872142D01*
X113134523Y-56776904D01*
X113134523Y-56681666D01*
X113086904Y-56586428D01*
X113039285Y-56538809D01*
X112944047Y-56491190D01*
X112753571Y-56443571D01*
X112658333Y-56395952D01*
X112610714Y-56348333D01*
X112563095Y-56253095D01*
X112563095Y-56157857D01*
X112610714Y-56062619D01*
X112658333Y-56015000D01*
X112753571Y-55967380D01*
X112991666Y-55967380D01*
X113134523Y-56015000D01*
X114277380Y-56919761D02*
X114420238Y-56967380D01*
X114658333Y-56967380D01*
X114753571Y-56919761D01*
X114801190Y-56872142D01*
X114848809Y-56776904D01*
X114848809Y-56681666D01*
X114801190Y-56586428D01*
X114753571Y-56538809D01*
X114658333Y-56491190D01*
X114467857Y-56443571D01*
X114372619Y-56395952D01*
X114325000Y-56348333D01*
X114277380Y-56253095D01*
X114277380Y-56157857D01*
X114325000Y-56062619D01*
X114372619Y-56015000D01*
X114467857Y-55967380D01*
X114705952Y-55967380D01*
X114848809Y-56015000D01*
X115277380Y-56967380D02*
X115277380Y-55967380D01*
X115753571Y-56967380D02*
X115753571Y-55967380D01*
X115991666Y-55967380D01*
X116134523Y-56015000D01*
X116229761Y-56110238D01*
X116277380Y-56205476D01*
X116325000Y-56395952D01*
X116325000Y-56538809D01*
X116277380Y-56729285D01*
X116229761Y-56824523D01*
X116134523Y-56919761D01*
X115991666Y-56967380D01*
X115753571Y-56967380D01*
X116753571Y-56443571D02*
X117086904Y-56443571D01*
X117229761Y-56967380D02*
X116753571Y-56967380D01*
X116753571Y-55967380D01*
X117229761Y-55967380D01*
X118372619Y-56681666D02*
X118848809Y-56681666D01*
X118277380Y-56967380D02*
X118610714Y-55967380D01*
X118944047Y-56967380D01*
X119182142Y-55967380D02*
X119420238Y-56967380D01*
X119610714Y-56253095D01*
X119801190Y-56967380D01*
X120039285Y-55967380D01*
X120372619Y-56681666D02*
X120848809Y-56681666D01*
X120277380Y-56967380D02*
X120610714Y-55967380D01*
X120944047Y-56967380D01*
X121467857Y-56491190D02*
X121467857Y-56967380D01*
X121134523Y-55967380D02*
X121467857Y-56491190D01*
X121801190Y-55967380D01*
X123229761Y-56443571D02*
X122896428Y-56443571D01*
X122896428Y-56967380D02*
X122896428Y-55967380D01*
X123372619Y-55967380D01*
X124325000Y-56967380D02*
X123991666Y-56491190D01*
X123753571Y-56967380D02*
X123753571Y-55967380D01*
X124134523Y-55967380D01*
X124229761Y-56015000D01*
X124277380Y-56062619D01*
X124325000Y-56157857D01*
X124325000Y-56300714D01*
X124277380Y-56395952D01*
X124229761Y-56443571D01*
X124134523Y-56491190D01*
X123753571Y-56491190D01*
X124944047Y-55967380D02*
X125134523Y-55967380D01*
X125229761Y-56015000D01*
X125325000Y-56110238D01*
X125372619Y-56300714D01*
X125372619Y-56634047D01*
X125325000Y-56824523D01*
X125229761Y-56919761D01*
X125134523Y-56967380D01*
X124944047Y-56967380D01*
X124848809Y-56919761D01*
X124753571Y-56824523D01*
X124705952Y-56634047D01*
X124705952Y-56300714D01*
X124753571Y-56110238D01*
X124848809Y-56015000D01*
X124944047Y-55967380D01*
X125801190Y-56967380D02*
X125801190Y-55967380D01*
X126134523Y-56681666D01*
X126467857Y-55967380D01*
X126467857Y-56967380D01*
X128039285Y-56443571D02*
X127705952Y-56443571D01*
X127705952Y-56967380D02*
X127705952Y-55967380D01*
X128182142Y-55967380D01*
X129134523Y-56967380D02*
X128801190Y-56491190D01*
X128563095Y-56967380D02*
X128563095Y-55967380D01*
X128944047Y-55967380D01*
X129039285Y-56015000D01*
X129086904Y-56062619D01*
X129134523Y-56157857D01*
X129134523Y-56300714D01*
X129086904Y-56395952D01*
X129039285Y-56443571D01*
X128944047Y-56491190D01*
X128563095Y-56491190D01*
X129753571Y-55967380D02*
X129944047Y-55967380D01*
X130039285Y-56015000D01*
X130134523Y-56110238D01*
X130182142Y-56300714D01*
X130182142Y-56634047D01*
X130134523Y-56824523D01*
X130039285Y-56919761D01*
X129944047Y-56967380D01*
X129753571Y-56967380D01*
X129658333Y-56919761D01*
X129563095Y-56824523D01*
X129515476Y-56634047D01*
X129515476Y-56300714D01*
X129563095Y-56110238D01*
X129658333Y-56015000D01*
X129753571Y-55967380D01*
X130610714Y-56967380D02*
X130610714Y-55967380D01*
X131182142Y-56967380D01*
X131182142Y-55967380D01*
X131515476Y-55967380D02*
X132086904Y-55967380D01*
X131801190Y-56967380D02*
X131801190Y-55967380D01*
X133182142Y-56967380D02*
X133182142Y-55967380D01*
X133563095Y-55967380D01*
X133658333Y-56015000D01*
X133705952Y-56062619D01*
X133753571Y-56157857D01*
X133753571Y-56300714D01*
X133705952Y-56395952D01*
X133658333Y-56443571D01*
X133563095Y-56491190D01*
X133182142Y-56491190D01*
X134134523Y-56681666D02*
X134610714Y-56681666D01*
X134039285Y-56967380D02*
X134372619Y-55967380D01*
X134705952Y-56967380D01*
X135039285Y-56967380D02*
X135039285Y-55967380D01*
X135610714Y-56967380D01*
X135610714Y-55967380D01*
X136086904Y-56443571D02*
X136420238Y-56443571D01*
X136563095Y-56967380D02*
X136086904Y-56967380D01*
X136086904Y-55967380D01*
X136563095Y-55967380D01*
X137467857Y-56967380D02*
X136991666Y-56967380D01*
X136991666Y-55967380D01*
X116372619Y-51887380D02*
X116372619Y-50887380D01*
X116610714Y-50887380D01*
X116753571Y-50935000D01*
X116848809Y-51030238D01*
X116896428Y-51125476D01*
X116944047Y-51315952D01*
X116944047Y-51458809D01*
X116896428Y-51649285D01*
X116848809Y-51744523D01*
X116753571Y-51839761D01*
X116610714Y-51887380D01*
X116372619Y-51887380D01*
X117753571Y-51839761D02*
X117658333Y-51887380D01*
X117467857Y-51887380D01*
X117372619Y-51839761D01*
X117325000Y-51744523D01*
X117325000Y-51363571D01*
X117372619Y-51268333D01*
X117467857Y-51220714D01*
X117658333Y-51220714D01*
X117753571Y-51268333D01*
X117801190Y-51363571D01*
X117801190Y-51458809D01*
X117325000Y-51554047D01*
X118182142Y-51839761D02*
X118277380Y-51887380D01*
X118467857Y-51887380D01*
X118563095Y-51839761D01*
X118610714Y-51744523D01*
X118610714Y-51696904D01*
X118563095Y-51601666D01*
X118467857Y-51554047D01*
X118325000Y-51554047D01*
X118229761Y-51506428D01*
X118182142Y-51411190D01*
X118182142Y-51363571D01*
X118229761Y-51268333D01*
X118325000Y-51220714D01*
X118467857Y-51220714D01*
X118563095Y-51268333D01*
X119039285Y-51887380D02*
X119039285Y-51220714D01*
X119039285Y-50887380D02*
X118991666Y-50935000D01*
X119039285Y-50982619D01*
X119086904Y-50935000D01*
X119039285Y-50887380D01*
X119039285Y-50982619D01*
X119944047Y-51220714D02*
X119944047Y-52030238D01*
X119896428Y-52125476D01*
X119848809Y-52173095D01*
X119753571Y-52220714D01*
X119610714Y-52220714D01*
X119515476Y-52173095D01*
X119944047Y-51839761D02*
X119848809Y-51887380D01*
X119658333Y-51887380D01*
X119563095Y-51839761D01*
X119515476Y-51792142D01*
X119467857Y-51696904D01*
X119467857Y-51411190D01*
X119515476Y-51315952D01*
X119563095Y-51268333D01*
X119658333Y-51220714D01*
X119848809Y-51220714D01*
X119944047Y-51268333D01*
X120420238Y-51220714D02*
X120420238Y-51887380D01*
X120420238Y-51315952D02*
X120467857Y-51268333D01*
X120563095Y-51220714D01*
X120705952Y-51220714D01*
X120801190Y-51268333D01*
X120848809Y-51363571D01*
X120848809Y-51887380D01*
X121705952Y-51839761D02*
X121610714Y-51887380D01*
X121420238Y-51887380D01*
X121325000Y-51839761D01*
X121277380Y-51744523D01*
X121277380Y-51363571D01*
X121325000Y-51268333D01*
X121420238Y-51220714D01*
X121610714Y-51220714D01*
X121705952Y-51268333D01*
X121753571Y-51363571D01*
X121753571Y-51458809D01*
X121277380Y-51554047D01*
X122610714Y-51887380D02*
X122610714Y-50887380D01*
X122610714Y-51839761D02*
X122515476Y-51887380D01*
X122325000Y-51887380D01*
X122229761Y-51839761D01*
X122182142Y-51792142D01*
X122134523Y-51696904D01*
X122134523Y-51411190D01*
X122182142Y-51315952D01*
X122229761Y-51268333D01*
X122325000Y-51220714D01*
X122515476Y-51220714D01*
X122610714Y-51268333D01*
X123848809Y-51887380D02*
X123848809Y-50887380D01*
X123848809Y-51268333D02*
X123944047Y-51220714D01*
X124134523Y-51220714D01*
X124229761Y-51268333D01*
X124277380Y-51315952D01*
X124325000Y-51411190D01*
X124325000Y-51696904D01*
X124277380Y-51792142D01*
X124229761Y-51839761D01*
X124134523Y-51887380D01*
X123944047Y-51887380D01*
X123848809Y-51839761D01*
X124658333Y-51220714D02*
X124896428Y-51887380D01*
X125134523Y-51220714D02*
X124896428Y-51887380D01*
X124801190Y-52125476D01*
X124753571Y-52173095D01*
X124658333Y-52220714D01*
X126229761Y-51601666D02*
X126705952Y-51601666D01*
X126134523Y-51887380D02*
X126467857Y-50887380D01*
X126801190Y-51887380D01*
X127277380Y-51887380D02*
X127182142Y-51839761D01*
X127134523Y-51744523D01*
X127134523Y-50887380D01*
X128086904Y-51887380D02*
X128086904Y-51363571D01*
X128039285Y-51268333D01*
X127944047Y-51220714D01*
X127753571Y-51220714D01*
X127658333Y-51268333D01*
X128086904Y-51839761D02*
X127991666Y-51887380D01*
X127753571Y-51887380D01*
X127658333Y-51839761D01*
X127610714Y-51744523D01*
X127610714Y-51649285D01*
X127658333Y-51554047D01*
X127753571Y-51506428D01*
X127991666Y-51506428D01*
X128086904Y-51458809D01*
X128563095Y-51220714D02*
X128563095Y-51887380D01*
X128563095Y-51315952D02*
X128610714Y-51268333D01*
X128705952Y-51220714D01*
X128848809Y-51220714D01*
X128944047Y-51268333D01*
X128991666Y-51363571D01*
X128991666Y-51887380D01*
X130229761Y-51887380D02*
X130229761Y-50887380D01*
X130229761Y-51363571D02*
X130801190Y-51363571D01*
X130801190Y-51887380D02*
X130801190Y-50887380D01*
X131277380Y-51792142D02*
X131325000Y-51839761D01*
X131277380Y-51887380D01*
X131229761Y-51839761D01*
X131277380Y-51792142D01*
X131277380Y-51887380D01*
X114110714Y-48522380D02*
X114110714Y-47522380D01*
X114491666Y-47522380D01*
X114586904Y-47570000D01*
X114634523Y-47617619D01*
X114682142Y-47712857D01*
X114682142Y-47855714D01*
X114634523Y-47950952D01*
X114586904Y-47998571D01*
X114491666Y-48046190D01*
X114110714Y-48046190D01*
X115682142Y-48427142D02*
X115634523Y-48474761D01*
X115491666Y-48522380D01*
X115396428Y-48522380D01*
X115253571Y-48474761D01*
X115158333Y-48379523D01*
X115110714Y-48284285D01*
X115063095Y-48093809D01*
X115063095Y-47950952D01*
X115110714Y-47760476D01*
X115158333Y-47665238D01*
X115253571Y-47570000D01*
X115396428Y-47522380D01*
X115491666Y-47522380D01*
X115634523Y-47570000D01*
X115682142Y-47617619D01*
X116444047Y-47998571D02*
X116586904Y-48046190D01*
X116634523Y-48093809D01*
X116682142Y-48189047D01*
X116682142Y-48331904D01*
X116634523Y-48427142D01*
X116586904Y-48474761D01*
X116491666Y-48522380D01*
X116110714Y-48522380D01*
X116110714Y-47522380D01*
X116444047Y-47522380D01*
X116539285Y-47570000D01*
X116586904Y-47617619D01*
X116634523Y-47712857D01*
X116634523Y-47808095D01*
X116586904Y-47903333D01*
X116539285Y-47950952D01*
X116444047Y-47998571D01*
X116110714Y-47998571D01*
X117872619Y-48522380D02*
X117872619Y-47522380D01*
X117872619Y-47998571D02*
X118444047Y-47998571D01*
X118444047Y-48522380D02*
X118444047Y-47522380D01*
X119301190Y-48474761D02*
X119205952Y-48522380D01*
X119015476Y-48522380D01*
X118920238Y-48474761D01*
X118872619Y-48379523D01*
X118872619Y-47998571D01*
X118920238Y-47903333D01*
X119015476Y-47855714D01*
X119205952Y-47855714D01*
X119301190Y-47903333D01*
X119348809Y-47998571D01*
X119348809Y-48093809D01*
X118872619Y-48189047D01*
X120205952Y-48522380D02*
X120205952Y-47998571D01*
X120158333Y-47903333D01*
X120063095Y-47855714D01*
X119872619Y-47855714D01*
X119777380Y-47903333D01*
X120205952Y-48474761D02*
X120110714Y-48522380D01*
X119872619Y-48522380D01*
X119777380Y-48474761D01*
X119729761Y-48379523D01*
X119729761Y-48284285D01*
X119777380Y-48189047D01*
X119872619Y-48141428D01*
X120110714Y-48141428D01*
X120205952Y-48093809D01*
X120539285Y-47855714D02*
X120920238Y-47855714D01*
X120682142Y-47522380D02*
X120682142Y-48379523D01*
X120729761Y-48474761D01*
X120825000Y-48522380D01*
X120920238Y-48522380D01*
X121634523Y-48474761D02*
X121539285Y-48522380D01*
X121348809Y-48522380D01*
X121253571Y-48474761D01*
X121205952Y-48379523D01*
X121205952Y-47998571D01*
X121253571Y-47903333D01*
X121348809Y-47855714D01*
X121539285Y-47855714D01*
X121634523Y-47903333D01*
X121682142Y-47998571D01*
X121682142Y-48093809D01*
X121205952Y-48189047D01*
X122110714Y-48522380D02*
X122110714Y-47855714D01*
X122110714Y-48046190D02*
X122158333Y-47950952D01*
X122205952Y-47903333D01*
X122301190Y-47855714D01*
X122396428Y-47855714D01*
X124063095Y-48427142D02*
X124015476Y-48474761D01*
X123872619Y-48522380D01*
X123777380Y-48522380D01*
X123634523Y-48474761D01*
X123539285Y-48379523D01*
X123491666Y-48284285D01*
X123444047Y-48093809D01*
X123444047Y-47950952D01*
X123491666Y-47760476D01*
X123539285Y-47665238D01*
X123634523Y-47570000D01*
X123777380Y-47522380D01*
X123872619Y-47522380D01*
X124015476Y-47570000D01*
X124063095Y-47617619D01*
X124634523Y-48522380D02*
X124539285Y-48474761D01*
X124491666Y-48427142D01*
X124444047Y-48331904D01*
X124444047Y-48046190D01*
X124491666Y-47950952D01*
X124539285Y-47903333D01*
X124634523Y-47855714D01*
X124777380Y-47855714D01*
X124872619Y-47903333D01*
X124920238Y-47950952D01*
X124967857Y-48046190D01*
X124967857Y-48331904D01*
X124920238Y-48427142D01*
X124872619Y-48474761D01*
X124777380Y-48522380D01*
X124634523Y-48522380D01*
X125396428Y-47855714D02*
X125396428Y-48522380D01*
X125396428Y-47950952D02*
X125444047Y-47903333D01*
X125539285Y-47855714D01*
X125682142Y-47855714D01*
X125777380Y-47903333D01*
X125825000Y-47998571D01*
X125825000Y-48522380D01*
X126158333Y-47855714D02*
X126539285Y-47855714D01*
X126301190Y-47522380D02*
X126301190Y-48379523D01*
X126348809Y-48474761D01*
X126444047Y-48522380D01*
X126539285Y-48522380D01*
X126872619Y-48522380D02*
X126872619Y-47855714D01*
X126872619Y-48046190D02*
X126920238Y-47950952D01*
X126967857Y-47903333D01*
X127063095Y-47855714D01*
X127158333Y-47855714D01*
X127634523Y-48522380D02*
X127539285Y-48474761D01*
X127491666Y-48427142D01*
X127444047Y-48331904D01*
X127444047Y-48046190D01*
X127491666Y-47950952D01*
X127539285Y-47903333D01*
X127634523Y-47855714D01*
X127777380Y-47855714D01*
X127872619Y-47903333D01*
X127920238Y-47950952D01*
X127967857Y-48046190D01*
X127967857Y-48331904D01*
X127920238Y-48427142D01*
X127872619Y-48474761D01*
X127777380Y-48522380D01*
X127634523Y-48522380D01*
X128539285Y-48522380D02*
X128444047Y-48474761D01*
X128396428Y-48379523D01*
X128396428Y-47522380D01*
X130015476Y-47998571D02*
X130158333Y-48046190D01*
X130205952Y-48093809D01*
X130253571Y-48189047D01*
X130253571Y-48331904D01*
X130205952Y-48427142D01*
X130158333Y-48474761D01*
X130063095Y-48522380D01*
X129682142Y-48522380D01*
X129682142Y-47522380D01*
X130015476Y-47522380D01*
X130110714Y-47570000D01*
X130158333Y-47617619D01*
X130205952Y-47712857D01*
X130205952Y-47808095D01*
X130158333Y-47903333D01*
X130110714Y-47950952D01*
X130015476Y-47998571D01*
X129682142Y-47998571D01*
X130825000Y-48522380D02*
X130729761Y-48474761D01*
X130682142Y-48427142D01*
X130634523Y-48331904D01*
X130634523Y-48046190D01*
X130682142Y-47950952D01*
X130729761Y-47903333D01*
X130825000Y-47855714D01*
X130967857Y-47855714D01*
X131063095Y-47903333D01*
X131110714Y-47950952D01*
X131158333Y-48046190D01*
X131158333Y-48331904D01*
X131110714Y-48427142D01*
X131063095Y-48474761D01*
X130967857Y-48522380D01*
X130825000Y-48522380D01*
X132015476Y-48522380D02*
X132015476Y-47998571D01*
X131967857Y-47903333D01*
X131872619Y-47855714D01*
X131682142Y-47855714D01*
X131586904Y-47903333D01*
X132015476Y-48474761D02*
X131920238Y-48522380D01*
X131682142Y-48522380D01*
X131586904Y-48474761D01*
X131539285Y-48379523D01*
X131539285Y-48284285D01*
X131586904Y-48189047D01*
X131682142Y-48141428D01*
X131920238Y-48141428D01*
X132015476Y-48093809D01*
X132491666Y-48522380D02*
X132491666Y-47855714D01*
X132491666Y-48046190D02*
X132539285Y-47950952D01*
X132586904Y-47903333D01*
X132682142Y-47855714D01*
X132777380Y-47855714D01*
X133539285Y-48522380D02*
X133539285Y-47522380D01*
X133539285Y-48474761D02*
X133444047Y-48522380D01*
X133253571Y-48522380D01*
X133158333Y-48474761D01*
X133110714Y-48427142D01*
X133063095Y-48331904D01*
X133063095Y-48046190D01*
X133110714Y-47950952D01*
X133158333Y-47903333D01*
X133253571Y-47855714D01*
X133444047Y-47855714D01*
X133539285Y-47903333D01*
X121753571Y-50172380D02*
X121420238Y-49696190D01*
X121182142Y-50172380D02*
X121182142Y-49172380D01*
X121563095Y-49172380D01*
X121658333Y-49220000D01*
X121705952Y-49267619D01*
X121753571Y-49362857D01*
X121753571Y-49505714D01*
X121705952Y-49600952D01*
X121658333Y-49648571D01*
X121563095Y-49696190D01*
X121182142Y-49696190D01*
X122563095Y-50124761D02*
X122467857Y-50172380D01*
X122277380Y-50172380D01*
X122182142Y-50124761D01*
X122134523Y-50029523D01*
X122134523Y-49648571D01*
X122182142Y-49553333D01*
X122277380Y-49505714D01*
X122467857Y-49505714D01*
X122563095Y-49553333D01*
X122610714Y-49648571D01*
X122610714Y-49743809D01*
X122134523Y-49839047D01*
X122944047Y-49505714D02*
X123182142Y-50172380D01*
X123420238Y-49505714D01*
X124753571Y-49172380D02*
X124848809Y-49172380D01*
X124944047Y-49220000D01*
X124991666Y-49267619D01*
X125039285Y-49362857D01*
X125086904Y-49553333D01*
X125086904Y-49791428D01*
X125039285Y-49981904D01*
X124991666Y-50077142D01*
X124944047Y-50124761D01*
X124848809Y-50172380D01*
X124753571Y-50172380D01*
X124658333Y-50124761D01*
X124610714Y-50077142D01*
X124563095Y-49981904D01*
X124515476Y-49791428D01*
X124515476Y-49553333D01*
X124563095Y-49362857D01*
X124610714Y-49267619D01*
X124658333Y-49220000D01*
X124753571Y-49172380D01*
X125515476Y-50077142D02*
X125563095Y-50124761D01*
X125515476Y-50172380D01*
X125467857Y-50124761D01*
X125515476Y-50077142D01*
X125515476Y-50172380D01*
X125944047Y-49267619D02*
X125991666Y-49220000D01*
X126086904Y-49172380D01*
X126325000Y-49172380D01*
X126420238Y-49220000D01*
X126467857Y-49267619D01*
X126515476Y-49362857D01*
X126515476Y-49458095D01*
X126467857Y-49600952D01*
X125896428Y-50172380D01*
X126515476Y-50172380D01*
X57920714Y-55332380D02*
X58492142Y-55332380D01*
X58206428Y-56332380D02*
X58206428Y-55332380D01*
X58825476Y-56332380D02*
X58825476Y-55332380D01*
X59254047Y-56332380D02*
X59254047Y-55808571D01*
X59206428Y-55713333D01*
X59111190Y-55665714D01*
X58968333Y-55665714D01*
X58873095Y-55713333D01*
X58825476Y-55760952D01*
X60111190Y-56284761D02*
X60015952Y-56332380D01*
X59825476Y-56332380D01*
X59730238Y-56284761D01*
X59682619Y-56189523D01*
X59682619Y-55808571D01*
X59730238Y-55713333D01*
X59825476Y-55665714D01*
X60015952Y-55665714D01*
X60111190Y-55713333D01*
X60158809Y-55808571D01*
X60158809Y-55903809D01*
X59682619Y-55999047D01*
X60587380Y-56332380D02*
X60587380Y-55665714D01*
X60587380Y-55856190D02*
X60635000Y-55760952D01*
X60682619Y-55713333D01*
X60777857Y-55665714D01*
X60873095Y-55665714D01*
X61206428Y-56332380D02*
X61206428Y-55665714D01*
X61206428Y-55760952D02*
X61254047Y-55713333D01*
X61349285Y-55665714D01*
X61492142Y-55665714D01*
X61587380Y-55713333D01*
X61635000Y-55808571D01*
X61635000Y-56332380D01*
X61635000Y-55808571D02*
X61682619Y-55713333D01*
X61777857Y-55665714D01*
X61920714Y-55665714D01*
X62015952Y-55713333D01*
X62063571Y-55808571D01*
X62063571Y-56332380D01*
X62682619Y-56332380D02*
X62587380Y-56284761D01*
X62539761Y-56237142D01*
X62492142Y-56141904D01*
X62492142Y-55856190D01*
X62539761Y-55760952D01*
X62587380Y-55713333D01*
X62682619Y-55665714D01*
X62825476Y-55665714D01*
X62920714Y-55713333D01*
X62968333Y-55760952D01*
X63015952Y-55856190D01*
X63015952Y-56141904D01*
X62968333Y-56237142D01*
X62920714Y-56284761D01*
X62825476Y-56332380D01*
X62682619Y-56332380D01*
X63873095Y-56284761D02*
X63777857Y-56332380D01*
X63587380Y-56332380D01*
X63492142Y-56284761D01*
X63444523Y-56237142D01*
X63396904Y-56141904D01*
X63396904Y-55856190D01*
X63444523Y-55760952D01*
X63492142Y-55713333D01*
X63587380Y-55665714D01*
X63777857Y-55665714D01*
X63873095Y-55713333D01*
X64444523Y-56332380D02*
X64349285Y-56284761D01*
X64301666Y-56237142D01*
X64254047Y-56141904D01*
X64254047Y-55856190D01*
X64301666Y-55760952D01*
X64349285Y-55713333D01*
X64444523Y-55665714D01*
X64587380Y-55665714D01*
X64682619Y-55713333D01*
X64730238Y-55760952D01*
X64777857Y-55856190D01*
X64777857Y-56141904D01*
X64730238Y-56237142D01*
X64682619Y-56284761D01*
X64587380Y-56332380D01*
X64444523Y-56332380D01*
X65635000Y-55665714D02*
X65635000Y-56332380D01*
X65206428Y-55665714D02*
X65206428Y-56189523D01*
X65254047Y-56284761D01*
X65349285Y-56332380D01*
X65492142Y-56332380D01*
X65587380Y-56284761D01*
X65635000Y-56237142D01*
X66111190Y-55665714D02*
X66111190Y-56665714D01*
X66111190Y-55713333D02*
X66206428Y-55665714D01*
X66396904Y-55665714D01*
X66492142Y-55713333D01*
X66539761Y-55760952D01*
X66587380Y-55856190D01*
X66587380Y-56141904D01*
X66539761Y-56237142D01*
X66492142Y-56284761D01*
X66396904Y-56332380D01*
X66206428Y-56332380D01*
X66111190Y-56284761D01*
X67158809Y-56332380D02*
X67063571Y-56284761D01*
X67015952Y-56189523D01*
X67015952Y-55332380D01*
X67920714Y-56284761D02*
X67825476Y-56332380D01*
X67635000Y-56332380D01*
X67539761Y-56284761D01*
X67492142Y-56189523D01*
X67492142Y-55808571D01*
X67539761Y-55713333D01*
X67635000Y-55665714D01*
X67825476Y-55665714D01*
X67920714Y-55713333D01*
X67968333Y-55808571D01*
X67968333Y-55903809D01*
X67492142Y-55999047D01*
X69158809Y-56332380D02*
X69158809Y-55332380D01*
X69635000Y-56332380D02*
X69635000Y-55332380D01*
X70206428Y-56332380D01*
X70206428Y-55332380D01*
D11*
X173168571Y-66349285D02*
X174668571Y-65849285D01*
X173168571Y-65349285D01*
X173168571Y-64563571D02*
X173168571Y-64277857D01*
X173240000Y-64135000D01*
X173382857Y-63992142D01*
X173668571Y-63920714D01*
X174168571Y-63920714D01*
X174454285Y-63992142D01*
X174597142Y-64135000D01*
X174668571Y-64277857D01*
X174668571Y-64563571D01*
X174597142Y-64706428D01*
X174454285Y-64849285D01*
X174168571Y-64920714D01*
X173668571Y-64920714D01*
X173382857Y-64849285D01*
X173240000Y-64706428D01*
X173168571Y-64563571D01*
X174097142Y-63277857D02*
X174097142Y-62135000D01*
X182693571Y-66349285D02*
X184193571Y-65849285D01*
X182693571Y-65349285D01*
X182693571Y-64563571D02*
X182693571Y-64277857D01*
X182765000Y-64135000D01*
X182907857Y-63992142D01*
X183193571Y-63920714D01*
X183693571Y-63920714D01*
X183979285Y-63992142D01*
X184122142Y-64135000D01*
X184193571Y-64277857D01*
X184193571Y-64563571D01*
X184122142Y-64706428D01*
X183979285Y-64849285D01*
X183693571Y-64920714D01*
X183193571Y-64920714D01*
X182907857Y-64849285D01*
X182765000Y-64706428D01*
X182693571Y-64563571D01*
X183622142Y-63277857D02*
X183622142Y-62135000D01*
X184193571Y-62706428D02*
X183050714Y-62706428D01*
X192290000Y-65277857D02*
X192218571Y-65420714D01*
X192218571Y-65635000D01*
X192290000Y-65849285D01*
X192432857Y-65992142D01*
X192575714Y-66063571D01*
X192861428Y-66135000D01*
X193075714Y-66135000D01*
X193361428Y-66063571D01*
X193504285Y-65992142D01*
X193647142Y-65849285D01*
X193718571Y-65635000D01*
X193718571Y-65492142D01*
X193647142Y-65277857D01*
X193575714Y-65206428D01*
X193075714Y-65206428D01*
X193075714Y-65492142D01*
X193718571Y-64563571D02*
X192218571Y-64563571D01*
X193718571Y-63706428D01*
X192218571Y-63706428D01*
X193718571Y-62992142D02*
X192218571Y-62992142D01*
X192218571Y-62635000D01*
X192290000Y-62420714D01*
X192432857Y-62277857D01*
X192575714Y-62206428D01*
X192861428Y-62135000D01*
X193075714Y-62135000D01*
X193361428Y-62206428D01*
X193504285Y-62277857D01*
X193647142Y-62420714D01*
X193718571Y-62635000D01*
X193718571Y-62992142D01*
X201743571Y-65920714D02*
X203243571Y-65420714D01*
X201743571Y-64920714D01*
X203243571Y-64420714D02*
X201743571Y-64420714D01*
X202672142Y-63706428D02*
X202672142Y-62563571D01*
X203243571Y-63135000D02*
X202100714Y-63135000D01*
D12*
%TO.C,U1*%
X170190000Y-93980000D02*
X170190000Y-95930000D01*
X170190000Y-93980000D02*
X170190000Y-92030000D01*
X179060000Y-93980000D02*
X179060000Y-95930000D01*
X179060000Y-93980000D02*
X179060000Y-90530000D01*
%TO.C,Q1*%
X169270000Y-73360000D02*
X169270000Y-74860000D01*
X169270000Y-74860000D02*
X169540000Y-74860000D01*
X169540000Y-74860000D02*
X169540000Y-77690000D01*
X176170000Y-73360000D02*
X176170000Y-74860000D01*
X176170000Y-74860000D02*
X175900000Y-74860000D01*
X175900000Y-74860000D02*
X175900000Y-75960000D01*
%TO.C,D3*%
X75295000Y-93020000D02*
X72435000Y-93020000D01*
X72435000Y-93020000D02*
X72435000Y-94940000D01*
X72435000Y-94940000D02*
X75295000Y-94940000D01*
%TO.C,R22*%
X96620000Y-74702936D02*
X96620000Y-75157064D01*
X95150000Y-74702936D02*
X95150000Y-75157064D01*
%TO.C,R21*%
X94715000Y-74702936D02*
X94715000Y-75157064D01*
X93245000Y-74702936D02*
X93245000Y-75157064D01*
%TO.C,R20*%
X92810000Y-74702936D02*
X92810000Y-75157064D01*
X91340000Y-74702936D02*
X91340000Y-75157064D01*
%TO.C,R19*%
X91340000Y-96747064D02*
X91340000Y-96292936D01*
X92810000Y-96747064D02*
X92810000Y-96292936D01*
%TO.C,R18*%
X93245000Y-96747064D02*
X93245000Y-96292936D01*
X94715000Y-96747064D02*
X94715000Y-96292936D01*
%TO.C,R17*%
X95150000Y-96747064D02*
X95150000Y-96292936D01*
X96620000Y-96747064D02*
X96620000Y-96292936D01*
%TO.C,R16*%
X97055000Y-96747064D02*
X97055000Y-96292936D01*
X98525000Y-96747064D02*
X98525000Y-96292936D01*
%TO.C,R15*%
X98960000Y-96747064D02*
X98960000Y-96292936D01*
X100430000Y-96747064D02*
X100430000Y-96292936D01*
%TO.C,R14*%
X100865000Y-96747064D02*
X100865000Y-96292936D01*
X102335000Y-96747064D02*
X102335000Y-96292936D01*
%TO.C,R13*%
X102770000Y-96747064D02*
X102770000Y-96292936D01*
X104240000Y-96747064D02*
X104240000Y-96292936D01*
%TO.C,R12*%
X104675000Y-96747064D02*
X104675000Y-96292936D01*
X106145000Y-96747064D02*
X106145000Y-96292936D01*
%TO.C,R11*%
X106580000Y-96747064D02*
X106580000Y-96292936D01*
X108050000Y-96747064D02*
X108050000Y-96292936D01*
%TO.C,R10*%
X108485000Y-96747064D02*
X108485000Y-96292936D01*
X109955000Y-96747064D02*
X109955000Y-96292936D01*
%TO.C,R9*%
X110390000Y-96747064D02*
X110390000Y-96292936D01*
X111860000Y-96747064D02*
X111860000Y-96292936D01*
D10*
%TO.C,U4*%
X93282500Y-81485904D02*
X111187500Y-81485904D01*
X111187500Y-81485904D02*
X111187500Y-87424096D01*
X111187500Y-87424096D02*
X93282500Y-87424096D01*
X93282500Y-87424096D02*
X93282500Y-81485904D01*
D13*
X110237500Y-82635904D02*
G75*
G03*
X110237500Y-82635904I-250000J0D01*
G01*
D11*
X110615000Y-78405000D02*
G75*
G03*
X110615000Y-78405000I-125000J0D01*
G01*
D12*
%TO.C,U3*%
X61214000Y-73365000D02*
X62714000Y-73365000D01*
X61214000Y-73365000D02*
X59714000Y-73365000D01*
X61214000Y-70145000D02*
X62714000Y-70145000D01*
X61214000Y-70145000D02*
X58289000Y-70145000D01*
%TO.C,U2*%
X197785000Y-68305000D02*
X196285000Y-68305000D01*
X196285000Y-68305000D02*
X196285000Y-68575000D01*
X196285000Y-68575000D02*
X193455000Y-68575000D01*
X197785000Y-75205000D02*
X196285000Y-75205000D01*
X196285000Y-75205000D02*
X196285000Y-74935000D01*
X196285000Y-74935000D02*
X195185000Y-74935000D01*
%TO.C,R30*%
X79282936Y-79735000D02*
X80737064Y-79735000D01*
X79282936Y-81555000D02*
X80737064Y-81555000D01*
%TO.C,R29*%
X79282936Y-65765000D02*
X80737064Y-65765000D01*
X79282936Y-67585000D02*
X80737064Y-67585000D01*
%TO.C,R28*%
X79282936Y-51795000D02*
X80737064Y-51795000D01*
X79282936Y-53615000D02*
X80737064Y-53615000D01*
%TO.C,R8*%
X121560000Y-86267936D02*
X121560000Y-87722064D01*
X119740000Y-86267936D02*
X119740000Y-87722064D01*
%TO.C,R7*%
X117750000Y-86267936D02*
X117750000Y-87722064D01*
X115930000Y-86267936D02*
X115930000Y-87722064D01*
%TO.C,R6*%
X190592064Y-86000000D02*
X189137936Y-86000000D01*
X190592064Y-84180000D02*
X189137936Y-84180000D01*
%TO.C,R5*%
X195132936Y-95610000D02*
X196587064Y-95610000D01*
X195132936Y-97430000D02*
X196587064Y-97430000D01*
%TO.C,R4*%
X62844000Y-63237064D02*
X62844000Y-61782936D01*
X64664000Y-63237064D02*
X64664000Y-61782936D01*
%TO.C,R3*%
X57764000Y-63237064D02*
X57764000Y-61782936D01*
X59584000Y-63237064D02*
X59584000Y-61782936D01*
%TO.C,R2*%
X64576936Y-57510000D02*
X66031064Y-57510000D01*
X64576936Y-59330000D02*
X66031064Y-59330000D01*
%TO.C,R1*%
X171090000Y-83092936D02*
X171090000Y-84547064D01*
X169270000Y-83092936D02*
X169270000Y-84547064D01*
%TO.C,J5*%
X158995000Y-46125000D02*
X218195000Y-46125000D01*
X158995000Y-61825000D02*
X218195000Y-61825000D01*
X218195000Y-61825000D02*
X218195000Y-46125000D01*
X158995000Y-46125000D02*
X158995000Y-61825000D01*
%TO.C,J3*%
X69215000Y-54900000D02*
X59055000Y-54900000D01*
X69215000Y-54900000D02*
X69215000Y-46700000D01*
X59055000Y-46700000D02*
X69215000Y-46700000D01*
X59055000Y-46700000D02*
X59055000Y-54900000D01*
%TO.C,FB1*%
X180382936Y-73560000D02*
X180837064Y-73560000D01*
X180382936Y-75030000D02*
X180837064Y-75030000D01*
%TO.C,D4*%
X189835000Y-70035000D02*
X190015000Y-70035000D01*
X190015000Y-70035000D02*
X190015000Y-73475000D01*
X190015000Y-73475000D02*
X189835000Y-73475000D01*
X187355000Y-70035000D02*
X187175000Y-70035000D01*
X187175000Y-70035000D02*
X187175000Y-73475000D01*
X187175000Y-73475000D02*
X187355000Y-73475000D01*
X190015000Y-70635000D02*
X187175000Y-70635000D01*
X190015000Y-70755000D02*
X187175000Y-70755000D01*
X190015000Y-70515000D02*
X187175000Y-70515000D01*
%TO.C,D1*%
X190865000Y-80320000D02*
X188005000Y-80320000D01*
X188005000Y-80320000D02*
X188005000Y-82240000D01*
X188005000Y-82240000D02*
X190865000Y-82240000D01*
%TO.C,C12*%
X63600000Y-91813748D02*
X63600000Y-92336252D01*
X62130000Y-91813748D02*
X62130000Y-92336252D01*
%TO.C,C11*%
X113565000Y-84716252D02*
X113565000Y-84193748D01*
X115035000Y-84716252D02*
X115035000Y-84193748D01*
%TO.C,C10*%
X65800248Y-66575000D02*
X66322752Y-66575000D01*
X65800248Y-68045000D02*
X66322752Y-68045000D01*
%TO.C,C9*%
X60720248Y-66575000D02*
X61242752Y-66575000D01*
X60720248Y-68045000D02*
X61242752Y-68045000D01*
%TO.C,C8*%
X55872748Y-66575000D02*
X56395252Y-66575000D01*
X55872748Y-68045000D02*
X56395252Y-68045000D01*
%TO.C,C7*%
X70204000Y-72128748D02*
X70204000Y-72651252D01*
X68734000Y-72128748D02*
X68734000Y-72651252D01*
%TO.C,C6*%
X67664000Y-72128748D02*
X67664000Y-72651252D01*
X66194000Y-72128748D02*
X66194000Y-72651252D01*
%TO.C,C4*%
X186155000Y-75071248D02*
X186155000Y-75593752D01*
X184685000Y-75071248D02*
X184685000Y-75593752D01*
%TO.C,C3*%
X195953748Y-64670000D02*
X196476252Y-64670000D01*
X195953748Y-66140000D02*
X196476252Y-66140000D01*
%TO.C,C2*%
X186790000Y-93718748D02*
X186790000Y-94241252D01*
X185320000Y-93718748D02*
X185320000Y-94241252D01*
%TO.C,C1*%
X182980000Y-93718748D02*
X182980000Y-94241252D01*
X181510000Y-93718748D02*
X181510000Y-94241252D01*
%TO.C,H3*%
D10*
X229108095Y-54427380D02*
X229108095Y-53427380D01*
X229108095Y-53903571D02*
X229679523Y-53903571D01*
X229679523Y-54427380D02*
X229679523Y-53427380D01*
X230060476Y-53427380D02*
X230679523Y-53427380D01*
X230346190Y-53808333D01*
X230489047Y-53808333D01*
X230584285Y-53855952D01*
X230631904Y-53903571D01*
X230679523Y-53998809D01*
X230679523Y-54236904D01*
X230631904Y-54332142D01*
X230584285Y-54379761D01*
X230489047Y-54427380D01*
X230203333Y-54427380D01*
X230108095Y-54379761D01*
X230060476Y-54332142D01*
%TO.C,H4*%
X224028095Y-100147380D02*
X224028095Y-99147380D01*
X224028095Y-99623571D02*
X224599523Y-99623571D01*
X224599523Y-100147380D02*
X224599523Y-99147380D01*
X225504285Y-99480714D02*
X225504285Y-100147380D01*
X225266190Y-99099761D02*
X225028095Y-99814047D01*
X225647142Y-99814047D01*
%TO.C,H1*%
X52578095Y-95947380D02*
X52578095Y-94947380D01*
X52578095Y-95423571D02*
X53149523Y-95423571D01*
X53149523Y-95947380D02*
X53149523Y-94947380D01*
X54149523Y-95947380D02*
X53578095Y-95947380D01*
X53863809Y-95947380D02*
X53863809Y-94947380D01*
X53768571Y-95090238D01*
X53673333Y-95185476D01*
X53578095Y-95233095D01*
%TO.C,H2*%
X52578095Y-54427380D02*
X52578095Y-53427380D01*
X52578095Y-53903571D02*
X53149523Y-53903571D01*
X53149523Y-54427380D02*
X53149523Y-53427380D01*
X53578095Y-53522619D02*
X53625714Y-53475000D01*
X53720952Y-53427380D01*
X53959047Y-53427380D01*
X54054285Y-53475000D01*
X54101904Y-53522619D01*
X54149523Y-53617857D01*
X54149523Y-53713095D01*
X54101904Y-53855952D01*
X53530476Y-54427380D01*
X54149523Y-54427380D01*
%TO.C,U1*%
X179357380Y-94741904D02*
X180166904Y-94741904D01*
X180262142Y-94694285D01*
X180309761Y-94646666D01*
X180357380Y-94551428D01*
X180357380Y-94360952D01*
X180309761Y-94265714D01*
X180262142Y-94218095D01*
X180166904Y-94170476D01*
X179357380Y-94170476D01*
X180357380Y-93170476D02*
X180357380Y-93741904D01*
X180357380Y-93456190D02*
X179357380Y-93456190D01*
X179500238Y-93551428D01*
X179595476Y-93646666D01*
X179643095Y-93741904D01*
%TO.C,Q1*%
X168767619Y-72485238D02*
X168720000Y-72580476D01*
X168624761Y-72675714D01*
X168481904Y-72818571D01*
X168434285Y-72913809D01*
X168434285Y-73009047D01*
X168672380Y-72961428D02*
X168624761Y-73056666D01*
X168529523Y-73151904D01*
X168339047Y-73199523D01*
X168005714Y-73199523D01*
X167815238Y-73151904D01*
X167720000Y-73056666D01*
X167672380Y-72961428D01*
X167672380Y-72770952D01*
X167720000Y-72675714D01*
X167815238Y-72580476D01*
X168005714Y-72532857D01*
X168339047Y-72532857D01*
X168529523Y-72580476D01*
X168624761Y-72675714D01*
X168672380Y-72770952D01*
X168672380Y-72961428D01*
X168672380Y-71580476D02*
X168672380Y-72151904D01*
X168672380Y-71866190D02*
X167672380Y-71866190D01*
X167815238Y-71961428D01*
X167910476Y-72056666D01*
X167958095Y-72151904D01*
%TO.C,D3*%
X73556904Y-96337380D02*
X73556904Y-95337380D01*
X73795000Y-95337380D01*
X73937857Y-95385000D01*
X74033095Y-95480238D01*
X74080714Y-95575476D01*
X74128333Y-95765952D01*
X74128333Y-95908809D01*
X74080714Y-96099285D01*
X74033095Y-96194523D01*
X73937857Y-96289761D01*
X73795000Y-96337380D01*
X73556904Y-96337380D01*
X74461666Y-95337380D02*
X75080714Y-95337380D01*
X74747380Y-95718333D01*
X74890238Y-95718333D01*
X74985476Y-95765952D01*
X75033095Y-95813571D01*
X75080714Y-95908809D01*
X75080714Y-96146904D01*
X75033095Y-96242142D01*
X74985476Y-96289761D01*
X74890238Y-96337380D01*
X74604523Y-96337380D01*
X74509285Y-96289761D01*
X74461666Y-96242142D01*
%TO.C,R22*%
X97987380Y-75572857D02*
X97511190Y-75906190D01*
X97987380Y-76144285D02*
X96987380Y-76144285D01*
X96987380Y-75763333D01*
X97035000Y-75668095D01*
X97082619Y-75620476D01*
X97177857Y-75572857D01*
X97320714Y-75572857D01*
X97415952Y-75620476D01*
X97463571Y-75668095D01*
X97511190Y-75763333D01*
X97511190Y-76144285D01*
X97082619Y-75191904D02*
X97035000Y-75144285D01*
X96987380Y-75049047D01*
X96987380Y-74810952D01*
X97035000Y-74715714D01*
X97082619Y-74668095D01*
X97177857Y-74620476D01*
X97273095Y-74620476D01*
X97415952Y-74668095D01*
X97987380Y-75239523D01*
X97987380Y-74620476D01*
X97082619Y-74239523D02*
X97035000Y-74191904D01*
X96987380Y-74096666D01*
X96987380Y-73858571D01*
X97035000Y-73763333D01*
X97082619Y-73715714D01*
X97177857Y-73668095D01*
X97273095Y-73668095D01*
X97415952Y-73715714D01*
X97987380Y-74287142D01*
X97987380Y-73668095D01*
%TO.C,R21*%
X94432380Y-72397857D02*
X93956190Y-72731190D01*
X94432380Y-72969285D02*
X93432380Y-72969285D01*
X93432380Y-72588333D01*
X93480000Y-72493095D01*
X93527619Y-72445476D01*
X93622857Y-72397857D01*
X93765714Y-72397857D01*
X93860952Y-72445476D01*
X93908571Y-72493095D01*
X93956190Y-72588333D01*
X93956190Y-72969285D01*
X93527619Y-72016904D02*
X93480000Y-71969285D01*
X93432380Y-71874047D01*
X93432380Y-71635952D01*
X93480000Y-71540714D01*
X93527619Y-71493095D01*
X93622857Y-71445476D01*
X93718095Y-71445476D01*
X93860952Y-71493095D01*
X94432380Y-72064523D01*
X94432380Y-71445476D01*
X94432380Y-70493095D02*
X94432380Y-71064523D01*
X94432380Y-70778809D02*
X93432380Y-70778809D01*
X93575238Y-70874047D01*
X93670476Y-70969285D01*
X93718095Y-71064523D01*
%TO.C,R20*%
X90622380Y-75572857D02*
X90146190Y-75906190D01*
X90622380Y-76144285D02*
X89622380Y-76144285D01*
X89622380Y-75763333D01*
X89670000Y-75668095D01*
X89717619Y-75620476D01*
X89812857Y-75572857D01*
X89955714Y-75572857D01*
X90050952Y-75620476D01*
X90098571Y-75668095D01*
X90146190Y-75763333D01*
X90146190Y-76144285D01*
X89717619Y-75191904D02*
X89670000Y-75144285D01*
X89622380Y-75049047D01*
X89622380Y-74810952D01*
X89670000Y-74715714D01*
X89717619Y-74668095D01*
X89812857Y-74620476D01*
X89908095Y-74620476D01*
X90050952Y-74668095D01*
X90622380Y-75239523D01*
X90622380Y-74620476D01*
X89622380Y-74001428D02*
X89622380Y-73906190D01*
X89670000Y-73810952D01*
X89717619Y-73763333D01*
X89812857Y-73715714D01*
X90003333Y-73668095D01*
X90241428Y-73668095D01*
X90431904Y-73715714D01*
X90527142Y-73763333D01*
X90574761Y-73810952D01*
X90622380Y-73906190D01*
X90622380Y-74001428D01*
X90574761Y-74096666D01*
X90527142Y-74144285D01*
X90431904Y-74191904D01*
X90241428Y-74239523D01*
X90003333Y-74239523D01*
X89812857Y-74191904D01*
X89717619Y-74144285D01*
X89670000Y-74096666D01*
X89622380Y-74001428D01*
%TO.C,R19*%
X92527380Y-100337857D02*
X92051190Y-100671190D01*
X92527380Y-100909285D02*
X91527380Y-100909285D01*
X91527380Y-100528333D01*
X91575000Y-100433095D01*
X91622619Y-100385476D01*
X91717857Y-100337857D01*
X91860714Y-100337857D01*
X91955952Y-100385476D01*
X92003571Y-100433095D01*
X92051190Y-100528333D01*
X92051190Y-100909285D01*
X92527380Y-99385476D02*
X92527380Y-99956904D01*
X92527380Y-99671190D02*
X91527380Y-99671190D01*
X91670238Y-99766428D01*
X91765476Y-99861666D01*
X91813095Y-99956904D01*
X92527380Y-98909285D02*
X92527380Y-98718809D01*
X92479761Y-98623571D01*
X92432142Y-98575952D01*
X92289285Y-98480714D01*
X92098809Y-98433095D01*
X91717857Y-98433095D01*
X91622619Y-98480714D01*
X91575000Y-98528333D01*
X91527380Y-98623571D01*
X91527380Y-98814047D01*
X91575000Y-98909285D01*
X91622619Y-98956904D01*
X91717857Y-99004523D01*
X91955952Y-99004523D01*
X92051190Y-98956904D01*
X92098809Y-98909285D01*
X92146428Y-98814047D01*
X92146428Y-98623571D01*
X92098809Y-98528333D01*
X92051190Y-98480714D01*
X91955952Y-98433095D01*
%TO.C,R18*%
X94432380Y-100337857D02*
X93956190Y-100671190D01*
X94432380Y-100909285D02*
X93432380Y-100909285D01*
X93432380Y-100528333D01*
X93480000Y-100433095D01*
X93527619Y-100385476D01*
X93622857Y-100337857D01*
X93765714Y-100337857D01*
X93860952Y-100385476D01*
X93908571Y-100433095D01*
X93956190Y-100528333D01*
X93956190Y-100909285D01*
X94432380Y-99385476D02*
X94432380Y-99956904D01*
X94432380Y-99671190D02*
X93432380Y-99671190D01*
X93575238Y-99766428D01*
X93670476Y-99861666D01*
X93718095Y-99956904D01*
X93860952Y-98814047D02*
X93813333Y-98909285D01*
X93765714Y-98956904D01*
X93670476Y-99004523D01*
X93622857Y-99004523D01*
X93527619Y-98956904D01*
X93480000Y-98909285D01*
X93432380Y-98814047D01*
X93432380Y-98623571D01*
X93480000Y-98528333D01*
X93527619Y-98480714D01*
X93622857Y-98433095D01*
X93670476Y-98433095D01*
X93765714Y-98480714D01*
X93813333Y-98528333D01*
X93860952Y-98623571D01*
X93860952Y-98814047D01*
X93908571Y-98909285D01*
X93956190Y-98956904D01*
X94051428Y-99004523D01*
X94241904Y-99004523D01*
X94337142Y-98956904D01*
X94384761Y-98909285D01*
X94432380Y-98814047D01*
X94432380Y-98623571D01*
X94384761Y-98528333D01*
X94337142Y-98480714D01*
X94241904Y-98433095D01*
X94051428Y-98433095D01*
X93956190Y-98480714D01*
X93908571Y-98528333D01*
X93860952Y-98623571D01*
%TO.C,R17*%
X96337380Y-100337857D02*
X95861190Y-100671190D01*
X96337380Y-100909285D02*
X95337380Y-100909285D01*
X95337380Y-100528333D01*
X95385000Y-100433095D01*
X95432619Y-100385476D01*
X95527857Y-100337857D01*
X95670714Y-100337857D01*
X95765952Y-100385476D01*
X95813571Y-100433095D01*
X95861190Y-100528333D01*
X95861190Y-100909285D01*
X96337380Y-99385476D02*
X96337380Y-99956904D01*
X96337380Y-99671190D02*
X95337380Y-99671190D01*
X95480238Y-99766428D01*
X95575476Y-99861666D01*
X95623095Y-99956904D01*
X95337380Y-99052142D02*
X95337380Y-98385476D01*
X96337380Y-98814047D01*
%TO.C,R16*%
X98242380Y-100337857D02*
X97766190Y-100671190D01*
X98242380Y-100909285D02*
X97242380Y-100909285D01*
X97242380Y-100528333D01*
X97290000Y-100433095D01*
X97337619Y-100385476D01*
X97432857Y-100337857D01*
X97575714Y-100337857D01*
X97670952Y-100385476D01*
X97718571Y-100433095D01*
X97766190Y-100528333D01*
X97766190Y-100909285D01*
X98242380Y-99385476D02*
X98242380Y-99956904D01*
X98242380Y-99671190D02*
X97242380Y-99671190D01*
X97385238Y-99766428D01*
X97480476Y-99861666D01*
X97528095Y-99956904D01*
X97242380Y-98528333D02*
X97242380Y-98718809D01*
X97290000Y-98814047D01*
X97337619Y-98861666D01*
X97480476Y-98956904D01*
X97670952Y-99004523D01*
X98051904Y-99004523D01*
X98147142Y-98956904D01*
X98194761Y-98909285D01*
X98242380Y-98814047D01*
X98242380Y-98623571D01*
X98194761Y-98528333D01*
X98147142Y-98480714D01*
X98051904Y-98433095D01*
X97813809Y-98433095D01*
X97718571Y-98480714D01*
X97670952Y-98528333D01*
X97623333Y-98623571D01*
X97623333Y-98814047D01*
X97670952Y-98909285D01*
X97718571Y-98956904D01*
X97813809Y-99004523D01*
%TO.C,R15*%
X100147380Y-100337857D02*
X99671190Y-100671190D01*
X100147380Y-100909285D02*
X99147380Y-100909285D01*
X99147380Y-100528333D01*
X99195000Y-100433095D01*
X99242619Y-100385476D01*
X99337857Y-100337857D01*
X99480714Y-100337857D01*
X99575952Y-100385476D01*
X99623571Y-100433095D01*
X99671190Y-100528333D01*
X99671190Y-100909285D01*
X100147380Y-99385476D02*
X100147380Y-99956904D01*
X100147380Y-99671190D02*
X99147380Y-99671190D01*
X99290238Y-99766428D01*
X99385476Y-99861666D01*
X99433095Y-99956904D01*
X99147380Y-98480714D02*
X99147380Y-98956904D01*
X99623571Y-99004523D01*
X99575952Y-98956904D01*
X99528333Y-98861666D01*
X99528333Y-98623571D01*
X99575952Y-98528333D01*
X99623571Y-98480714D01*
X99718809Y-98433095D01*
X99956904Y-98433095D01*
X100052142Y-98480714D01*
X100099761Y-98528333D01*
X100147380Y-98623571D01*
X100147380Y-98861666D01*
X100099761Y-98956904D01*
X100052142Y-99004523D01*
%TO.C,R14*%
X102052380Y-100337857D02*
X101576190Y-100671190D01*
X102052380Y-100909285D02*
X101052380Y-100909285D01*
X101052380Y-100528333D01*
X101100000Y-100433095D01*
X101147619Y-100385476D01*
X101242857Y-100337857D01*
X101385714Y-100337857D01*
X101480952Y-100385476D01*
X101528571Y-100433095D01*
X101576190Y-100528333D01*
X101576190Y-100909285D01*
X102052380Y-99385476D02*
X102052380Y-99956904D01*
X102052380Y-99671190D02*
X101052380Y-99671190D01*
X101195238Y-99766428D01*
X101290476Y-99861666D01*
X101338095Y-99956904D01*
X101385714Y-98528333D02*
X102052380Y-98528333D01*
X101004761Y-98766428D02*
X101719047Y-99004523D01*
X101719047Y-98385476D01*
%TO.C,R13*%
X103957380Y-100337857D02*
X103481190Y-100671190D01*
X103957380Y-100909285D02*
X102957380Y-100909285D01*
X102957380Y-100528333D01*
X103005000Y-100433095D01*
X103052619Y-100385476D01*
X103147857Y-100337857D01*
X103290714Y-100337857D01*
X103385952Y-100385476D01*
X103433571Y-100433095D01*
X103481190Y-100528333D01*
X103481190Y-100909285D01*
X103957380Y-99385476D02*
X103957380Y-99956904D01*
X103957380Y-99671190D02*
X102957380Y-99671190D01*
X103100238Y-99766428D01*
X103195476Y-99861666D01*
X103243095Y-99956904D01*
X102957380Y-99052142D02*
X102957380Y-98433095D01*
X103338333Y-98766428D01*
X103338333Y-98623571D01*
X103385952Y-98528333D01*
X103433571Y-98480714D01*
X103528809Y-98433095D01*
X103766904Y-98433095D01*
X103862142Y-98480714D01*
X103909761Y-98528333D01*
X103957380Y-98623571D01*
X103957380Y-98909285D01*
X103909761Y-99004523D01*
X103862142Y-99052142D01*
%TO.C,R12*%
X105862380Y-100337857D02*
X105386190Y-100671190D01*
X105862380Y-100909285D02*
X104862380Y-100909285D01*
X104862380Y-100528333D01*
X104910000Y-100433095D01*
X104957619Y-100385476D01*
X105052857Y-100337857D01*
X105195714Y-100337857D01*
X105290952Y-100385476D01*
X105338571Y-100433095D01*
X105386190Y-100528333D01*
X105386190Y-100909285D01*
X105862380Y-99385476D02*
X105862380Y-99956904D01*
X105862380Y-99671190D02*
X104862380Y-99671190D01*
X105005238Y-99766428D01*
X105100476Y-99861666D01*
X105148095Y-99956904D01*
X104957619Y-99004523D02*
X104910000Y-98956904D01*
X104862380Y-98861666D01*
X104862380Y-98623571D01*
X104910000Y-98528333D01*
X104957619Y-98480714D01*
X105052857Y-98433095D01*
X105148095Y-98433095D01*
X105290952Y-98480714D01*
X105862380Y-99052142D01*
X105862380Y-98433095D01*
%TO.C,R11*%
X107767380Y-100337857D02*
X107291190Y-100671190D01*
X107767380Y-100909285D02*
X106767380Y-100909285D01*
X106767380Y-100528333D01*
X106815000Y-100433095D01*
X106862619Y-100385476D01*
X106957857Y-100337857D01*
X107100714Y-100337857D01*
X107195952Y-100385476D01*
X107243571Y-100433095D01*
X107291190Y-100528333D01*
X107291190Y-100909285D01*
X107767380Y-99385476D02*
X107767380Y-99956904D01*
X107767380Y-99671190D02*
X106767380Y-99671190D01*
X106910238Y-99766428D01*
X107005476Y-99861666D01*
X107053095Y-99956904D01*
X107767380Y-98433095D02*
X107767380Y-99004523D01*
X107767380Y-98718809D02*
X106767380Y-98718809D01*
X106910238Y-98814047D01*
X107005476Y-98909285D01*
X107053095Y-99004523D01*
%TO.C,R10*%
X109672380Y-100337857D02*
X109196190Y-100671190D01*
X109672380Y-100909285D02*
X108672380Y-100909285D01*
X108672380Y-100528333D01*
X108720000Y-100433095D01*
X108767619Y-100385476D01*
X108862857Y-100337857D01*
X109005714Y-100337857D01*
X109100952Y-100385476D01*
X109148571Y-100433095D01*
X109196190Y-100528333D01*
X109196190Y-100909285D01*
X109672380Y-99385476D02*
X109672380Y-99956904D01*
X109672380Y-99671190D02*
X108672380Y-99671190D01*
X108815238Y-99766428D01*
X108910476Y-99861666D01*
X108958095Y-99956904D01*
X108672380Y-98766428D02*
X108672380Y-98671190D01*
X108720000Y-98575952D01*
X108767619Y-98528333D01*
X108862857Y-98480714D01*
X109053333Y-98433095D01*
X109291428Y-98433095D01*
X109481904Y-98480714D01*
X109577142Y-98528333D01*
X109624761Y-98575952D01*
X109672380Y-98671190D01*
X109672380Y-98766428D01*
X109624761Y-98861666D01*
X109577142Y-98909285D01*
X109481904Y-98956904D01*
X109291428Y-99004523D01*
X109053333Y-99004523D01*
X108862857Y-98956904D01*
X108767619Y-98909285D01*
X108720000Y-98861666D01*
X108672380Y-98766428D01*
%TO.C,R9*%
X111577380Y-99861666D02*
X111101190Y-100195000D01*
X111577380Y-100433095D02*
X110577380Y-100433095D01*
X110577380Y-100052142D01*
X110625000Y-99956904D01*
X110672619Y-99909285D01*
X110767857Y-99861666D01*
X110910714Y-99861666D01*
X111005952Y-99909285D01*
X111053571Y-99956904D01*
X111101190Y-100052142D01*
X111101190Y-100433095D01*
X111577380Y-99385476D02*
X111577380Y-99195000D01*
X111529761Y-99099761D01*
X111482142Y-99052142D01*
X111339285Y-98956904D01*
X111148809Y-98909285D01*
X110767857Y-98909285D01*
X110672619Y-98956904D01*
X110625000Y-99004523D01*
X110577380Y-99099761D01*
X110577380Y-99290238D01*
X110625000Y-99385476D01*
X110672619Y-99433095D01*
X110767857Y-99480714D01*
X111005952Y-99480714D01*
X111101190Y-99433095D01*
X111148809Y-99385476D01*
X111196428Y-99290238D01*
X111196428Y-99099761D01*
X111148809Y-99004523D01*
X111101190Y-98956904D01*
X111005952Y-98909285D01*
%TO.C,U4*%
X91527380Y-85389404D02*
X92336904Y-85389404D01*
X92432142Y-85341785D01*
X92479761Y-85294166D01*
X92527380Y-85198928D01*
X92527380Y-85008452D01*
X92479761Y-84913214D01*
X92432142Y-84865595D01*
X92336904Y-84817976D01*
X91527380Y-84817976D01*
X91860714Y-83913214D02*
X92527380Y-83913214D01*
X91479761Y-84151309D02*
X92194047Y-84389404D01*
X92194047Y-83770357D01*
X98334285Y-85029523D02*
X98334285Y-83759523D01*
X98334285Y-84364285D02*
X99060000Y-84364285D01*
X99060000Y-85029523D02*
X99060000Y-83759523D01*
X99483333Y-83759523D02*
X100209047Y-83759523D01*
X99846190Y-85029523D02*
X99846190Y-83759523D01*
X101297619Y-85029523D02*
X100571904Y-85029523D01*
X100934761Y-85029523D02*
X100934761Y-83759523D01*
X100813809Y-83940952D01*
X100692857Y-84061904D01*
X100571904Y-84122380D01*
X102386190Y-83759523D02*
X102144285Y-83759523D01*
X102023333Y-83820000D01*
X101962857Y-83880476D01*
X101841904Y-84061904D01*
X101781428Y-84303809D01*
X101781428Y-84787619D01*
X101841904Y-84908571D01*
X101902380Y-84969047D01*
X102023333Y-85029523D01*
X102265238Y-85029523D01*
X102386190Y-84969047D01*
X102446666Y-84908571D01*
X102507142Y-84787619D01*
X102507142Y-84485238D01*
X102446666Y-84364285D01*
X102386190Y-84303809D01*
X102265238Y-84243333D01*
X102023333Y-84243333D01*
X101902380Y-84303809D01*
X101841904Y-84364285D01*
X101781428Y-84485238D01*
X103051428Y-85029523D02*
X103051428Y-83759523D01*
X103777142Y-85029523D02*
X103232857Y-84303809D01*
X103777142Y-83759523D02*
X103051428Y-84485238D01*
X104200476Y-83759523D02*
X104986666Y-83759523D01*
X104563333Y-84243333D01*
X104744761Y-84243333D01*
X104865714Y-84303809D01*
X104926190Y-84364285D01*
X104986666Y-84485238D01*
X104986666Y-84787619D01*
X104926190Y-84908571D01*
X104865714Y-84969047D01*
X104744761Y-85029523D01*
X104381904Y-85029523D01*
X104260952Y-84969047D01*
X104200476Y-84908571D01*
X105410000Y-83759523D02*
X106196190Y-83759523D01*
X105772857Y-84243333D01*
X105954285Y-84243333D01*
X106075238Y-84303809D01*
X106135714Y-84364285D01*
X106196190Y-84485238D01*
X106196190Y-84787619D01*
X106135714Y-84908571D01*
X106075238Y-84969047D01*
X105954285Y-85029523D01*
X105591428Y-85029523D01*
X105470476Y-84969047D01*
X105410000Y-84908571D01*
%TO.C,U3*%
X60452095Y-73747380D02*
X60452095Y-74556904D01*
X60499714Y-74652142D01*
X60547333Y-74699761D01*
X60642571Y-74747380D01*
X60833047Y-74747380D01*
X60928285Y-74699761D01*
X60975904Y-74652142D01*
X61023523Y-74556904D01*
X61023523Y-73747380D01*
X61404476Y-73747380D02*
X62023523Y-73747380D01*
X61690190Y-74128333D01*
X61833047Y-74128333D01*
X61928285Y-74175952D01*
X61975904Y-74223571D01*
X62023523Y-74318809D01*
X62023523Y-74556904D01*
X61975904Y-74652142D01*
X61928285Y-74699761D01*
X61833047Y-74747380D01*
X61547333Y-74747380D01*
X61452095Y-74699761D01*
X61404476Y-74652142D01*
%TO.C,U2*%
X204557380Y-72516904D02*
X205366904Y-72516904D01*
X205462142Y-72469285D01*
X205509761Y-72421666D01*
X205557380Y-72326428D01*
X205557380Y-72135952D01*
X205509761Y-72040714D01*
X205462142Y-71993095D01*
X205366904Y-71945476D01*
X204557380Y-71945476D01*
X204652619Y-71516904D02*
X204605000Y-71469285D01*
X204557380Y-71374047D01*
X204557380Y-71135952D01*
X204605000Y-71040714D01*
X204652619Y-70993095D01*
X204747857Y-70945476D01*
X204843095Y-70945476D01*
X204985952Y-70993095D01*
X205557380Y-71564523D01*
X205557380Y-70945476D01*
%TO.C,R30*%
X79367142Y-79277380D02*
X79033809Y-78801190D01*
X78795714Y-79277380D02*
X78795714Y-78277380D01*
X79176666Y-78277380D01*
X79271904Y-78325000D01*
X79319523Y-78372619D01*
X79367142Y-78467857D01*
X79367142Y-78610714D01*
X79319523Y-78705952D01*
X79271904Y-78753571D01*
X79176666Y-78801190D01*
X78795714Y-78801190D01*
X79700476Y-78277380D02*
X80319523Y-78277380D01*
X79986190Y-78658333D01*
X80129047Y-78658333D01*
X80224285Y-78705952D01*
X80271904Y-78753571D01*
X80319523Y-78848809D01*
X80319523Y-79086904D01*
X80271904Y-79182142D01*
X80224285Y-79229761D01*
X80129047Y-79277380D01*
X79843333Y-79277380D01*
X79748095Y-79229761D01*
X79700476Y-79182142D01*
X80938571Y-78277380D02*
X81033809Y-78277380D01*
X81129047Y-78325000D01*
X81176666Y-78372619D01*
X81224285Y-78467857D01*
X81271904Y-78658333D01*
X81271904Y-78896428D01*
X81224285Y-79086904D01*
X81176666Y-79182142D01*
X81129047Y-79229761D01*
X81033809Y-79277380D01*
X80938571Y-79277380D01*
X80843333Y-79229761D01*
X80795714Y-79182142D01*
X80748095Y-79086904D01*
X80700476Y-78896428D01*
X80700476Y-78658333D01*
X80748095Y-78467857D01*
X80795714Y-78372619D01*
X80843333Y-78325000D01*
X80938571Y-78277380D01*
%TO.C,R29*%
X79367142Y-65307380D02*
X79033809Y-64831190D01*
X78795714Y-65307380D02*
X78795714Y-64307380D01*
X79176666Y-64307380D01*
X79271904Y-64355000D01*
X79319523Y-64402619D01*
X79367142Y-64497857D01*
X79367142Y-64640714D01*
X79319523Y-64735952D01*
X79271904Y-64783571D01*
X79176666Y-64831190D01*
X78795714Y-64831190D01*
X79748095Y-64402619D02*
X79795714Y-64355000D01*
X79890952Y-64307380D01*
X80129047Y-64307380D01*
X80224285Y-64355000D01*
X80271904Y-64402619D01*
X80319523Y-64497857D01*
X80319523Y-64593095D01*
X80271904Y-64735952D01*
X79700476Y-65307380D01*
X80319523Y-65307380D01*
X80795714Y-65307380D02*
X80986190Y-65307380D01*
X81081428Y-65259761D01*
X81129047Y-65212142D01*
X81224285Y-65069285D01*
X81271904Y-64878809D01*
X81271904Y-64497857D01*
X81224285Y-64402619D01*
X81176666Y-64355000D01*
X81081428Y-64307380D01*
X80890952Y-64307380D01*
X80795714Y-64355000D01*
X80748095Y-64402619D01*
X80700476Y-64497857D01*
X80700476Y-64735952D01*
X80748095Y-64831190D01*
X80795714Y-64878809D01*
X80890952Y-64926428D01*
X81081428Y-64926428D01*
X81176666Y-64878809D01*
X81224285Y-64831190D01*
X81271904Y-64735952D01*
%TO.C,R28*%
X79367142Y-51337380D02*
X79033809Y-50861190D01*
X78795714Y-51337380D02*
X78795714Y-50337380D01*
X79176666Y-50337380D01*
X79271904Y-50385000D01*
X79319523Y-50432619D01*
X79367142Y-50527857D01*
X79367142Y-50670714D01*
X79319523Y-50765952D01*
X79271904Y-50813571D01*
X79176666Y-50861190D01*
X78795714Y-50861190D01*
X79748095Y-50432619D02*
X79795714Y-50385000D01*
X79890952Y-50337380D01*
X80129047Y-50337380D01*
X80224285Y-50385000D01*
X80271904Y-50432619D01*
X80319523Y-50527857D01*
X80319523Y-50623095D01*
X80271904Y-50765952D01*
X79700476Y-51337380D01*
X80319523Y-51337380D01*
X80890952Y-50765952D02*
X80795714Y-50718333D01*
X80748095Y-50670714D01*
X80700476Y-50575476D01*
X80700476Y-50527857D01*
X80748095Y-50432619D01*
X80795714Y-50385000D01*
X80890952Y-50337380D01*
X81081428Y-50337380D01*
X81176666Y-50385000D01*
X81224285Y-50432619D01*
X81271904Y-50527857D01*
X81271904Y-50575476D01*
X81224285Y-50670714D01*
X81176666Y-50718333D01*
X81081428Y-50765952D01*
X80890952Y-50765952D01*
X80795714Y-50813571D01*
X80748095Y-50861190D01*
X80700476Y-50956428D01*
X80700476Y-51146904D01*
X80748095Y-51242142D01*
X80795714Y-51289761D01*
X80890952Y-51337380D01*
X81081428Y-51337380D01*
X81176666Y-51289761D01*
X81224285Y-51242142D01*
X81271904Y-51146904D01*
X81271904Y-50956428D01*
X81224285Y-50861190D01*
X81176666Y-50813571D01*
X81081428Y-50765952D01*
%TO.C,R8*%
X122922380Y-87161666D02*
X122446190Y-87495000D01*
X122922380Y-87733095D02*
X121922380Y-87733095D01*
X121922380Y-87352142D01*
X121970000Y-87256904D01*
X122017619Y-87209285D01*
X122112857Y-87161666D01*
X122255714Y-87161666D01*
X122350952Y-87209285D01*
X122398571Y-87256904D01*
X122446190Y-87352142D01*
X122446190Y-87733095D01*
X122350952Y-86590238D02*
X122303333Y-86685476D01*
X122255714Y-86733095D01*
X122160476Y-86780714D01*
X122112857Y-86780714D01*
X122017619Y-86733095D01*
X121970000Y-86685476D01*
X121922380Y-86590238D01*
X121922380Y-86399761D01*
X121970000Y-86304523D01*
X122017619Y-86256904D01*
X122112857Y-86209285D01*
X122160476Y-86209285D01*
X122255714Y-86256904D01*
X122303333Y-86304523D01*
X122350952Y-86399761D01*
X122350952Y-86590238D01*
X122398571Y-86685476D01*
X122446190Y-86733095D01*
X122541428Y-86780714D01*
X122731904Y-86780714D01*
X122827142Y-86733095D01*
X122874761Y-86685476D01*
X122922380Y-86590238D01*
X122922380Y-86399761D01*
X122874761Y-86304523D01*
X122827142Y-86256904D01*
X122731904Y-86209285D01*
X122541428Y-86209285D01*
X122446190Y-86256904D01*
X122398571Y-86304523D01*
X122350952Y-86399761D01*
%TO.C,R7*%
X119112380Y-87161666D02*
X118636190Y-87495000D01*
X119112380Y-87733095D02*
X118112380Y-87733095D01*
X118112380Y-87352142D01*
X118160000Y-87256904D01*
X118207619Y-87209285D01*
X118302857Y-87161666D01*
X118445714Y-87161666D01*
X118540952Y-87209285D01*
X118588571Y-87256904D01*
X118636190Y-87352142D01*
X118636190Y-87733095D01*
X118112380Y-86828333D02*
X118112380Y-86161666D01*
X119112380Y-86590238D01*
%TO.C,R6*%
X189698333Y-87362380D02*
X189365000Y-86886190D01*
X189126904Y-87362380D02*
X189126904Y-86362380D01*
X189507857Y-86362380D01*
X189603095Y-86410000D01*
X189650714Y-86457619D01*
X189698333Y-86552857D01*
X189698333Y-86695714D01*
X189650714Y-86790952D01*
X189603095Y-86838571D01*
X189507857Y-86886190D01*
X189126904Y-86886190D01*
X190555476Y-86362380D02*
X190365000Y-86362380D01*
X190269761Y-86410000D01*
X190222142Y-86457619D01*
X190126904Y-86600476D01*
X190079285Y-86790952D01*
X190079285Y-87171904D01*
X190126904Y-87267142D01*
X190174523Y-87314761D01*
X190269761Y-87362380D01*
X190460238Y-87362380D01*
X190555476Y-87314761D01*
X190603095Y-87267142D01*
X190650714Y-87171904D01*
X190650714Y-86933809D01*
X190603095Y-86838571D01*
X190555476Y-86790952D01*
X190460238Y-86743333D01*
X190269761Y-86743333D01*
X190174523Y-86790952D01*
X190126904Y-86838571D01*
X190079285Y-86933809D01*
%TO.C,R5*%
X195693333Y-95152380D02*
X195360000Y-94676190D01*
X195121904Y-95152380D02*
X195121904Y-94152380D01*
X195502857Y-94152380D01*
X195598095Y-94200000D01*
X195645714Y-94247619D01*
X195693333Y-94342857D01*
X195693333Y-94485714D01*
X195645714Y-94580952D01*
X195598095Y-94628571D01*
X195502857Y-94676190D01*
X195121904Y-94676190D01*
X196598095Y-94152380D02*
X196121904Y-94152380D01*
X196074285Y-94628571D01*
X196121904Y-94580952D01*
X196217142Y-94533333D01*
X196455238Y-94533333D01*
X196550476Y-94580952D01*
X196598095Y-94628571D01*
X196645714Y-94723809D01*
X196645714Y-94961904D01*
X196598095Y-95057142D01*
X196550476Y-95104761D01*
X196455238Y-95152380D01*
X196217142Y-95152380D01*
X196121904Y-95104761D01*
X196074285Y-95057142D01*
%TO.C,R4*%
X66492380Y-62676666D02*
X66016190Y-63010000D01*
X66492380Y-63248095D02*
X65492380Y-63248095D01*
X65492380Y-62867142D01*
X65540000Y-62771904D01*
X65587619Y-62724285D01*
X65682857Y-62676666D01*
X65825714Y-62676666D01*
X65920952Y-62724285D01*
X65968571Y-62771904D01*
X66016190Y-62867142D01*
X66016190Y-63248095D01*
X65825714Y-61819523D02*
X66492380Y-61819523D01*
X65444761Y-62057619D02*
X66159047Y-62295714D01*
X66159047Y-61676666D01*
%TO.C,R3*%
X57306380Y-62676666D02*
X56830190Y-63010000D01*
X57306380Y-63248095D02*
X56306380Y-63248095D01*
X56306380Y-62867142D01*
X56354000Y-62771904D01*
X56401619Y-62724285D01*
X56496857Y-62676666D01*
X56639714Y-62676666D01*
X56734952Y-62724285D01*
X56782571Y-62771904D01*
X56830190Y-62867142D01*
X56830190Y-63248095D01*
X56306380Y-62343333D02*
X56306380Y-61724285D01*
X56687333Y-62057619D01*
X56687333Y-61914761D01*
X56734952Y-61819523D01*
X56782571Y-61771904D01*
X56877809Y-61724285D01*
X57115904Y-61724285D01*
X57211142Y-61771904D01*
X57258761Y-61819523D01*
X57306380Y-61914761D01*
X57306380Y-62200476D01*
X57258761Y-62295714D01*
X57211142Y-62343333D01*
%TO.C,R2*%
X69048333Y-58872380D02*
X68715000Y-58396190D01*
X68476904Y-58872380D02*
X68476904Y-57872380D01*
X68857857Y-57872380D01*
X68953095Y-57920000D01*
X69000714Y-57967619D01*
X69048333Y-58062857D01*
X69048333Y-58205714D01*
X69000714Y-58300952D01*
X68953095Y-58348571D01*
X68857857Y-58396190D01*
X68476904Y-58396190D01*
X69429285Y-57967619D02*
X69476904Y-57920000D01*
X69572142Y-57872380D01*
X69810238Y-57872380D01*
X69905476Y-57920000D01*
X69953095Y-57967619D01*
X70000714Y-58062857D01*
X70000714Y-58158095D01*
X69953095Y-58300952D01*
X69381666Y-58872380D01*
X70000714Y-58872380D01*
%TO.C,R1*%
X168727380Y-83986666D02*
X168251190Y-84320000D01*
X168727380Y-84558095D02*
X167727380Y-84558095D01*
X167727380Y-84177142D01*
X167775000Y-84081904D01*
X167822619Y-84034285D01*
X167917857Y-83986666D01*
X168060714Y-83986666D01*
X168155952Y-84034285D01*
X168203571Y-84081904D01*
X168251190Y-84177142D01*
X168251190Y-84558095D01*
X168727380Y-83034285D02*
X168727380Y-83605714D01*
X168727380Y-83320000D02*
X167727380Y-83320000D01*
X167870238Y-83415238D01*
X167965476Y-83510476D01*
X168013095Y-83605714D01*
%TO.C,J5*%
X188261666Y-62317380D02*
X188261666Y-63031666D01*
X188214047Y-63174523D01*
X188118809Y-63269761D01*
X187975952Y-63317380D01*
X187880714Y-63317380D01*
X189214047Y-62317380D02*
X188737857Y-62317380D01*
X188690238Y-62793571D01*
X188737857Y-62745952D01*
X188833095Y-62698333D01*
X189071190Y-62698333D01*
X189166428Y-62745952D01*
X189214047Y-62793571D01*
X189261666Y-62888809D01*
X189261666Y-63126904D01*
X189214047Y-63222142D01*
X189166428Y-63269761D01*
X189071190Y-63317380D01*
X188833095Y-63317380D01*
X188737857Y-63269761D01*
X188690238Y-63222142D01*
%TO.C,J3*%
X70151666Y-50252380D02*
X70151666Y-50966666D01*
X70104047Y-51109523D01*
X70008809Y-51204761D01*
X69865952Y-51252380D01*
X69770714Y-51252380D01*
X70532619Y-50252380D02*
X71151666Y-50252380D01*
X70818333Y-50633333D01*
X70961190Y-50633333D01*
X71056428Y-50680952D01*
X71104047Y-50728571D01*
X71151666Y-50823809D01*
X71151666Y-51061904D01*
X71104047Y-51157142D01*
X71056428Y-51204761D01*
X70961190Y-51252380D01*
X70675476Y-51252380D01*
X70580238Y-51204761D01*
X70532619Y-51157142D01*
%TO.C,FB1*%
X179776666Y-72573571D02*
X179443333Y-72573571D01*
X179443333Y-73097380D02*
X179443333Y-72097380D01*
X179919523Y-72097380D01*
X180633809Y-72573571D02*
X180776666Y-72621190D01*
X180824285Y-72668809D01*
X180871904Y-72764047D01*
X180871904Y-72906904D01*
X180824285Y-73002142D01*
X180776666Y-73049761D01*
X180681428Y-73097380D01*
X180300476Y-73097380D01*
X180300476Y-72097380D01*
X180633809Y-72097380D01*
X180729047Y-72145000D01*
X180776666Y-72192619D01*
X180824285Y-72287857D01*
X180824285Y-72383095D01*
X180776666Y-72478333D01*
X180729047Y-72525952D01*
X180633809Y-72573571D01*
X180300476Y-72573571D01*
X181824285Y-73097380D02*
X181252857Y-73097380D01*
X181538571Y-73097380D02*
X181538571Y-72097380D01*
X181443333Y-72240238D01*
X181348095Y-72335476D01*
X181252857Y-72383095D01*
%TO.C,D4*%
X191467380Y-72493095D02*
X190467380Y-72493095D01*
X190467380Y-72255000D01*
X190515000Y-72112142D01*
X190610238Y-72016904D01*
X190705476Y-71969285D01*
X190895952Y-71921666D01*
X191038809Y-71921666D01*
X191229285Y-71969285D01*
X191324523Y-72016904D01*
X191419761Y-72112142D01*
X191467380Y-72255000D01*
X191467380Y-72493095D01*
X190800714Y-71064523D02*
X191467380Y-71064523D01*
X190419761Y-71302619D02*
X191134047Y-71540714D01*
X191134047Y-70921666D01*
X191047380Y-69476904D02*
X190047380Y-69476904D01*
X191047380Y-68905476D02*
X190475952Y-69334047D01*
X190047380Y-68905476D02*
X190618809Y-69476904D01*
%TO.C,D1*%
X189126904Y-80082380D02*
X189126904Y-79082380D01*
X189365000Y-79082380D01*
X189507857Y-79130000D01*
X189603095Y-79225238D01*
X189650714Y-79320476D01*
X189698333Y-79510952D01*
X189698333Y-79653809D01*
X189650714Y-79844285D01*
X189603095Y-79939523D01*
X189507857Y-80034761D01*
X189365000Y-80082380D01*
X189126904Y-80082380D01*
X190650714Y-80082380D02*
X190079285Y-80082380D01*
X190365000Y-80082380D02*
X190365000Y-79082380D01*
X190269761Y-79225238D01*
X190174523Y-79320476D01*
X190079285Y-79368095D01*
%TO.C,C12*%
X64902142Y-92717857D02*
X64949761Y-92765476D01*
X64997380Y-92908333D01*
X64997380Y-93003571D01*
X64949761Y-93146428D01*
X64854523Y-93241666D01*
X64759285Y-93289285D01*
X64568809Y-93336904D01*
X64425952Y-93336904D01*
X64235476Y-93289285D01*
X64140238Y-93241666D01*
X64045000Y-93146428D01*
X63997380Y-93003571D01*
X63997380Y-92908333D01*
X64045000Y-92765476D01*
X64092619Y-92717857D01*
X64997380Y-91765476D02*
X64997380Y-92336904D01*
X64997380Y-92051190D02*
X63997380Y-92051190D01*
X64140238Y-92146428D01*
X64235476Y-92241666D01*
X64283095Y-92336904D01*
X64092619Y-91384523D02*
X64045000Y-91336904D01*
X63997380Y-91241666D01*
X63997380Y-91003571D01*
X64045000Y-90908333D01*
X64092619Y-90860714D01*
X64187857Y-90813095D01*
X64283095Y-90813095D01*
X64425952Y-90860714D01*
X64997380Y-91432142D01*
X64997380Y-90813095D01*
%TO.C,C11*%
X112752142Y-85097857D02*
X112799761Y-85145476D01*
X112847380Y-85288333D01*
X112847380Y-85383571D01*
X112799761Y-85526428D01*
X112704523Y-85621666D01*
X112609285Y-85669285D01*
X112418809Y-85716904D01*
X112275952Y-85716904D01*
X112085476Y-85669285D01*
X111990238Y-85621666D01*
X111895000Y-85526428D01*
X111847380Y-85383571D01*
X111847380Y-85288333D01*
X111895000Y-85145476D01*
X111942619Y-85097857D01*
X112847380Y-84145476D02*
X112847380Y-84716904D01*
X112847380Y-84431190D02*
X111847380Y-84431190D01*
X111990238Y-84526428D01*
X112085476Y-84621666D01*
X112133095Y-84716904D01*
X112847380Y-83193095D02*
X112847380Y-83764523D01*
X112847380Y-83478809D02*
X111847380Y-83478809D01*
X111990238Y-83574047D01*
X112085476Y-83669285D01*
X112133095Y-83764523D01*
%TO.C,C10*%
X65418642Y-65987142D02*
X65371023Y-66034761D01*
X65228166Y-66082380D01*
X65132928Y-66082380D01*
X64990071Y-66034761D01*
X64894833Y-65939523D01*
X64847214Y-65844285D01*
X64799595Y-65653809D01*
X64799595Y-65510952D01*
X64847214Y-65320476D01*
X64894833Y-65225238D01*
X64990071Y-65130000D01*
X65132928Y-65082380D01*
X65228166Y-65082380D01*
X65371023Y-65130000D01*
X65418642Y-65177619D01*
X66371023Y-66082380D02*
X65799595Y-66082380D01*
X66085309Y-66082380D02*
X66085309Y-65082380D01*
X65990071Y-65225238D01*
X65894833Y-65320476D01*
X65799595Y-65368095D01*
X66990071Y-65082380D02*
X67085309Y-65082380D01*
X67180547Y-65130000D01*
X67228166Y-65177619D01*
X67275785Y-65272857D01*
X67323404Y-65463333D01*
X67323404Y-65701428D01*
X67275785Y-65891904D01*
X67228166Y-65987142D01*
X67180547Y-66034761D01*
X67085309Y-66082380D01*
X66990071Y-66082380D01*
X66894833Y-66034761D01*
X66847214Y-65987142D01*
X66799595Y-65891904D01*
X66751976Y-65701428D01*
X66751976Y-65463333D01*
X66799595Y-65272857D01*
X66847214Y-65177619D01*
X66894833Y-65130000D01*
X66990071Y-65082380D01*
%TO.C,C9*%
X60814833Y-65987142D02*
X60767214Y-66034761D01*
X60624357Y-66082380D01*
X60529119Y-66082380D01*
X60386261Y-66034761D01*
X60291023Y-65939523D01*
X60243404Y-65844285D01*
X60195785Y-65653809D01*
X60195785Y-65510952D01*
X60243404Y-65320476D01*
X60291023Y-65225238D01*
X60386261Y-65130000D01*
X60529119Y-65082380D01*
X60624357Y-65082380D01*
X60767214Y-65130000D01*
X60814833Y-65177619D01*
X61291023Y-66082380D02*
X61481500Y-66082380D01*
X61576738Y-66034761D01*
X61624357Y-65987142D01*
X61719595Y-65844285D01*
X61767214Y-65653809D01*
X61767214Y-65272857D01*
X61719595Y-65177619D01*
X61671976Y-65130000D01*
X61576738Y-65082380D01*
X61386261Y-65082380D01*
X61291023Y-65130000D01*
X61243404Y-65177619D01*
X61195785Y-65272857D01*
X61195785Y-65510952D01*
X61243404Y-65606190D01*
X61291023Y-65653809D01*
X61386261Y-65701428D01*
X61576738Y-65701428D01*
X61671976Y-65653809D01*
X61719595Y-65606190D01*
X61767214Y-65510952D01*
%TO.C,C8*%
X55967333Y-65987142D02*
X55919714Y-66034761D01*
X55776857Y-66082380D01*
X55681619Y-66082380D01*
X55538761Y-66034761D01*
X55443523Y-65939523D01*
X55395904Y-65844285D01*
X55348285Y-65653809D01*
X55348285Y-65510952D01*
X55395904Y-65320476D01*
X55443523Y-65225238D01*
X55538761Y-65130000D01*
X55681619Y-65082380D01*
X55776857Y-65082380D01*
X55919714Y-65130000D01*
X55967333Y-65177619D01*
X56538761Y-65510952D02*
X56443523Y-65463333D01*
X56395904Y-65415714D01*
X56348285Y-65320476D01*
X56348285Y-65272857D01*
X56395904Y-65177619D01*
X56443523Y-65130000D01*
X56538761Y-65082380D01*
X56729238Y-65082380D01*
X56824476Y-65130000D01*
X56872095Y-65177619D01*
X56919714Y-65272857D01*
X56919714Y-65320476D01*
X56872095Y-65415714D01*
X56824476Y-65463333D01*
X56729238Y-65510952D01*
X56538761Y-65510952D01*
X56443523Y-65558571D01*
X56395904Y-65606190D01*
X56348285Y-65701428D01*
X56348285Y-65891904D01*
X56395904Y-65987142D01*
X56443523Y-66034761D01*
X56538761Y-66082380D01*
X56729238Y-66082380D01*
X56824476Y-66034761D01*
X56872095Y-65987142D01*
X56919714Y-65891904D01*
X56919714Y-65701428D01*
X56872095Y-65606190D01*
X56824476Y-65558571D01*
X56729238Y-65510952D01*
%TO.C,C7*%
X70207142Y-75731666D02*
X70254761Y-75779285D01*
X70302380Y-75922142D01*
X70302380Y-76017380D01*
X70254761Y-76160238D01*
X70159523Y-76255476D01*
X70064285Y-76303095D01*
X69873809Y-76350714D01*
X69730952Y-76350714D01*
X69540476Y-76303095D01*
X69445238Y-76255476D01*
X69350000Y-76160238D01*
X69302380Y-76017380D01*
X69302380Y-75922142D01*
X69350000Y-75779285D01*
X69397619Y-75731666D01*
X69302380Y-75398333D02*
X69302380Y-74731666D01*
X70302380Y-75160238D01*
%TO.C,C6*%
X67032142Y-75731666D02*
X67079761Y-75779285D01*
X67127380Y-75922142D01*
X67127380Y-76017380D01*
X67079761Y-76160238D01*
X66984523Y-76255476D01*
X66889285Y-76303095D01*
X66698809Y-76350714D01*
X66555952Y-76350714D01*
X66365476Y-76303095D01*
X66270238Y-76255476D01*
X66175000Y-76160238D01*
X66127380Y-76017380D01*
X66127380Y-75922142D01*
X66175000Y-75779285D01*
X66222619Y-75731666D01*
X66127380Y-74874523D02*
X66127380Y-75065000D01*
X66175000Y-75160238D01*
X66222619Y-75207857D01*
X66365476Y-75303095D01*
X66555952Y-75350714D01*
X66936904Y-75350714D01*
X67032142Y-75303095D01*
X67079761Y-75255476D01*
X67127380Y-75160238D01*
X67127380Y-74969761D01*
X67079761Y-74874523D01*
X67032142Y-74826904D01*
X66936904Y-74779285D01*
X66698809Y-74779285D01*
X66603571Y-74826904D01*
X66555952Y-74874523D01*
X66508333Y-74969761D01*
X66508333Y-75160238D01*
X66555952Y-75255476D01*
X66603571Y-75303095D01*
X66698809Y-75350714D01*
%TO.C,C4*%
X185777142Y-78271666D02*
X185824761Y-78319285D01*
X185872380Y-78462142D01*
X185872380Y-78557380D01*
X185824761Y-78700238D01*
X185729523Y-78795476D01*
X185634285Y-78843095D01*
X185443809Y-78890714D01*
X185300952Y-78890714D01*
X185110476Y-78843095D01*
X185015238Y-78795476D01*
X184920000Y-78700238D01*
X184872380Y-78557380D01*
X184872380Y-78462142D01*
X184920000Y-78319285D01*
X184967619Y-78271666D01*
X185205714Y-77414523D02*
X185872380Y-77414523D01*
X184824761Y-77652619D02*
X185539047Y-77890714D01*
X185539047Y-77271666D01*
%TO.C,C3*%
X196048333Y-67667142D02*
X196000714Y-67714761D01*
X195857857Y-67762380D01*
X195762619Y-67762380D01*
X195619761Y-67714761D01*
X195524523Y-67619523D01*
X195476904Y-67524285D01*
X195429285Y-67333809D01*
X195429285Y-67190952D01*
X195476904Y-67000476D01*
X195524523Y-66905238D01*
X195619761Y-66810000D01*
X195762619Y-66762380D01*
X195857857Y-66762380D01*
X196000714Y-66810000D01*
X196048333Y-66857619D01*
X196381666Y-66762380D02*
X197000714Y-66762380D01*
X196667380Y-67143333D01*
X196810238Y-67143333D01*
X196905476Y-67190952D01*
X196953095Y-67238571D01*
X197000714Y-67333809D01*
X197000714Y-67571904D01*
X196953095Y-67667142D01*
X196905476Y-67714761D01*
X196810238Y-67762380D01*
X196524523Y-67762380D01*
X196429285Y-67714761D01*
X196381666Y-67667142D01*
%TO.C,C2*%
X186412142Y-97321666D02*
X186459761Y-97369285D01*
X186507380Y-97512142D01*
X186507380Y-97607380D01*
X186459761Y-97750238D01*
X186364523Y-97845476D01*
X186269285Y-97893095D01*
X186078809Y-97940714D01*
X185935952Y-97940714D01*
X185745476Y-97893095D01*
X185650238Y-97845476D01*
X185555000Y-97750238D01*
X185507380Y-97607380D01*
X185507380Y-97512142D01*
X185555000Y-97369285D01*
X185602619Y-97321666D01*
X185602619Y-96940714D02*
X185555000Y-96893095D01*
X185507380Y-96797857D01*
X185507380Y-96559761D01*
X185555000Y-96464523D01*
X185602619Y-96416904D01*
X185697857Y-96369285D01*
X185793095Y-96369285D01*
X185935952Y-96416904D01*
X186507380Y-96988333D01*
X186507380Y-96369285D01*
%TO.C,C1*%
X182602142Y-97321666D02*
X182649761Y-97369285D01*
X182697380Y-97512142D01*
X182697380Y-97607380D01*
X182649761Y-97750238D01*
X182554523Y-97845476D01*
X182459285Y-97893095D01*
X182268809Y-97940714D01*
X182125952Y-97940714D01*
X181935476Y-97893095D01*
X181840238Y-97845476D01*
X181745000Y-97750238D01*
X181697380Y-97607380D01*
X181697380Y-97512142D01*
X181745000Y-97369285D01*
X181792619Y-97321666D01*
X182697380Y-96369285D02*
X182697380Y-96940714D01*
X182697380Y-96655000D02*
X181697380Y-96655000D01*
X181840238Y-96750238D01*
X181935476Y-96845476D01*
X181983095Y-96940714D01*
%TD*%
M02*
