%TF.GenerationSoftware,KiCad,Pcbnew,(5.1.9)-1*%
%TF.CreationDate,2021-09-06T15:07:46-04:00*%
%TF.ProjectId,PCB Heater,50434220-4865-4617-9465-722e6b696361,rev?*%
%TF.SameCoordinates,Original*%
%TF.FileFunction,Soldermask,Bot*%
%TF.FilePolarity,Negative*%
%FSLAX46Y46*%
G04 Gerber Fmt 4.6, Leading zero omitted, Abs format (unit mm)*
G04 Created by KiCad (PCBNEW (5.1.9)-1) date 2021-09-06 15:07:46*
%MOMM*%
%LPD*%
G01*
G04 APERTURE LIST*
%ADD10C,3.200000*%
%ADD11C,2.000000*%
%ADD12R,2.000000X2.000000*%
%ADD13O,1.700000X1.700000*%
%ADD14R,1.700000X1.700000*%
%ADD15C,3.000000*%
%ADD16R,2.800000X1.500000*%
%ADD17C,1.100000*%
%ADD18C,1.600000*%
%ADD19R,1.500000X0.700000*%
%ADD20R,1.500000X1.000000*%
%ADD21C,2.300000*%
%ADD22O,2.000000X2.000000*%
G04 APERTURE END LIST*
D10*
%TO.C,H3*%
X229870000Y-49530000D03*
%TD*%
%TO.C,H4*%
X229870000Y-99695000D03*
%TD*%
%TO.C,H1*%
X53340000Y-99695000D03*
%TD*%
%TO.C,H2*%
X53340000Y-49530000D03*
%TD*%
D11*
%TO.C,DS3*%
X97790000Y-68580000D03*
X100330000Y-68580000D03*
X102870000Y-68580000D03*
X105410000Y-68580000D03*
X107950000Y-68580000D03*
X110490000Y-68580000D03*
X110490000Y-53340000D03*
X107950000Y-53340000D03*
X105410000Y-53340000D03*
X102870000Y-53340000D03*
X100330000Y-53340000D03*
D12*
X97790000Y-53340000D03*
%TD*%
D11*
%TO.C,SW3*%
X77470000Y-83670000D03*
X72970000Y-83670000D03*
X77470000Y-90170000D03*
X72970000Y-90170000D03*
%TD*%
%TO.C,SW2*%
X77470000Y-69700000D03*
X72970000Y-69700000D03*
X77470000Y-76200000D03*
X72970000Y-76200000D03*
%TD*%
%TO.C,SW1*%
X77470000Y-55730000D03*
X72970000Y-55730000D03*
X77470000Y-62230000D03*
X72970000Y-62230000D03*
%TD*%
D13*
%TO.C,RV1*%
X59055000Y-93345000D03*
X59055000Y-90805000D03*
D14*
X59055000Y-88265000D03*
%TD*%
D13*
%TO.C,J7*%
X201930000Y-99060000D03*
X201930000Y-96520000D03*
D14*
X201930000Y-93980000D03*
%TD*%
D15*
%TO.C,J5*%
X202890000Y-53975000D03*
X193360000Y-53975000D03*
X183830000Y-53975000D03*
X174300000Y-53975000D03*
%TD*%
D16*
%TO.C,J4*%
X209535000Y-67630000D03*
X231035000Y-67630000D03*
X231035000Y-94930000D03*
X209535000Y-92730000D03*
D17*
X210535000Y-69780000D03*
D18*
X210535000Y-90780000D03*
D19*
X207735000Y-69025000D03*
X207735000Y-70225000D03*
D20*
X207735000Y-90655000D03*
X207735000Y-71525000D03*
X207735000Y-73225000D03*
X207735000Y-75655000D03*
X207735000Y-78155000D03*
X207735000Y-80655000D03*
X207735000Y-83155000D03*
X207735000Y-85655000D03*
X207735000Y-88155000D03*
%TD*%
D21*
%TO.C,J3*%
X61595000Y-50800000D03*
X66675000Y-50800000D03*
%TD*%
D11*
%TO.C,DS2*%
X140970000Y-91440000D03*
X143510000Y-91440000D03*
X146050000Y-91440000D03*
X148590000Y-91440000D03*
X151130000Y-91440000D03*
X153670000Y-91440000D03*
X153670000Y-76200000D03*
X151130000Y-76200000D03*
X148590000Y-76200000D03*
X146050000Y-76200000D03*
X143510000Y-76200000D03*
D12*
X140970000Y-76200000D03*
%TD*%
D11*
%TO.C,DS1*%
X140970000Y-68580000D03*
X143510000Y-68580000D03*
X146050000Y-68580000D03*
X148590000Y-68580000D03*
X151130000Y-68580000D03*
X153670000Y-68580000D03*
X153670000Y-53340000D03*
X151130000Y-53340000D03*
X148590000Y-53340000D03*
X146050000Y-53340000D03*
X143510000Y-53340000D03*
D12*
X140970000Y-53340000D03*
%TD*%
D22*
%TO.C,D4*%
X188595000Y-74295000D03*
D12*
X188595000Y-69215000D03*
%TD*%
M02*
