M48
; DRILL file {KiCad (5.1.9)-1} date 09/06/21 15:08:02
; FORMAT={-:-/ absolute / inch / decimal}
; #@! TF.CreationDate,2021-09-06T15:08:02-04:00
; #@! TF.GenerationSoftware,Kicad,Pcbnew,(5.1.9)-1
; #@! TF.FileFunction,Plated,1,2,PTH
FMAT,2
INCH
T1C0.0157
T2C0.0197
T3C0.0394
T4C0.0433
T5C0.0512
T6C0.0709
%
G90
G05
T1
X3.32Y-3.655
X3.425Y-3.2
X3.425Y-3.275
X3.45Y-3.15
X3.45Y-3.625
X3.55Y-2.7
X3.575Y-2.5
X3.6Y-3.475
X3.675Y-3.325
X3.675Y-3.425
X3.675Y-3.375
X3.83Y-3.945
X3.85Y-3.9
X3.95Y-2.875
X3.995Y-3.935
X4.0Y-3.6
X4.075Y-3.625
X4.1Y-3.05
X4.1Y-3.225
X4.15Y-3.075
X4.15Y-3.65
X4.175Y-3.9
X4.25Y-3.9
X4.475Y-2.975
X4.475Y-3.125
X4.6Y-3.025
X4.9Y-3.725
X5.0Y-2.55
X5.2Y-3.88
X5.25Y-2.5
X5.3Y-2.55
X5.3246Y-3.7996
X5.41Y-3.92
X5.495Y-3.91
X5.65Y-3.675
X5.7278Y-3.6778
X6.45Y-3.925
X6.525Y-3.925
X6.575Y-3.8
X6.65Y-3.8
X7.275Y-3.475
X7.325Y-3.525
X7.475Y-3.6
X7.725Y-3.475
X7.8Y-3.475
X7.875Y-3.475
X8.1Y-3.175
T2
X2.41Y-2.225
X2.685Y-2.98
X2.725Y-3.9
X2.815Y-2.58
X2.98Y-2.585
X3.3Y-3.825
X3.625Y-3.15
X3.675Y-2.75
X3.775Y-2.4
X3.875Y-2.975
X4.075Y-2.825
X4.175Y-2.3
X4.2Y-2.925
X4.2Y-3.35
X4.7Y-3.225
X4.75Y-3.65
X5.0Y-3.775
X5.225Y-2.975
X5.365Y-3.71
X5.575Y-2.6
X5.75Y-2.325
X5.9Y-3.25
X6.025Y-3.925
X6.325Y-3.2
X6.475Y-3.575
X6.9Y-3.175
X7.075Y-3.325
X7.2Y-3.025
X7.25Y-3.2
X7.25Y-3.8
X7.575Y-2.825
X7.725Y-3.025
X7.725Y-3.2
X7.9Y-2.65
X7.9Y-3.0
X8.05Y-3.3
X8.075Y-3.625
T3
X2.325Y-3.475
X2.325Y-3.575
X2.325Y-3.675
X3.85Y-2.1
X3.85Y-2.7
X3.95Y-2.1
X3.95Y-2.7
X4.05Y-2.1
X4.05Y-2.7
X4.15Y-2.1
X4.15Y-2.7
X4.25Y-2.1
X4.25Y-2.7
X4.35Y-2.1
X4.35Y-2.7
X5.55Y-2.1
X5.55Y-2.7
X5.55Y-3.0
X5.55Y-3.6
X5.65Y-2.1
X5.65Y-2.7
X5.65Y-3.0
X5.65Y-3.6
X5.75Y-2.1
X5.75Y-2.7
X5.75Y-3.0
X5.75Y-3.6
X5.85Y-2.1
X5.85Y-2.7
X5.85Y-3.0
X5.85Y-3.6
X5.95Y-2.1
X5.95Y-2.7
X5.95Y-3.0
X5.95Y-3.6
X6.05Y-2.1
X6.05Y-2.7
X6.05Y-3.0
X6.05Y-3.6
X7.425Y-2.725
X7.425Y-2.925
X7.95Y-3.7
X7.95Y-3.8
X7.95Y-3.9
T4
X2.8728Y-2.1941
X2.8728Y-2.45
X2.8728Y-2.7441
X2.8728Y-3.0
X2.8728Y-3.2941
X2.8728Y-3.55
X3.05Y-2.1941
X3.05Y-2.45
X3.05Y-2.7441
X3.05Y-3.0
X3.05Y-3.2941
X3.05Y-3.55
T5
X2.425Y-2.0
X2.625Y-2.0
T6
X6.8622Y-2.125
X7.2374Y-2.125
X7.6126Y-2.125
X7.9878Y-2.125
T0
M30
